<svg width="388" height="186" viewBox="0 0 388 186" fill="none" xmlns="http://www.w3.org/2000/svg">
<g filter="url(#filter0_d)">
<rect x="14" y="14" width="360" height="158" rx="10" fill="#034EA2"/>
</g>
<path d="M175.524 55.18C174.252 55.18 173.1 54.904 172.068 54.352C171.048 53.788 170.244 53.014 169.656 52.03C169.08 51.046 168.792 49.936 168.792 48.7C168.792 47.464 169.086 46.354 169.674 45.37C170.262 44.386 171.066 43.618 172.086 43.066C173.118 42.502 174.27 42.22 175.542 42.22C176.574 42.22 177.516 42.4 178.368 42.76C179.22 43.12 179.94 43.642 180.528 44.326L179.016 45.748C178.104 44.764 176.982 44.272 175.65 44.272C174.786 44.272 174.012 44.464 173.328 44.848C172.644 45.22 172.11 45.742 171.726 46.414C171.342 47.086 171.15 47.848 171.15 48.7C171.15 49.552 171.342 50.314 171.726 50.986C172.11 51.658 172.644 52.186 173.328 52.57C174.012 52.942 174.786 53.128 175.65 53.128C176.982 53.128 178.104 52.63 179.016 51.634L180.528 53.074C179.94 53.758 179.214 54.28 178.35 54.64C177.498 55 176.556 55.18 175.524 55.18ZM186.883 55.126C185.911 55.126 185.035 54.916 184.255 54.496C183.475 54.076 182.863 53.494 182.419 52.75C181.987 51.994 181.771 51.142 181.771 50.194C181.771 49.246 181.987 48.4 182.419 47.656C182.863 46.912 183.475 46.33 184.255 45.91C185.035 45.49 185.911 45.28 186.883 45.28C187.867 45.28 188.749 45.49 189.529 45.91C190.309 46.33 190.915 46.912 191.347 47.656C191.791 48.4 192.013 49.246 192.013 50.194C192.013 51.142 191.791 51.994 191.347 52.75C190.915 53.494 190.309 54.076 189.529 54.496C188.749 54.916 187.867 55.126 186.883 55.126ZM186.883 53.2C187.711 53.2 188.395 52.924 188.935 52.372C189.475 51.82 189.745 51.094 189.745 50.194C189.745 49.294 189.475 48.568 188.935 48.016C188.395 47.464 187.711 47.188 186.883 47.188C186.055 47.188 185.371 47.464 184.831 48.016C184.303 48.568 184.039 49.294 184.039 50.194C184.039 51.094 184.303 51.82 184.831 52.372C185.371 52.924 186.055 53.2 186.883 53.2ZM206.656 45.28C207.868 45.28 208.828 45.634 209.536 46.342C210.244 47.038 210.598 48.088 210.598 49.492V55H208.348V49.78C208.348 48.94 208.162 48.31 207.79 47.89C207.418 47.458 206.884 47.242 206.188 47.242C205.432 47.242 204.826 47.494 204.37 47.998C203.914 48.49 203.686 49.198 203.686 50.122V55H201.436V49.78C201.436 48.94 201.25 48.31 200.878 47.89C200.506 47.458 199.972 47.242 199.276 47.242C198.508 47.242 197.896 47.488 197.44 47.98C196.996 48.472 196.774 49.186 196.774 50.122V55H194.524V45.388H196.666V46.612C197.026 46.18 197.476 45.85 198.016 45.622C198.556 45.394 199.156 45.28 199.816 45.28C200.536 45.28 201.172 45.418 201.724 45.694C202.288 45.958 202.732 46.354 203.056 46.882C203.452 46.378 203.962 45.988 204.586 45.712C205.21 45.424 205.9 45.28 206.656 45.28ZM219.161 45.28C220.097 45.28 220.931 45.484 221.663 45.892C222.407 46.3 222.989 46.876 223.409 47.62C223.829 48.364 224.039 49.222 224.039 50.194C224.039 51.166 223.829 52.03 223.409 52.786C222.989 53.53 222.407 54.106 221.663 54.514C220.931 54.922 220.097 55.126 219.161 55.126C217.865 55.126 216.839 54.694 216.083 53.83V58.492H213.833V45.388H215.975V46.648C216.347 46.192 216.803 45.85 217.343 45.622C217.895 45.394 218.501 45.28 219.161 45.28ZM218.909 53.2C219.737 53.2 220.415 52.924 220.943 52.372C221.483 51.82 221.753 51.094 221.753 50.194C221.753 49.294 221.483 48.568 220.943 48.016C220.415 47.464 219.737 47.188 218.909 47.188C218.369 47.188 217.883 47.314 217.451 47.566C217.019 47.806 216.677 48.154 216.425 48.61C216.173 49.066 216.047 49.594 216.047 50.194C216.047 50.794 216.173 51.322 216.425 51.778C216.677 52.234 217.019 52.588 217.451 52.84C217.883 53.08 218.369 53.2 218.909 53.2ZM228.675 46.792C229.323 45.784 230.463 45.28 232.095 45.28V47.422C231.903 47.386 231.729 47.368 231.573 47.368C230.697 47.368 230.013 47.626 229.521 48.142C229.029 48.646 228.783 49.378 228.783 50.338V55H226.533V45.388H228.675V46.792ZM243.312 50.248C243.312 50.404 243.3 50.626 243.276 50.914H235.734C235.866 51.622 236.208 52.186 236.76 52.606C237.324 53.014 238.02 53.218 238.848 53.218C239.904 53.218 240.774 52.87 241.458 52.174L242.664 53.56C242.232 54.076 241.686 54.466 241.026 54.73C240.366 54.994 239.622 55.126 238.794 55.126C237.738 55.126 236.808 54.916 236.004 54.496C235.2 54.076 234.576 53.494 234.132 52.75C233.7 51.994 233.484 51.142 233.484 50.194C233.484 49.258 233.694 48.418 234.114 47.674C234.546 46.918 235.14 46.33 235.896 45.91C236.652 45.49 237.504 45.28 238.452 45.28C239.388 45.28 240.222 45.49 240.954 45.91C241.698 46.318 242.274 46.9 242.682 47.656C243.102 48.4 243.312 49.264 243.312 50.248ZM238.452 47.08C237.732 47.08 237.12 47.296 236.616 47.728C236.124 48.148 235.824 48.712 235.716 49.42H241.17C241.074 48.724 240.78 48.16 240.288 47.728C239.796 47.296 239.184 47.08 238.452 47.08ZM251.287 45.28C252.499 45.28 253.471 45.634 254.203 46.342C254.935 47.05 255.301 48.1 255.301 49.492V55H253.051V49.78C253.051 48.94 252.853 48.31 252.457 47.89C252.061 47.458 251.497 47.242 250.765 47.242C249.937 47.242 249.283 47.494 248.803 47.998C248.323 48.49 248.083 49.204 248.083 50.14V55H245.833V41.644H248.083V46.504C248.455 46.108 248.911 45.808 249.451 45.604C250.003 45.388 250.615 45.28 251.287 45.28ZM267.639 50.248C267.639 50.404 267.627 50.626 267.603 50.914H260.061C260.193 51.622 260.535 52.186 261.087 52.606C261.651 53.014 262.347 53.218 263.175 53.218C264.231 53.218 265.101 52.87 265.785 52.174L266.991 53.56C266.559 54.076 266.013 54.466 265.353 54.73C264.693 54.994 263.949 55.126 263.121 55.126C262.065 55.126 261.135 54.916 260.331 54.496C259.527 54.076 258.903 53.494 258.459 52.75C258.027 51.994 257.811 51.142 257.811 50.194C257.811 49.258 258.021 48.418 258.441 47.674C258.873 46.918 259.467 46.33 260.223 45.91C260.979 45.49 261.831 45.28 262.779 45.28C263.715 45.28 264.549 45.49 265.281 45.91C266.025 46.318 266.601 46.9 267.009 47.656C267.429 48.4 267.639 49.264 267.639 50.248ZM262.779 47.08C262.059 47.08 261.447 47.296 260.943 47.728C260.451 48.148 260.151 48.712 260.043 49.42H265.497C265.401 48.724 265.107 48.16 264.615 47.728C264.123 47.296 263.511 47.08 262.779 47.08ZM275.615 45.28C276.827 45.28 277.799 45.634 278.531 46.342C279.263 47.05 279.629 48.1 279.629 49.492V55H277.379V49.78C277.379 48.94 277.181 48.31 276.785 47.89C276.389 47.458 275.825 47.242 275.093 47.242C274.265 47.242 273.611 47.494 273.131 47.998C272.651 48.49 272.411 49.204 272.411 50.14V55H270.161V45.388H272.303V46.63C272.675 46.186 273.143 45.85 273.707 45.622C274.271 45.394 274.907 45.28 275.615 45.28ZM285.813 55.126C285.033 55.126 284.271 55.024 283.527 54.82C282.783 54.616 282.189 54.358 281.745 54.046L282.609 52.336C283.041 52.624 283.557 52.858 284.157 53.038C284.769 53.206 285.369 53.29 285.957 53.29C287.301 53.29 287.973 52.936 287.973 52.228C287.973 51.892 287.799 51.658 287.451 51.526C287.115 51.394 286.569 51.268 285.813 51.148C285.021 51.028 284.373 50.89 283.869 50.734C283.377 50.578 282.945 50.308 282.573 49.924C282.213 49.528 282.033 48.982 282.033 48.286C282.033 47.374 282.411 46.648 283.167 46.108C283.935 45.556 284.967 45.28 286.263 45.28C286.923 45.28 287.583 45.358 288.243 45.514C288.903 45.658 289.443 45.856 289.863 46.108L288.999 47.818C288.183 47.338 287.265 47.098 286.245 47.098C285.585 47.098 285.081 47.2 284.733 47.404C284.397 47.596 284.229 47.854 284.229 48.178C284.229 48.538 284.409 48.796 284.769 48.952C285.141 49.096 285.711 49.234 286.479 49.366C287.247 49.486 287.877 49.624 288.369 49.78C288.861 49.936 289.281 50.2 289.629 50.572C289.989 50.944 290.169 51.472 290.169 52.156C290.169 53.056 289.779 53.776 288.999 54.316C288.219 54.856 287.157 55.126 285.813 55.126ZM292.467 45.388H294.717V55H292.467V45.388ZM293.601 43.804C293.193 43.804 292.851 43.678 292.575 43.426C292.299 43.162 292.161 42.838 292.161 42.454C292.161 42.07 292.299 41.752 292.575 41.5C292.851 41.236 293.193 41.104 293.601 41.104C294.009 41.104 294.351 41.23 294.627 41.482C294.903 41.722 295.041 42.028 295.041 42.4C295.041 42.796 294.903 43.132 294.627 43.408C294.363 43.672 294.021 43.804 293.601 43.804ZM307.03 45.388L302.908 55H300.586L296.464 45.388H298.804L301.792 52.516L304.87 45.388H307.03ZM317.568 50.248C317.568 50.404 317.556 50.626 317.532 50.914H309.99C310.122 51.622 310.464 52.186 311.016 52.606C311.58 53.014 312.276 53.218 313.104 53.218C314.16 53.218 315.03 52.87 315.714 52.174L316.92 53.56C316.488 54.076 315.942 54.466 315.282 54.73C314.622 54.994 313.878 55.126 313.05 55.126C311.994 55.126 311.064 54.916 310.26 54.496C309.456 54.076 308.832 53.494 308.388 52.75C307.956 51.994 307.74 51.142 307.74 50.194C307.74 49.258 307.95 48.418 308.37 47.674C308.802 46.918 309.396 46.33 310.152 45.91C310.908 45.49 311.76 45.28 312.708 45.28C313.644 45.28 314.478 45.49 315.21 45.91C315.954 46.318 316.53 46.9 316.938 47.656C317.358 48.4 317.568 49.264 317.568 50.248ZM312.708 47.08C311.988 47.08 311.376 47.296 310.872 47.728C310.38 48.148 310.08 48.712 309.972 49.42H315.426C315.33 48.724 315.036 48.16 314.544 47.728C314.052 47.296 313.44 47.08 312.708 47.08ZM175.524 82.18C174.252 82.18 173.1 81.904 172.068 81.352C171.048 80.788 170.244 80.014 169.656 79.03C169.08 78.046 168.792 76.936 168.792 75.7C168.792 74.464 169.086 73.354 169.674 72.37C170.262 71.386 171.066 70.618 172.086 70.066C173.118 69.502 174.27 69.22 175.542 69.22C176.574 69.22 177.516 69.4 178.368 69.76C179.22 70.12 179.94 70.642 180.528 71.326L179.016 72.748C178.104 71.764 176.982 71.272 175.65 71.272C174.786 71.272 174.012 71.464 173.328 71.848C172.644 72.22 172.11 72.742 171.726 73.414C171.342 74.086 171.15 74.848 171.15 75.7C171.15 76.552 171.342 77.314 171.726 77.986C172.11 78.658 172.644 79.186 173.328 79.57C174.012 79.942 174.786 80.128 175.65 80.128C176.982 80.128 178.104 79.63 179.016 78.634L180.528 80.074C179.94 80.758 179.214 81.28 178.35 81.64C177.498 82 176.556 82.18 175.524 82.18ZM186.498 72.28C187.914 72.28 188.994 72.622 189.738 73.306C190.494 73.978 190.872 74.998 190.872 76.366V82H188.748V80.83C188.472 81.25 188.076 81.574 187.56 81.802C187.056 82.018 186.444 82.126 185.724 82.126C185.004 82.126 184.374 82.006 183.834 81.766C183.294 81.514 182.874 81.172 182.574 80.74C182.286 80.296 182.142 79.798 182.142 79.246C182.142 78.382 182.46 77.692 183.096 77.176C183.744 76.648 184.758 76.384 186.138 76.384H188.622V76.24C188.622 75.568 188.418 75.052 188.01 74.692C187.614 74.332 187.02 74.152 186.228 74.152C185.688 74.152 185.154 74.236 184.626 74.404C184.11 74.572 183.672 74.806 183.312 75.106L182.43 73.468C182.934 73.084 183.54 72.79 184.248 72.586C184.956 72.382 185.706 72.28 186.498 72.28ZM186.192 80.488C186.756 80.488 187.254 80.362 187.686 80.11C188.13 79.846 188.442 79.474 188.622 78.994V77.878H186.3C185.004 77.878 184.356 78.304 184.356 79.156C184.356 79.564 184.518 79.888 184.842 80.128C185.166 80.368 185.616 80.488 186.192 80.488ZM199.574 72.28C200.786 72.28 201.758 72.634 202.49 73.342C203.222 74.05 203.588 75.1 203.588 76.492V82H201.338V76.78C201.338 75.94 201.14 75.31 200.744 74.89C200.348 74.458 199.784 74.242 199.052 74.242C198.224 74.242 197.57 74.494 197.09 74.998C196.61 75.49 196.37 76.204 196.37 77.14V82H194.12V72.388H196.262V73.63C196.634 73.186 197.102 72.85 197.666 72.622C198.23 72.394 198.866 72.28 199.574 72.28ZM211.3 82.126C210.304 82.126 209.41 81.916 208.618 81.496C207.826 81.076 207.208 80.494 206.764 79.75C206.32 78.994 206.098 78.142 206.098 77.194C206.098 76.246 206.32 75.4 206.764 74.656C207.208 73.912 207.82 73.33 208.6 72.91C209.392 72.49 210.292 72.28 211.3 72.28C212.248 72.28 213.076 72.472 213.784 72.856C214.504 73.24 215.044 73.792 215.404 74.512L213.676 75.52C213.4 75.076 213.052 74.746 212.632 74.53C212.224 74.302 211.774 74.188 211.282 74.188C210.442 74.188 209.746 74.464 209.194 75.016C208.642 75.556 208.366 76.282 208.366 77.194C208.366 78.106 208.636 78.838 209.176 79.39C209.728 79.93 210.43 80.2 211.282 80.2C211.774 80.2 212.224 80.092 212.632 79.876C213.052 79.648 213.4 79.312 213.676 78.868L215.404 79.876C215.032 80.596 214.486 81.154 213.766 81.55C213.058 81.934 212.236 82.126 211.3 82.126ZM226.604 77.248C226.604 77.404 226.592 77.626 226.568 77.914H219.026C219.158 78.622 219.5 79.186 220.052 79.606C220.616 80.014 221.312 80.218 222.14 80.218C223.196 80.218 224.066 79.87 224.75 79.174L225.956 80.56C225.524 81.076 224.978 81.466 224.318 81.73C223.658 81.994 222.914 82.126 222.086 82.126C221.03 82.126 220.1 81.916 219.296 81.496C218.492 81.076 217.868 80.494 217.424 79.75C216.992 78.994 216.776 78.142 216.776 77.194C216.776 76.258 216.986 75.418 217.406 74.674C217.838 73.918 218.432 73.33 219.188 72.91C219.944 72.49 220.796 72.28 221.744 72.28C222.68 72.28 223.514 72.49 224.246 72.91C224.99 73.318 225.566 73.9 225.974 74.656C226.394 75.4 226.604 76.264 226.604 77.248ZM221.744 74.08C221.024 74.08 220.412 74.296 219.908 74.728C219.416 75.148 219.116 75.712 219.008 76.42H224.462C224.366 75.724 224.072 75.16 223.58 74.728C223.088 74.296 222.476 74.08 221.744 74.08ZM231.268 73.792C231.916 72.784 233.056 72.28 234.688 72.28V74.422C234.496 74.386 234.322 74.368 234.166 74.368C233.29 74.368 232.606 74.626 232.114 75.142C231.622 75.646 231.376 76.378 231.376 77.338V82H229.126V72.388H231.268V73.792ZM246.789 82.126C245.793 82.126 244.899 81.916 244.107 81.496C243.315 81.076 242.697 80.494 242.253 79.75C241.809 78.994 241.587 78.142 241.587 77.194C241.587 76.246 241.809 75.4 242.253 74.656C242.697 73.912 243.309 73.33 244.089 72.91C244.881 72.49 245.781 72.28 246.789 72.28C247.737 72.28 248.565 72.472 249.273 72.856C249.993 73.24 250.533 73.792 250.893 74.512L249.165 75.52C248.889 75.076 248.541 74.746 248.121 74.53C247.713 74.302 247.263 74.188 246.771 74.188C245.931 74.188 245.235 74.464 244.683 75.016C244.131 75.556 243.855 76.282 243.855 77.194C243.855 78.106 244.125 78.838 244.665 79.39C245.217 79.93 245.919 80.2 246.771 80.2C247.263 80.2 247.713 80.092 248.121 79.876C248.541 79.648 248.889 79.312 249.165 78.868L250.893 79.876C250.521 80.596 249.975 81.154 249.255 81.55C248.547 81.934 247.725 82.126 246.789 82.126ZM256.87 72.28C258.286 72.28 259.366 72.622 260.11 73.306C260.866 73.978 261.244 74.998 261.244 76.366V82H259.12V80.83C258.844 81.25 258.448 81.574 257.932 81.802C257.428 82.018 256.816 82.126 256.096 82.126C255.376 82.126 254.746 82.006 254.206 81.766C253.666 81.514 253.246 81.172 252.946 80.74C252.658 80.296 252.514 79.798 252.514 79.246C252.514 78.382 252.832 77.692 253.468 77.176C254.116 76.648 255.13 76.384 256.51 76.384H258.994V76.24C258.994 75.568 258.79 75.052 258.382 74.692C257.986 74.332 257.392 74.152 256.6 74.152C256.06 74.152 255.526 74.236 254.998 74.404C254.482 74.572 254.044 74.806 253.684 75.106L252.802 73.468C253.306 73.084 253.912 72.79 254.62 72.586C255.328 72.382 256.078 72.28 256.87 72.28ZM256.564 80.488C257.128 80.488 257.626 80.362 258.058 80.11C258.502 79.846 258.814 79.474 258.994 78.994V77.878H256.672C255.376 77.878 254.728 78.304 254.728 79.156C254.728 79.564 254.89 79.888 255.214 80.128C255.538 80.368 255.988 80.488 256.564 80.488ZM266.633 73.792C267.281 72.784 268.421 72.28 270.053 72.28V74.422C269.861 74.386 269.687 74.368 269.531 74.368C268.655 74.368 267.971 74.626 267.479 75.142C266.987 75.646 266.741 76.378 266.741 77.338V82H264.491V72.388H266.633V73.792ZM281.27 77.248C281.27 77.404 281.258 77.626 281.234 77.914H273.692C273.824 78.622 274.166 79.186 274.718 79.606C275.282 80.014 275.978 80.218 276.806 80.218C277.862 80.218 278.732 79.87 279.416 79.174L280.622 80.56C280.19 81.076 279.644 81.466 278.984 81.73C278.324 81.994 277.58 82.126 276.752 82.126C275.696 82.126 274.766 81.916 273.962 81.496C273.158 81.076 272.534 80.494 272.09 79.75C271.658 78.994 271.442 78.142 271.442 77.194C271.442 76.258 271.652 75.418 272.072 74.674C272.504 73.918 273.098 73.33 273.854 72.91C274.61 72.49 275.462 72.28 276.41 72.28C277.346 72.28 278.18 72.49 278.912 72.91C279.656 73.318 280.232 73.9 280.64 74.656C281.06 75.4 281.27 76.264 281.27 77.248ZM276.41 74.08C275.69 74.08 275.078 74.296 274.574 74.728C274.082 75.148 273.782 75.712 273.674 76.42H279.128C279.032 75.724 278.738 75.16 278.246 74.728C277.754 74.296 277.142 74.08 276.41 74.08Z" fill="white"/>
<circle cx="94" cy="94" r="60" fill="white"/>
<path d="M171.85 107.088C173.166 107.088 174.179 107.513 174.888 108.362C175.607 109.211 175.966 110.415 175.966 111.974C175.966 113.066 175.77 113.999 175.378 114.774C174.995 115.539 174.454 116.123 173.754 116.524C173.063 116.916 172.256 117.112 171.332 117.112C170.856 117.112 170.408 117.065 169.988 116.972C169.568 116.869 169.204 116.725 168.896 116.538L169.428 115.446C169.904 115.754 170.534 115.908 171.318 115.908C172.335 115.908 173.129 115.595 173.698 114.97C174.277 114.335 174.566 113.416 174.566 112.212V111.862C174.286 112.282 173.899 112.604 173.404 112.828C172.909 113.043 172.354 113.15 171.738 113.15C171.094 113.15 170.515 113.029 170.002 112.786C169.498 112.543 169.101 112.198 168.812 111.75C168.532 111.293 168.392 110.77 168.392 110.182C168.392 109.566 168.541 109.025 168.84 108.558C169.148 108.091 169.563 107.732 170.086 107.48C170.609 107.219 171.197 107.088 171.85 107.088ZM171.976 112.016C172.415 112.016 172.807 111.932 173.152 111.764C173.497 111.596 173.763 111.367 173.95 111.078C174.146 110.789 174.244 110.467 174.244 110.112C174.244 109.767 174.151 109.454 173.964 109.174C173.787 108.885 173.521 108.656 173.166 108.488C172.821 108.311 172.401 108.222 171.906 108.222C171.262 108.222 170.739 108.395 170.338 108.74C169.946 109.085 169.75 109.547 169.75 110.126C169.75 110.705 169.951 111.167 170.352 111.512C170.753 111.848 171.295 112.016 171.976 112.016ZM185.006 117.112C184.269 117.112 183.555 117 182.864 116.776C182.183 116.543 181.646 116.244 181.254 115.88L181.772 114.788C182.146 115.124 182.622 115.399 183.2 115.614C183.788 115.819 184.39 115.922 185.006 115.922C185.818 115.922 186.425 115.787 186.826 115.516C187.228 115.236 187.428 114.867 187.428 114.41C187.428 114.074 187.316 113.803 187.092 113.598C186.878 113.383 186.607 113.22 186.28 113.108C185.963 112.996 185.51 112.87 184.922 112.73C184.185 112.553 183.588 112.375 183.13 112.198C182.682 112.021 182.295 111.75 181.968 111.386C181.651 111.013 181.492 110.513 181.492 109.888C181.492 109.365 181.628 108.894 181.898 108.474C182.178 108.054 182.598 107.718 183.158 107.466C183.718 107.214 184.414 107.088 185.244 107.088C185.823 107.088 186.392 107.163 186.952 107.312C187.512 107.461 187.993 107.676 188.394 107.956L187.932 109.076C187.522 108.815 187.083 108.619 186.616 108.488C186.15 108.348 185.692 108.278 185.244 108.278C184.451 108.278 183.854 108.423 183.452 108.712C183.06 109.001 182.864 109.375 182.864 109.832C182.864 110.168 182.976 110.443 183.2 110.658C183.424 110.863 183.7 111.027 184.026 111.148C184.362 111.26 184.815 111.381 185.384 111.512C186.122 111.689 186.714 111.867 187.162 112.044C187.61 112.221 187.993 112.492 188.31 112.856C188.637 113.22 188.8 113.71 188.8 114.326C188.8 114.839 188.66 115.311 188.38 115.74C188.1 116.16 187.676 116.496 187.106 116.748C186.537 116.991 185.837 117.112 185.006 117.112ZM194.724 109.51C195.442 109.51 196.086 109.669 196.656 109.986C197.225 110.303 197.668 110.747 197.986 111.316C198.312 111.885 198.476 112.543 198.476 113.29C198.476 114.037 198.312 114.699 197.986 115.278C197.668 115.847 197.225 116.291 196.656 116.608C196.086 116.925 195.442 117.084 194.724 117.084C194.192 117.084 193.702 116.981 193.254 116.776C192.815 116.571 192.442 116.272 192.134 115.88V119.716H190.79V109.58H192.078V110.756C192.376 110.345 192.754 110.037 193.212 109.832C193.669 109.617 194.173 109.51 194.724 109.51ZM194.612 115.908C195.088 115.908 195.512 115.801 195.886 115.586C196.268 115.362 196.567 115.054 196.782 114.662C197.006 114.261 197.118 113.803 197.118 113.29C197.118 112.777 197.006 112.324 196.782 111.932C196.567 111.531 196.268 111.223 195.886 111.008C195.512 110.793 195.088 110.686 194.612 110.686C194.145 110.686 193.72 110.798 193.338 111.022C192.964 111.237 192.666 111.54 192.442 111.932C192.227 112.324 192.12 112.777 192.12 113.29C192.12 113.803 192.227 114.261 192.442 114.662C192.656 115.054 192.955 115.362 193.338 115.586C193.72 115.801 194.145 115.908 194.612 115.908ZM207.179 113.332C207.179 113.435 207.169 113.57 207.151 113.738H201.131C201.215 114.391 201.499 114.919 201.985 115.32C202.479 115.712 203.091 115.908 203.819 115.908C204.705 115.908 205.419 115.609 205.961 115.012L206.703 115.88C206.367 116.272 205.947 116.571 205.443 116.776C204.948 116.981 204.393 117.084 203.777 117.084C202.993 117.084 202.297 116.925 201.691 116.608C201.084 116.281 200.613 115.829 200.277 115.25C199.95 114.671 199.787 114.018 199.787 113.29C199.787 112.571 199.945 111.923 200.263 111.344C200.589 110.765 201.033 110.317 201.593 110C202.162 109.673 202.801 109.51 203.511 109.51C204.22 109.51 204.85 109.673 205.401 110C205.961 110.317 206.395 110.765 206.703 111.344C207.02 111.923 207.179 112.585 207.179 113.332ZM203.511 110.644C202.867 110.644 202.325 110.84 201.887 111.232C201.457 111.624 201.205 112.137 201.131 112.772H205.891C205.816 112.147 205.559 111.638 205.121 111.246C204.691 110.845 204.155 110.644 203.511 110.644ZM212.419 117.084C211.663 117.084 210.986 116.921 210.389 116.594C209.801 116.267 209.339 115.819 209.003 115.25C208.667 114.671 208.499 114.018 208.499 113.29C208.499 112.562 208.667 111.913 209.003 111.344C209.339 110.765 209.801 110.317 210.389 110C210.986 109.673 211.663 109.51 212.419 109.51C213.091 109.51 213.688 109.645 214.211 109.916C214.743 110.187 215.154 110.579 215.443 111.092L214.421 111.75C214.188 111.395 213.898 111.129 213.553 110.952C213.208 110.775 212.825 110.686 212.405 110.686C211.92 110.686 211.481 110.793 211.089 111.008C210.706 111.223 210.403 111.531 210.179 111.932C209.964 112.324 209.857 112.777 209.857 113.29C209.857 113.813 209.964 114.275 210.179 114.676C210.403 115.068 210.706 115.371 211.089 115.586C211.481 115.801 211.92 115.908 212.405 115.908C212.825 115.908 213.208 115.819 213.553 115.642C213.898 115.465 214.188 115.199 214.421 114.844L215.443 115.488C215.154 116.001 214.743 116.398 214.211 116.678C213.688 116.949 213.091 117.084 212.419 117.084ZM217.323 109.58H218.667V117H217.323V109.58ZM217.995 108.152C217.734 108.152 217.514 108.068 217.337 107.9C217.169 107.732 217.085 107.527 217.085 107.284C217.085 107.041 217.169 106.836 217.337 106.668C217.514 106.491 217.734 106.402 217.995 106.402C218.256 106.402 218.471 106.486 218.639 106.654C218.816 106.813 218.905 107.013 218.905 107.256C218.905 107.508 218.816 107.723 218.639 107.9C218.471 108.068 218.256 108.152 217.995 108.152ZM224.075 109.51C225.102 109.51 225.886 109.762 226.427 110.266C226.978 110.77 227.253 111.521 227.253 112.52V117H225.979V116.02C225.755 116.365 225.433 116.631 225.013 116.818C224.602 116.995 224.112 117.084 223.543 117.084C222.712 117.084 222.045 116.883 221.541 116.482C221.046 116.081 220.799 115.553 220.799 114.9C220.799 114.247 221.037 113.724 221.513 113.332C221.989 112.931 222.745 112.73 223.781 112.73H225.909V112.464C225.909 111.885 225.741 111.442 225.405 111.134C225.069 110.826 224.574 110.672 223.921 110.672C223.482 110.672 223.053 110.747 222.633 110.896C222.213 111.036 221.858 111.227 221.569 111.47L221.009 110.462C221.392 110.154 221.849 109.921 222.381 109.762C222.913 109.594 223.478 109.51 224.075 109.51ZM223.767 116.048C224.28 116.048 224.724 115.936 225.097 115.712C225.47 115.479 225.741 115.152 225.909 114.732V113.696H223.837C222.698 113.696 222.129 114.079 222.129 114.844C222.129 115.217 222.274 115.511 222.563 115.726C222.852 115.941 223.254 116.048 223.767 116.048ZM229.88 106.612H231.224V117H229.88V106.612ZM233.93 109.58H235.274V117H233.93V109.58ZM234.602 108.152C234.341 108.152 234.122 108.068 233.944 107.9C233.776 107.732 233.692 107.527 233.692 107.284C233.692 107.041 233.776 106.836 233.944 106.668C234.122 106.491 234.341 106.402 234.602 106.402C234.864 106.402 235.078 106.486 235.246 106.654C235.424 106.813 235.512 107.013 235.512 107.256C235.512 107.508 235.424 107.723 235.246 107.9C235.078 108.068 234.864 108.152 234.602 108.152ZM242.153 116.566C241.957 116.734 241.714 116.865 241.425 116.958C241.135 117.042 240.837 117.084 240.529 117.084C239.782 117.084 239.203 116.883 238.793 116.482C238.382 116.081 238.177 115.507 238.177 114.76V110.686H236.917V109.58H238.177V107.956H239.521V109.58H241.649V110.686H239.521V114.704C239.521 115.105 239.619 115.413 239.815 115.628C240.02 115.843 240.309 115.95 240.683 115.95C241.093 115.95 241.443 115.833 241.733 115.6L242.153 116.566ZM243.918 109.58H245.262V117H243.918V109.58ZM244.59 108.152C244.328 108.152 244.109 108.068 243.932 107.9C243.764 107.732 243.68 107.527 243.68 107.284C243.68 107.041 243.764 106.836 243.932 106.668C244.109 106.491 244.328 106.402 244.59 106.402C244.851 106.402 245.066 106.486 245.234 106.654C245.411 106.813 245.5 107.013 245.5 107.256C245.5 107.508 245.411 107.723 245.234 107.9C245.066 108.068 244.851 108.152 244.59 108.152ZM254.674 113.332C254.674 113.435 254.664 113.57 254.646 113.738H248.626C248.71 114.391 248.994 114.919 249.48 115.32C249.974 115.712 250.586 115.908 251.314 115.908C252.2 115.908 252.914 115.609 253.456 115.012L254.198 115.88C253.862 116.272 253.442 116.571 252.938 116.776C252.443 116.981 251.888 117.084 251.272 117.084C250.488 117.084 249.792 116.925 249.186 116.608C248.579 116.281 248.108 115.829 247.772 115.25C247.445 114.671 247.282 114.018 247.282 113.29C247.282 112.571 247.44 111.923 247.758 111.344C248.084 110.765 248.528 110.317 249.088 110C249.657 109.673 250.296 109.51 251.006 109.51C251.715 109.51 252.345 109.673 252.896 110C253.456 110.317 253.89 110.765 254.198 111.344C254.515 111.923 254.674 112.585 254.674 113.332ZM251.006 110.644C250.362 110.644 249.82 110.84 249.382 111.232C248.952 111.624 248.7 112.137 248.626 112.772H253.386C253.311 112.147 253.054 111.638 252.616 111.246C252.186 110.845 251.65 110.644 251.006 110.644ZM258.808 117.084C258.201 117.084 257.618 117.005 257.058 116.846C256.498 116.678 256.059 116.468 255.742 116.216L256.302 115.152C256.629 115.385 257.025 115.572 257.492 115.712C257.959 115.852 258.43 115.922 258.906 115.922C260.082 115.922 260.67 115.586 260.67 114.914C260.67 114.69 260.591 114.513 260.432 114.382C260.273 114.251 260.073 114.158 259.83 114.102C259.597 114.037 259.261 113.967 258.822 113.892C258.225 113.799 257.735 113.691 257.352 113.57C256.979 113.449 256.657 113.243 256.386 112.954C256.115 112.665 255.98 112.259 255.98 111.736C255.98 111.064 256.26 110.527 256.82 110.126C257.38 109.715 258.131 109.51 259.074 109.51C259.569 109.51 260.063 109.571 260.558 109.692C261.053 109.813 261.459 109.977 261.776 110.182L261.202 111.246C260.595 110.854 259.881 110.658 259.06 110.658C258.491 110.658 258.057 110.751 257.758 110.938C257.459 111.125 257.31 111.372 257.31 111.68C257.31 111.923 257.394 112.114 257.562 112.254C257.73 112.394 257.935 112.497 258.178 112.562C258.43 112.627 258.78 112.702 259.228 112.786C259.825 112.889 260.306 113.001 260.67 113.122C261.043 113.234 261.361 113.43 261.622 113.71C261.883 113.99 262.014 114.382 262.014 114.886C262.014 115.558 261.725 116.095 261.146 116.496C260.577 116.888 259.797 117.084 258.808 117.084Z" fill="white"/>
<path d="M111.888 87.4549C109.033 87.4468 106.285 88.5207 104.217 90.4527C102.148 92.3848 100.919 95.0259 100.786 97.8257C100.652 100.625 101.624 103.368 103.499 105.481C105.374 107.595 108.008 108.916 110.851 109.171C105.409 112.187 99.2474 113.728 92.9986 113.636C82.5311 113.636 72.9329 109.661 69.1158 103.744C68.962 103.497 68.7597 103.283 68.5208 103.114C68.2818 102.945 68.011 102.824 67.7241 102.758C67.4371 102.693 67.1398 102.684 66.8493 102.733C66.5589 102.781 66.2812 102.886 66.0323 103.04C65.7835 103.195 65.5685 103.397 65.3999 103.634C65.2312 103.871 65.1124 104.139 65.0501 104.422C64.9879 104.705 64.9836 104.997 65.0374 105.281C65.0912 105.565 65.2021 105.836 65.3636 106.078C70.0308 113.321 80.8791 118 92.9986 118C109.54 118 123 109.191 123 98.3635C122.997 95.4713 121.825 92.6984 119.742 90.6534C117.658 88.6083 114.834 87.458 111.888 87.4549ZM111.888 104.909C110.569 104.909 109.28 104.525 108.184 103.805C107.088 103.086 106.234 102.063 105.729 100.867C105.225 99.6712 105.093 98.3552 105.351 97.0856C105.608 95.816 106.243 94.6499 107.176 93.7346C108.108 92.8194 109.296 92.1961 110.589 91.9437C111.883 91.6913 113.223 91.821 114.441 92.3164C115.659 92.8119 116.701 93.6509 117.433 94.7272C118.166 95.8036 118.557 97.069 118.557 98.3635C118.554 100.099 117.851 101.763 116.601 102.99C115.351 104.217 113.656 104.907 111.888 104.909ZM76.1318 100.545C78.9868 100.553 81.7349 99.4796 83.8034 97.5476C85.8718 95.6157 87.1011 92.9745 87.2349 90.1747C87.3687 87.3749 86.3967 84.6324 84.5215 82.5188C82.6464 80.4052 80.0127 79.0836 77.1695 78.8294C81.8166 76.0881 88.1558 74.3639 95.0226 74.3639C105.492 74.3639 115.089 78.3397 118.905 84.2561C119.226 84.7331 119.725 85.0676 120.294 85.1875C120.863 85.3074 121.457 85.2033 121.949 84.8974C122.441 84.5916 122.791 84.1086 122.924 83.5521C123.056 82.9957 122.961 82.4103 122.659 81.9219C117.989 74.6788 107.141 70 95.0218 70C78.479 70 65.0204 78.8089 65.0204 89.6364C65.0238 92.5287 66.1956 95.3016 68.2789 97.3466C70.3621 99.3917 73.1866 100.542 76.1326 100.545H76.1318ZM76.1318 83.091C77.4505 83.0908 78.7396 83.4746 79.8361 84.1937C80.9326 84.9129 81.7873 85.935 82.292 87.1311C82.7968 88.3271 82.9289 89.6432 82.6717 90.9129C82.4146 92.1827 81.7796 93.349 80.8472 94.2645C79.9149 95.18 78.7269 95.8035 77.4336 96.0561C76.1403 96.3087 74.7997 96.1792 73.5814 95.6838C72.3631 95.1884 71.3217 94.3494 70.5891 93.273C69.8565 92.1966 69.4654 90.931 69.4654 89.6364C69.4677 87.9012 70.1709 86.2376 71.4208 85.0106C72.6706 83.7836 74.3651 83.0933 76.1326 83.091H76.1318Z" fill="#B52A4E"/>
<path d="M177.198 141.592H175.336V144H173.978V141.592H168.532V140.612L173.544 134.2H175.056L170.254 140.388H174.02V138.26H175.336V140.388H177.198V141.592ZM182.875 134.2H187.005C188.041 134.2 188.96 134.405 189.763 134.816C190.566 135.227 191.186 135.805 191.625 136.552C192.073 137.289 192.297 138.139 192.297 139.1C192.297 140.061 192.073 140.915 191.625 141.662C191.186 142.399 190.566 142.973 189.763 143.384C188.96 143.795 188.041 144 187.005 144H182.875V134.2ZM186.921 142.782C187.714 142.782 188.41 142.628 189.007 142.32C189.614 142.012 190.08 141.583 190.407 141.032C190.734 140.472 190.897 139.828 190.897 139.1C190.897 138.372 190.734 137.733 190.407 137.182C190.08 136.622 189.614 136.188 189.007 135.88C188.41 135.572 187.714 135.418 186.921 135.418H184.275V142.782H186.921ZM197.563 144.084C196.826 144.084 196.163 143.921 195.575 143.594C194.987 143.267 194.525 142.819 194.189 142.25C193.863 141.671 193.699 141.018 193.699 140.29C193.699 139.562 193.863 138.913 194.189 138.344C194.525 137.765 194.987 137.317 195.575 137C196.163 136.673 196.826 136.51 197.563 136.51C198.301 136.51 198.959 136.673 199.537 137C200.125 137.317 200.583 137.765 200.909 138.344C201.245 138.913 201.413 139.562 201.413 140.29C201.413 141.018 201.245 141.671 200.909 142.25C200.583 142.819 200.125 143.267 199.537 143.594C198.959 143.921 198.301 144.084 197.563 144.084ZM197.563 142.908C198.039 142.908 198.464 142.801 198.837 142.586C199.22 142.362 199.519 142.054 199.733 141.662C199.948 141.261 200.055 140.803 200.055 140.29C200.055 139.777 199.948 139.324 199.733 138.932C199.519 138.531 199.22 138.223 198.837 138.008C198.464 137.793 198.039 137.686 197.563 137.686C197.087 137.686 196.658 137.793 196.275 138.008C195.902 138.223 195.603 138.531 195.379 138.932C195.165 139.324 195.057 139.777 195.057 140.29C195.057 140.803 195.165 141.261 195.379 141.662C195.603 142.054 195.902 142.362 196.275 142.586C196.658 142.801 197.087 142.908 197.563 142.908ZM206.646 144.084C205.89 144.084 205.213 143.921 204.616 143.594C204.028 143.267 203.566 142.819 203.23 142.25C202.894 141.671 202.726 141.018 202.726 140.29C202.726 139.562 202.894 138.913 203.23 138.344C203.566 137.765 204.028 137.317 204.616 137C205.213 136.673 205.89 136.51 206.646 136.51C207.318 136.51 207.915 136.645 208.438 136.916C208.97 137.187 209.381 137.579 209.67 138.092L208.648 138.75C208.415 138.395 208.125 138.129 207.78 137.952C207.435 137.775 207.052 137.686 206.632 137.686C206.147 137.686 205.708 137.793 205.316 138.008C204.933 138.223 204.63 138.531 204.406 138.932C204.191 139.324 204.084 139.777 204.084 140.29C204.084 140.813 204.191 141.275 204.406 141.676C204.63 142.068 204.933 142.371 205.316 142.586C205.708 142.801 206.147 142.908 206.632 142.908C207.052 142.908 207.435 142.819 207.78 142.642C208.125 142.465 208.415 142.199 208.648 141.844L209.67 142.488C209.381 143.001 208.97 143.398 208.438 143.678C207.915 143.949 207.318 144.084 206.646 144.084ZM215.818 143.566C215.622 143.734 215.379 143.865 215.09 143.958C214.801 144.042 214.502 144.084 214.194 144.084C213.447 144.084 212.869 143.883 212.458 143.482C212.047 143.081 211.842 142.507 211.842 141.76V137.686H210.582V136.58H211.842V134.956H213.186V136.58H215.314V137.686H213.186V141.704C213.186 142.105 213.284 142.413 213.48 142.628C213.685 142.843 213.975 142.95 214.348 142.95C214.759 142.95 215.109 142.833 215.398 142.6L215.818 143.566ZM220.515 144.084C219.777 144.084 219.115 143.921 218.527 143.594C217.939 143.267 217.477 142.819 217.141 142.25C216.814 141.671 216.651 141.018 216.651 140.29C216.651 139.562 216.814 138.913 217.141 138.344C217.477 137.765 217.939 137.317 218.527 137C219.115 136.673 219.777 136.51 220.515 136.51C221.252 136.51 221.91 136.673 222.489 137C223.077 137.317 223.534 137.765 223.861 138.344C224.197 138.913 224.365 139.562 224.365 140.29C224.365 141.018 224.197 141.671 223.861 142.25C223.534 142.819 223.077 143.267 222.489 143.594C221.91 143.921 221.252 144.084 220.515 144.084ZM220.515 142.908C220.991 142.908 221.415 142.801 221.789 142.586C222.171 142.362 222.47 142.054 222.685 141.662C222.899 141.261 223.007 140.803 223.007 140.29C223.007 139.777 222.899 139.324 222.685 138.932C222.47 138.531 222.171 138.223 221.789 138.008C221.415 137.793 220.991 137.686 220.515 137.686C220.039 137.686 219.609 137.793 219.227 138.008C218.853 138.223 218.555 138.531 218.331 138.932C218.116 139.324 218.009 139.777 218.009 140.29C218.009 140.803 218.116 141.261 218.331 141.662C218.555 142.054 218.853 142.362 219.227 142.586C219.609 142.801 220.039 142.908 220.515 142.908ZM227.651 137.826C227.885 137.397 228.23 137.07 228.687 136.846C229.145 136.622 229.7 136.51 230.353 136.51V137.812C230.279 137.803 230.176 137.798 230.045 137.798C229.317 137.798 228.743 138.017 228.323 138.456C227.913 138.885 227.707 139.501 227.707 140.304V144H226.363V136.58H227.651V137.826ZM234.333 144.084C233.726 144.084 233.143 144.005 232.583 143.846C232.023 143.678 231.584 143.468 231.267 143.216L231.827 142.152C232.153 142.385 232.55 142.572 233.017 142.712C233.483 142.852 233.955 142.922 234.431 142.922C235.607 142.922 236.195 142.586 236.195 141.914C236.195 141.69 236.115 141.513 235.957 141.382C235.798 141.251 235.597 141.158 235.355 141.102C235.121 141.037 234.785 140.967 234.347 140.892C233.749 140.799 233.259 140.691 232.877 140.57C232.503 140.449 232.181 140.243 231.911 139.954C231.64 139.665 231.505 139.259 231.505 138.736C231.505 138.064 231.785 137.527 232.345 137.126C232.905 136.715 233.656 136.51 234.599 136.51C235.093 136.51 235.588 136.571 236.083 136.692C236.577 136.813 236.983 136.977 237.301 137.182L236.727 138.246C236.12 137.854 235.406 137.658 234.585 137.658C234.015 137.658 233.581 137.751 233.283 137.938C232.984 138.125 232.835 138.372 232.835 138.68C232.835 138.923 232.919 139.114 233.087 139.254C233.255 139.394 233.46 139.497 233.703 139.562C233.955 139.627 234.305 139.702 234.753 139.786C235.35 139.889 235.831 140.001 236.195 140.122C236.568 140.234 236.885 140.43 237.147 140.71C237.408 140.99 237.539 141.382 237.539 141.886C237.539 142.558 237.249 143.095 236.671 143.496C236.101 143.888 235.322 144.084 234.333 144.084Z" fill="white"/>
<defs>
<filter id="filter0_d" x="0" y="0" width="388" height="186" filterUnits="userSpaceOnUse" color-interpolation-filters="sRGB">
<feFlood flood-opacity="0" result="BackgroundImageFix"/>
<feColorMatrix in="SourceAlpha" type="matrix" values="0 0 0 0 0 0 0 0 0 0 0 0 0 0 0 0 0 0 127 0"/>
<feMorphology radius="4" operator="dilate" in="SourceAlpha" result="effect1_dropShadow"/>
<feOffset/>
<feGaussianBlur stdDeviation="5"/>
<feColorMatrix type="matrix" values="0 0 0 0 0.0117647 0 0 0 0 0.305882 0 0 0 0 0.635294 0 0 0 0.3 0"/>
<feBlend mode="normal" in2="BackgroundImageFix" result="effect1_dropShadow"/>
<feBlend mode="normal" in="SourceGraphic" in2="effect1_dropShadow" result="shape"/>
</filter>
</defs>
</svg>
