<svg width="384" height="184" viewBox="0 0 384 184" fill="none" xmlns="http://www.w3.org/2000/svg">
<g filter="url(#filter0_d)">
<rect x="12" y="12" width="360" height="160" rx="10" fill="#034EA2"/>
</g>
<path d="M173.524 53.18C172.252 53.18 171.1 52.904 170.068 52.352C169.048 51.788 168.244 51.014 167.656 50.03C167.08 49.046 166.792 47.936 166.792 46.7C166.792 45.464 167.086 44.354 167.674 43.37C168.262 42.386 169.066 41.618 170.086 41.066C171.118 40.502 172.27 40.22 173.542 40.22C174.574 40.22 175.516 40.4 176.368 40.76C177.22 41.12 177.94 41.642 178.528 42.326L177.016 43.748C176.104 42.764 174.982 42.272 173.65 42.272C172.786 42.272 172.012 42.464 171.328 42.848C170.644 43.22 170.11 43.742 169.726 44.414C169.342 45.086 169.15 45.848 169.15 46.7C169.15 47.552 169.342 48.314 169.726 48.986C170.11 49.658 170.644 50.186 171.328 50.57C172.012 50.942 172.786 51.128 173.65 51.128C174.982 51.128 176.104 50.63 177.016 49.634L178.528 51.074C177.94 51.758 177.214 52.28 176.35 52.64C175.498 53 174.556 53.18 173.524 53.18ZM184.498 43.28C185.914 43.28 186.994 43.622 187.738 44.306C188.494 44.978 188.872 45.998 188.872 47.366V53H186.748V51.83C186.472 52.25 186.076 52.574 185.56 52.802C185.056 53.018 184.444 53.126 183.724 53.126C183.004 53.126 182.374 53.006 181.834 52.766C181.294 52.514 180.874 52.172 180.574 51.74C180.286 51.296 180.142 50.798 180.142 50.246C180.142 49.382 180.46 48.692 181.096 48.176C181.744 47.648 182.758 47.384 184.138 47.384H186.622V47.24C186.622 46.568 186.418 46.052 186.01 45.692C185.614 45.332 185.02 45.152 184.228 45.152C183.688 45.152 183.154 45.236 182.626 45.404C182.11 45.572 181.672 45.806 181.312 46.106L180.43 44.468C180.934 44.084 181.54 43.79 182.248 43.586C182.956 43.382 183.706 43.28 184.498 43.28ZM184.192 51.488C184.756 51.488 185.254 51.362 185.686 51.11C186.13 50.846 186.442 50.474 186.622 49.994V48.878H184.3C183.004 48.878 182.356 49.304 182.356 50.156C182.356 50.564 182.518 50.888 182.842 51.128C183.166 51.368 183.616 51.488 184.192 51.488ZM194.262 44.792C194.91 43.784 196.05 43.28 197.682 43.28V45.422C197.49 45.386 197.316 45.368 197.16 45.368C196.284 45.368 195.6 45.626 195.108 46.142C194.616 46.646 194.37 47.378 194.37 48.338V53H192.12V43.388H194.262V44.792ZM209.277 39.644V53H207.117V51.758C206.745 52.214 206.283 52.556 205.731 52.784C205.191 53.012 204.591 53.126 203.931 53.126C203.007 53.126 202.173 52.922 201.429 52.514C200.697 52.106 200.121 51.53 199.701 50.786C199.281 50.03 199.071 49.166 199.071 48.194C199.071 47.222 199.281 46.364 199.701 45.62C200.121 44.876 200.697 44.3 201.429 43.892C202.173 43.484 203.007 43.28 203.931 43.28C204.567 43.28 205.149 43.388 205.677 43.604C206.205 43.82 206.655 44.144 207.027 44.576V39.644H209.277ZM204.201 51.2C204.741 51.2 205.227 51.08 205.659 50.84C206.091 50.588 206.433 50.234 206.685 49.778C206.937 49.322 207.063 48.794 207.063 48.194C207.063 47.594 206.937 47.066 206.685 46.61C206.433 46.154 206.091 45.806 205.659 45.566C205.227 45.314 204.741 45.188 204.201 45.188C203.661 45.188 203.175 45.314 202.743 45.566C202.311 45.806 201.969 46.154 201.717 46.61C201.465 47.066 201.339 47.594 201.339 48.194C201.339 48.794 201.465 49.322 201.717 49.778C201.969 50.234 202.311 50.588 202.743 50.84C203.175 51.08 203.661 51.2 204.201 51.2ZM212.58 43.388H214.83V53H212.58V43.388ZM213.714 41.804C213.306 41.804 212.964 41.678 212.688 41.426C212.412 41.162 212.274 40.838 212.274 40.454C212.274 40.07 212.412 39.752 212.688 39.5C212.964 39.236 213.306 39.104 213.714 39.104C214.122 39.104 214.464 39.23 214.74 39.482C215.016 39.722 215.154 40.028 215.154 40.4C215.154 40.796 215.016 41.132 214.74 41.408C214.476 41.672 214.134 41.804 213.714 41.804ZM222.463 53.126C221.491 53.126 220.615 52.916 219.835 52.496C219.055 52.076 218.443 51.494 217.999 50.75C217.567 49.994 217.351 49.142 217.351 48.194C217.351 47.246 217.567 46.4 217.999 45.656C218.443 44.912 219.055 44.33 219.835 43.91C220.615 43.49 221.491 43.28 222.463 43.28C223.447 43.28 224.329 43.49 225.109 43.91C225.889 44.33 226.495 44.912 226.927 45.656C227.371 46.4 227.593 47.246 227.593 48.194C227.593 49.142 227.371 49.994 226.927 50.75C226.495 51.494 225.889 52.076 225.109 52.496C224.329 52.916 223.447 53.126 222.463 53.126ZM222.463 51.2C223.291 51.2 223.975 50.924 224.515 50.372C225.055 49.82 225.325 49.094 225.325 48.194C225.325 47.294 225.055 46.568 224.515 46.016C223.975 45.464 223.291 45.188 222.463 45.188C221.635 45.188 220.951 45.464 220.411 46.016C219.883 46.568 219.619 47.294 219.619 48.194C219.619 49.094 219.883 49.82 220.411 50.372C220.951 50.924 221.635 51.2 222.463 51.2ZM230.105 39.644H232.355V53H230.105V39.644ZM239.988 53.126C239.016 53.126 238.14 52.916 237.36 52.496C236.58 52.076 235.968 51.494 235.524 50.75C235.092 49.994 234.876 49.142 234.876 48.194C234.876 47.246 235.092 46.4 235.524 45.656C235.968 44.912 236.58 44.33 237.36 43.91C238.14 43.49 239.016 43.28 239.988 43.28C240.972 43.28 241.854 43.49 242.634 43.91C243.414 44.33 244.02 44.912 244.452 45.656C244.896 46.4 245.118 47.246 245.118 48.194C245.118 49.142 244.896 49.994 244.452 50.75C244.02 51.494 243.414 52.076 242.634 52.496C241.854 52.916 240.972 53.126 239.988 53.126ZM239.988 51.2C240.816 51.2 241.5 50.924 242.04 50.372C242.58 49.82 242.85 49.094 242.85 48.194C242.85 47.294 242.58 46.568 242.04 46.016C241.5 45.464 240.816 45.188 239.988 45.188C239.16 45.188 238.476 45.464 237.936 46.016C237.408 46.568 237.144 47.294 237.144 48.194C237.144 49.094 237.408 49.82 237.936 50.372C238.476 50.924 239.16 51.2 239.988 51.2ZM257.169 43.388V51.542C257.169 54.926 255.441 56.618 251.985 56.618C251.061 56.618 250.185 56.498 249.357 56.258C248.529 56.03 247.845 55.694 247.305 55.25L248.313 53.558C248.733 53.906 249.261 54.182 249.897 54.386C250.545 54.602 251.199 54.71 251.859 54.71C252.915 54.71 253.689 54.47 254.181 53.99C254.673 53.51 254.919 52.778 254.919 51.794V51.29C254.535 51.71 254.067 52.028 253.515 52.244C252.963 52.46 252.357 52.568 251.697 52.568C250.785 52.568 249.957 52.376 249.213 51.992C248.481 51.596 247.899 51.044 247.467 50.336C247.047 49.628 246.837 48.818 246.837 47.906C246.837 46.994 247.047 46.19 247.467 45.494C247.899 44.786 248.481 44.24 249.213 43.856C249.957 43.472 250.785 43.28 251.697 43.28C252.393 43.28 253.023 43.394 253.587 43.622C254.163 43.85 254.643 44.198 255.027 44.666V43.388H257.169ZM252.039 50.66C252.891 50.66 253.587 50.408 254.127 49.904C254.679 49.388 254.955 48.722 254.955 47.906C254.955 47.102 254.679 46.448 254.127 45.944C253.587 45.44 252.891 45.188 252.039 45.188C251.175 45.188 250.467 45.44 249.915 45.944C249.375 46.448 249.105 47.102 249.105 47.906C249.105 48.722 249.375 49.388 249.915 49.904C250.467 50.408 251.175 50.66 252.039 50.66ZM269.487 43.388L264.987 53.774C264.567 54.818 264.057 55.55 263.457 55.97C262.857 56.402 262.131 56.618 261.279 56.618C260.799 56.618 260.325 56.54 259.857 56.384C259.389 56.228 259.005 56.012 258.705 55.736L259.605 54.08C259.821 54.284 260.073 54.446 260.361 54.566C260.661 54.686 260.961 54.746 261.261 54.746C261.657 54.746 261.981 54.644 262.233 54.44C262.497 54.236 262.737 53.894 262.953 53.414L263.115 53.036L258.921 43.388H261.261L264.285 50.498L267.327 43.388H269.487ZM286.254 53.198L284.67 51.668C283.494 52.676 282.084 53.18 280.44 53.18C279.564 53.18 278.778 53.036 278.082 52.748C277.386 52.46 276.84 52.064 276.444 51.56C276.048 51.044 275.85 50.462 275.85 49.814C275.85 49.034 276.078 48.35 276.534 47.762C276.99 47.162 277.734 46.574 278.766 45.998C278.262 45.494 277.902 45.026 277.686 44.594C277.47 44.15 277.362 43.694 277.362 43.226C277.362 42.338 277.692 41.624 278.352 41.084C279.024 40.532 279.912 40.256 281.016 40.256C282.036 40.256 282.852 40.508 283.464 41.012C284.076 41.504 284.382 42.176 284.382 43.028C284.382 43.676 284.178 44.252 283.77 44.756C283.374 45.26 282.72 45.77 281.808 46.286L284.526 48.878C284.826 48.29 285.06 47.582 285.228 46.754L287.046 47.348C286.806 48.464 286.428 49.424 285.912 50.228L287.496 51.74L286.254 53.198ZM281.016 41.858C280.524 41.858 280.134 41.984 279.846 42.236C279.558 42.476 279.414 42.794 279.414 43.19C279.414 43.478 279.492 43.754 279.648 44.018C279.804 44.27 280.104 44.618 280.548 45.062C281.268 44.666 281.766 44.324 282.042 44.036C282.33 43.736 282.474 43.412 282.474 43.064C282.474 42.692 282.342 42.398 282.078 42.182C281.826 41.966 281.472 41.858 281.016 41.858ZM280.602 51.344C281.646 51.344 282.558 51.026 283.338 50.39L280.008 47.204C279.288 47.6 278.778 47.984 278.478 48.356C278.19 48.716 278.046 49.124 278.046 49.58C278.046 50.108 278.28 50.534 278.748 50.858C279.216 51.182 279.834 51.344 280.602 51.344ZM173.524 80.18C172.252 80.18 171.1 79.904 170.068 79.352C169.048 78.788 168.244 78.014 167.656 77.03C167.08 76.046 166.792 74.936 166.792 73.7C166.792 72.464 167.086 71.354 167.674 70.37C168.262 69.386 169.066 68.618 170.086 68.066C171.118 67.502 172.27 67.22 173.542 67.22C174.574 67.22 175.516 67.4 176.368 67.76C177.22 68.12 177.94 68.642 178.528 69.326L177.016 70.748C176.104 69.764 174.982 69.272 173.65 69.272C172.786 69.272 172.012 69.464 171.328 69.848C170.644 70.22 170.11 70.742 169.726 71.414C169.342 72.086 169.15 72.848 169.15 73.7C169.15 74.552 169.342 75.314 169.726 75.986C170.11 76.658 170.644 77.186 171.328 77.57C172.012 77.942 172.786 78.128 173.65 78.128C174.982 78.128 176.104 77.63 177.016 76.634L178.528 78.074C177.94 78.758 177.214 79.28 176.35 79.64C175.498 80 174.556 80.18 173.524 80.18ZM184.498 70.28C185.914 70.28 186.994 70.622 187.738 71.306C188.494 71.978 188.872 72.998 188.872 74.366V80H186.748V78.83C186.472 79.25 186.076 79.574 185.56 79.802C185.056 80.018 184.444 80.126 183.724 80.126C183.004 80.126 182.374 80.006 181.834 79.766C181.294 79.514 180.874 79.172 180.574 78.74C180.286 78.296 180.142 77.798 180.142 77.246C180.142 76.382 180.46 75.692 181.096 75.176C181.744 74.648 182.758 74.384 184.138 74.384H186.622V74.24C186.622 73.568 186.418 73.052 186.01 72.692C185.614 72.332 185.02 72.152 184.228 72.152C183.688 72.152 183.154 72.236 182.626 72.404C182.11 72.572 181.672 72.806 181.312 73.106L180.43 71.468C180.934 71.084 181.54 70.79 182.248 70.586C182.956 70.382 183.706 70.28 184.498 70.28ZM184.192 78.488C184.756 78.488 185.254 78.362 185.686 78.11C186.13 77.846 186.442 77.474 186.622 76.994V75.878H184.3C183.004 75.878 182.356 76.304 182.356 77.156C182.356 77.564 182.518 77.888 182.842 78.128C183.166 78.368 183.616 78.488 184.192 78.488ZM194.262 71.792C194.91 70.784 196.05 70.28 197.682 70.28V72.422C197.49 72.386 197.316 72.368 197.16 72.368C196.284 72.368 195.6 72.626 195.108 73.142C194.616 73.646 194.37 74.378 194.37 75.338V80H192.12V70.388H194.262V71.792ZM209.277 66.644V80H207.117V78.758C206.745 79.214 206.283 79.556 205.731 79.784C205.191 80.012 204.591 80.126 203.931 80.126C203.007 80.126 202.173 79.922 201.429 79.514C200.697 79.106 200.121 78.53 199.701 77.786C199.281 77.03 199.071 76.166 199.071 75.194C199.071 74.222 199.281 73.364 199.701 72.62C200.121 71.876 200.697 71.3 201.429 70.892C202.173 70.484 203.007 70.28 203.931 70.28C204.567 70.28 205.149 70.388 205.677 70.604C206.205 70.82 206.655 71.144 207.027 71.576V66.644H209.277ZM204.201 78.2C204.741 78.2 205.227 78.08 205.659 77.84C206.091 77.588 206.433 77.234 206.685 76.778C206.937 76.322 207.063 75.794 207.063 75.194C207.063 74.594 206.937 74.066 206.685 73.61C206.433 73.154 206.091 72.806 205.659 72.566C205.227 72.314 204.741 72.188 204.201 72.188C203.661 72.188 203.175 72.314 202.743 72.566C202.311 72.806 201.969 73.154 201.717 73.61C201.465 74.066 201.339 74.594 201.339 75.194C201.339 75.794 201.465 76.322 201.717 76.778C201.969 77.234 202.311 77.588 202.743 77.84C203.175 78.08 203.661 78.2 204.201 78.2ZM212.58 70.388H214.83V80H212.58V70.388ZM213.714 68.804C213.306 68.804 212.964 68.678 212.688 68.426C212.412 68.162 212.274 67.838 212.274 67.454C212.274 67.07 212.412 66.752 212.688 66.5C212.964 66.236 213.306 66.104 213.714 66.104C214.122 66.104 214.464 66.23 214.74 66.482C215.016 66.722 215.154 67.028 215.154 67.4C215.154 67.796 215.016 68.132 214.74 68.408C214.476 68.672 214.134 68.804 213.714 68.804ZM221.815 70.28C223.231 70.28 224.311 70.622 225.055 71.306C225.811 71.978 226.189 72.998 226.189 74.366V80H224.065V78.83C223.789 79.25 223.393 79.574 222.877 79.802C222.373 80.018 221.761 80.126 221.041 80.126C220.321 80.126 219.691 80.006 219.151 79.766C218.611 79.514 218.191 79.172 217.891 78.74C217.603 78.296 217.459 77.798 217.459 77.246C217.459 76.382 217.777 75.692 218.413 75.176C219.061 74.648 220.075 74.384 221.455 74.384H223.939V74.24C223.939 73.568 223.735 73.052 223.327 72.692C222.931 72.332 222.337 72.152 221.545 72.152C221.005 72.152 220.471 72.236 219.943 72.404C219.427 72.572 218.989 72.806 218.629 73.106L217.747 71.468C218.251 71.084 218.857 70.79 219.565 70.586C220.273 70.382 221.023 70.28 221.815 70.28ZM221.509 78.488C222.073 78.488 222.571 78.362 223.003 78.11C223.447 77.846 223.759 77.474 223.939 76.994V75.878H221.617C220.321 75.878 219.673 76.304 219.673 77.156C219.673 77.564 219.835 77.888 220.159 78.128C220.483 78.368 220.933 78.488 221.509 78.488ZM233.935 80.126C232.939 80.126 232.045 79.916 231.253 79.496C230.461 79.076 229.843 78.494 229.399 77.75C228.955 76.994 228.733 76.142 228.733 75.194C228.733 74.246 228.955 73.4 229.399 72.656C229.843 71.912 230.455 71.33 231.235 70.91C232.027 70.49 232.927 70.28 233.935 70.28C234.883 70.28 235.711 70.472 236.419 70.856C237.139 71.24 237.679 71.792 238.039 72.512L236.311 73.52C236.035 73.076 235.687 72.746 235.267 72.53C234.859 72.302 234.409 72.188 233.917 72.188C233.077 72.188 232.381 72.464 231.829 73.016C231.277 73.556 231.001 74.282 231.001 75.194C231.001 76.106 231.271 76.838 231.811 77.39C232.363 77.93 233.065 78.2 233.917 78.2C234.409 78.2 234.859 78.092 235.267 77.876C235.687 77.648 236.035 77.312 236.311 76.868L238.039 77.876C237.667 78.596 237.121 79.154 236.401 79.55C235.693 79.934 234.871 80.126 233.935 80.126ZM249.8 80.18C248.828 80.18 247.886 80.042 246.974 79.766C246.074 79.49 245.36 79.124 244.832 78.668L245.642 76.85C246.158 77.258 246.788 77.594 247.532 77.858C248.288 78.11 249.044 78.236 249.8 78.236C250.736 78.236 251.432 78.086 251.888 77.786C252.356 77.486 252.59 77.09 252.59 76.598C252.59 76.238 252.458 75.944 252.194 75.716C251.942 75.476 251.618 75.29 251.222 75.158C250.826 75.026 250.286 74.876 249.602 74.708C248.642 74.48 247.862 74.252 247.262 74.024C246.674 73.796 246.164 73.442 245.732 72.962C245.312 72.47 245.102 71.81 245.102 70.982C245.102 70.286 245.288 69.656 245.66 69.092C246.044 68.516 246.614 68.06 247.37 67.724C248.138 67.388 249.074 67.22 250.178 67.22C250.946 67.22 251.702 67.316 252.446 67.508C253.19 67.7 253.832 67.976 254.372 68.336L253.634 70.154C253.082 69.83 252.506 69.584 251.906 69.416C251.306 69.248 250.724 69.164 250.16 69.164C249.236 69.164 248.546 69.32 248.09 69.632C247.646 69.944 247.424 70.358 247.424 70.874C247.424 71.234 247.55 71.528 247.802 71.756C248.066 71.984 248.396 72.164 248.792 72.296C249.188 72.428 249.728 72.578 250.412 72.746C251.348 72.962 252.116 73.19 252.716 73.43C253.316 73.658 253.826 74.012 254.246 74.492C254.678 74.972 254.894 75.62 254.894 76.436C254.894 77.132 254.702 77.762 254.318 78.326C253.946 78.89 253.376 79.34 252.608 79.676C251.84 80.012 250.904 80.18 249.8 80.18ZM266.665 70.388V80H264.523V78.776C264.163 79.208 263.713 79.544 263.173 79.784C262.633 80.012 262.051 80.126 261.427 80.126C260.143 80.126 259.129 79.772 258.385 79.064C257.653 78.344 257.287 77.282 257.287 75.878V70.388H259.537V75.572C259.537 76.436 259.729 77.084 260.113 77.516C260.509 77.936 261.067 78.146 261.787 78.146C262.591 78.146 263.227 77.9 263.695 77.408C264.175 76.904 264.415 76.184 264.415 75.248V70.388H266.665ZM272.113 71.792C272.761 70.784 273.901 70.28 275.533 70.28V72.422C275.341 72.386 275.167 72.368 275.011 72.368C274.135 72.368 273.451 72.626 272.959 73.142C272.467 73.646 272.221 74.378 272.221 75.338V80H269.971V70.388H272.113V71.792ZM287.253 70.388V78.542C287.253 81.926 285.525 83.618 282.069 83.618C281.145 83.618 280.269 83.498 279.441 83.258C278.613 83.03 277.929 82.694 277.389 82.25L278.397 80.558C278.817 80.906 279.345 81.182 279.981 81.386C280.629 81.602 281.283 81.71 281.943 81.71C282.999 81.71 283.773 81.47 284.265 80.99C284.757 80.51 285.003 79.778 285.003 78.794V78.29C284.619 78.71 284.151 79.028 283.599 79.244C283.047 79.46 282.441 79.568 281.781 79.568C280.869 79.568 280.041 79.376 279.297 78.992C278.565 78.596 277.983 78.044 277.551 77.336C277.131 76.628 276.921 75.818 276.921 74.906C276.921 73.994 277.131 73.19 277.551 72.494C277.983 71.786 278.565 71.24 279.297 70.856C280.041 70.472 280.869 70.28 281.781 70.28C282.477 70.28 283.107 70.394 283.671 70.622C284.247 70.85 284.727 71.198 285.111 71.666V70.388H287.253ZM282.123 77.66C282.975 77.66 283.671 77.408 284.211 76.904C284.763 76.388 285.039 75.722 285.039 74.906C285.039 74.102 284.763 73.448 284.211 72.944C283.671 72.44 282.975 72.188 282.123 72.188C281.259 72.188 280.551 72.44 279.999 72.944C279.459 73.448 279.189 74.102 279.189 74.906C279.189 75.722 279.459 76.388 279.999 76.904C280.551 77.408 281.259 77.66 282.123 77.66ZM299.607 75.248C299.607 75.404 299.595 75.626 299.571 75.914H292.029C292.161 76.622 292.503 77.186 293.055 77.606C293.619 78.014 294.315 78.218 295.143 78.218C296.199 78.218 297.069 77.87 297.753 77.174L298.959 78.56C298.527 79.076 297.981 79.466 297.321 79.73C296.661 79.994 295.917 80.126 295.089 80.126C294.033 80.126 293.103 79.916 292.299 79.496C291.495 79.076 290.871 78.494 290.427 77.75C289.995 76.994 289.779 76.142 289.779 75.194C289.779 74.258 289.989 73.418 290.409 72.674C290.841 71.918 291.435 71.33 292.191 70.91C292.947 70.49 293.799 70.28 294.747 70.28C295.683 70.28 296.517 70.49 297.249 70.91C297.993 71.318 298.569 71.9 298.977 72.656C299.397 73.4 299.607 74.264 299.607 75.248ZM294.747 72.08C294.027 72.08 293.415 72.296 292.911 72.728C292.419 73.148 292.119 73.712 292.011 74.42H297.465C297.369 73.724 297.075 73.16 296.583 72.728C296.091 72.296 295.479 72.08 294.747 72.08ZM304.271 71.792C304.919 70.784 306.059 70.28 307.691 70.28V72.422C307.499 72.386 307.325 72.368 307.169 72.368C306.293 72.368 305.609 72.626 305.117 73.142C304.625 73.646 304.379 74.378 304.379 75.338V80H302.129V70.388H304.271V71.792ZM319.311 70.388L314.811 80.774C314.391 81.818 313.881 82.55 313.281 82.97C312.681 83.402 311.955 83.618 311.103 83.618C310.623 83.618 310.149 83.54 309.681 83.384C309.213 83.228 308.829 83.012 308.529 82.736L309.429 81.08C309.645 81.284 309.897 81.446 310.185 81.566C310.485 81.686 310.785 81.746 311.085 81.746C311.481 81.746 311.805 81.644 312.057 81.44C312.321 81.236 312.561 80.894 312.777 80.414L312.939 80.036L308.745 70.388H311.085L314.109 77.498L317.151 70.388H319.311Z" fill="white"/>
<path d="M169.85 105.088C171.166 105.088 172.179 105.513 172.888 106.362C173.607 107.211 173.966 108.415 173.966 109.974C173.966 111.066 173.77 111.999 173.378 112.774C172.995 113.539 172.454 114.123 171.754 114.524C171.063 114.916 170.256 115.112 169.332 115.112C168.856 115.112 168.408 115.065 167.988 114.972C167.568 114.869 167.204 114.725 166.896 114.538L167.428 113.446C167.904 113.754 168.534 113.908 169.318 113.908C170.335 113.908 171.129 113.595 171.698 112.97C172.277 112.335 172.566 111.416 172.566 110.212V109.862C172.286 110.282 171.899 110.604 171.404 110.828C170.909 111.043 170.354 111.15 169.738 111.15C169.094 111.15 168.515 111.029 168.002 110.786C167.498 110.543 167.101 110.198 166.812 109.75C166.532 109.293 166.392 108.77 166.392 108.182C166.392 107.566 166.541 107.025 166.84 106.558C167.148 106.091 167.563 105.732 168.086 105.48C168.609 105.219 169.197 105.088 169.85 105.088ZM169.976 110.016C170.415 110.016 170.807 109.932 171.152 109.764C171.497 109.596 171.763 109.367 171.95 109.078C172.146 108.789 172.244 108.467 172.244 108.112C172.244 107.767 172.151 107.454 171.964 107.174C171.787 106.885 171.521 106.656 171.166 106.488C170.821 106.311 170.401 106.222 169.906 106.222C169.262 106.222 168.739 106.395 168.338 106.74C167.946 107.085 167.75 107.547 167.75 108.126C167.75 108.705 167.951 109.167 168.352 109.512C168.753 109.848 169.295 110.016 169.976 110.016ZM183.006 115.112C182.269 115.112 181.555 115 180.864 114.776C180.183 114.543 179.646 114.244 179.254 113.88L179.772 112.788C180.146 113.124 180.622 113.399 181.2 113.614C181.788 113.819 182.39 113.922 183.006 113.922C183.818 113.922 184.425 113.787 184.826 113.516C185.228 113.236 185.428 112.867 185.428 112.41C185.428 112.074 185.316 111.803 185.092 111.598C184.878 111.383 184.607 111.22 184.28 111.108C183.963 110.996 183.51 110.87 182.922 110.73C182.185 110.553 181.588 110.375 181.13 110.198C180.682 110.021 180.295 109.75 179.968 109.386C179.651 109.013 179.492 108.513 179.492 107.888C179.492 107.365 179.628 106.894 179.898 106.474C180.178 106.054 180.598 105.718 181.158 105.466C181.718 105.214 182.414 105.088 183.244 105.088C183.823 105.088 184.392 105.163 184.952 105.312C185.512 105.461 185.993 105.676 186.394 105.956L185.932 107.076C185.522 106.815 185.083 106.619 184.616 106.488C184.15 106.348 183.692 106.278 183.244 106.278C182.451 106.278 181.854 106.423 181.452 106.712C181.06 107.001 180.864 107.375 180.864 107.832C180.864 108.168 180.976 108.443 181.2 108.658C181.424 108.863 181.7 109.027 182.026 109.148C182.362 109.26 182.815 109.381 183.384 109.512C184.122 109.689 184.714 109.867 185.162 110.044C185.61 110.221 185.993 110.492 186.31 110.856C186.637 111.22 186.8 111.71 186.8 112.326C186.8 112.839 186.66 113.311 186.38 113.74C186.1 114.16 185.676 114.496 185.106 114.748C184.537 114.991 183.837 115.112 183.006 115.112ZM192.724 107.51C193.442 107.51 194.086 107.669 194.656 107.986C195.225 108.303 195.668 108.747 195.986 109.316C196.312 109.885 196.476 110.543 196.476 111.29C196.476 112.037 196.312 112.699 195.986 113.278C195.668 113.847 195.225 114.291 194.656 114.608C194.086 114.925 193.442 115.084 192.724 115.084C192.192 115.084 191.702 114.981 191.254 114.776C190.815 114.571 190.442 114.272 190.134 113.88V117.716H188.79V107.58H190.078V108.756C190.376 108.345 190.754 108.037 191.212 107.832C191.669 107.617 192.173 107.51 192.724 107.51ZM192.612 113.908C193.088 113.908 193.512 113.801 193.886 113.586C194.268 113.362 194.567 113.054 194.782 112.662C195.006 112.261 195.118 111.803 195.118 111.29C195.118 110.777 195.006 110.324 194.782 109.932C194.567 109.531 194.268 109.223 193.886 109.008C193.512 108.793 193.088 108.686 192.612 108.686C192.145 108.686 191.72 108.798 191.338 109.022C190.964 109.237 190.666 109.54 190.442 109.932C190.227 110.324 190.12 110.777 190.12 111.29C190.12 111.803 190.227 112.261 190.442 112.662C190.656 113.054 190.955 113.362 191.338 113.586C191.72 113.801 192.145 113.908 192.612 113.908ZM205.179 111.332C205.179 111.435 205.169 111.57 205.151 111.738H199.131C199.215 112.391 199.499 112.919 199.985 113.32C200.479 113.712 201.091 113.908 201.819 113.908C202.705 113.908 203.419 113.609 203.961 113.012L204.703 113.88C204.367 114.272 203.947 114.571 203.443 114.776C202.948 114.981 202.393 115.084 201.777 115.084C200.993 115.084 200.297 114.925 199.691 114.608C199.084 114.281 198.613 113.829 198.277 113.25C197.95 112.671 197.787 112.018 197.787 111.29C197.787 110.571 197.945 109.923 198.263 109.344C198.589 108.765 199.033 108.317 199.593 108C200.162 107.673 200.801 107.51 201.511 107.51C202.22 107.51 202.85 107.673 203.401 108C203.961 108.317 204.395 108.765 204.703 109.344C205.02 109.923 205.179 110.585 205.179 111.332ZM201.511 108.644C200.867 108.644 200.325 108.84 199.887 109.232C199.457 109.624 199.205 110.137 199.131 110.772H203.891C203.816 110.147 203.559 109.638 203.121 109.246C202.691 108.845 202.155 108.644 201.511 108.644ZM210.419 115.084C209.663 115.084 208.986 114.921 208.389 114.594C207.801 114.267 207.339 113.819 207.003 113.25C206.667 112.671 206.499 112.018 206.499 111.29C206.499 110.562 206.667 109.913 207.003 109.344C207.339 108.765 207.801 108.317 208.389 108C208.986 107.673 209.663 107.51 210.419 107.51C211.091 107.51 211.688 107.645 212.211 107.916C212.743 108.187 213.154 108.579 213.443 109.092L212.421 109.75C212.188 109.395 211.898 109.129 211.553 108.952C211.208 108.775 210.825 108.686 210.405 108.686C209.92 108.686 209.481 108.793 209.089 109.008C208.706 109.223 208.403 109.531 208.179 109.932C207.964 110.324 207.857 110.777 207.857 111.29C207.857 111.813 207.964 112.275 208.179 112.676C208.403 113.068 208.706 113.371 209.089 113.586C209.481 113.801 209.92 113.908 210.405 113.908C210.825 113.908 211.208 113.819 211.553 113.642C211.898 113.465 212.188 113.199 212.421 112.844L213.443 113.488C213.154 114.001 212.743 114.398 212.211 114.678C211.688 114.949 211.091 115.084 210.419 115.084ZM215.323 107.58H216.667V115H215.323V107.58ZM215.995 106.152C215.734 106.152 215.514 106.068 215.337 105.9C215.169 105.732 215.085 105.527 215.085 105.284C215.085 105.041 215.169 104.836 215.337 104.668C215.514 104.491 215.734 104.402 215.995 104.402C216.256 104.402 216.471 104.486 216.639 104.654C216.816 104.813 216.905 105.013 216.905 105.256C216.905 105.508 216.816 105.723 216.639 105.9C216.471 106.068 216.256 106.152 215.995 106.152ZM222.075 107.51C223.102 107.51 223.886 107.762 224.427 108.266C224.978 108.77 225.253 109.521 225.253 110.52V115H223.979V114.02C223.755 114.365 223.433 114.631 223.013 114.818C222.602 114.995 222.112 115.084 221.543 115.084C220.712 115.084 220.045 114.883 219.541 114.482C219.046 114.081 218.799 113.553 218.799 112.9C218.799 112.247 219.037 111.724 219.513 111.332C219.989 110.931 220.745 110.73 221.781 110.73H223.909V110.464C223.909 109.885 223.741 109.442 223.405 109.134C223.069 108.826 222.574 108.672 221.921 108.672C221.482 108.672 221.053 108.747 220.633 108.896C220.213 109.036 219.858 109.227 219.569 109.47L219.009 108.462C219.392 108.154 219.849 107.921 220.381 107.762C220.913 107.594 221.478 107.51 222.075 107.51ZM221.767 114.048C222.28 114.048 222.724 113.936 223.097 113.712C223.47 113.479 223.741 113.152 223.909 112.732V111.696H221.837C220.698 111.696 220.129 112.079 220.129 112.844C220.129 113.217 220.274 113.511 220.563 113.726C220.852 113.941 221.254 114.048 221.767 114.048ZM227.88 104.612H229.224V115H227.88V104.612ZM231.93 107.58H233.274V115H231.93V107.58ZM232.602 106.152C232.341 106.152 232.122 106.068 231.944 105.9C231.776 105.732 231.692 105.527 231.692 105.284C231.692 105.041 231.776 104.836 231.944 104.668C232.122 104.491 232.341 104.402 232.602 104.402C232.864 104.402 233.078 104.486 233.246 104.654C233.424 104.813 233.512 105.013 233.512 105.256C233.512 105.508 233.424 105.723 233.246 105.9C233.078 106.068 232.864 106.152 232.602 106.152ZM240.153 114.566C239.957 114.734 239.714 114.865 239.425 114.958C239.135 115.042 238.837 115.084 238.529 115.084C237.782 115.084 237.203 114.883 236.793 114.482C236.382 114.081 236.177 113.507 236.177 112.76V108.686H234.917V107.58H236.177V105.956H237.521V107.58H239.649V108.686H237.521V112.704C237.521 113.105 237.619 113.413 237.815 113.628C238.02 113.843 238.309 113.95 238.683 113.95C239.093 113.95 239.443 113.833 239.733 113.6L240.153 114.566ZM241.918 107.58H243.262V115H241.918V107.58ZM242.59 106.152C242.328 106.152 242.109 106.068 241.932 105.9C241.764 105.732 241.68 105.527 241.68 105.284C241.68 105.041 241.764 104.836 241.932 104.668C242.109 104.491 242.328 104.402 242.59 104.402C242.851 104.402 243.066 104.486 243.234 104.654C243.411 104.813 243.5 105.013 243.5 105.256C243.5 105.508 243.411 105.723 243.234 105.9C243.066 106.068 242.851 106.152 242.59 106.152ZM252.674 111.332C252.674 111.435 252.664 111.57 252.646 111.738H246.626C246.71 112.391 246.994 112.919 247.48 113.32C247.974 113.712 248.586 113.908 249.314 113.908C250.2 113.908 250.914 113.609 251.456 113.012L252.198 113.88C251.862 114.272 251.442 114.571 250.938 114.776C250.443 114.981 249.888 115.084 249.272 115.084C248.488 115.084 247.792 114.925 247.186 114.608C246.579 114.281 246.108 113.829 245.772 113.25C245.445 112.671 245.282 112.018 245.282 111.29C245.282 110.571 245.44 109.923 245.758 109.344C246.084 108.765 246.528 108.317 247.088 108C247.657 107.673 248.296 107.51 249.006 107.51C249.715 107.51 250.345 107.673 250.896 108C251.456 108.317 251.89 108.765 252.198 109.344C252.515 109.923 252.674 110.585 252.674 111.332ZM249.006 108.644C248.362 108.644 247.82 108.84 247.382 109.232C246.952 109.624 246.7 110.137 246.626 110.772H251.386C251.311 110.147 251.054 109.638 250.616 109.246C250.186 108.845 249.65 108.644 249.006 108.644ZM256.808 115.084C256.201 115.084 255.618 115.005 255.058 114.846C254.498 114.678 254.059 114.468 253.742 114.216L254.302 113.152C254.629 113.385 255.025 113.572 255.492 113.712C255.959 113.852 256.43 113.922 256.906 113.922C258.082 113.922 258.67 113.586 258.67 112.914C258.67 112.69 258.591 112.513 258.432 112.382C258.273 112.251 258.073 112.158 257.83 112.102C257.597 112.037 257.261 111.967 256.822 111.892C256.225 111.799 255.735 111.691 255.352 111.57C254.979 111.449 254.657 111.243 254.386 110.954C254.115 110.665 253.98 110.259 253.98 109.736C253.98 109.064 254.26 108.527 254.82 108.126C255.38 107.715 256.131 107.51 257.074 107.51C257.569 107.51 258.063 107.571 258.558 107.692C259.053 107.813 259.459 107.977 259.776 108.182L259.202 109.246C258.595 108.854 257.881 108.658 257.06 108.658C256.491 108.658 256.057 108.751 255.758 108.938C255.459 109.125 255.31 109.372 255.31 109.68C255.31 109.923 255.394 110.114 255.562 110.254C255.73 110.394 255.935 110.497 256.178 110.562C256.43 110.627 256.78 110.702 257.228 110.786C257.825 110.889 258.306 111.001 258.67 111.122C259.043 111.234 259.361 111.43 259.622 111.71C259.883 111.99 260.014 112.382 260.014 112.886C260.014 113.558 259.725 114.095 259.146 114.496C258.577 114.888 257.797 115.084 256.808 115.084Z" fill="white"/>
<path d="M175.198 139.592H173.336V142H171.978V139.592H166.532V138.612L171.544 132.2H173.056L168.254 138.388H172.02V136.26H173.336V138.388H175.198V139.592ZM180.875 132.2H185.005C186.041 132.2 186.96 132.405 187.763 132.816C188.566 133.227 189.186 133.805 189.625 134.552C190.073 135.289 190.297 136.139 190.297 137.1C190.297 138.061 190.073 138.915 189.625 139.662C189.186 140.399 188.566 140.973 187.763 141.384C186.96 141.795 186.041 142 185.005 142H180.875V132.2ZM184.921 140.782C185.714 140.782 186.41 140.628 187.007 140.32C187.614 140.012 188.08 139.583 188.407 139.032C188.734 138.472 188.897 137.828 188.897 137.1C188.897 136.372 188.734 135.733 188.407 135.182C188.08 134.622 187.614 134.188 187.007 133.88C186.41 133.572 185.714 133.418 184.921 133.418H182.275V140.782H184.921ZM195.563 142.084C194.826 142.084 194.163 141.921 193.575 141.594C192.987 141.267 192.525 140.819 192.189 140.25C191.863 139.671 191.699 139.018 191.699 138.29C191.699 137.562 191.863 136.913 192.189 136.344C192.525 135.765 192.987 135.317 193.575 135C194.163 134.673 194.826 134.51 195.563 134.51C196.301 134.51 196.959 134.673 197.537 135C198.125 135.317 198.583 135.765 198.909 136.344C199.245 136.913 199.413 137.562 199.413 138.29C199.413 139.018 199.245 139.671 198.909 140.25C198.583 140.819 198.125 141.267 197.537 141.594C196.959 141.921 196.301 142.084 195.563 142.084ZM195.563 140.908C196.039 140.908 196.464 140.801 196.837 140.586C197.22 140.362 197.519 140.054 197.733 139.662C197.948 139.261 198.055 138.803 198.055 138.29C198.055 137.777 197.948 137.324 197.733 136.932C197.519 136.531 197.22 136.223 196.837 136.008C196.464 135.793 196.039 135.686 195.563 135.686C195.087 135.686 194.658 135.793 194.275 136.008C193.902 136.223 193.603 136.531 193.379 136.932C193.165 137.324 193.057 137.777 193.057 138.29C193.057 138.803 193.165 139.261 193.379 139.662C193.603 140.054 193.902 140.362 194.275 140.586C194.658 140.801 195.087 140.908 195.563 140.908ZM204.646 142.084C203.89 142.084 203.213 141.921 202.616 141.594C202.028 141.267 201.566 140.819 201.23 140.25C200.894 139.671 200.726 139.018 200.726 138.29C200.726 137.562 200.894 136.913 201.23 136.344C201.566 135.765 202.028 135.317 202.616 135C203.213 134.673 203.89 134.51 204.646 134.51C205.318 134.51 205.915 134.645 206.438 134.916C206.97 135.187 207.381 135.579 207.67 136.092L206.648 136.75C206.415 136.395 206.125 136.129 205.78 135.952C205.435 135.775 205.052 135.686 204.632 135.686C204.147 135.686 203.708 135.793 203.316 136.008C202.933 136.223 202.63 136.531 202.406 136.932C202.191 137.324 202.084 137.777 202.084 138.29C202.084 138.813 202.191 139.275 202.406 139.676C202.63 140.068 202.933 140.371 203.316 140.586C203.708 140.801 204.147 140.908 204.632 140.908C205.052 140.908 205.435 140.819 205.78 140.642C206.125 140.465 206.415 140.199 206.648 139.844L207.67 140.488C207.381 141.001 206.97 141.398 206.438 141.678C205.915 141.949 205.318 142.084 204.646 142.084ZM213.818 141.566C213.622 141.734 213.379 141.865 213.09 141.958C212.801 142.042 212.502 142.084 212.194 142.084C211.447 142.084 210.869 141.883 210.458 141.482C210.047 141.081 209.842 140.507 209.842 139.76V135.686H208.582V134.58H209.842V132.956H211.186V134.58H213.314V135.686H211.186V139.704C211.186 140.105 211.284 140.413 211.48 140.628C211.685 140.843 211.975 140.95 212.348 140.95C212.759 140.95 213.109 140.833 213.398 140.6L213.818 141.566ZM218.515 142.084C217.777 142.084 217.115 141.921 216.527 141.594C215.939 141.267 215.477 140.819 215.141 140.25C214.814 139.671 214.651 139.018 214.651 138.29C214.651 137.562 214.814 136.913 215.141 136.344C215.477 135.765 215.939 135.317 216.527 135C217.115 134.673 217.777 134.51 218.515 134.51C219.252 134.51 219.91 134.673 220.489 135C221.077 135.317 221.534 135.765 221.861 136.344C222.197 136.913 222.365 137.562 222.365 138.29C222.365 139.018 222.197 139.671 221.861 140.25C221.534 140.819 221.077 141.267 220.489 141.594C219.91 141.921 219.252 142.084 218.515 142.084ZM218.515 140.908C218.991 140.908 219.415 140.801 219.789 140.586C220.171 140.362 220.47 140.054 220.685 139.662C220.899 139.261 221.007 138.803 221.007 138.29C221.007 137.777 220.899 137.324 220.685 136.932C220.47 136.531 220.171 136.223 219.789 136.008C219.415 135.793 218.991 135.686 218.515 135.686C218.039 135.686 217.609 135.793 217.227 136.008C216.853 136.223 216.555 136.531 216.331 136.932C216.116 137.324 216.009 137.777 216.009 138.29C216.009 138.803 216.116 139.261 216.331 139.662C216.555 140.054 216.853 140.362 217.227 140.586C217.609 140.801 218.039 140.908 218.515 140.908ZM225.651 135.826C225.885 135.397 226.23 135.07 226.687 134.846C227.145 134.622 227.7 134.51 228.353 134.51V135.812C228.279 135.803 228.176 135.798 228.045 135.798C227.317 135.798 226.743 136.017 226.323 136.456C225.913 136.885 225.707 137.501 225.707 138.304V142H224.363V134.58H225.651V135.826ZM232.333 142.084C231.726 142.084 231.143 142.005 230.583 141.846C230.023 141.678 229.584 141.468 229.267 141.216L229.827 140.152C230.153 140.385 230.55 140.572 231.017 140.712C231.483 140.852 231.955 140.922 232.431 140.922C233.607 140.922 234.195 140.586 234.195 139.914C234.195 139.69 234.115 139.513 233.957 139.382C233.798 139.251 233.597 139.158 233.355 139.102C233.121 139.037 232.785 138.967 232.347 138.892C231.749 138.799 231.259 138.691 230.877 138.57C230.503 138.449 230.181 138.243 229.911 137.954C229.64 137.665 229.505 137.259 229.505 136.736C229.505 136.064 229.785 135.527 230.345 135.126C230.905 134.715 231.656 134.51 232.599 134.51C233.093 134.51 233.588 134.571 234.083 134.692C234.577 134.813 234.983 134.977 235.301 135.182L234.727 136.246C234.12 135.854 233.406 135.658 232.585 135.658C232.015 135.658 231.581 135.751 231.283 135.938C230.984 136.125 230.835 136.372 230.835 136.68C230.835 136.923 230.919 137.114 231.087 137.254C231.255 137.394 231.46 137.497 231.703 137.562C231.955 137.627 232.305 137.702 232.753 137.786C233.35 137.889 233.831 138.001 234.195 138.122C234.568 138.234 234.885 138.43 235.147 138.71C235.408 138.99 235.539 139.382 235.539 139.886C235.539 140.558 235.249 141.095 234.671 141.496C234.101 141.888 233.322 142.084 232.333 142.084Z" fill="white"/>
<circle cx="92" cy="92" r="60" fill="white"/>
<path d="M100.51 67.5153C101.715 67.6119 102.849 67.699 103.994 67.7845C104.275 68.7741 103.947 69.1256 102.961 69.3218C95.7643 70.7343 90.1652 74.7019 85.6633 80.3566C85.5575 80.5367 85.4649 80.7242 85.3863 80.9177C92.0486 74.8439 99.3779 71.0097 108.374 70.8057C108.551 72.7864 108.744 74.6838 108.85 76.5829C108.861 76.7696 108.355 77.0686 108.043 77.1785C103.367 78.7448 99.4693 82.0442 97.1525 86.3975C96.7852 87.0668 96.4886 87.7723 96.1708 88.4676C96.1088 88.6344 96.0886 88.8138 96.1119 88.9902C97.2325 86.8232 98.7746 84.9018 100.648 83.3386C102.521 81.7755 104.687 80.6021 107.02 79.8873C107.28 80.4956 107.486 81.1259 107.634 81.7707C107.676 82.0344 107.392 82.4361 107.142 82.6559C104.857 84.5496 102.954 86.8606 101.533 89.4657C101.42 89.6784 101.318 89.8965 101.228 90.1194C101.205 90.1673 101.249 90.2457 101.191 90.0072C102.222 89.0765 103.371 88.036 104.589 86.935C106.861 89.5182 108.487 92.6038 109.335 95.9381C110.201 99.9303 110.38 104.041 109.863 108.094C109.56 111.202 109.016 114.286 108.482 117.364C108.266 118.35 107.919 119.302 107.451 120.196C105.87 123.512 103.5 124.59 99.9319 123.703C96.8834 122.84 93.9982 121.479 91.3925 119.677C86.8749 116.78 82.3682 113.861 78.9468 109.608C75.3049 105.087 73.0927 99.9826 73.0033 94.1317C72.8809 86.3103 76.201 80.0153 81.9641 74.9271C83.4448 73.6197 85.2003 72.6223 86.685 71.3213C90.1146 68.3894 92.7847 64.672 94.4679 60.4858C94.5252 60.3288 94.6091 60.1836 94.6963 60C94.9114 60.0259 95.1251 60.0626 95.3366 60.1099C95.6654 60.2056 95.984 60.3249 96.5443 60.5148C95.6811 63.2904 94.8249 66.0181 93.95 68.8188C97.5071 66.926 100.811 64.7618 103.136 61.4063C104.024 61.5287 103.999 62.0089 103.648 62.5723C102.637 64.1881 101.607 65.7897 100.509 67.5122L100.51 67.5153Z" fill="#B52A4E"/>
<defs>
<filter id="filter0_d" x="0" y="0" width="384" height="184" filterUnits="userSpaceOnUse" color-interpolation-filters="sRGB">
<feFlood flood-opacity="0" result="BackgroundImageFix"/>
<feColorMatrix in="SourceAlpha" type="matrix" values="0 0 0 0 0 0 0 0 0 0 0 0 0 0 0 0 0 0 127 0"/>
<feMorphology radius="2" operator="dilate" in="SourceAlpha" result="effect1_dropShadow"/>
<feOffset/>
<feGaussianBlur stdDeviation="5"/>
<feColorMatrix type="matrix" values="0 0 0 0 0.0117647 0 0 0 0 0.305882 0 0 0 0 0.635294 0 0 0 0.2 0"/>
<feBlend mode="normal" in2="BackgroundImageFix" result="effect1_dropShadow"/>
<feBlend mode="normal" in="SourceGraphic" in2="effect1_dropShadow" result="shape"/>
</filter>
</defs>
</svg>
