<svg width="25" height="24" viewBox="0 0 25 24" fill="none" xmlns="http://www.w3.org/2000/svg">
<g clip-path="url(#clip0)">
<path d="M11.4987 18.7513L12.1384 18.6879L12.9819 18.6106C13.2625 18.584 13.5437 18.5562 13.825 18.5302C14.1587 18.4986 14.4919 18.4669 14.8257 18.4378L15.8195 18.3434L16.9709 18.2364C17.4071 18.1941 17.8432 18.1519 18.2794 18.1097C18.6157 18.078 18.9527 18.0546 19.2877 18.0128C19.3773 17.9979 19.4691 18.0029 19.5565 18.0275C19.6439 18.052 19.7248 18.0955 19.7935 18.1549C19.8622 18.2143 19.9169 18.288 19.9539 18.371C19.9908 18.4539 20.009 18.544 20.0072 18.6347C20.0075 18.736 19.9815 18.8357 19.9317 18.9239C19.882 19.0122 19.8102 19.086 19.7235 19.1382L13.6742 22.984C13.1574 23.3125 12.6405 23.6419 12.1237 23.9721C12.1063 23.9853 12.0854 23.9931 12.0636 23.9946C12.0417 23.996 12.02 23.9911 12.0009 23.9803C10.5772 23.3322 9.15267 22.6857 7.72761 22.0409C7.68197 22.0213 7.63289 22.0107 7.58318 22.0099C7.21647 22.0099 6.85049 22.0099 6.48377 22.0099H6.40259V18.0115C6.42856 18.0115 6.45198 18.0083 6.47542 18.0083C7.51793 18.0083 8.56024 18.0083 9.60234 18.0083C9.64208 18.009 9.68086 18.0207 9.71444 18.0419C10.5619 18.6056 11.4085 19.1708 12.2542 19.7374C12.4155 19.836 12.5362 19.9891 12.5943 20.169C12.6524 20.3488 12.6441 20.5436 12.5709 20.7179C12.5275 20.8159 12.4653 20.9044 12.3877 20.9783C12.31 21.0521 12.2186 21.11 12.1186 21.1485C12.0186 21.1869 11.9119 21.2053 11.8047 21.2025C11.6976 21.1997 11.5921 21.1757 11.4942 21.1321C11.4212 21.0965 11.3507 21.0558 11.2833 21.0105C10.8007 20.6891 10.3189 20.3672 9.83799 20.0446L9.77459 20.0028L9.55811 20.3321C9.57901 20.348 9.59724 20.3625 9.61687 20.3752C10.1236 20.713 10.6313 21.0523 11.1401 21.393C11.3875 21.5689 11.6924 21.6441 11.9932 21.6036C12.294 21.563 12.5682 21.4096 12.7602 21.1745C12.9521 20.9394 13.0475 20.6402 13.0271 20.3374C13.0066 20.0345 12.8719 19.7508 12.6501 19.5436C12.5381 19.4501 12.4206 19.3636 12.298 19.2846C12.0586 19.1212 11.8165 18.9609 11.5759 18.7994C11.5505 18.7899 11.5304 18.7747 11.4987 18.7513Z" fill="#034EA2"/>
<path d="M3.59863 22.4097V17.6165H5.99338V22.4097H3.59863Z" fill="#034EA2"/>
<path d="M3.59937 6.39438V0.0012207H4.3937V6.39438H3.59937Z" fill="#034EA2"/>
<path d="M20.4074 6.39694H19.6157V0H20.4087L20.4074 6.39694Z" fill="#034EA2"/>
<path d="M3.59937 9.60547H4.39308V16.0024H3.59937V9.60547Z" fill="#034EA2"/>
<path d="M19.6157 9.60547H20.4093V16.0024H19.6157V9.60547Z" fill="#034EA2"/>
<path d="M0 0H0.788456V6.39377H0V0Z" fill="#034EA2"/>
<path d="M23.2185 0H24.0077V6.39694H23.2185V0Z" fill="#034EA2"/>
<path d="M0.78857 16.0051H0.000732422V9.60815H0.78857V16.0051Z" fill="#034EA2"/>
<path d="M24.007 16.0056H23.219V9.60864H24.007V16.0056Z" fill="#034EA2"/>
<path d="M7.99562 3.1933H7.2019V0.00244141H7.99299L7.99562 3.1933Z" fill="#034EA2"/>
<path d="M16.8025 3.19347H16.0127V0.00195312H16.8025V3.19347Z" fill="#034EA2"/>
<path d="M7.9974 16.4048H7.20508V13.2114H7.9974V16.4048Z" fill="#034EA2"/>
<path d="M16.0107 13.2107H16.8011V16.4022H16.0107V13.2107Z" fill="#034EA2"/>
<path d="M12.4006 2.39548H11.6064V0.000732422H12.4006V2.39548Z" fill="#034EA2"/>
<path d="M12.3994 16.4041H11.6064V14.4109H12.3994V16.4041Z" fill="#034EA2"/>
<path d="M4.39308 8.79732H3.59937V7.2063H4.39308V8.79732Z" fill="#034EA2"/>
<path d="M19.6157 7.20386H20.4087V8.79739H19.6157V7.20386Z" fill="#034EA2"/>
<path d="M0.790466 7.2063V8.79543H0V7.2063H0.790466Z" fill="#034EA2"/>
<path d="M24.0096 7.20776V8.79685H23.2197V7.20776H24.0096Z" fill="#034EA2"/>
<path d="M12.0085 3.59693C11.0584 3.59555 10.1294 3.87589 9.33866 4.40251C8.54793 4.92913 7.93109 5.67838 7.56614 6.55553C7.20119 7.43268 7.10446 8.39834 7.28827 9.33044C7.47208 10.2625 7.92813 11.1192 8.59876 11.7921C9.26939 12.4651 10.1245 12.924 11.056 13.111C11.9874 13.2981 12.9533 13.2047 13.8317 12.8427C14.7101 12.4808 15.4615 11.8665 15.9908 11.0776C16.5201 10.2887 16.8037 9.36051 16.8056 8.41047C16.8069 7.13627 16.3025 5.91363 15.4031 5.01109C14.5036 4.10856 13.2827 3.59995 12.0085 3.59693ZM14.8016 9.60181H13.2061V11.1992H10.8064V9.60564H9.20336V7.20583H10.8019V5.60595H13.2011V7.202H14.8016V9.60181Z" fill="#034EA2"/>
</g>
<defs>
<clipPath id="clip0">
<rect width="24.0095" height="24" fill="white"/>
</clipPath>
</defs>
</svg>
