<svg width="21" height="16" viewBox="0 0 21 16" fill="none" xmlns="http://www.w3.org/2000/svg">
<path d="M4.78 15.16C3.54 15.16 2.52 14.78 1.72 14.02C0.96 13.22 0.58 12.2 0.58 10.96C0.58 9.4 1.22 7.7 2.5 5.86C3.82 3.98 5.56 2.32 7.72 0.879998L8.62 1.78C7.78 2.66 7.12 3.48 6.64 4.24C6.16 5 5.92 5.62 5.92 6.1C5.92 6.38 6 6.64 6.16 6.88C6.36 7.12 6.64 7.38 7 7.66C7.56 8.1 8 8.56 8.32 9.04C8.64 9.52 8.8 10.16 8.8 10.96C8.8 12.2 8.42 13.22 7.66 14.02C6.9 14.78 5.94 15.16 4.78 15.16ZM16.42 15.16C15.18 15.16 14.16 14.78 13.36 14.02C12.6 13.22 12.22 12.2 12.22 10.96C12.22 9.4 12.86 7.7 14.14 5.86C15.46 3.98 17.2 2.32 19.36 0.879998L20.26 1.78C19.42 2.66 18.76 3.48 18.28 4.24C17.8 5 17.56 5.62 17.56 6.1C17.56 6.38 17.64 6.64 17.8 6.88C18 7.12 18.28 7.38 18.64 7.66C19.2 8.1 19.64 8.56 19.96 9.04C20.28 9.52 20.44 10.16 20.44 10.96C20.44 12.2 20.06 13.22 19.3 14.02C18.54 14.78 17.58 15.16 16.42 15.16Z" fill="white"/>
</svg>
