<svg width="195" height="37" viewBox="0 0 195 37" fill="none" xmlns="http://www.w3.org/2000/svg">
<g clip-path="url(#clip0)">
<path d="M194.997 28.5747H186.117V36.9999H194.997V28.5747Z" fill="#B7274C"/>
<path fill-rule="evenodd" clip-rule="evenodd" d="M193.899 32.316C193.805 32.316 193.714 32.3438 193.636 32.3959C193.558 32.448 193.497 32.522 193.461 32.6086C193.426 32.6952 193.416 32.7904 193.435 32.8822C193.453 32.974 193.499 33.0583 193.565 33.1243C193.632 33.1904 193.717 33.2352 193.809 33.2531C193.901 33.271 193.996 33.2613 194.083 33.225C194.169 33.1888 194.243 33.1277 194.295 33.0496C194.346 32.9715 194.374 32.8797 194.373 32.7861C194.372 32.6611 194.322 32.5416 194.233 32.4535C194.145 32.3654 194.024 32.316 193.899 32.316ZM192.566 32.316C192.472 32.316 192.38 32.3438 192.302 32.3959C192.224 32.448 192.164 32.522 192.128 32.6086C192.092 32.6952 192.083 32.7904 192.101 32.8822C192.12 32.974 192.165 33.0583 192.232 33.1243C192.298 33.1904 192.383 33.2352 192.475 33.2531C192.567 33.271 192.663 33.2613 192.749 33.225C192.836 33.1888 192.91 33.1277 192.961 33.0496C193.013 32.9715 193.04 32.8797 193.04 32.7861C193.04 32.7234 193.027 32.6613 193.003 32.6035C192.978 32.5457 192.943 32.4934 192.898 32.4496C192.853 32.4058 192.8 32.3714 192.741 32.3484C192.683 32.3255 192.62 32.3145 192.557 32.316H192.566ZM191.233 32.316C191.139 32.316 191.047 32.3438 190.969 32.3959C190.891 32.448 190.83 32.522 190.795 32.6086C190.759 32.6952 190.75 32.7904 190.768 32.8822C190.787 32.974 190.832 33.0583 190.899 33.1243C190.965 33.1904 191.05 33.2352 191.142 33.2531C191.234 33.271 191.329 33.2613 191.416 33.225C191.502 33.1888 191.576 33.1277 191.628 33.0496C191.68 32.9715 191.707 32.8797 191.706 32.7861C191.706 32.7234 191.694 32.6613 191.669 32.6035C191.645 32.5457 191.609 32.4934 191.564 32.4496C191.519 32.4058 191.466 32.3714 191.408 32.3484C191.349 32.3255 191.287 32.3145 191.224 32.316H191.233ZM189.899 32.316C189.805 32.3154 189.713 32.3427 189.635 32.3945C189.557 32.4462 189.495 32.5201 189.459 32.6066C189.423 32.6931 189.413 32.7885 189.432 32.8805C189.45 32.9725 189.495 33.057 189.561 33.1233C189.628 33.1896 189.712 33.2347 189.805 33.2529C189.897 33.2711 189.992 33.2614 190.079 33.2253C190.166 33.1892 190.24 33.1281 190.291 33.0499C190.343 32.9717 190.371 32.8799 190.37 32.7861C190.37 32.7237 190.357 32.6621 190.333 32.6046C190.308 32.5472 190.273 32.4952 190.228 32.4515C190.184 32.4078 190.131 32.3733 190.073 32.3501C190.015 32.3268 189.953 32.3152 189.891 32.316H189.899ZM187.232 32.316C187.139 32.3154 187.047 32.3427 186.968 32.3945C186.89 32.4462 186.829 32.5201 186.792 32.6066C186.756 32.6931 186.747 32.7885 186.765 32.8805C186.783 32.9725 186.828 33.057 186.895 33.1233C186.961 33.1896 187.046 33.2347 187.138 33.2529C187.23 33.2711 187.326 33.2614 187.412 33.2253C187.499 33.1892 187.573 33.1281 187.625 33.0499C187.677 32.9717 187.704 32.8799 187.703 32.7861C187.703 32.7237 187.69 32.6621 187.666 32.6046C187.642 32.5472 187.606 32.4952 187.562 32.4515C187.517 32.4078 187.464 32.3733 187.406 32.3501C187.348 32.3268 187.286 32.3152 187.224 32.316H187.232ZM188.566 32.316C188.472 32.3154 188.38 32.3427 188.302 32.3945C188.223 32.4462 188.162 32.5201 188.126 32.6066C188.09 32.6931 188.08 32.7885 188.098 32.8805C188.116 32.9725 188.162 33.057 188.228 33.1233C188.294 33.1896 188.379 33.2347 188.471 33.2529C188.563 33.2711 188.659 33.2614 188.746 33.2253C188.832 33.1892 188.906 33.1281 188.958 33.0499C189.01 32.9717 189.037 32.8799 189.037 32.7861C189.036 32.7237 189.024 32.6621 188.999 32.6046C188.975 32.5472 188.94 32.4952 188.895 32.4515C188.85 32.4078 188.798 32.3733 188.74 32.3501C188.682 32.3268 188.62 32.3152 188.557 32.316H188.566ZM191.233 29.6596C191.139 29.6596 191.047 29.6873 190.969 29.7393C190.891 29.7912 190.831 29.8651 190.795 29.9515C190.759 30.0379 190.75 30.133 190.768 30.2248C190.786 30.3165 190.831 30.4008 190.898 30.4669C190.964 30.5331 191.048 30.5781 191.14 30.5964C191.232 30.6146 191.327 30.6052 191.414 30.5694C191.5 30.5336 191.574 30.473 191.626 30.3953C191.679 30.3175 191.706 30.226 191.706 30.1325C191.707 30.0696 191.694 30.0072 191.67 29.9491C191.646 29.891 191.61 29.8383 191.565 29.7942C191.52 29.7501 191.467 29.7154 191.408 29.6923C191.35 29.6692 191.287 29.658 191.224 29.6596H191.233ZM189.899 29.6596C189.805 29.659 189.713 29.6863 189.635 29.7379C189.557 29.7895 189.496 29.8632 189.459 29.9495C189.423 30.0359 189.413 30.1311 189.431 30.223C189.449 30.3149 189.494 30.3995 189.56 30.4659C189.626 30.5323 189.711 30.5777 189.803 30.5961C189.895 30.6146 189.99 30.6054 190.077 30.5697C190.164 30.534 190.238 30.4734 190.29 30.3955C190.342 30.3177 190.37 30.2262 190.37 30.1325C190.37 30.0699 190.358 30.0079 190.334 29.9502C190.309 29.8924 190.274 29.8401 190.229 29.7961C190.185 29.7521 190.132 29.7174 190.074 29.6939C190.016 29.6705 189.953 29.6588 189.891 29.6596H189.899ZM191.233 30.9878C191.139 30.9878 191.047 31.0156 190.969 31.0677C190.891 31.1198 190.83 31.1938 190.795 31.2804C190.759 31.367 190.75 31.4622 190.768 31.554C190.787 31.6458 190.832 31.7301 190.899 31.7961C190.965 31.8622 191.05 31.907 191.142 31.9249C191.234 31.9428 191.329 31.9331 191.416 31.8968C191.502 31.8606 191.576 31.7995 191.628 31.7214C191.68 31.6432 191.707 31.5515 191.706 31.4579C191.706 31.3952 191.694 31.3331 191.669 31.2753C191.645 31.2175 191.609 31.1652 191.564 31.1214C191.519 31.0776 191.466 31.0432 191.408 31.0202C191.349 30.9973 191.287 30.9863 191.224 30.9878H191.233ZM189.899 30.9878C189.805 30.9872 189.713 31.0145 189.635 31.0663C189.557 31.118 189.495 31.1919 189.459 31.2784C189.423 31.3649 189.413 31.4603 189.432 31.5523C189.45 31.6443 189.495 31.7288 189.561 31.7951C189.628 31.8614 189.712 31.9065 189.805 31.9247C189.897 31.9429 189.992 31.9332 190.079 31.8971C190.166 31.861 190.24 31.7999 190.291 31.7217C190.343 31.6435 190.371 31.5517 190.37 31.4579C190.37 31.3955 190.357 31.3339 190.333 31.2764C190.308 31.219 190.273 31.167 190.228 31.1233C190.184 31.0796 190.131 31.0451 190.073 31.0219C190.015 30.9986 189.953 30.987 189.891 30.9878H189.899ZM191.233 35.9098C191.139 35.9098 191.047 35.882 190.969 35.8301C190.891 35.7781 190.831 35.7042 190.795 35.6178C190.759 35.5314 190.75 35.4363 190.768 35.3446C190.786 35.2528 190.831 35.1685 190.898 35.1024C190.964 35.0363 191.048 34.9912 191.14 34.973C191.232 34.9547 191.327 34.9641 191.414 34.9999C191.5 35.0357 191.574 35.0963 191.626 35.1741C191.679 35.2518 191.706 35.3433 191.706 35.4368C191.707 35.4998 191.694 35.5621 191.67 35.6203C191.646 35.6784 191.61 35.7311 191.565 35.7752C191.52 35.8193 191.467 35.8539 191.408 35.877C191.35 35.9002 191.287 35.9113 191.224 35.9098H191.233ZM189.899 35.9098C189.805 35.9103 189.713 35.8831 189.635 35.8314C189.557 35.7798 189.496 35.7062 189.459 35.6198C189.423 35.5334 189.413 35.4382 189.431 35.3463C189.449 35.2544 189.494 35.1698 189.56 35.1034C189.626 35.037 189.711 34.9917 189.803 34.9732C189.895 34.9547 189.99 34.9639 190.077 34.9996C190.164 35.0353 190.238 35.0959 190.29 35.1738C190.342 35.2516 190.37 35.3432 190.37 35.4368C190.37 35.4994 190.358 35.5614 190.334 35.6191C190.309 35.6769 190.274 35.7293 190.229 35.7733C190.185 35.8173 190.132 35.852 190.074 35.8754C190.016 35.8988 189.953 35.9105 189.891 35.9098H189.899ZM191.233 34.5816C191.139 34.5816 191.047 34.5538 190.969 34.5019C190.891 34.4499 190.831 34.376 190.795 34.2896C190.759 34.2032 190.75 34.1081 190.768 34.0164C190.786 33.9246 190.831 33.8403 190.898 33.7742C190.964 33.7081 191.048 33.663 191.14 33.6448C191.232 33.6265 191.327 33.6359 191.414 33.6717C191.5 33.7075 191.574 33.7681 191.626 33.8459C191.679 33.9236 191.706 34.0151 191.706 34.1086C191.707 34.1716 191.694 34.2339 191.67 34.2921C191.646 34.3502 191.61 34.4028 191.565 34.447C191.52 34.4911 191.467 34.5257 191.408 34.5488C191.35 34.5719 191.287 34.5831 191.224 34.5816H191.233ZM189.899 34.5816C189.805 34.5821 189.713 34.5549 189.635 34.5032C189.557 34.4516 189.496 34.3779 189.459 34.2916C189.423 34.2052 189.413 34.11 189.431 34.0181C189.449 33.9262 189.494 33.8416 189.56 33.7752C189.626 33.7088 189.711 33.6635 189.803 33.645C189.895 33.6265 189.99 33.6357 190.077 33.6714C190.164 33.7071 190.238 33.7677 190.29 33.8456C190.342 33.9234 190.37 34.015 190.37 34.1086C190.37 34.1712 190.358 34.2332 190.334 34.2909C190.309 34.3487 190.274 34.4011 190.229 34.4451C190.185 34.4891 190.132 34.5238 190.074 34.5472C190.016 34.5706 189.953 34.5823 189.891 34.5816H189.899Z" fill="white"/>
<path fill-rule="evenodd" clip-rule="evenodd" d="M3.48093 0L9.50943 16.0432L15.5635 0H19.0472V19.0933H16.6358V3.20865H16.5819L10.6073 19.0933H8.43706L2.4653 3.20865H2.4114V19.0933H0V0H3.48093Z" fill="white"/>
<path fill-rule="evenodd" clip-rule="evenodd" d="M32.9001 19.3879C32.3806 19.4175 31.8705 19.2403 31.4816 18.8951C31.1317 18.5647 30.9578 18.0247 30.9597 17.2752C30.3797 17.9889 29.6296 18.5459 28.778 18.8951C27.9192 19.2286 27.0045 19.3959 26.0829 19.3879C25.4888 19.3924 24.8962 19.3248 24.3184 19.1868C23.7902 19.0677 23.2926 18.84 22.8573 18.5184C22.4341 18.2029 22.0935 17.79 21.8644 17.3148C21.6097 16.7583 21.4865 16.1508 21.5041 15.5392C21.478 14.8734 21.6153 14.2113 21.9041 13.6106C22.1573 13.1289 22.5197 12.7129 22.9623 12.3957C23.4186 12.0756 23.9261 11.8352 24.463 11.6848C25.0304 11.5262 25.5978 11.4016 26.1908 11.2855C26.7837 11.1694 27.4106 11.0675 27.9723 11.0023C28.4744 10.946 28.9714 10.8513 29.4589 10.7191C29.8335 10.6323 30.1824 10.4586 30.4774 10.2122C30.607 10.0862 30.7076 9.93352 30.7723 9.76481C30.8369 9.59611 30.8641 9.41539 30.8518 9.23517C30.8709 8.81547 30.7727 8.39875 30.5682 8.03157C30.3925 7.74065 30.1429 7.50128 29.8447 7.33773C29.5367 7.17191 29.2013 7.06256 28.8546 7.01488C28.4947 6.96436 28.1316 6.93881 27.7681 6.93842C26.9311 6.90643 26.1004 7.09494 25.3595 7.485C24.7155 7.85032 24.3666 8.5385 24.3155 9.55518H22.046C22.0543 8.80257 22.2368 8.06207 22.5793 7.39154C22.8898 6.82404 23.3313 6.33862 23.8673 5.97554C24.4282 5.59953 25.0546 5.33155 25.7141 5.18542C26.4354 5.02183 27.1731 4.94106 27.9128 4.9447C28.5355 4.94504 29.1574 4.98952 29.7738 5.0778C30.3606 5.15778 30.9278 5.34397 31.4476 5.62721C31.9449 5.90149 32.3609 6.30204 32.6533 6.78833C32.9805 7.38609 33.1375 8.06188 33.1072 8.7424V15.8564C33.0962 16.2503 33.1276 16.6444 33.2008 17.0316C33.2651 17.2809 33.4751 17.4055 33.8306 17.4055C34.0689 17.3989 34.3046 17.354 34.5285 17.2724V19.0424C34.0241 19.3002 33.4604 19.4204 32.8944 19.3907L32.9001 19.3879ZM29.7086 12.424C29.2433 12.5231 28.7553 12.6024 28.2475 12.6675C27.7397 12.7327 27.2234 12.7978 26.7071 12.8799C26.2278 12.9483 25.7596 13.0788 25.3141 13.2679C24.9197 13.4321 24.5732 13.6932 24.307 14.0269C24.0299 14.4221 23.894 14.8989 23.9212 15.3806C23.9096 15.7115 23.988 16.0393 24.1482 16.3293C24.2932 16.5818 24.4952 16.7971 24.7382 16.958C24.9975 17.1265 25.2862 17.2447 25.5893 17.3063C25.9194 17.3768 26.2561 17.4119 26.5936 17.4111C27.2499 17.4267 27.9035 17.323 28.5227 17.1053C29.0052 16.9325 29.4501 16.6691 29.8334 16.3293C30.1521 16.0463 30.4081 15.7 30.5852 15.3126C30.7369 14.9896 30.8191 14.6385 30.8263 14.2818V11.9624C30.4927 12.1929 30.1135 12.3494 29.7142 12.4212L29.7086 12.424Z" fill="white"/>
<path fill-rule="evenodd" clip-rule="evenodd" d="M38.3044 5.27045V7.46241H38.3555C39.3011 5.78587 40.8019 4.9476 42.8577 4.9476C43.6313 4.92515 44.4019 5.05208 45.1273 5.32143C45.6978 5.54295 46.2046 5.90195 46.6025 6.36643C46.9857 6.82752 47.2557 7.37154 47.3912 7.95518C47.5507 8.62586 47.6278 9.31342 47.6209 10.0027V19.0934H45.3514V9.74783C45.3814 9.37282 45.329 8.9958 45.1979 8.64308C45.0669 8.29036 44.8603 7.97043 44.5926 7.70563C44.3249 7.44083 44.0025 7.23754 43.648 7.10993C43.2935 6.98232 42.9154 6.93348 42.54 6.96681C41.9213 6.95158 41.3058 7.0604 40.73 7.28683C40.2412 7.48549 39.8059 7.79589 39.4591 8.19307C39.113 8.59638 38.8524 9.06556 38.6931 9.57225C38.5193 10.1305 38.4332 10.7123 38.4378 11.2969V19.1047H36.1682V5.27045H38.3044Z" fill="white"/>
<path fill-rule="evenodd" clip-rule="evenodd" d="M50.4834 2.78102V0H52.7529V2.78102H50.4834ZM52.7529 5.27034V19.0933H50.4834V5.27034H52.7529Z" fill="white"/>
<path fill-rule="evenodd" clip-rule="evenodd" d="M57.9445 5.27023V7.14784H58.0098C58.3725 6.39247 59.0019 5.79744 59.7772 5.47696C60.6158 5.12207 61.519 4.94464 62.4297 4.95588C63.396 4.93454 64.3543 5.13613 65.2298 5.54493C66.003 5.91866 66.6818 6.46173 67.2156 7.13368C67.7536 7.82462 68.1585 8.60912 68.41 9.44742C68.6806 10.3495 68.8154 11.2868 68.81 12.2284C68.8149 13.1691 68.685 14.1056 68.4242 15.0095C68.1839 15.8417 67.783 16.619 67.244 17.2977C66.7084 17.9549 66.029 18.481 65.2581 18.8355C64.3877 19.2271 63.441 19.4206 62.4865 19.4019C62.1058 19.3986 61.7261 19.3626 61.3517 19.2943C60.926 19.2212 60.5087 19.1055 60.1063 18.9488C59.6903 18.785 59.2989 18.5649 58.9431 18.2946C58.5728 18.0119 58.2591 17.6622 58.0183 17.2637H57.9644V24.3777H55.6948V5.27023H57.9445ZM66.1291 10.1752C65.9711 9.58409 65.7068 9.02654 65.3489 8.52985C65.0001 8.04616 64.5411 7.65208 64.0099 7.38006C63.4155 7.08553 62.7583 6.93973 62.095 6.95527C61.415 6.93409 60.7413 7.09027 60.1403 7.40838C59.617 7.6982 59.1684 8.10538 58.8296 8.59782C58.4817 9.10408 58.2315 9.67075 58.092 10.2687C57.7847 11.5386 57.7896 12.8639 58.1062 14.1315C58.2511 14.733 58.5102 15.3012 58.8694 15.8052C59.2229 16.2918 59.6853 16.6894 60.2197 16.9664C60.8436 17.2765 61.5345 17.4282 62.2311 17.4082C62.9159 17.4326 63.595 17.2763 64.2 16.955C64.7143 16.6616 65.1502 16.2487 65.4709 15.7514C65.8015 15.2302 66.0377 14.6551 66.1688 14.0522C66.3116 13.4011 66.383 12.7364 66.3816 12.0698C66.3826 11.4299 66.2977 10.7927 66.1291 10.1752Z" fill="white"/>
<path fill-rule="evenodd" clip-rule="evenodd" d="M81.4799 19.3879C81.2226 19.4032 80.9648 19.3675 80.7213 19.283C80.4779 19.1984 80.2536 19.0666 80.0614 18.8951C79.7115 18.5647 79.5366 18.0248 79.5366 17.2752C78.9572 17.9896 78.2069 18.5467 77.355 18.8951C76.4961 19.2289 75.5814 19.3962 74.6599 19.3879C74.0648 19.3921 73.4713 19.3246 72.8924 19.1868C72.3653 19.0671 71.8688 18.8395 71.4343 18.5185C71.011 18.203 70.6704 17.7901 70.4413 17.3149C70.188 16.7579 70.0648 16.1507 70.081 15.5392C70.0549 14.8734 70.1922 14.2113 70.481 13.6107C70.7344 13.1282 71.0978 12.712 71.5421 12.3957C71.9983 12.0725 72.507 11.8301 73.0456 11.6792C73.613 11.5206 74.1889 11.3875 74.7733 11.2799C75.4013 11.1553 75.9951 11.0609 76.5549 10.9967C77.0579 10.9403 77.5558 10.8457 78.0443 10.7135C78.4179 10.626 78.7657 10.4524 79.06 10.2066C79.1901 10.0808 79.2913 9.92827 79.3564 9.75956C79.4216 9.59084 79.4492 9.40999 79.4373 9.22955C79.4563 8.80986 79.3581 8.39314 79.1536 8.02596C78.9787 7.73444 78.7289 7.49489 78.4302 7.33212C78.1223 7.16584 77.7869 7.05646 77.4401 7.00927C77.081 6.95875 76.7189 6.9332 76.3563 6.93281C75.5184 6.90058 74.6868 7.08909 73.9449 7.47938C73.301 7.84471 72.952 8.53288 72.8981 9.54957H70.6286C70.6378 8.79673 70.8213 8.05622 71.1647 7.38593C71.4733 6.81797 71.9141 6.33234 72.4499 5.96993C73.0108 5.59392 73.6371 5.32594 74.2967 5.1798C75.018 5.01621 75.7557 4.93545 76.4954 4.93908C77.1181 4.93942 77.74 4.9839 78.3564 5.07219C78.9433 5.15173 79.5106 5.33794 80.0302 5.62159C80.5275 5.89587 80.9435 6.29642 81.2359 6.78271C81.5631 7.38047 81.7201 8.05627 81.6898 8.73679V15.8508C81.678 16.2449 81.7103 16.6391 81.7863 17.026C81.8487 17.2753 82.07 17.3999 82.4132 17.3999C82.6525 17.3933 82.889 17.3484 83.114 17.2668V19.0424C82.6085 19.3001 82.0439 19.4203 81.477 19.3907L81.4799 19.3879ZM78.2911 12.424C77.8259 12.5232 77.3379 12.6025 76.8301 12.6676C76.3223 12.7327 75.806 12.7979 75.2897 12.88C74.8106 12.9479 74.3425 13.0773 73.8967 13.2651C73.5027 13.4286 73.157 13.6899 72.8924 14.0241C72.6131 14.4184 72.4761 14.8957 72.5038 15.3778C72.4922 15.7087 72.5706 16.0366 72.7307 16.3265C72.8774 16.5778 73.0791 16.7928 73.3208 16.9552C73.5803 17.1233 73.8689 17.2414 74.1719 17.3036C74.502 17.374 74.8386 17.4091 75.1762 17.4084C75.8325 17.4239 76.4861 17.3203 77.1053 17.1025C77.5881 16.9284 78.0337 16.6652 78.4188 16.3265C78.7376 16.0442 78.9928 15.6977 79.1678 15.3098C79.3195 14.9869 79.4017 14.6357 79.4089 14.279V11.9624C79.0745 12.1934 78.6943 12.3498 78.294 12.4212L78.2911 12.424Z" fill="white"/>
<path d="M87.1225 0H84.8445V19.0933H87.1225V0Z" fill="white"/>
<path fill-rule="evenodd" clip-rule="evenodd" d="M92.8787 0V8.20995H102.95V0H105.495V19.0933H102.95V10.3481H92.8787V19.0933H90.334V0H92.8787Z" fill="white"/>
<path fill-rule="evenodd" clip-rule="evenodd" d="M108.377 9.3455C108.644 8.49886 109.082 7.71608 109.665 7.04593C110.25 6.38648 110.973 5.86181 111.781 5.50815C113.642 4.76063 115.72 4.76063 117.58 5.50815C118.383 5.86419 119.1 6.38866 119.682 7.04593C120.265 7.71608 120.703 8.49886 120.97 9.3455C121.261 10.2671 121.405 11.2284 121.398 12.1945C121.405 13.1551 121.261 14.1108 120.97 15.0265C120.702 15.8683 120.264 16.6461 119.682 17.3119C119.103 17.97 118.385 18.4914 117.58 18.8383C115.716 19.5678 113.645 19.5678 111.781 18.8383C110.97 18.4938 110.247 17.9722 109.665 17.3119C109.083 16.6461 108.645 15.8683 108.377 15.0265C108.086 14.1108 107.941 13.1551 107.948 12.1945C107.942 11.2284 108.086 10.2671 108.377 9.3455ZM110.695 14.4431C110.889 15.0438 111.204 15.5988 111.619 16.0743C112.003 16.5036 112.474 16.8456 113.001 17.0768C113.53 17.3047 114.099 17.4223 114.675 17.4223C115.251 17.4223 115.82 17.3047 116.349 17.0768C116.874 16.8441 117.344 16.5023 117.727 16.0743C118.142 15.5982 118.457 15.0434 118.652 14.4431C119.098 12.9867 119.098 11.4306 118.652 9.97421C118.454 9.3717 118.14 8.81369 117.727 8.33165C117.348 7.89607 116.877 7.549 116.349 7.31496C115.82 7.0871 115.251 6.96955 114.675 6.96955C114.099 6.96955 113.53 7.0871 113.001 7.31496C112.471 7.54751 111.999 7.89477 111.619 8.33165C111.206 8.81302 110.892 9.37122 110.695 9.97421C110.249 11.4306 110.249 12.9867 110.695 14.4431Z" fill="white"/>
<path fill-rule="evenodd" clip-rule="evenodd" d="M125.262 16.0065C125.473 16.348 125.766 16.6321 126.113 16.8335C126.478 17.0456 126.876 17.1949 127.291 17.2753C127.736 17.3656 128.19 17.4102 128.644 17.4084C129.024 17.4081 129.403 17.3816 129.779 17.3291C130.152 17.2851 130.518 17.1898 130.865 17.0459C131.188 16.9118 131.47 16.6949 131.682 16.4172C131.906 16.1117 132.019 15.7391 132.003 15.3608C132.017 15.0993 131.962 14.8386 131.845 14.6044C131.727 14.3701 131.551 14.1702 131.333 14.0241C130.818 13.6912 130.253 13.4426 129.66 13.2878C128.99 13.1009 128.264 12.931 127.475 12.7809C126.728 12.6412 125.997 12.4258 125.294 12.138C124.653 11.8822 124.08 11.4842 123.617 10.9741C123.171 10.4757 122.948 9.78087 122.95 8.88974C122.931 8.25981 123.094 7.63769 123.418 7.09709C123.722 6.60581 124.135 6.19028 124.624 5.88216C125.129 5.55528 125.684 5.31324 126.267 5.16567C126.868 5.01471 127.485 4.93768 128.105 4.93628C128.832 4.93144 129.558 4.9988 130.272 5.13735C130.895 5.25634 131.49 5.49175 132.026 5.83119C132.54 6.16597 132.959 6.62603 133.246 7.16789C133.573 7.82098 133.756 8.53663 133.782 9.2664H131.512C131.493 8.87347 131.373 8.49206 131.163 8.15909C130.971 7.86883 130.715 7.62658 130.414 7.45109C130.103 7.26851 129.764 7.13748 129.41 7.0631C129.045 6.98238 128.672 6.94249 128.298 6.94416C127.953 6.94457 127.609 6.97013 127.268 7.02063C126.939 7.06784 126.619 7.16327 126.318 7.30382C126.047 7.42447 125.808 7.60681 125.62 7.83624C125.432 8.0862 125.337 8.39346 125.35 8.70566C125.346 8.88885 125.38 9.07092 125.452 9.2395C125.524 9.40808 125.632 9.55924 125.767 9.6827C126.077 9.96067 126.436 10.1787 126.826 10.3256C127.296 10.506 127.78 10.649 128.272 10.7532C128.809 10.8665 129.345 10.9882 129.881 11.1129C130.446 11.2365 131.005 11.3886 131.555 11.5688C132.069 11.7326 132.557 11.9712 133.002 12.2768C133.417 12.5688 133.763 12.9477 134.017 13.3869C134.291 13.8961 134.425 14.4687 134.406 15.0465C134.434 15.7767 134.253 16.4997 133.884 17.1308C133.541 17.6774 133.073 18.1354 132.519 18.4675C131.932 18.8144 131.287 19.0542 130.616 19.1755C129.923 19.3092 129.219 19.3766 128.514 19.3766C127.775 19.379 127.038 19.2983 126.318 19.1359C125.657 18.9903 125.03 18.7223 124.468 18.3458C123.927 17.9775 123.485 17.4813 123.183 16.9015C122.839 16.2262 122.656 15.481 122.647 14.7236H124.916C124.921 15.1704 125.041 15.6084 125.265 15.9952" fill="white"/>
<path fill-rule="evenodd" clip-rule="evenodd" d="M138.698 5.27023V7.14784H138.752C139.115 6.39247 139.744 5.79744 140.519 5.47696C141.358 5.12207 142.261 4.94464 143.172 4.95588C144.138 4.93454 145.096 5.13613 145.972 5.54493C146.745 5.91866 147.424 6.46173 147.958 7.13368C148.496 7.82462 148.901 8.60912 149.152 9.44742C149.423 10.3495 149.558 11.2868 149.552 12.2284C149.557 13.1691 149.427 14.1056 149.166 15.0095C148.926 15.8417 148.525 16.619 147.986 17.2977C147.451 17.9549 146.771 18.481 146 18.8355C145.13 19.2271 144.183 19.4206 143.229 19.4019C142.848 19.3986 142.468 19.3626 142.094 19.2943C141.668 19.2212 141.251 19.1055 140.848 18.9488C140.433 18.7844 140.042 18.5643 139.685 18.2946C139.315 18.0124 139.001 17.6626 138.76 17.2637H138.707V24.3777H136.437V5.27023H138.698ZM146.88 10.1752C146.721 9.58528 146.459 9.02815 146.105 8.52985C145.754 8.04727 145.295 7.65349 144.763 7.38006C144.17 7.08576 143.514 6.93997 142.851 6.95527C142.211 6.928 141.574 7.0646 141.002 7.35209C140.429 7.63957 139.94 8.0684 139.58 8.59782C139.234 9.10487 138.985 9.67133 138.846 10.2687C138.693 10.8896 138.615 11.5267 138.616 12.1661C138.615 12.8287 138.696 13.4888 138.857 14.1315C139.004 14.7328 139.264 15.3007 139.623 15.8052C139.977 16.2912 140.439 16.6886 140.973 16.9664C141.597 17.2765 142.288 17.4282 142.985 17.4082C143.669 17.4322 144.348 17.2759 144.954 16.955C145.468 16.6616 145.904 16.2487 146.224 15.7514C146.555 15.2302 146.791 14.6551 146.922 14.0522C147.065 13.4011 147.137 12.7364 147.135 12.0698C147.137 11.4297 147.051 10.7923 146.88 10.1752Z" fill="white"/>
<path fill-rule="evenodd" clip-rule="evenodd" d="M151.748 2.78102V0H154.018V2.78102H151.748ZM154.018 5.27034V19.0933H151.748V5.27034H154.018Z" fill="white"/>
<path fill-rule="evenodd" clip-rule="evenodd" d="M162.849 5.27031V7.27536H160.091V15.8591C160.086 16.0753 160.108 16.2912 160.157 16.502C160.196 16.6517 160.286 16.783 160.412 16.873C160.568 16.9752 160.748 17.0356 160.934 17.0486C161.223 17.0777 161.514 17.091 161.805 17.0882H162.849V19.0933H161.11C160.602 19.1002 160.095 19.0603 159.595 18.9743C159.224 18.9153 158.873 18.7633 158.576 18.5325C158.304 18.29 158.107 17.9745 158.009 17.6235C157.87 17.1183 157.807 16.5953 157.822 16.0715V7.27536H155.464V5.27031H157.822V1.12427H160.091V5.27031H162.849Z" fill="white"/>
<path fill-rule="evenodd" clip-rule="evenodd" d="M175.459 19.3879C174.94 19.4178 174.429 19.2406 174.041 18.8951C173.691 18.5647 173.516 18.0247 173.516 17.2752C172.938 17.9908 172.187 18.5481 171.334 18.8951C170.476 19.2287 169.563 19.3959 168.642 19.3879C168.047 19.3923 167.453 19.3248 166.875 19.1868C166.347 19.0665 165.849 18.839 165.414 18.5184C164.991 18.2028 164.651 17.7899 164.423 17.3148C164.167 16.7589 164.042 16.1511 164.06 15.5392C164.035 14.8732 164.173 14.2111 164.463 13.6106C164.715 13.1277 165.077 12.7113 165.521 12.3957C165.977 12.0745 166.485 11.8341 167.022 11.6848C167.589 11.5263 168.165 11.3931 168.75 11.2855C169.374 11.1609 169.968 11.0665 170.531 11.0023C171.033 10.946 171.53 10.8513 172.018 10.7191C172.391 10.6316 172.739 10.458 173.034 10.2122C173.164 10.0868 173.266 9.93429 173.331 9.76549C173.396 9.59668 173.423 9.41566 173.411 9.23517C173.43 8.81547 173.332 8.39875 173.127 8.03157C172.952 7.74065 172.702 7.50128 172.404 7.33773C172.095 7.17147 171.759 7.06211 171.411 7.01489C171.052 6.96426 170.69 6.93871 170.327 6.93842C169.489 6.90686 168.658 7.09533 167.916 7.485C167.272 7.85033 166.926 8.5385 166.872 9.55519H164.602C164.613 8.80253 164.796 8.06234 165.138 7.39154C165.448 6.82417 165.888 6.33871 166.424 5.97554C166.985 5.59956 167.613 5.3316 168.273 5.18542C168.994 5.02182 169.73 4.94106 170.469 4.9447C171.092 4.94504 171.714 4.98952 172.33 5.0778C172.918 5.15782 173.486 5.34399 174.007 5.62721C174.503 5.90224 174.919 6.30262 175.212 6.78833C175.54 7.38609 175.697 8.06189 175.666 8.7424V15.8564C175.653 16.2503 175.684 16.6444 175.757 17.0316C175.819 17.2809 176.029 17.4055 176.387 17.4055C176.624 17.3991 176.859 17.3542 177.082 17.2724V19.0424C176.578 19.3005 176.014 19.4207 175.448 19.3907L175.459 19.3879ZM172.262 12.424C171.797 12.5231 171.312 12.6024 170.801 12.6675C170.29 12.7327 169.78 12.7978 169.26 12.8799C168.781 12.9491 168.313 13.0795 167.867 13.2679C167.474 13.4322 167.128 13.6933 166.863 14.0269C166.585 14.4218 166.448 14.8986 166.475 15.3806C166.464 15.7118 166.543 16.0396 166.704 16.3293C166.849 16.5811 167.05 16.7962 167.292 16.958C167.551 17.1257 167.84 17.2438 168.143 17.3064C168.472 17.3766 168.808 17.4118 169.144 17.4111C169.8 17.4269 170.454 17.3233 171.073 17.1053C171.557 16.9312 172.003 16.668 172.39 16.3293C172.707 16.0454 172.962 15.6993 173.139 15.3126C173.288 14.989 173.369 14.6381 173.377 14.2818V11.9624C173.049 12.1904 172.677 12.3467 172.285 12.4212L172.262 12.424Z" fill="white"/>
<path d="M181.113 0H178.835V19.0933H181.113V0Z" fill="white"/>
<path fill-rule="evenodd" clip-rule="evenodd" d="M185.865 16.0064C186.076 16.3481 186.368 16.6322 186.716 16.8333C187.082 17.0454 187.481 17.1947 187.896 17.2751C188.341 17.3655 188.793 17.4101 189.247 17.4082C189.626 17.4079 190.005 17.3814 190.381 17.3289C190.755 17.2849 191.121 17.1896 191.468 17.0457C191.79 16.9104 192.072 16.6937 192.285 16.417C192.509 16.1115 192.622 15.7389 192.606 15.3607C192.619 15.0991 192.565 14.8385 192.447 14.6042C192.33 14.3699 192.154 14.17 191.936 14.024C191.421 13.691 190.856 13.4424 190.262 13.2876C189.593 13.0988 188.865 12.9299 188.078 12.7807C187.331 12.641 186.6 12.4256 185.896 12.1379C185.256 11.882 184.683 11.484 184.22 10.9739C183.775 10.4755 183.553 9.7807 183.553 8.88956C183.536 8.25979 183.698 7.63806 184.021 7.09691C184.325 6.60563 184.737 6.1901 185.227 5.88198C185.738 5.56134 186.299 5.32693 186.886 5.18814C187.487 5.03719 188.103 4.96015 188.722 4.95875C189.45 4.95379 190.177 5.02114 190.892 5.15983C191.515 5.27829 192.11 5.51373 192.645 5.85366C193.159 6.18845 193.579 6.64851 193.865 7.19036C194.192 7.84346 194.375 8.55911 194.401 9.28887H192.132C192.12 8.91767 192.013 8.55568 191.821 8.23775C191.629 7.91982 191.358 7.65665 191.034 7.47356C190.722 7.29147 190.383 7.16048 190.03 7.08558C189.665 7.00502 189.292 6.96513 188.918 6.96664C188.573 6.96705 188.229 6.99261 187.888 7.0431C187.559 7.09032 187.238 7.18575 186.937 7.3263C186.666 7.44694 186.427 7.62929 186.24 7.85872C186.047 8.10679 185.946 8.41422 185.956 8.72814C185.951 8.91106 185.986 9.09288 186.057 9.2614C186.128 9.42992 186.235 9.58123 186.37 9.70517C186.681 9.98313 187.041 10.2011 187.431 10.348C187.901 10.5285 188.385 10.6715 188.878 10.7757C189.411 10.8889 189.947 11.0107 190.484 11.1353C191.05 11.2589 191.609 11.4111 192.16 11.5913C192.674 11.7557 193.162 11.9942 193.607 12.2993C194.022 12.5913 194.369 12.9701 194.623 13.4094C194.897 13.9186 195.031 14.4912 195.011 15.069C195.039 15.7992 194.858 16.5222 194.489 17.1533C194.146 17.7006 193.677 18.1587 193.122 18.49C192.536 18.8369 191.892 19.0766 191.221 19.198C190.528 19.3317 189.825 19.399 189.119 19.3991C188.38 19.4015 187.644 19.3207 186.923 19.1584C186.262 19.0132 185.635 18.7452 185.074 18.3682C184.532 17.9999 184.091 17.5038 183.788 16.9239C183.446 16.2482 183.263 15.5033 183.252 14.7461H185.522C185.525 15.1931 185.646 15.6314 185.871 16.0177" fill="white"/>
<path fill-rule="evenodd" clip-rule="evenodd" d="M136.42 29.3594H137.382V35.7852H141.223V36.5979H136.42V29.3594Z" fill="white"/>
<path d="M143.067 29.3594H142.102V36.5979H143.067V29.3594Z" fill="white"/>
<path fill-rule="evenodd" clip-rule="evenodd" d="M144.69 29.3594H149.45V30.1693H145.651V32.4717H148.982V33.2817H145.651V36.5979H144.69V29.3594Z" fill="white"/>
<path fill-rule="evenodd" clip-rule="evenodd" d="M150.514 29.3594H155.515V30.1693H151.476V32.4717H155.243V33.2817H151.476V35.7852H155.547V36.5979H150.514V29.3594Z" fill="white"/>
<path fill-rule="evenodd" clip-rule="evenodd" d="M156.764 29.3594H157.898V30.4922C157.898 31.2908 157.561 31.9818 156.781 31.9818V31.4749C157.237 31.4749 157.371 30.9566 157.371 30.4922H156.769L156.764 29.3594Z" fill="white"/>
<path fill-rule="evenodd" clip-rule="evenodd" d="M163.729 31.4804C163.612 30.4468 162.923 29.9993 161.93 29.9993C161.119 29.9993 160.304 30.2825 160.304 31.2369C160.304 32.129 161.462 32.2592 162.633 32.5226C163.805 32.786 164.946 33.191 164.946 34.6098C164.946 36.1504 163.431 36.7678 162.109 36.7678C160.483 36.7678 159.113 35.9777 159.113 34.219H160.026C160.026 35.4367 161.042 35.9635 162.137 35.9635C163.008 35.9635 163.975 35.6803 163.975 34.6494C163.975 33.6526 162.818 33.4798 161.66 33.2334C160.503 32.9871 159.337 32.6444 159.337 31.319C159.337 29.8492 160.645 29.2007 161.961 29.2007C163.448 29.2007 164.574 29.9002 164.633 31.4918L163.729 31.4804Z" fill="white"/>
<path fill-rule="evenodd" clip-rule="evenodd" d="M171.995 29.1921C174.299 29.1921 175.465 31.0131 175.465 32.9785C175.465 34.9439 174.299 36.7677 171.995 36.7677C169.692 36.7677 168.526 34.9439 168.526 32.9785C168.526 31.0131 169.692 29.1921 171.995 29.1921ZM171.995 35.9578C173.765 35.9578 174.506 34.437 174.506 32.9785C174.506 31.52 173.765 29.9993 171.995 29.9993C170.225 29.9993 169.49 31.52 169.49 32.9785C169.49 34.437 170.228 35.9578 171.995 35.9578Z" fill="white"/>
<path fill-rule="evenodd" clip-rule="evenodd" d="M176.631 29.3594H177.655L181.471 35.2273H181.496V29.3594H182.407V36.5979H181.349L177.567 30.7895H177.547V36.5979H176.631V29.3594Z" fill="white"/>
</g>
<defs>
<clipPath id="clip0">
<rect width="195" height="37" fill="white"/>
</clipPath>
</defs>
</svg>
