<svg width="102" height="102" viewBox="0 0 102 102" fill="none" xmlns="http://www.w3.org/2000/svg">
<g filter="url(#filter0_d)">
<rect x="24" y="20" width="54" height="54.001" rx="27" fill="#B52A4E"/>
<path d="M43.9647 34.0013C43.752 33.9972 43.5356 34.0031 43.3157 34.0199C43.3101 34.0212 43.3046 34.0227 43.2991 34.0242C41.5534 34.2159 39.5752 34.9513 38.1057 36.5295C36.6363 38.1077 35.727 40.5188 36.0737 43.8684C36.5752 48.7122 40.2701 53.1802 43.7862 56.4788C47.3023 59.7774 50.6997 61.9142 50.6997 61.9142C50.79 61.9709 50.8947 62.001 51.0017 62.001C51.1086 62.001 51.2133 61.9709 51.3036 61.9142C51.3036 61.9142 54.6977 59.7774 58.2138 56.4788C61.7299 53.1802 65.4248 48.7122 65.9263 43.8684C66.273 40.5188 65.3637 38.1077 63.8943 36.5295C62.4248 34.9513 60.4466 34.2159 58.7009 34.0242C58.6954 34.0227 58.6899 34.0212 58.6843 34.0199C55.1652 33.7518 52.5763 36.2465 51.0006 38.4571C49.5233 36.3848 47.1545 34.0627 43.9647 34.0013ZM58.0022 35.1262C58.1951 35.12 58.3909 35.1246 58.5885 35.1393C60.1073 35.3077 61.8236 35.9556 63.0656 37.2896C64.3101 38.6261 65.1279 40.6543 64.8067 43.757C64.3566 48.1045 60.8684 52.4525 57.4392 55.6696C54.1634 58.7427 51.2776 60.554 51.0006 60.7304C50.7214 60.5527 47.8354 58.7415 44.5608 55.6696C41.1316 52.4525 37.6434 48.1045 37.1933 43.757C36.8721 40.6543 37.6944 38.6261 38.9388 37.2896C40.1809 35.9556 41.8971 35.3077 43.4159 35.1393C46.5752 34.9068 49.1441 37.4419 50.5256 39.5721C50.5767 39.6507 50.6469 39.7154 50.7298 39.7602C50.8127 39.805 50.9056 39.8285 51 39.8285C51.0944 39.8285 51.1873 39.805 51.2702 39.7602C51.3531 39.7154 51.4233 39.6507 51.4744 39.5721C52.7701 37.5741 55.1101 35.219 58.0022 35.1262ZM49.5879 43.6336V46.6008H46.6104V49.3999H49.5879V52.3671H52.4121V49.3999H55.3896V46.6008H52.4121V43.6336H49.5879Z" fill="white"/>
</g>
<defs>
<filter id="filter0_d" x="0" y="0" width="102" height="102.001" filterUnits="userSpaceOnUse" color-interpolation-filters="sRGB">
<feFlood flood-opacity="0" result="BackgroundImageFix"/>
<feColorMatrix in="SourceAlpha" type="matrix" values="0 0 0 0 0 0 0 0 0 0 0 0 0 0 0 0 0 0 127 0"/>
<feOffset dy="4"/>
<feGaussianBlur stdDeviation="12"/>
<feColorMatrix type="matrix" values="0 0 0 0 0 0 0 0 0 0 0 0 0 0 0 0 0 0 0.1 0"/>
<feBlend mode="normal" in2="BackgroundImageFix" result="effect1_dropShadow"/>
<feBlend mode="normal" in="SourceGraphic" in2="effect1_dropShadow" result="shape"/>
</filter>
</defs>
</svg>
