<svg width="238" height="61" viewBox="0 0 238 61" fill="none" xmlns="http://www.w3.org/2000/svg">
<path d="M67.416 6.2V23H63.528V9.32H60.168V6.2H67.416ZM78.6624 12.464C79.7344 12.464 80.7104 12.68 81.5904 13.112C82.4704 13.544 83.1664 14.16 83.6784 14.96C84.1904 15.744 84.4464 16.656 84.4464 17.696C84.4464 18.816 84.1664 19.8 83.6064 20.648C83.0464 21.496 82.2784 22.152 81.3024 22.616C80.3424 23.064 79.2704 23.288 78.0864 23.288C75.7344 23.288 73.8944 22.568 72.5664 21.128C71.2384 19.688 70.5744 17.632 70.5744 14.96C70.5744 13.056 70.9344 11.424 71.6544 10.064C72.3744 8.704 73.3744 7.672 74.6544 6.968C75.9504 6.264 77.4464 5.912 79.1424 5.912C80.0384 5.912 80.8944 6.016 81.7104 6.224C82.5424 6.416 83.2464 6.696 83.8224 7.064L82.3824 9.92C81.5504 9.36 80.5024 9.08 79.2384 9.08C77.8144 9.08 76.6864 9.496 75.8544 10.328C75.0224 11.16 74.5744 12.368 74.5104 13.952C75.5024 12.96 76.8864 12.464 78.6624 12.464ZM77.8704 20.384C78.7024 20.384 79.3744 20.16 79.8864 19.712C80.4144 19.264 80.6784 18.656 80.6784 17.888C80.6784 17.12 80.4144 16.512 79.8864 16.064C79.3744 15.6 78.6864 15.368 77.8224 15.368C76.9744 15.368 76.2784 15.608 75.7344 16.088C75.1904 16.552 74.9184 17.152 74.9184 17.888C74.9184 18.624 75.1824 19.224 75.7104 19.688C76.2384 20.152 76.9584 20.384 77.8704 20.384ZM93.2957 23.288C91.9037 23.288 90.6637 22.944 89.5757 22.256C88.4877 21.568 87.6317 20.576 87.0077 19.28C86.3997 17.968 86.0957 16.408 86.0957 14.6C86.0957 12.792 86.3997 11.24 87.0077 9.944C87.6317 8.632 88.4877 7.632 89.5757 6.944C90.6637 6.256 91.9037 5.912 93.2957 5.912C94.6877 5.912 95.9277 6.256 97.0157 6.944C98.1037 7.632 98.9517 8.632 99.5597 9.944C100.184 11.24 100.496 12.792 100.496 14.6C100.496 16.408 100.184 17.968 99.5597 19.28C98.9517 20.576 98.1037 21.568 97.0157 22.256C95.9277 22.944 94.6877 23.288 93.2957 23.288ZM93.2957 20C94.3197 20 95.1197 19.56 95.6957 18.68C96.2877 17.8 96.5837 16.44 96.5837 14.6C96.5837 12.76 96.2877 11.4 95.6957 10.52C95.1197 9.64 94.3197 9.2 93.2957 9.2C92.2877 9.2 91.4877 9.64 90.8957 10.52C90.3197 11.4 90.0317 12.76 90.0317 14.6C90.0317 16.44 90.3197 17.8 90.8957 18.68C91.4877 19.56 92.2877 20 93.2957 20ZM109.825 23.288C108.433 23.288 107.193 22.944 106.105 22.256C105.017 21.568 104.161 20.576 103.537 19.28C102.929 17.968 102.625 16.408 102.625 14.6C102.625 12.792 102.929 11.24 103.537 9.944C104.161 8.632 105.017 7.632 106.105 6.944C107.193 6.256 108.433 5.912 109.825 5.912C111.217 5.912 112.457 6.256 113.545 6.944C114.633 7.632 115.481 8.632 116.089 9.944C116.713 11.24 117.025 12.792 117.025 14.6C117.025 16.408 116.713 17.968 116.089 19.28C115.481 20.576 114.633 21.568 113.545 22.256C112.457 22.944 111.217 23.288 109.825 23.288ZM109.825 20C110.849 20 111.649 19.56 112.225 18.68C112.817 17.8 113.113 16.44 113.113 14.6C113.113 12.76 112.817 11.4 112.225 10.52C111.649 9.64 110.849 9.2 109.825 9.2C108.817 9.2 108.017 9.64 107.425 10.52C106.849 11.4 106.561 12.76 106.561 14.6C106.561 16.44 106.849 17.8 107.425 18.68C108.017 19.56 108.817 20 109.825 20Z" fill="white"/>
<path d="M66.66 43.46C67.548 43.46 68.352 43.664 69.072 44.072C69.792 44.468 70.356 45.032 70.764 45.764C71.172 46.496 71.376 47.33 71.376 48.266C71.376 49.202 71.172 50.036 70.764 50.768C70.356 51.5 69.792 52.07 69.072 52.478C68.352 52.886 67.548 53.09 66.66 53.09C65.868 53.09 65.154 52.922 64.518 52.586C63.894 52.25 63.39 51.764 63.006 51.128V53H61.782V39.644H63.06V45.332C63.456 44.72 63.96 44.258 64.572 43.946C65.196 43.622 65.892 43.46 66.66 43.46ZM66.57 51.956C67.23 51.956 67.83 51.806 68.37 51.506C68.91 51.194 69.33 50.756 69.63 50.192C69.942 49.628 70.098 48.986 70.098 48.266C70.098 47.546 69.942 46.904 69.63 46.34C69.33 45.776 68.91 45.344 68.37 45.044C67.83 44.732 67.23 44.576 66.57 44.576C65.898 44.576 65.292 44.732 64.752 45.044C64.224 45.344 63.804 45.776 63.492 46.34C63.192 46.904 63.042 47.546 63.042 48.266C63.042 48.986 63.192 49.628 63.492 50.192C63.804 50.756 64.224 51.194 64.752 51.506C65.292 51.806 65.898 51.956 66.57 51.956ZM82.4052 48.662H74.4852C74.5572 49.646 74.9352 50.444 75.6192 51.056C76.3032 51.656 77.1672 51.956 78.2112 51.956C78.7992 51.956 79.3392 51.854 79.8312 51.65C80.3232 51.434 80.7492 51.122 81.1092 50.714L81.8292 51.542C81.4092 52.046 80.8812 52.43 80.2452 52.694C79.6212 52.958 78.9312 53.09 78.1752 53.09C77.2032 53.09 76.3392 52.886 75.5832 52.478C74.8392 52.058 74.2572 51.482 73.8372 50.75C73.4172 50.018 73.2072 49.19 73.2072 48.266C73.2072 47.342 73.4052 46.514 73.8012 45.782C74.2092 45.05 74.7612 44.48 75.4572 44.072C76.1652 43.664 76.9572 43.46 77.8332 43.46C78.7092 43.46 79.4952 43.664 80.1912 44.072C80.8872 44.48 81.4332 45.05 81.8292 45.782C82.2252 46.502 82.4232 47.33 82.4232 48.266L82.4052 48.662ZM77.8332 44.558C76.9212 44.558 76.1532 44.852 75.5292 45.44C74.9172 46.016 74.5692 46.772 74.4852 47.708H81.1992C81.1152 46.772 80.7612 46.016 80.1372 45.44C79.5252 44.852 78.7572 44.558 77.8332 44.558ZM93.8445 39.644V53H92.6205V51.128C92.2365 51.764 91.7265 52.25 91.0905 52.586C90.4665 52.922 89.7585 53.09 88.9665 53.09C88.0785 53.09 87.2745 52.886 86.5545 52.478C85.8345 52.07 85.2705 51.5 84.8625 50.768C84.4545 50.036 84.2505 49.202 84.2505 48.266C84.2505 47.33 84.4545 46.496 84.8625 45.764C85.2705 45.032 85.8345 44.468 86.5545 44.072C87.2745 43.664 88.0785 43.46 88.9665 43.46C89.7345 43.46 90.4245 43.622 91.0365 43.946C91.6605 44.258 92.1705 44.72 92.5665 45.332V39.644H93.8445ZM89.0745 51.956C89.7345 51.956 90.3285 51.806 90.8565 51.506C91.3965 51.194 91.8165 50.756 92.1165 50.192C92.4285 49.628 92.5845 48.986 92.5845 48.266C92.5845 47.546 92.4285 46.904 92.1165 46.34C91.8165 45.776 91.3965 45.344 90.8565 45.044C90.3285 44.732 89.7345 44.576 89.0745 44.576C88.4025 44.576 87.7965 44.732 87.2565 45.044C86.7285 45.344 86.3085 45.776 85.9965 46.34C85.6965 46.904 85.5465 47.546 85.5465 48.266C85.5465 48.986 85.6965 49.628 85.9965 50.192C86.3085 50.756 86.7285 51.194 87.2565 51.506C87.7965 51.806 88.4025 51.956 89.0745 51.956ZM100.122 53.09C99.3537 53.09 98.6157 52.982 97.9077 52.766C97.2117 52.538 96.6657 52.256 96.2697 51.92L96.8457 50.912C97.2417 51.224 97.7397 51.482 98.3397 51.686C98.9397 51.878 99.5637 51.974 100.212 51.974C101.076 51.974 101.712 51.842 102.12 51.578C102.54 51.302 102.75 50.918 102.75 50.426C102.75 50.078 102.636 49.808 102.408 49.616C102.18 49.412 101.892 49.262 101.544 49.166C101.196 49.058 100.734 48.956 100.158 48.86C99.3897 48.716 98.7717 48.572 98.3037 48.428C97.8357 48.272 97.4337 48.014 97.0977 47.654C96.7737 47.294 96.6117 46.796 96.6117 46.16C96.6117 45.368 96.9417 44.72 97.6017 44.216C98.2617 43.712 99.1797 43.46 100.356 43.46C100.968 43.46 101.58 43.544 102.192 43.712C102.804 43.868 103.308 44.078 103.704 44.342L103.146 45.368C102.366 44.828 101.436 44.558 100.356 44.558C99.5397 44.558 98.9217 44.702 98.5017 44.99C98.0937 45.278 97.8897 45.656 97.8897 46.124C97.8897 46.484 98.0037 46.772 98.2317 46.988C98.4717 47.204 98.7657 47.366 99.1137 47.474C99.4617 47.57 99.9417 47.672 100.554 47.78C101.31 47.924 101.916 48.068 102.372 48.212C102.828 48.356 103.218 48.602 103.542 48.95C103.866 49.298 104.028 49.778 104.028 50.39C104.028 51.218 103.68 51.878 102.984 52.37C102.3 52.85 101.346 53.09 100.122 53.09ZM111.461 43.532H112.739V53H111.461V43.532ZM112.109 41.462C111.845 41.462 111.623 41.372 111.443 41.192C111.263 41.012 111.173 40.796 111.173 40.544C111.173 40.304 111.263 40.094 111.443 39.914C111.623 39.734 111.845 39.644 112.109 39.644C112.373 39.644 112.595 39.734 112.775 39.914C112.955 40.082 113.045 40.286 113.045 40.526C113.045 40.79 112.955 41.012 112.775 41.192C112.595 41.372 112.373 41.462 112.109 41.462ZM121.299 43.46C122.487 43.46 123.429 43.808 124.125 44.504C124.833 45.188 125.187 46.19 125.187 47.51V53H123.909V47.636C123.909 46.652 123.663 45.902 123.171 45.386C122.679 44.87 121.977 44.612 121.065 44.612C120.045 44.612 119.235 44.918 118.635 45.53C118.047 46.13 117.753 46.964 117.753 48.032V53H116.475V43.532H117.699V45.278C118.047 44.702 118.527 44.258 119.139 43.946C119.763 43.622 120.483 43.46 121.299 43.46ZM136.374 40.4V53H135.078V41.552H132.108V40.4H136.374ZM144.786 45.458C145.614 45.458 146.346 45.614 146.982 45.926C147.63 46.238 148.134 46.682 148.494 47.258C148.854 47.822 149.034 48.482 149.034 49.238C149.034 50.006 148.848 50.684 148.476 51.272C148.104 51.86 147.588 52.316 146.928 52.64C146.28 52.952 145.548 53.108 144.732 53.108C143.064 53.108 141.786 52.562 140.898 51.47C140.01 50.366 139.566 48.812 139.566 46.808C139.566 45.404 139.806 44.216 140.286 43.244C140.766 42.272 141.438 41.54 142.302 41.048C143.166 40.544 144.174 40.292 145.326 40.292C146.574 40.292 147.57 40.52 148.314 40.976L147.792 42.02C147.192 41.624 146.376 41.426 145.344 41.426C143.952 41.426 142.86 41.87 142.068 42.758C141.276 43.634 140.88 44.912 140.88 46.592C140.88 46.892 140.898 47.234 140.934 47.618C141.246 46.934 141.744 46.406 142.428 46.034C143.112 45.65 143.898 45.458 144.786 45.458ZM144.678 52.01C145.59 52.01 146.328 51.764 146.892 51.272C147.468 50.768 147.756 50.102 147.756 49.274C147.756 48.446 147.468 47.786 146.892 47.294C146.328 46.802 145.56 46.556 144.588 46.556C143.952 46.556 143.388 46.676 142.896 46.916C142.416 47.156 142.038 47.486 141.762 47.906C141.486 48.326 141.348 48.794 141.348 49.31C141.348 49.79 141.474 50.234 141.726 50.642C141.99 51.05 142.374 51.38 142.878 51.632C143.382 51.884 143.982 52.01 144.678 52.01ZM161.275 43.46C162.463 43.46 163.405 43.808 164.101 44.504C164.809 45.188 165.163 46.19 165.163 47.51V53H163.885V47.636C163.885 46.652 163.639 45.902 163.147 45.386C162.655 44.87 161.953 44.612 161.041 44.612C160.021 44.612 159.211 44.918 158.611 45.53C158.023 46.13 157.729 46.964 157.729 48.032V53H156.451V39.644H157.729V45.188C158.077 44.636 158.557 44.21 159.169 43.91C159.781 43.61 160.483 43.46 161.275 43.46ZM172.718 53.09C171.806 53.09 170.984 52.886 170.252 52.478C169.52 52.058 168.944 51.482 168.524 50.75C168.104 50.018 167.894 49.19 167.894 48.266C167.894 47.342 168.104 46.514 168.524 45.782C168.944 45.05 169.52 44.48 170.252 44.072C170.984 43.664 171.806 43.46 172.718 43.46C173.63 43.46 174.452 43.664 175.184 44.072C175.916 44.48 176.486 45.05 176.894 45.782C177.314 46.514 177.524 47.342 177.524 48.266C177.524 49.19 177.314 50.018 176.894 50.75C176.486 51.482 175.916 52.058 175.184 52.478C174.452 52.886 173.63 53.09 172.718 53.09ZM172.718 51.956C173.39 51.956 173.99 51.806 174.518 51.506C175.058 51.194 175.478 50.756 175.778 50.192C176.078 49.628 176.228 48.986 176.228 48.266C176.228 47.546 176.078 46.904 175.778 46.34C175.478 45.776 175.058 45.344 174.518 45.044C173.99 44.732 173.39 44.576 172.718 44.576C172.046 44.576 171.44 44.732 170.9 45.044C170.372 45.344 169.952 45.776 169.64 46.34C169.34 46.904 169.19 47.546 169.19 48.266C169.19 48.986 169.34 49.628 169.64 50.192C169.952 50.756 170.372 51.194 170.9 51.506C171.44 51.806 172.046 51.956 172.718 51.956ZM182.851 53.09C182.083 53.09 181.345 52.982 180.637 52.766C179.941 52.538 179.395 52.256 178.999 51.92L179.575 50.912C179.971 51.224 180.469 51.482 181.069 51.686C181.669 51.878 182.293 51.974 182.941 51.974C183.805 51.974 184.441 51.842 184.849 51.578C185.269 51.302 185.479 50.918 185.479 50.426C185.479 50.078 185.365 49.808 185.137 49.616C184.909 49.412 184.621 49.262 184.273 49.166C183.925 49.058 183.463 48.956 182.887 48.86C182.119 48.716 181.501 48.572 181.033 48.428C180.565 48.272 180.163 48.014 179.827 47.654C179.503 47.294 179.341 46.796 179.341 46.16C179.341 45.368 179.671 44.72 180.331 44.216C180.991 43.712 181.909 43.46 183.085 43.46C183.697 43.46 184.309 43.544 184.921 43.712C185.533 43.868 186.037 44.078 186.433 44.342L185.875 45.368C185.095 44.828 184.165 44.558 183.085 44.558C182.269 44.558 181.651 44.702 181.231 44.99C180.823 45.278 180.619 45.656 180.619 46.124C180.619 46.484 180.733 46.772 180.961 46.988C181.201 47.204 181.495 47.366 181.843 47.474C182.191 47.57 182.671 47.672 183.283 47.78C184.039 47.924 184.645 48.068 185.101 48.212C185.557 48.356 185.947 48.602 186.271 48.95C186.595 49.298 186.757 49.778 186.757 50.39C186.757 51.218 186.409 51.878 185.713 52.37C185.029 52.85 184.075 53.09 182.851 53.09ZM194.178 43.46C195.066 43.46 195.87 43.664 196.59 44.072C197.31 44.468 197.874 45.032 198.282 45.764C198.69 46.496 198.894 47.33 198.894 48.266C198.894 49.214 198.69 50.054 198.282 50.786C197.874 51.518 197.31 52.088 196.59 52.496C195.882 52.892 195.078 53.09 194.178 53.09C193.41 53.09 192.714 52.934 192.09 52.622C191.478 52.298 190.974 51.83 190.578 51.218V56.492H189.3V43.532H190.524V45.404C190.908 44.78 191.412 44.3 192.036 43.964C192.672 43.628 193.386 43.46 194.178 43.46ZM194.088 51.956C194.748 51.956 195.348 51.806 195.888 51.506C196.428 51.194 196.848 50.756 197.148 50.192C197.46 49.628 197.616 48.986 197.616 48.266C197.616 47.546 197.46 46.91 197.148 46.358C196.848 45.794 196.428 45.356 195.888 45.044C195.348 44.732 194.748 44.576 194.088 44.576C193.416 44.576 192.81 44.732 192.27 45.044C191.742 45.356 191.322 45.794 191.01 46.358C190.71 46.91 190.56 47.546 190.56 48.266C190.56 48.986 190.71 49.628 191.01 50.192C191.322 50.756 191.742 51.194 192.27 51.506C192.81 51.806 193.416 51.956 194.088 51.956ZM201.679 43.532H202.957V53H201.679V43.532ZM202.327 41.462C202.063 41.462 201.841 41.372 201.661 41.192C201.481 41.012 201.391 40.796 201.391 40.544C201.391 40.304 201.481 40.094 201.661 39.914C201.841 39.734 202.063 39.644 202.327 39.644C202.591 39.644 202.813 39.734 202.993 39.914C203.173 40.082 203.263 40.286 203.263 40.526C203.263 40.79 203.173 41.012 202.993 41.192C202.813 41.372 202.591 41.462 202.327 41.462ZM211.679 52.424C211.439 52.64 211.139 52.808 210.779 52.928C210.431 53.036 210.065 53.09 209.681 53.09C208.793 53.09 208.109 52.85 207.629 52.37C207.149 51.89 206.909 51.212 206.909 50.336V44.612H205.217V43.532H206.909V41.462H208.187V43.532H211.067V44.612H208.187V50.264C208.187 50.828 208.325 51.26 208.601 51.56C208.889 51.848 209.297 51.992 209.825 51.992C210.089 51.992 210.341 51.95 210.581 51.866C210.833 51.782 211.049 51.662 211.229 51.506L211.679 52.424ZM217.498 43.46C218.734 43.46 219.682 43.772 220.342 44.396C221.002 45.008 221.332 45.92 221.332 47.132V53H220.108V51.524C219.82 52.016 219.394 52.4 218.83 52.676C218.278 52.952 217.618 53.09 216.85 53.09C215.794 53.09 214.954 52.838 214.33 52.334C213.706 51.83 213.394 51.164 213.394 50.336C213.394 49.532 213.682 48.884 214.258 48.392C214.846 47.9 215.776 47.654 217.048 47.654H220.054V47.078C220.054 46.262 219.826 45.644 219.37 45.224C218.914 44.792 218.248 44.576 217.372 44.576C216.772 44.576 216.196 44.678 215.644 44.882C215.092 45.074 214.618 45.344 214.222 45.692L213.646 44.738C214.126 44.33 214.702 44.018 215.374 43.802C216.046 43.574 216.754 43.46 217.498 43.46ZM217.048 52.082C217.768 52.082 218.386 51.92 218.902 51.596C219.418 51.26 219.802 50.78 220.054 50.156V48.608H217.084C215.464 48.608 214.654 49.172 214.654 50.3C214.654 50.852 214.864 51.29 215.284 51.614C215.704 51.926 216.292 52.082 217.048 52.082ZM224.983 39.644H226.261V53H224.983V39.644ZM232.535 53.09C231.767 53.09 231.029 52.982 230.321 52.766C229.625 52.538 229.079 52.256 228.683 51.92L229.259 50.912C229.655 51.224 230.153 51.482 230.753 51.686C231.353 51.878 231.977 51.974 232.625 51.974C233.489 51.974 234.125 51.842 234.533 51.578C234.953 51.302 235.163 50.918 235.163 50.426C235.163 50.078 235.049 49.808 234.821 49.616C234.593 49.412 234.305 49.262 233.957 49.166C233.609 49.058 233.147 48.956 232.571 48.86C231.803 48.716 231.185 48.572 230.717 48.428C230.249 48.272 229.847 48.014 229.511 47.654C229.187 47.294 229.025 46.796 229.025 46.16C229.025 45.368 229.355 44.72 230.015 44.216C230.675 43.712 231.593 43.46 232.769 43.46C233.381 43.46 233.993 43.544 234.605 43.712C235.217 43.868 235.721 44.078 236.117 44.342L235.559 45.368C234.779 44.828 233.849 44.558 232.769 44.558C231.953 44.558 231.335 44.702 230.915 44.99C230.507 45.278 230.303 45.656 230.303 46.124C230.303 46.484 230.417 46.772 230.645 46.988C230.885 47.204 231.179 47.366 231.527 47.474C231.875 47.57 232.355 47.672 232.967 47.78C233.723 47.924 234.329 48.068 234.785 48.212C235.241 48.356 235.631 48.602 235.955 48.95C236.279 49.298 236.441 49.778 236.441 50.39C236.441 51.218 236.093 51.878 235.397 52.37C234.713 52.85 233.759 53.09 232.535 53.09Z" fill="white"/>
<circle cx="25" cy="31" r="25" fill="white"/>
<path d="M16.6695 41.2884V40.9265C16.6695 35.4178 16.6695 29.9092 16.6695 24.401C16.6695 24.2936 16.6692 24.1855 16.6785 24.0781C16.6875 23.8606 16.7798 23.6555 16.9354 23.5078C17.0909 23.36 17.2971 23.2816 17.5087 23.2896C18.5263 23.2896 19.5446 23.2896 20.5629 23.2896H20.8319C20.8336 22.7111 20.9488 22.139 21.1705 21.6073C21.3922 21.0757 21.7158 20.5954 22.1223 20.1953C22.5287 19.7952 23.0096 19.4833 23.5359 19.2786C24.0623 19.0738 24.6232 18.9802 25.1855 19.0035C26.2578 19.06 27.2688 19.535 28.0122 20.3314C28.7555 21.1279 29.175 22.1859 29.1855 23.2896H32.4356C32.5539 23.2797 32.6731 23.2956 32.785 23.3361C32.8969 23.3766 32.999 23.441 33.0852 23.5248C33.1713 23.6087 33.2393 23.7103 33.2847 23.8229C33.3301 23.9356 33.3522 24.0569 33.349 24.1789C33.3533 24.2524 33.349 24.3318 33.349 24.4091V41.2905C33.6352 41.2905 33.9121 41.2846 34.1861 41.2905C34.3687 41.2931 34.5453 41.3578 34.6882 41.4746C34.8312 41.5914 34.9325 41.7536 34.9761 41.9359C35.0198 42.1182 35.0033 42.3104 34.9293 42.482C34.8554 42.6536 34.728 42.7951 34.5673 42.8844C34.4278 42.9571 34.2737 42.9952 34.1173 42.9956C28.0401 43.0015 21.9627 43.0015 15.885 42.9956C15.7717 43.0028 15.6582 42.9861 15.5514 42.9466C15.4445 42.907 15.3464 42.8455 15.2635 42.7657C15.1806 42.6859 15.1145 42.5894 15.0692 42.4824C15.0238 42.3753 15.0004 42.2599 15 42.1431C14.9996 42.0264 15.0225 41.9109 15.0671 41.8036C15.1117 41.6962 15.1769 41.5993 15.2593 41.5189C15.3416 41.4385 15.4392 41.3762 15.5458 41.3359C15.6524 41.2957 15.766 41.2782 15.8795 41.2846C16.1335 41.2816 16.3861 41.2884 16.6695 41.2884ZM24.9989 19.8663C24.3411 19.8668 23.6978 20.0676 23.1509 20.4435C22.604 20.8193 22.178 21.3533 21.9262 21.978C21.6745 22.6027 21.6084 23.2902 21.7365 23.9535C21.8646 24.6168 22.1808 25.226 22.6457 25.7045C23.1105 26.1831 23.7029 26.5093 24.348 26.6419C24.993 26.7746 25.6619 26.7077 26.27 26.4498C26.8782 26.1919 27.3983 25.7547 27.7648 25.1931C28.1313 24.6315 28.3277 23.9708 28.3291 23.2946C28.3325 22.8439 28.2488 22.397 28.0827 21.9798C27.9167 21.5626 27.6714 21.1834 27.3616 20.8644C27.0517 20.5454 26.6833 20.293 26.2777 20.1217C25.8721 19.9503 25.4374 19.8635 24.9989 19.8663ZM22.5035 41.2758H27.4982V36.1609H22.5035V41.2758ZM19.1796 27.5888V30.125H21.66V27.5888H19.1796ZM23.7592 30.1293H26.2344V27.5931H23.7592V30.1293ZM30.8221 30.1345V27.591H28.3469V30.1345H30.8221ZM21.6576 34.4124V31.8705H19.1768V34.4124H21.6576ZM26.2375 34.4124V31.8674H23.7606V34.4124H26.2375ZM30.8263 31.8674H28.3427V34.4088H30.8263V31.8674Z" fill="#B52A4D"/>
<path d="M24.999 19.8662C25.6578 19.8657 26.3019 20.0661 26.8498 20.4422C27.3977 20.8182 27.8245 21.3529 28.0765 21.9786C28.3286 22.6043 28.3945 23.2929 28.2656 23.957C28.1366 24.6211 27.8186 25.2308 27.3522 25.7091C26.8858 26.1874 26.2918 26.5126 25.6454 26.6436C24.999 26.7746 24.3293 26.7056 23.7212 26.445C23.1131 26.1845 22.5938 25.7442 22.2293 25.1801C21.8647 24.616 21.6712 23.9534 21.6734 23.2762C21.6723 22.8274 21.7577 22.3829 21.9246 21.9682C22.0914 21.5535 22.3367 21.1766 22.6457 20.8597C22.9548 20.5427 23.3219 20.2918 23.7258 20.1212C24.1296 19.9507 24.5624 19.8641 24.999 19.8662ZM25.6349 25.4042V23.9227H27.0661V22.6355H25.6164V21.1549H24.3683V22.6495H22.9372V23.9286H24.3749V25.4056L25.6349 25.4042Z" fill="white"/>
<path d="M22.5034 41.2758V36.1609H27.4981V41.2758H22.5034Z" fill="white"/>
<path d="M19.1794 27.5889H21.6599V30.125H19.1794V27.5889Z" fill="white"/>
<path d="M23.7617 30.1292V27.593H26.2369V30.1292H23.7617Z" fill="white"/>
<path d="M30.8241 30.1343H28.3489V27.5908H30.8241V30.1343Z" fill="white"/>
<path d="M21.6598 34.4123H19.1787V31.8704H21.6598V34.4123Z" fill="white"/>
<path d="M26.241 34.4117H23.7644V31.8667H26.241V34.4117Z" fill="white"/>
<path d="M30.8323 31.8667V34.4081H28.3484V31.8667H30.8323Z" fill="white"/>
<path d="M25.6349 25.4043H24.3729V23.9273H22.9351V22.6482H24.3662V21.1536H25.6143V22.6342H27.064V23.9214H25.6328L25.6349 25.4043Z" fill="#B52A4D"/>
</svg>
