<svg width="236" height="61" viewBox="0 0 236 61" fill="none" xmlns="http://www.w3.org/2000/svg">
<circle cx="25" cy="31" r="25" fill="white"/>
<g clip-path="url(#clip0)">
<path d="M24.9785 19C27.3519 18.9957 29.6732 19.6953 31.6491 21.0103C33.6249 22.3253 35.1667 24.1967 36.079 26.3878C36.9912 28.5789 37.2331 30.9913 36.7743 33.32C36.3156 35.6486 35.1767 37.7889 33.5015 39.4703C31.8263 41.1516 29.6899 42.2985 27.3629 42.7658C25.036 43.2331 22.6228 42.9999 20.4284 42.0956C18.2339 41.1914 16.357 39.6566 15.0348 37.6856C13.7126 35.7146 13.0044 33.3957 13 31.0223C12.9959 27.8401 14.2551 24.7864 16.5011 22.5322C18.7471 20.2779 21.7963 19.0075 24.9785 19ZM35.3603 31.0174C35.3633 28.9741 34.7622 26.9755 33.6324 25.273C32.5026 23.5705 30.8949 22.2399 29.011 21.4487C27.1271 20.6575 25.0513 20.441 23.0447 20.8263C21.0381 21.2116 19.19 22.1814 17.7331 23.6141C16.2762 25.0468 15.2756 26.8782 14.8567 28.8781C14.4379 30.878 14.6197 32.957 15.3792 34.8539C16.1388 36.7508 17.442 38.3808 19.1254 39.539C20.8088 40.6971 22.7969 41.3317 24.8399 41.3629C26.2122 41.3828 27.5747 41.1299 28.8485 40.6192C30.1224 40.1085 31.2824 39.3499 32.2609 38.3876C33.2394 37.4252 34.0171 36.2782 34.549 35.013C35.0808 33.7478 35.3561 32.3898 35.3591 31.0174H35.3603Z" fill="#B52A4D"/>
<path d="M35.359 31.0173C35.3554 33.0756 34.7389 35.0861 33.588 36.7927C32.4371 38.4992 30.8041 39.8244 28.8971 40.5991C26.9901 41.3738 24.8956 41.5629 22.8806 41.1424C20.8657 40.722 19.0214 39.7109 17.5834 38.2382C16.1454 36.7655 15.1785 34.8979 14.8061 32.8735C14.4338 30.8491 14.6731 28.7596 15.493 26.8716C16.3129 24.9836 17.6764 23.3826 19.4098 22.2726C21.1433 21.1627 23.1681 20.5943 25.2259 20.6397C27.9359 20.7028 30.5136 21.8238 32.4074 23.7633C34.3012 25.7028 35.3606 28.3066 35.359 31.0173ZM34.265 31.0173C34.2682 29.1895 33.7313 27.4015 32.7213 25.8782C31.7112 24.3549 30.2733 23.1642 28.5884 22.4557C26.9036 21.7473 25.0468 21.5527 23.2517 21.8965C21.4566 22.2403 19.8033 23.107 18.4994 24.3879C17.1955 25.6687 16.2992 27.3064 15.9234 29.0951C15.5477 30.8838 15.7092 32.7436 16.3875 34.4408C17.0658 36.138 18.2306 37.597 19.7356 38.6341C21.2407 39.6711 23.0187 40.24 24.8462 40.2694C26.0745 40.2895 27.2946 40.0653 28.4354 39.6097C29.5763 39.1541 30.6152 38.4763 31.4917 37.6156C32.3683 36.7549 33.0648 35.7286 33.5412 34.5962C34.0175 33.4639 34.2639 32.2482 34.2662 31.0197L34.265 31.0173Z" fill="white"/>
<path d="M34.2664 31.0198C34.2617 32.8598 33.7097 34.6567 32.6804 36.1818C31.6511 37.7069 30.1913 38.8912 28.4867 39.5839C26.7821 40.2766 24.9098 40.4464 23.1084 40.0716C21.307 39.6968 19.6578 38.7944 18.371 37.4793C17.0842 36.1642 16.2178 34.4958 15.8823 32.6867C15.5467 30.8776 15.7572 29.0096 16.4868 27.3205C17.2164 25.6313 18.4322 24.1975 19.9793 23.2016C21.5264 22.2057 23.335 21.6927 25.1747 21.728C27.6063 21.7737 29.9225 22.7737 31.6234 24.512C33.3244 26.2503 34.2735 28.5877 34.2664 31.0198ZM24.4502 30.4641H24.1547C22.803 30.4641 21.4514 30.4641 20.1001 30.4641C19.9969 30.4568 19.8939 30.4811 19.8049 30.534C19.7159 30.5868 19.6451 30.6656 19.6021 30.7598C19.5522 30.8551 19.5325 30.9635 19.5461 31.0703C19.5597 31.1771 19.6058 31.2771 19.678 31.357C19.7495 31.4311 19.8373 31.4874 19.9346 31.5212C20.032 31.5551 20.136 31.5655 20.2381 31.5517C21.7657 31.5517 23.2932 31.5517 24.8207 31.5517C24.9013 31.5516 24.9817 31.5468 25.0618 31.5373C25.191 31.5276 25.3118 31.4692 25.3995 31.3738C25.4872 31.2784 25.5356 31.1532 25.5344 31.0236C25.5369 28.8278 25.5369 26.6316 25.5344 24.4354C25.5367 24.3279 25.5048 24.2225 25.4436 24.1342C25.3824 24.0459 25.2947 23.9792 25.1933 23.9436C25.0972 23.8934 24.9865 23.8795 24.881 23.9044C24.7754 23.9294 24.6822 23.9917 24.6188 24.0796C24.5171 24.2274 24.4607 24.4014 24.456 24.5807C24.4447 26.4459 24.449 28.3113 24.449 30.1771L24.4502 30.4641ZM24.4649 22.8245C24.4632 22.896 24.4761 22.9671 24.5028 23.0334C24.5295 23.0998 24.5693 23.1599 24.62 23.2103C24.6707 23.2607 24.7313 23.3004 24.7977 23.3267C24.8642 23.353 24.9352 23.3654 25.0067 23.3634C25.1484 23.3595 25.283 23.3006 25.3821 23.1993C25.4812 23.0979 25.5373 22.9621 25.5381 22.8204C25.5389 22.6786 25.4846 22.5421 25.3867 22.4396C25.2887 22.3372 25.1548 22.2769 25.0131 22.2714C24.9401 22.2691 24.8672 22.2818 24.7993 22.3088C24.7314 22.3359 24.6699 22.3767 24.6185 22.4286C24.567 22.4805 24.5268 22.5424 24.5004 22.6105C24.4739 22.6786 24.4619 22.7515 24.4649 22.8245ZM16.8209 31.5336C16.8924 31.5354 16.9634 31.5226 17.0298 31.496C17.0962 31.4694 17.1567 31.4296 17.2072 31.379C17.2578 31.3283 17.2974 31.2679 17.3238 31.2014C17.3502 31.1349 17.3628 31.0638 17.3608 30.9923C17.3551 30.8518 17.2958 30.7189 17.1947 30.6212C17.0936 30.5235 16.9587 30.4684 16.8181 30.4675C16.6775 30.4665 16.5421 30.5197 16.4397 30.616C16.3373 30.7123 16.276 30.8444 16.2683 30.9848C16.2658 31.0582 16.2783 31.1314 16.3054 31.1997C16.3324 31.268 16.3734 31.33 16.4256 31.3817C16.4778 31.4335 16.5403 31.4738 16.6088 31.5003C16.6774 31.5267 16.7505 31.5387 16.8239 31.5355L16.8209 31.5336ZM33.1681 31.5336C33.2393 31.5363 33.3105 31.5247 33.3773 31.4997C33.4441 31.4746 33.5053 31.4365 33.5572 31.3875C33.6091 31.3386 33.6506 31.2799 33.6796 31.2147C33.7085 31.1495 33.7242 31.0792 33.7258 31.0079C33.7258 30.8631 33.6682 30.7242 33.5658 30.6218C33.4634 30.5194 33.3245 30.4618 33.1797 30.4618C33.0349 30.4618 32.896 30.5194 32.7936 30.6218C32.6912 30.7242 32.6336 30.8631 32.6336 31.0079C32.6369 31.1485 32.695 31.2823 32.7954 31.3808C32.8958 31.4793 33.0308 31.5348 33.1714 31.5355L33.1681 31.5336ZM25.5329 39.1882C25.5363 39.1149 25.5244 39.0416 25.498 38.9731C25.4716 38.9047 25.4313 38.8424 25.3796 38.7903C25.3279 38.7383 25.2659 38.6976 25.1976 38.6707C25.1293 38.6439 25.0562 38.6315 24.9828 38.6343C24.8424 38.6422 24.7107 38.7037 24.6145 38.8063C24.5183 38.9088 24.4652 39.0445 24.4664 39.1852C24.4676 39.3258 24.523 39.4604 24.6209 39.5613C24.7188 39.6622 24.8518 39.7216 24.9923 39.727C25.0636 39.7286 25.1347 39.7159 25.201 39.6896C25.2673 39.6633 25.3273 39.6239 25.3781 39.5738C25.4288 39.5237 25.469 39.464 25.4962 39.3981C25.5233 39.3321 25.537 39.2614 25.5363 39.1901L25.5329 39.1882Z" fill="#B52A4D"/>
<path d="M24.45 30.4641V30.1733C24.45 28.3075 24.4458 26.4423 24.457 24.5771C24.4617 24.3977 24.5181 24.2236 24.6198 24.0758C24.6832 23.9879 24.7765 23.9258 24.882 23.9008C24.9875 23.8758 25.0982 23.8897 25.1943 23.9398C25.2957 23.9754 25.3834 24.0422 25.4446 24.1306C25.5058 24.2189 25.5377 24.3243 25.5354 24.4318C25.5354 26.6276 25.5354 28.8236 25.5354 31.0199C25.5366 31.1495 25.4883 31.2746 25.4005 31.37C25.3128 31.4654 25.192 31.524 25.0628 31.5337C24.9827 31.5432 24.9023 31.5479 24.8217 31.5481C23.2942 31.5481 21.7667 31.5481 20.2391 31.5481C20.137 31.5618 20.033 31.5513 19.9357 31.5175C19.8383 31.4836 19.7505 31.4274 19.679 31.3532C19.6068 31.2733 19.561 31.1733 19.5474 31.0665C19.5339 30.9598 19.5532 30.8515 19.6031 30.7561C19.6461 30.662 19.7169 30.5831 19.8059 30.5302C19.895 30.4774 19.9979 30.453 20.1012 30.4603C21.4528 30.4628 22.8044 30.4628 24.1557 30.4603L24.45 30.4641Z" fill="white"/>
<path d="M24.465 22.8245C24.4631 22.6825 24.5176 22.5455 24.6167 22.4437C24.7158 22.3418 24.8513 22.2836 24.9933 22.2817C25.1354 22.2798 25.2724 22.3344 25.3742 22.4336C25.476 22.5327 25.5344 22.6681 25.5364 22.8102C25.538 22.8813 25.5257 22.952 25.5 23.0184C25.4742 23.0847 25.4356 23.1453 25.3865 23.1967C25.3373 23.2481 25.2784 23.2892 25.2133 23.3179C25.1482 23.3465 25.0779 23.362 25.0068 23.3634C24.9353 23.3655 24.8643 23.353 24.7978 23.3267C24.7314 23.3004 24.6708 23.2607 24.6201 23.2103C24.5694 23.1599 24.5296 23.0998 24.5029 23.0335C24.4762 22.9672 24.4633 22.896 24.465 22.8245Z" fill="white"/>
<path d="M16.8239 31.5354C16.7522 31.5386 16.6807 31.5272 16.6135 31.5022C16.5462 31.4771 16.4845 31.4389 16.4323 31.3896C16.3802 31.3403 16.3385 31.281 16.3097 31.2152C16.2809 31.1495 16.2656 31.0785 16.2647 31.0067C16.2638 30.935 16.2773 30.8638 16.3045 30.7973C16.3316 30.7309 16.3719 30.6706 16.4229 30.62C16.4738 30.5695 16.5346 30.5296 16.6012 30.5029C16.6679 30.4762 16.739 30.4632 16.8108 30.4646C16.8819 30.463 16.9528 30.4753 17.0191 30.501C17.0854 30.5268 17.1461 30.5654 17.1975 30.6145C17.2489 30.6637 17.29 30.7226 17.3186 30.7877C17.3472 30.8528 17.3627 30.9229 17.3642 30.994C17.3662 31.0656 17.3533 31.1368 17.3269 31.2033C17.3005 31.2698 17.2609 31.3301 17.2103 31.3807C17.1598 31.4314 17.0996 31.4713 17.0332 31.4979C16.9668 31.5245 16.8955 31.5372 16.8239 31.5354Z" fill="white"/>
<path d="M33.1714 31.5354C33.0315 31.534 32.8976 31.4783 32.7979 31.3802C32.6982 31.282 32.6405 31.1489 32.637 31.0091C32.637 30.8643 32.6943 30.7254 32.7967 30.623C32.8991 30.5206 33.0379 30.4631 33.1827 30.4631C33.3276 30.4631 33.4667 30.5206 33.5691 30.623C33.6715 30.7254 33.7288 30.8643 33.7288 31.0091C33.7274 31.0804 33.7119 31.1508 33.6829 31.216C33.654 31.2813 33.6125 31.3402 33.5606 31.3892C33.5087 31.4382 33.4475 31.4764 33.3807 31.5015C33.3139 31.5266 33.2428 31.5381 33.1714 31.5354Z" fill="white"/>
<path d="M25.5363 39.1899C25.5373 39.2611 25.524 39.3318 25.4971 39.3978C25.4703 39.4638 25.4304 39.5236 25.38 39.5739C25.3295 39.6241 25.2695 39.6637 25.2034 39.6903C25.1374 39.7169 25.0666 39.7299 24.9954 39.7287C24.8549 39.7232 24.7219 39.6641 24.624 39.5631C24.5261 39.4622 24.4707 39.3275 24.4695 39.1869C24.4683 39.0462 24.5214 38.9105 24.6176 38.808C24.7138 38.7054 24.8458 38.6438 24.9862 38.636C25.0595 38.6332 25.1324 38.6456 25.2007 38.6724C25.269 38.6993 25.331 38.7401 25.3827 38.7922C25.4344 38.8443 25.4747 38.9064 25.5011 38.9748C25.5275 39.0433 25.5396 39.1166 25.5363 39.1899Z" fill="white"/>
</g>
<path d="M69.024 12.464C70.096 12.464 71.072 12.68 71.952 13.112C72.832 13.544 73.528 14.16 74.04 14.96C74.552 15.744 74.808 16.656 74.808 17.696C74.808 18.816 74.528 19.8 73.968 20.648C73.408 21.496 72.64 22.152 71.664 22.616C70.704 23.064 69.632 23.288 68.448 23.288C66.096 23.288 64.256 22.568 62.928 21.128C61.6 19.688 60.936 17.632 60.936 14.96C60.936 13.056 61.296 11.424 62.016 10.064C62.736 8.704 63.736 7.672 65.016 6.968C66.312 6.264 67.808 5.912 69.504 5.912C70.4 5.912 71.256 6.016 72.072 6.224C72.904 6.416 73.608 6.696 74.184 7.064L72.744 9.92C71.912 9.36 70.864 9.08 69.6 9.08C68.176 9.08 67.048 9.496 66.216 10.328C65.384 11.16 64.936 12.368 64.872 13.952C65.864 12.96 67.248 12.464 69.024 12.464ZM68.232 20.384C69.064 20.384 69.736 20.16 70.248 19.712C70.776 19.264 71.04 18.656 71.04 17.888C71.04 17.12 70.776 16.512 70.248 16.064C69.736 15.6 69.048 15.368 68.184 15.368C67.336 15.368 66.64 15.608 66.096 16.088C65.552 16.552 65.28 17.152 65.28 17.888C65.28 18.624 65.544 19.224 66.072 19.688C66.6 20.152 67.32 20.384 68.232 20.384ZM82.2173 12.512C84.5853 12.512 86.3293 12.984 87.4492 13.928C88.5853 14.872 89.1533 16.136 89.1533 17.72C89.1533 18.744 88.8973 19.68 88.3853 20.528C87.8733 21.36 87.0893 22.032 86.0333 22.544C84.9933 23.04 83.7053 23.288 82.1693 23.288C80.9852 23.288 79.8173 23.136 78.6653 22.832C77.5292 22.512 76.5612 22.064 75.7612 21.488L77.2972 18.512C77.9372 18.992 78.6732 19.368 79.5052 19.64C80.3372 19.896 81.1932 20.024 82.0732 20.024C83.0493 20.024 83.8173 19.832 84.3773 19.448C84.9373 19.064 85.2173 18.528 85.2173 17.84C85.2173 17.12 84.9213 16.576 84.3293 16.208C83.7533 15.84 82.7453 15.656 81.3053 15.656H77.0092L77.8732 6.2H88.1213V9.32H81.1133L80.8493 12.512H82.2173ZM102.947 16.064H98.7707V20.144H95.6747V16.064H91.5227V13.136H95.6747V9.056H98.7707V13.136H102.947V16.064Z" fill="white"/>
<path d="M69.738 43.532L65.004 54.134C64.62 55.022 64.176 55.652 63.672 56.024C63.168 56.396 62.562 56.582 61.854 56.582C61.398 56.582 60.972 56.51 60.576 56.366C60.18 56.222 59.838 56.006 59.55 55.718L60.144 54.764C60.624 55.244 61.2 55.484 61.872 55.484C62.304 55.484 62.67 55.364 62.97 55.124C63.282 54.884 63.57 54.476 63.834 53.9L64.248 52.982L60.018 43.532H61.35L64.914 51.578L68.478 43.532H69.738ZM79.6982 48.662H71.7782C71.8502 49.646 72.2282 50.444 72.9122 51.056C73.5962 51.656 74.4602 51.956 75.5042 51.956C76.0922 51.956 76.6322 51.854 77.1242 51.65C77.6162 51.434 78.0422 51.122 78.4022 50.714L79.1222 51.542C78.7022 52.046 78.1742 52.43 77.5382 52.694C76.9142 52.958 76.2242 53.09 75.4682 53.09C74.4962 53.09 73.6322 52.886 72.8762 52.478C72.1322 52.058 71.5502 51.482 71.1302 50.75C70.7102 50.018 70.5002 49.19 70.5002 48.266C70.5002 47.342 70.6982 46.514 71.0942 45.782C71.5022 45.05 72.0542 44.48 72.7502 44.072C73.4582 43.664 74.2502 43.46 75.1262 43.46C76.0022 43.46 76.7882 43.664 77.4842 44.072C78.1802 44.48 78.7262 45.05 79.1222 45.782C79.5182 46.502 79.7162 47.33 79.7162 48.266L79.6982 48.662ZM75.1262 44.558C74.2142 44.558 73.4462 44.852 72.8222 45.44C72.2102 46.016 71.8622 46.772 71.7782 47.708H78.4922C78.4082 46.772 78.0542 46.016 77.4302 45.44C76.8182 44.852 76.0502 44.558 75.1262 44.558ZM85.5458 43.46C86.7818 43.46 87.7298 43.772 88.3898 44.396C89.0498 45.008 89.3798 45.92 89.3798 47.132V53H88.1558V51.524C87.8678 52.016 87.4418 52.4 86.8778 52.676C86.3258 52.952 85.6658 53.09 84.8978 53.09C83.8418 53.09 83.0018 52.838 82.3778 52.334C81.7538 51.83 81.4418 51.164 81.4418 50.336C81.4418 49.532 81.7298 48.884 82.3058 48.392C82.8938 47.9 83.8238 47.654 85.0958 47.654H88.1018V47.078C88.1018 46.262 87.8738 45.644 87.4178 45.224C86.9618 44.792 86.2958 44.576 85.4198 44.576C84.8198 44.576 84.2438 44.678 83.6918 44.882C83.1398 45.074 82.6658 45.344 82.2698 45.692L81.6938 44.738C82.1738 44.33 82.7498 44.018 83.4218 43.802C84.0938 43.574 84.8018 43.46 85.5458 43.46ZM85.0958 52.082C85.8158 52.082 86.4338 51.92 86.9498 51.596C87.4658 51.26 87.8498 50.78 88.1018 50.156V48.608H85.1318C83.5118 48.608 82.7018 49.172 82.7018 50.3C82.7018 50.852 82.9118 51.29 83.3318 51.614C83.7518 51.926 84.3398 52.082 85.0958 52.082ZM94.255 45.386C94.555 44.75 94.999 44.27 95.587 43.946C96.187 43.622 96.925 43.46 97.801 43.46V44.702L97.495 44.684C96.499 44.684 95.719 44.99 95.155 45.602C94.591 46.214 94.309 47.072 94.309 48.176V53H93.031V43.532H94.255V45.386ZM102.903 53.09C102.135 53.09 101.397 52.982 100.689 52.766C99.9933 52.538 99.4473 52.256 99.0513 51.92L99.6273 50.912C100.023 51.224 100.521 51.482 101.121 51.686C101.721 51.878 102.345 51.974 102.993 51.974C103.857 51.974 104.493 51.842 104.901 51.578C105.321 51.302 105.531 50.918 105.531 50.426C105.531 50.078 105.417 49.808 105.189 49.616C104.961 49.412 104.673 49.262 104.325 49.166C103.977 49.058 103.515 48.956 102.939 48.86C102.171 48.716 101.553 48.572 101.085 48.428C100.617 48.272 100.215 48.014 99.8793 47.654C99.5553 47.294 99.3933 46.796 99.3933 46.16C99.3933 45.368 99.7233 44.72 100.383 44.216C101.043 43.712 101.961 43.46 103.137 43.46C103.749 43.46 104.361 43.544 104.973 43.712C105.585 43.868 106.089 44.078 106.485 44.342L105.927 45.368C105.147 44.828 104.217 44.558 103.137 44.558C102.321 44.558 101.703 44.702 101.283 44.99C100.875 45.278 100.671 45.656 100.671 46.124C100.671 46.484 100.785 46.772 101.013 46.988C101.253 47.204 101.547 47.366 101.895 47.474C102.243 47.57 102.723 47.672 103.335 47.78C104.091 47.924 104.697 48.068 105.153 48.212C105.609 48.356 105.999 48.602 106.323 48.95C106.647 49.298 106.809 49.778 106.809 50.39C106.809 51.218 106.461 51.878 105.765 52.37C105.081 52.85 104.127 53.09 102.903 53.09ZM118.113 53.09C117.201 53.09 116.379 52.886 115.647 52.478C114.915 52.058 114.339 51.482 113.919 50.75C113.499 50.018 113.289 49.19 113.289 48.266C113.289 47.342 113.499 46.514 113.919 45.782C114.339 45.05 114.915 44.48 115.647 44.072C116.379 43.664 117.201 43.46 118.113 43.46C119.025 43.46 119.847 43.664 120.579 44.072C121.311 44.48 121.881 45.05 122.289 45.782C122.709 46.514 122.919 47.342 122.919 48.266C122.919 49.19 122.709 50.018 122.289 50.75C121.881 51.482 121.311 52.058 120.579 52.478C119.847 52.886 119.025 53.09 118.113 53.09ZM118.113 51.956C118.785 51.956 119.385 51.806 119.913 51.506C120.453 51.194 120.873 50.756 121.173 50.192C121.473 49.628 121.623 48.986 121.623 48.266C121.623 47.546 121.473 46.904 121.173 46.34C120.873 45.776 120.453 45.344 119.913 45.044C119.385 44.732 118.785 44.576 118.113 44.576C117.441 44.576 116.835 44.732 116.295 45.044C115.767 45.344 115.347 45.776 115.035 46.34C114.735 46.904 114.585 47.546 114.585 48.266C114.585 48.986 114.735 49.628 115.035 50.192C115.347 50.756 115.767 51.194 116.295 51.506C116.835 51.806 117.441 51.956 118.113 51.956ZM128.84 40.634C128.288 40.634 127.868 40.784 127.58 41.084C127.304 41.384 127.166 41.828 127.166 42.416V43.532H130.082V44.612H127.202V53H125.924V44.612H124.232V43.532H125.924V42.362C125.924 41.498 126.17 40.814 126.662 40.31C127.166 39.806 127.874 39.554 128.786 39.554C129.146 39.554 129.494 39.608 129.83 39.716C130.166 39.812 130.448 39.956 130.676 40.148L130.244 41.102C129.872 40.79 129.404 40.634 128.84 40.634ZM145.123 48.662H137.203C137.275 49.646 137.653 50.444 138.337 51.056C139.021 51.656 139.885 51.956 140.929 51.956C141.517 51.956 142.057 51.854 142.549 51.65C143.041 51.434 143.467 51.122 143.827 50.714L144.547 51.542C144.127 52.046 143.599 52.43 142.963 52.694C142.339 52.958 141.649 53.09 140.893 53.09C139.921 53.09 139.057 52.886 138.301 52.478C137.557 52.058 136.975 51.482 136.555 50.75C136.135 50.018 135.925 49.19 135.925 48.266C135.925 47.342 136.123 46.514 136.519 45.782C136.927 45.05 137.479 44.48 138.175 44.072C138.883 43.664 139.675 43.46 140.551 43.46C141.427 43.46 142.213 43.664 142.909 44.072C143.605 44.48 144.151 45.05 144.547 45.782C144.943 46.502 145.141 47.33 145.141 48.266L145.123 48.662ZM140.551 44.558C139.639 44.558 138.871 44.852 138.247 45.44C137.635 46.016 137.287 46.772 137.203 47.708H143.917C143.833 46.772 143.479 46.016 142.855 45.44C142.243 44.852 141.475 44.558 140.551 44.558ZM153.688 53L150.682 49.04L147.658 53H146.218L149.962 48.14L146.398 43.532H147.838L150.682 47.24L153.526 43.532H154.93L151.366 48.14L155.146 53H153.688ZM162.331 43.46C163.219 43.46 164.023 43.664 164.743 44.072C165.463 44.468 166.027 45.032 166.435 45.764C166.843 46.496 167.047 47.33 167.047 48.266C167.047 49.214 166.843 50.054 166.435 50.786C166.027 51.518 165.463 52.088 164.743 52.496C164.035 52.892 163.231 53.09 162.331 53.09C161.563 53.09 160.867 52.934 160.243 52.622C159.631 52.298 159.127 51.83 158.731 51.218V56.492H157.453V43.532H158.677V45.404C159.061 44.78 159.565 44.3 160.189 43.964C160.825 43.628 161.539 43.46 162.331 43.46ZM162.241 51.956C162.901 51.956 163.501 51.806 164.041 51.506C164.581 51.194 165.001 50.756 165.301 50.192C165.613 49.628 165.769 48.986 165.769 48.266C165.769 47.546 165.613 46.91 165.301 46.358C165.001 45.794 164.581 45.356 164.041 45.044C163.501 44.732 162.901 44.576 162.241 44.576C161.569 44.576 160.963 44.732 160.423 45.044C159.895 45.356 159.475 45.794 159.163 46.358C158.863 46.91 158.713 47.546 158.713 48.266C158.713 48.986 158.863 49.628 159.163 50.192C159.475 50.756 159.895 51.194 160.423 51.506C160.963 51.806 161.569 51.956 162.241 51.956ZM178.077 48.662H170.157C170.229 49.646 170.607 50.444 171.291 51.056C171.975 51.656 172.839 51.956 173.883 51.956C174.471 51.956 175.011 51.854 175.503 51.65C175.995 51.434 176.421 51.122 176.781 50.714L177.501 51.542C177.081 52.046 176.553 52.43 175.917 52.694C175.293 52.958 174.603 53.09 173.847 53.09C172.875 53.09 172.011 52.886 171.255 52.478C170.511 52.058 169.929 51.482 169.509 50.75C169.089 50.018 168.879 49.19 168.879 48.266C168.879 47.342 169.077 46.514 169.473 45.782C169.881 45.05 170.433 44.48 171.129 44.072C171.837 43.664 172.629 43.46 173.505 43.46C174.381 43.46 175.167 43.664 175.863 44.072C176.559 44.48 177.105 45.05 177.501 45.782C177.897 46.502 178.095 47.33 178.095 48.266L178.077 48.662ZM173.505 44.558C172.593 44.558 171.825 44.852 171.201 45.44C170.589 46.016 170.241 46.772 170.157 47.708H176.871C176.787 46.772 176.433 46.016 175.809 45.44C175.197 44.852 174.429 44.558 173.505 44.558ZM182.1 45.386C182.4 44.75 182.844 44.27 183.432 43.946C184.032 43.622 184.77 43.46 185.646 43.46V44.702L185.34 44.684C184.344 44.684 183.564 44.99 183 45.602C182.436 46.214 182.154 47.072 182.154 48.176V53H180.876V43.532H182.1V45.386ZM188.14 43.532H189.418V53H188.14V43.532ZM188.788 41.462C188.524 41.462 188.302 41.372 188.122 41.192C187.942 41.012 187.852 40.796 187.852 40.544C187.852 40.304 187.942 40.094 188.122 39.914C188.302 39.734 188.524 39.644 188.788 39.644C189.052 39.644 189.274 39.734 189.454 39.914C189.634 40.082 189.724 40.286 189.724 40.526C189.724 40.79 189.634 41.012 189.454 41.192C189.274 41.372 189.052 41.462 188.788 41.462ZM201.398 48.662H193.478C193.55 49.646 193.928 50.444 194.612 51.056C195.296 51.656 196.16 51.956 197.204 51.956C197.792 51.956 198.332 51.854 198.824 51.65C199.316 51.434 199.742 51.122 200.102 50.714L200.822 51.542C200.402 52.046 199.874 52.43 199.238 52.694C198.614 52.958 197.924 53.09 197.168 53.09C196.196 53.09 195.332 52.886 194.576 52.478C193.832 52.058 193.25 51.482 192.83 50.75C192.41 50.018 192.2 49.19 192.2 48.266C192.2 47.342 192.398 46.514 192.794 45.782C193.202 45.05 193.754 44.48 194.45 44.072C195.158 43.664 195.95 43.46 196.826 43.46C197.702 43.46 198.488 43.664 199.184 44.072C199.88 44.48 200.426 45.05 200.822 45.782C201.218 46.502 201.416 47.33 201.416 48.266L201.398 48.662ZM196.826 44.558C195.914 44.558 195.146 44.852 194.522 45.44C193.91 46.016 193.562 46.772 193.478 47.708H200.192C200.108 46.772 199.754 46.016 199.13 45.44C198.518 44.852 197.75 44.558 196.826 44.558ZM209.021 43.46C210.209 43.46 211.151 43.808 211.847 44.504C212.555 45.188 212.909 46.19 212.909 47.51V53H211.631V47.636C211.631 46.652 211.385 45.902 210.893 45.386C210.401 44.87 209.699 44.612 208.787 44.612C207.767 44.612 206.957 44.918 206.357 45.53C205.769 46.13 205.475 46.964 205.475 48.032V53H204.197V43.532H205.421V45.278C205.769 44.702 206.249 44.258 206.861 43.946C207.485 43.622 208.205 43.46 209.021 43.46ZM220.518 53.09C219.582 53.09 218.742 52.886 217.998 52.478C217.266 52.07 216.69 51.5 216.27 50.768C215.85 50.024 215.64 49.19 215.64 48.266C215.64 47.342 215.85 46.514 216.27 45.782C216.69 45.05 217.266 44.48 217.998 44.072C218.742 43.664 219.582 43.46 220.518 43.46C221.334 43.46 222.06 43.622 222.696 43.946C223.344 44.258 223.854 44.72 224.226 45.332L223.272 45.98C222.96 45.512 222.564 45.164 222.084 44.936C221.604 44.696 221.082 44.576 220.518 44.576C219.834 44.576 219.216 44.732 218.664 45.044C218.124 45.344 217.698 45.776 217.386 46.34C217.086 46.904 216.936 47.546 216.936 48.266C216.936 48.998 217.086 49.646 217.386 50.21C217.698 50.762 218.124 51.194 218.664 51.506C219.216 51.806 219.834 51.956 220.518 51.956C221.082 51.956 221.604 51.842 222.084 51.614C222.564 51.386 222.96 51.038 223.272 50.57L224.226 51.218C223.854 51.83 223.344 52.298 222.696 52.622C222.048 52.934 221.322 53.09 220.518 53.09ZM235.002 48.662H227.082C227.154 49.646 227.532 50.444 228.216 51.056C228.9 51.656 229.764 51.956 230.808 51.956C231.396 51.956 231.936 51.854 232.428 51.65C232.92 51.434 233.346 51.122 233.706 50.714L234.426 51.542C234.006 52.046 233.478 52.43 232.842 52.694C232.218 52.958 231.528 53.09 230.772 53.09C229.8 53.09 228.936 52.886 228.18 52.478C227.436 52.058 226.854 51.482 226.434 50.75C226.014 50.018 225.804 49.19 225.804 48.266C225.804 47.342 226.002 46.514 226.398 45.782C226.806 45.05 227.358 44.48 228.054 44.072C228.762 43.664 229.554 43.46 230.43 43.46C231.306 43.46 232.092 43.664 232.788 44.072C233.484 44.48 234.03 45.05 234.426 45.782C234.822 46.502 235.02 47.33 235.02 48.266L235.002 48.662ZM230.43 44.558C229.518 44.558 228.75 44.852 228.126 45.44C227.514 46.016 227.166 46.772 227.082 47.708H233.796C233.712 46.772 233.358 46.016 232.734 45.44C232.122 44.852 231.354 44.558 230.43 44.558Z" fill="white"/>
<defs>
<clipPath id="clip0">
<rect width="24" height="24" fill="white" transform="translate(13 19)"/>
</clipPath>
</defs>
</svg>
