<svg width="216" height="61" viewBox="0 0 216 61" fill="none" xmlns="http://www.w3.org/2000/svg">
<path d="M69.024 12.464C70.096 12.464 71.072 12.68 71.952 13.112C72.832 13.544 73.528 14.16 74.04 14.96C74.552 15.744 74.808 16.656 74.808 17.696C74.808 18.816 74.528 19.8 73.968 20.648C73.408 21.496 72.64 22.152 71.664 22.616C70.704 23.064 69.632 23.288 68.448 23.288C66.096 23.288 64.256 22.568 62.928 21.128C61.6 19.688 60.936 17.632 60.936 14.96C60.936 13.056 61.296 11.424 62.016 10.064C62.736 8.704 63.736 7.672 65.016 6.968C66.312 6.264 67.808 5.912 69.504 5.912C70.4 5.912 71.256 6.016 72.072 6.224C72.904 6.416 73.608 6.696 74.184 7.064L72.744 9.92C71.912 9.36 70.864 9.08 69.6 9.08C68.176 9.08 67.048 9.496 66.216 10.328C65.384 11.16 64.936 12.368 64.872 13.952C65.864 12.96 67.248 12.464 69.024 12.464ZM68.232 20.384C69.064 20.384 69.736 20.16 70.248 19.712C70.776 19.264 71.04 18.656 71.04 17.888C71.04 17.12 70.776 16.512 70.248 16.064C69.736 15.6 69.048 15.368 68.184 15.368C67.336 15.368 66.64 15.608 66.096 16.088C65.552 16.552 65.28 17.152 65.28 17.888C65.28 18.624 65.544 19.224 66.072 19.688C66.6 20.152 67.32 20.384 68.232 20.384ZM83.6573 23.288C82.2652 23.288 81.0252 22.944 79.9373 22.256C78.8492 21.568 77.9932 20.576 77.3692 19.28C76.7612 17.968 76.4572 16.408 76.4572 14.6C76.4572 12.792 76.7612 11.24 77.3692 9.944C77.9932 8.632 78.8492 7.632 79.9373 6.944C81.0252 6.256 82.2652 5.912 83.6573 5.912C85.0493 5.912 86.2893 6.256 87.3773 6.944C88.4653 7.632 89.3133 8.632 89.9213 9.944C90.5453 11.24 90.8573 12.792 90.8573 14.6C90.8573 16.408 90.5453 17.968 89.9213 19.28C89.3133 20.576 88.4653 21.568 87.3773 22.256C86.2893 22.944 85.0493 23.288 83.6573 23.288ZM83.6573 20C84.6813 20 85.4813 19.56 86.0573 18.68C86.6493 17.8 86.9453 16.44 86.9453 14.6C86.9453 12.76 86.6493 11.4 86.0573 10.52C85.4813 9.64 84.6813 9.2 83.6573 9.2C82.6493 9.2 81.8493 9.64 81.2572 10.52C80.6812 11.4 80.3932 12.76 80.3932 14.6C80.3932 16.44 80.6812 17.8 81.2572 18.68C81.8493 19.56 82.6493 20 83.6573 20Z" fill="white"/>
<path d="M65.706 53.09C64.77 53.09 63.93 52.886 63.186 52.478C62.454 52.07 61.878 51.5 61.458 50.768C61.038 50.024 60.828 49.19 60.828 48.266C60.828 47.342 61.038 46.514 61.458 45.782C61.878 45.05 62.454 44.48 63.186 44.072C63.93 43.664 64.77 43.46 65.706 43.46C66.522 43.46 67.248 43.622 67.884 43.946C68.532 44.258 69.042 44.72 69.414 45.332L68.46 45.98C68.148 45.512 67.752 45.164 67.272 44.936C66.792 44.696 66.27 44.576 65.706 44.576C65.022 44.576 64.404 44.732 63.852 45.044C63.312 45.344 62.886 45.776 62.574 46.34C62.274 46.904 62.124 47.546 62.124 48.266C62.124 48.998 62.274 49.646 62.574 50.21C62.886 50.762 63.312 51.194 63.852 51.506C64.404 51.806 65.022 51.956 65.706 51.956C66.27 51.956 66.792 51.842 67.272 51.614C67.752 51.386 68.148 51.038 68.46 50.57L69.414 51.218C69.042 51.83 68.532 52.298 67.884 52.622C67.236 52.934 66.51 53.09 65.706 53.09ZM75.8164 53.09C74.9044 53.09 74.0824 52.886 73.3504 52.478C72.6184 52.058 72.0424 51.482 71.6224 50.75C71.2024 50.018 70.9924 49.19 70.9924 48.266C70.9924 47.342 71.2024 46.514 71.6224 45.782C72.0424 45.05 72.6184 44.48 73.3504 44.072C74.0824 43.664 74.9044 43.46 75.8164 43.46C76.7284 43.46 77.5504 43.664 78.2824 44.072C79.0144 44.48 79.5844 45.05 79.9924 45.782C80.4124 46.514 80.6224 47.342 80.6224 48.266C80.6224 49.19 80.4124 50.018 79.9924 50.75C79.5844 51.482 79.0144 52.058 78.2824 52.478C77.5504 52.886 76.7284 53.09 75.8164 53.09ZM75.8164 51.956C76.4884 51.956 77.0884 51.806 77.6164 51.506C78.1564 51.194 78.5764 50.756 78.8764 50.192C79.1764 49.628 79.3264 48.986 79.3264 48.266C79.3264 47.546 79.1764 46.904 78.8764 46.34C78.5764 45.776 78.1564 45.344 77.6164 45.044C77.0884 44.732 76.4884 44.576 75.8164 44.576C75.1444 44.576 74.5384 44.732 73.9984 45.044C73.4704 45.344 73.0504 45.776 72.7384 46.34C72.4384 46.904 72.2884 47.546 72.2884 48.266C72.2884 48.986 72.4384 49.628 72.7384 50.192C73.0504 50.756 73.4704 51.194 73.9984 51.506C74.5384 51.806 75.1444 51.956 75.8164 51.956ZM91.9435 43.532V53H90.7195V51.272C90.3835 51.848 89.9215 52.298 89.3335 52.622C88.7455 52.934 88.0735 53.09 87.3175 53.09C86.0815 53.09 85.1035 52.748 84.3835 52.064C83.6755 51.368 83.3215 50.354 83.3215 49.022V43.532H84.5995V48.896C84.5995 49.892 84.8455 50.648 85.3375 51.164C85.8295 51.68 86.5315 51.938 87.4435 51.938C88.4395 51.938 89.2255 51.638 89.8015 51.038C90.3775 50.426 90.6655 49.58 90.6655 48.5V43.532H91.9435ZM100.527 43.46C101.715 43.46 102.657 43.808 103.353 44.504C104.061 45.188 104.415 46.19 104.415 47.51V53H103.137V47.636C103.137 46.652 102.891 45.902 102.399 45.386C101.907 44.87 101.205 44.612 100.293 44.612C99.2729 44.612 98.4629 44.918 97.8629 45.53C97.2749 46.13 96.9809 46.964 96.9809 48.032V53H95.7029V43.532H96.9269V45.278C97.2749 44.702 97.7549 44.258 98.3669 43.946C98.9909 43.622 99.7109 43.46 100.527 43.46ZM113.051 52.424C112.811 52.64 112.511 52.808 112.151 52.928C111.803 53.036 111.437 53.09 111.053 53.09C110.165 53.09 109.481 52.85 109.001 52.37C108.521 51.89 108.281 51.212 108.281 50.336V44.612H106.589V43.532H108.281V41.462H109.559V43.532H112.439V44.612H109.559V50.264C109.559 50.828 109.697 51.26 109.973 51.56C110.261 51.848 110.669 51.992 111.197 51.992C111.461 51.992 111.713 51.95 111.953 51.866C112.205 51.782 112.421 51.662 112.601 51.506L113.051 52.424ZM116.781 45.386C117.081 44.75 117.525 44.27 118.113 43.946C118.713 43.622 119.451 43.46 120.327 43.46V44.702L120.021 44.684C119.025 44.684 118.245 44.99 117.681 45.602C117.117 46.214 116.835 47.072 116.835 48.176V53H115.557V43.532H116.781V45.386ZM122.821 43.532H124.099V53H122.821V43.532ZM123.469 41.462C123.205 41.462 122.983 41.372 122.803 41.192C122.623 41.012 122.533 40.796 122.533 40.544C122.533 40.304 122.623 40.094 122.803 39.914C122.983 39.734 123.205 39.644 123.469 39.644C123.733 39.644 123.955 39.734 124.135 39.914C124.315 40.082 124.405 40.286 124.405 40.526C124.405 40.79 124.315 41.012 124.135 41.192C123.955 41.372 123.733 41.462 123.469 41.462ZM136.079 48.662H128.159C128.231 49.646 128.609 50.444 129.293 51.056C129.977 51.656 130.841 51.956 131.885 51.956C132.473 51.956 133.013 51.854 133.505 51.65C133.997 51.434 134.423 51.122 134.783 50.714L135.503 51.542C135.083 52.046 134.555 52.43 133.919 52.694C133.295 52.958 132.605 53.09 131.849 53.09C130.877 53.09 130.013 52.886 129.257 52.478C128.513 52.058 127.931 51.482 127.511 50.75C127.091 50.018 126.881 49.19 126.881 48.266C126.881 47.342 127.079 46.514 127.475 45.782C127.883 45.05 128.435 44.48 129.131 44.072C129.839 43.664 130.631 43.46 131.507 43.46C132.383 43.46 133.169 43.664 133.865 44.072C134.561 44.48 135.107 45.05 135.503 45.782C135.899 46.502 136.097 47.33 136.097 48.266L136.079 48.662ZM131.507 44.558C130.595 44.558 129.827 44.852 129.203 45.44C128.591 46.016 128.243 46.772 128.159 47.708H134.873C134.789 46.772 134.435 46.016 133.811 45.44C133.199 44.852 132.431 44.558 131.507 44.558ZM141.416 53.09C140.648 53.09 139.91 52.982 139.202 52.766C138.506 52.538 137.96 52.256 137.564 51.92L138.14 50.912C138.536 51.224 139.034 51.482 139.634 51.686C140.234 51.878 140.858 51.974 141.506 51.974C142.37 51.974 143.006 51.842 143.414 51.578C143.834 51.302 144.044 50.918 144.044 50.426C144.044 50.078 143.93 49.808 143.702 49.616C143.474 49.412 143.186 49.262 142.838 49.166C142.49 49.058 142.028 48.956 141.452 48.86C140.684 48.716 140.066 48.572 139.598 48.428C139.13 48.272 138.728 48.014 138.392 47.654C138.068 47.294 137.906 46.796 137.906 46.16C137.906 45.368 138.236 44.72 138.896 44.216C139.556 43.712 140.474 43.46 141.65 43.46C142.262 43.46 142.874 43.544 143.486 43.712C144.098 43.868 144.602 44.078 144.998 44.342L144.44 45.368C143.66 44.828 142.73 44.558 141.65 44.558C140.834 44.558 140.216 44.702 139.796 44.99C139.388 45.278 139.184 45.656 139.184 46.124C139.184 46.484 139.298 46.772 139.526 46.988C139.766 47.204 140.06 47.366 140.408 47.474C140.756 47.57 141.236 47.672 141.848 47.78C142.604 47.924 143.21 48.068 143.666 48.212C144.122 48.356 144.512 48.602 144.836 48.95C145.16 49.298 145.322 49.778 145.322 50.39C145.322 51.218 144.974 51.878 144.278 52.37C143.594 52.85 142.64 53.09 141.416 53.09ZM157.58 43.46C158.768 43.46 159.71 43.808 160.406 44.504C161.114 45.188 161.468 46.19 161.468 47.51V53H160.19V47.636C160.19 46.652 159.944 45.902 159.452 45.386C158.96 44.87 158.258 44.612 157.346 44.612C156.326 44.612 155.516 44.918 154.916 45.53C154.328 46.13 154.034 46.964 154.034 48.032V53H152.756V39.644H154.034V45.188C154.382 44.636 154.862 44.21 155.474 43.91C156.086 43.61 156.788 43.46 157.58 43.46ZM173.397 48.662H165.477C165.549 49.646 165.927 50.444 166.611 51.056C167.295 51.656 168.159 51.956 169.203 51.956C169.791 51.956 170.331 51.854 170.823 51.65C171.315 51.434 171.741 51.122 172.101 50.714L172.821 51.542C172.401 52.046 171.873 52.43 171.237 52.694C170.613 52.958 169.923 53.09 169.167 53.09C168.195 53.09 167.331 52.886 166.575 52.478C165.831 52.058 165.249 51.482 164.829 50.75C164.409 50.018 164.199 49.19 164.199 48.266C164.199 47.342 164.397 46.514 164.793 45.782C165.201 45.05 165.753 44.48 166.449 44.072C167.157 43.664 167.949 43.46 168.825 43.46C169.701 43.46 170.487 43.664 171.183 44.072C171.879 44.48 172.425 45.05 172.821 45.782C173.217 46.502 173.415 47.33 173.415 48.266L173.397 48.662ZM168.825 44.558C167.913 44.558 167.145 44.852 166.521 45.44C165.909 46.016 165.561 46.772 165.477 47.708H172.191C172.107 46.772 171.753 46.016 171.129 45.44C170.517 44.852 169.749 44.558 168.825 44.558ZM176.196 39.644H177.474V53H176.196V39.644ZM186.088 43.46C186.976 43.46 187.78 43.664 188.5 44.072C189.22 44.468 189.784 45.032 190.192 45.764C190.6 46.496 190.804 47.33 190.804 48.266C190.804 49.214 190.6 50.054 190.192 50.786C189.784 51.518 189.22 52.088 188.5 52.496C187.792 52.892 186.988 53.09 186.088 53.09C185.32 53.09 184.624 52.934 184 52.622C183.388 52.298 182.884 51.83 182.488 51.218V56.492H181.21V43.532H182.434V45.404C182.818 44.78 183.322 44.3 183.946 43.964C184.582 43.628 185.296 43.46 186.088 43.46ZM185.998 51.956C186.658 51.956 187.258 51.806 187.798 51.506C188.338 51.194 188.758 50.756 189.058 50.192C189.37 49.628 189.526 48.986 189.526 48.266C189.526 47.546 189.37 46.91 189.058 46.358C188.758 45.794 188.338 45.356 187.798 45.044C187.258 44.732 186.658 44.576 185.998 44.576C185.326 44.576 184.72 44.732 184.18 45.044C183.652 45.356 183.232 45.794 182.92 46.358C182.62 46.91 182.47 47.546 182.47 48.266C182.47 48.986 182.62 49.628 182.92 50.192C183.232 50.756 183.652 51.194 184.18 51.506C184.72 51.806 185.326 51.956 185.998 51.956ZM201.833 48.662H193.913C193.985 49.646 194.363 50.444 195.047 51.056C195.731 51.656 196.595 51.956 197.639 51.956C198.227 51.956 198.767 51.854 199.259 51.65C199.751 51.434 200.177 51.122 200.537 50.714L201.257 51.542C200.837 52.046 200.309 52.43 199.673 52.694C199.049 52.958 198.359 53.09 197.603 53.09C196.631 53.09 195.767 52.886 195.011 52.478C194.267 52.058 193.685 51.482 193.265 50.75C192.845 50.018 192.635 49.19 192.635 48.266C192.635 47.342 192.833 46.514 193.229 45.782C193.637 45.05 194.189 44.48 194.885 44.072C195.593 43.664 196.385 43.46 197.261 43.46C198.137 43.46 198.923 43.664 199.619 44.072C200.315 44.48 200.861 45.05 201.257 45.782C201.653 46.502 201.851 47.33 201.851 48.266L201.833 48.662ZM197.261 44.558C196.349 44.558 195.581 44.852 194.957 45.44C194.345 46.016 193.997 46.772 193.913 47.708H200.627C200.543 46.772 200.189 46.016 199.565 45.44C198.953 44.852 198.185 44.558 197.261 44.558ZM213.272 39.644V53H212.048V51.128C211.664 51.764 211.154 52.25 210.518 52.586C209.894 52.922 209.186 53.09 208.394 53.09C207.506 53.09 206.702 52.886 205.982 52.478C205.262 52.07 204.698 51.5 204.29 50.768C203.882 50.036 203.678 49.202 203.678 48.266C203.678 47.33 203.882 46.496 204.29 45.764C204.698 45.032 205.262 44.468 205.982 44.072C206.702 43.664 207.506 43.46 208.394 43.46C209.162 43.46 209.852 43.622 210.464 43.946C211.088 44.258 211.598 44.72 211.994 45.332V39.644H213.272ZM208.502 51.956C209.162 51.956 209.756 51.806 210.284 51.506C210.824 51.194 211.244 50.756 211.544 50.192C211.856 49.628 212.012 48.986 212.012 48.266C212.012 47.546 211.856 46.904 211.544 46.34C211.244 45.776 210.824 45.344 210.284 45.044C209.756 44.732 209.162 44.576 208.502 44.576C207.83 44.576 207.224 44.732 206.684 45.044C206.156 45.344 205.736 45.776 205.424 46.34C205.124 46.904 204.974 47.546 204.974 48.266C204.974 48.986 205.124 49.628 205.424 50.192C205.736 50.756 206.156 51.194 206.684 51.506C207.224 51.806 207.83 51.956 208.502 51.956Z" fill="white"/>
<circle cx="25" cy="31" r="25" fill="white"/>
<path d="M20.252 21.1562L20.6328 20.843L20.677 20.9023L20.2942 21.212L20.252 21.1562Z" fill="#B52A4D"/>
<path d="M26.7836 21.2836L26.8498 21.1788L27.4446 21.1305C27.4228 21.0084 27.4122 20.9492 27.403 20.8967L27.5305 20.7932C27.482 20.7268 27.4257 20.6672 27.3626 20.6159C27.3375 20.6069 27.3105 20.6045 27.2842 20.6088C27.2579 20.6131 27.2332 20.6242 27.2119 20.6408C27.0949 20.7505 26.9905 20.8746 26.8814 20.9932L26.8108 20.9643L26.8404 20.5911L26.672 20.7112C26.6436 20.6422 26.6131 20.5774 26.5906 20.5098C26.5814 20.4829 26.5787 20.4345 26.5906 20.4207C26.7308 20.2938 26.6526 20.1744 26.5845 20.0544L27.1842 19.8758C26.816 19.7026 26.6878 19.7524 26.5894 20.058L26.3941 20.1422C26.2513 20.2042 26.243 20.316 26.3283 20.4594C26.4089 20.5919 26.3056 20.6663 26.2005 20.7208C26.1278 20.7601 26.059 20.807 25.9797 20.8587C25.8971 20.7042 25.7154 20.7208 25.5482 20.7208C25.4595 20.7341 25.3694 20.7118 25.2958 20.6585C25.2222 20.6051 25.1706 20.5245 25.1516 20.4331L24.8488 20.4891L24.9812 20.5276C24.9038 20.6049 24.8172 20.6897 24.7346 20.7711C24.7293 20.5897 24.6089 20.5683 24.4357 20.6063C24.3451 20.6116 24.2545 20.6031 24.1663 20.5808L24.1608 20.529L24.3889 20.4387C24.2413 20.3644 24.0895 20.2997 23.9342 20.2449C23.7938 20.2157 23.6515 20.1974 23.5085 20.1903L23.5318 20.091C23.521 20.0866 23.5094 20.0843 23.4979 20.0841L22.8672 20.2221C22.8415 20.2284 22.8086 20.222 22.7895 20.2344C22.6467 20.3379 22.5251 20.2442 22.3883 20.2146C22.1616 20.1326 21.9153 20.1308 21.6877 20.2097C21.6752 20.2145 21.6618 20.2165 21.6486 20.2156C21.6354 20.2146 21.6225 20.2107 21.6108 20.2041C23.4587 19.1161 25.6171 18.7494 27.7002 19.1695L27.6073 19.3143C27.6414 19.3425 27.6797 19.3644 27.7209 19.3791C27.809 19.3854 27.8963 19.4012 27.9813 19.4261L27.6218 19.5585C27.7308 19.5957 27.8141 19.6275 27.898 19.6516C28.0134 19.6921 28.1309 19.7251 28.2502 19.7503C28.287 19.7633 28.3268 19.7653 28.3647 19.7562C28.4027 19.7471 28.4374 19.7271 28.4651 19.6986C28.6023 19.6144 28.7631 19.582 28.9205 19.6068C29.1067 19.6305 29.2908 19.6696 29.4711 19.724L29.4591 19.7931L28.9963 19.7013C29.0465 19.9931 29.2397 20.0649 29.4717 20.1214C29.6394 20.1675 29.7859 20.2739 29.8855 20.422C29.985 20.5701 30.0311 20.7502 30.0155 20.9304L30.2905 21.0897L30.2695 21.1429H30.1094C30.2066 21.2188 30.333 21.2671 30.3521 21.3437C30.3753 21.4375 30.3079 21.5553 30.2814 21.6574C30.2723 21.6395 30.2582 21.625 30.2411 21.6155C30.2061 21.5968 30.142 21.5698 30.1275 21.585C30.0416 21.6781 30.1625 22.1307 30.2821 22.1825C30.2933 22.1873 30.307 22.1866 30.2905 22.1825C30.2568 22.4811 30.4471 22.6735 30.58 22.8976L30.7255 22.8645L30.8724 23.077L30.9382 23.0915L31.0705 22.7466C31.0979 22.6884 31.12 22.6277 31.1367 22.5652C31.1797 22.3211 31.3351 22.2804 31.5333 22.3142C31.5497 22.3163 31.5662 22.3144 31.5817 22.3088C31.5973 22.3031 31.6115 22.2939 31.6231 22.2816C31.7407 22.0747 31.9173 22.1561 32.0859 22.1658C32.117 22.1695 32.1485 22.1666 32.1785 22.1572C32.2085 22.1478 32.2361 22.1323 32.2601 22.1114C32.2853 22.0762 32.2509 21.9899 32.233 21.9292C32.1887 21.7837 32.1393 21.6403 32.0884 21.4858C33.1831 22.4892 34.004 23.7767 34.468 25.218C34.421 25.287 34.3627 25.3387 34.3521 25.398C34.3118 25.6291 34.2617 25.7133 34.0971 25.7547C34.1671 25.8535 34.2275 25.9594 34.2776 26.0706C34.3102 26.1977 34.3308 26.3277 34.3395 26.4589C34.2562 26.441 34.1994 26.4341 34.1465 26.4161C33.9383 26.3472 33.9331 26.3513 33.9516 26.5685C33.9622 26.6913 33.9516 26.8162 33.9516 26.9397C33.9494 27.035 33.9719 27.1291 34.0165 27.2123C34.061 27.2955 34.1261 27.3647 34.2049 27.4127C34.4138 27.3838 34.4819 27.2631 34.4509 27.021C34.4616 26.8665 34.4992 26.7153 34.5619 26.5748L34.7133 26.5285C34.9455 27.0088 35.0396 27.549 34.9847 28.084C34.9483 27.9384 34.9133 27.7928 34.8743 27.648C34.8551 27.579 34.8347 27.459 34.8043 27.4548C34.7049 27.4313 34.6009 27.4465 34.5115 27.4976C34.4745 27.5434 34.4216 27.5721 34.3644 27.5774C34.3072 27.5827 34.2504 27.5642 34.2062 27.5259C34.1136 27.68 34.042 27.847 33.9939 28.0218C33.9629 28.2342 33.8755 28.4333 33.7415 28.5964C33.5975 28.8197 33.4888 29.0657 33.4191 29.3249C33.3874 29.4173 33.4408 29.5373 33.4362 29.6435C33.4385 29.7876 33.42 29.9313 33.3813 30.0697C33.3392 30.1797 33.3248 30.2992 33.3397 30.4166C33.3546 30.534 33.3983 30.6456 33.4665 30.7403C33.569 30.9017 33.6418 31.0851 33.7376 31.25C33.7918 31.3445 33.8584 31.374 33.9668 31.2906C34.1316 31.1751 34.3024 31.0688 34.478 30.972C34.663 31.0872 34.5619 31.2665 34.5215 31.4403C34.186 32.698 33.5549 33.8486 32.6858 34.7877C31.655 35.988 30.3413 36.8858 28.875 37.3921C28.5445 37.5108 28.1946 37.5922 27.8509 37.6764C27.7371 37.6909 27.622 37.6924 27.5079 37.6806L27.5027 37.6205L27.7267 37.4736L27.5734 37.399C27.7095 37.3142 27.9039 37.2763 27.7903 37.0439C27.9324 37.0377 28.0791 37.0693 28.1207 36.881C28.1254 36.8597 28.1866 36.8515 28.2256 36.8411C28.3107 36.8259 28.3946 36.8027 28.4757 36.7721C28.5418 36.739 28.6296 36.6845 28.6474 36.621C28.6613 36.5714 28.5813 36.4935 28.5522 36.4397C28.6744 36.4697 28.803 36.4557 28.9166 36.3999C29.0302 36.3442 29.1225 36.25 29.1783 36.1327C29.2444 36.0072 29.4004 35.9348 29.4956 35.821C29.542 35.7393 29.5806 35.6531 29.6111 35.5637C29.6407 35.4944 29.6862 35.4337 29.7434 35.387C29.9305 35.2718 30.1399 35.1905 30.3144 35.0622C30.4545 34.9639 30.5719 34.8343 30.6581 34.6828C30.748 34.5131 30.7591 34.2993 30.8417 34.1227C30.93 33.9508 31.0353 33.789 31.1557 33.6399C31.2912 33.4592 31.4683 33.2998 31.3639 33.0667C31.2647 33.0008 31.162 32.9413 31.056 32.8882C30.9582 32.8377 30.8511 32.8096 30.742 32.806C30.5429 32.7929 30.3475 32.7432 30.1649 32.6592C30.0813 32.6468 29.9965 32.6455 29.9126 32.6556C29.8967 32.5356 29.8465 32.5308 29.5663 32.677C29.5663 32.6439 29.5595 32.6122 29.5714 32.5963C29.6309 32.517 29.7559 32.4335 29.7467 32.368C29.7118 32.237 29.6543 32.1139 29.5769 32.0046C29.5266 31.9188 29.4517 31.8514 29.3629 31.8121C29.2742 31.7728 29.176 31.7633 29.0818 31.7852C29.0036 31.7907 28.9252 31.7762 28.8537 31.7427C28.7821 31.7093 28.7194 31.658 28.6713 31.5934C28.5396 31.4741 28.3986 31.3661 28.2502 31.2705C28.1986 31.2319 28.1505 31.1885 28.1182 31.1616L27.4875 31.1975C27.4743 31.1975 27.4524 31.2044 27.4491 31.1975C27.4288 31.1484 27.3933 31.1082 27.3481 31.0831C27.3029 31.058 27.2509 31.0497 27.2006 31.0595C27.1054 31.0782 27.0123 31.1065 26.8663 31.1444L27.0025 30.896C26.6568 31.0712 26.295 31.1319 26.1708 31.5506C26.1176 31.4559 26.0305 31.3873 25.9287 31.3596C25.827 31.3319 25.719 31.3476 25.6283 31.4031C25.4452 31.4983 25.1654 31.1961 25.209 30.9753C25.2203 30.9209 25.2449 30.8698 25.2561 30.816C25.3222 30.476 25.1966 30.3429 24.8595 30.3905C24.7494 30.3979 24.6391 30.3979 24.529 30.3905L24.8669 29.4773C24.7484 29.5006 24.6282 29.5149 24.5077 29.5201C24.3359 29.5145 24.3558 29.658 24.3096 29.756C24.2693 29.8328 24.2222 29.9056 24.1688 29.9732C24.1099 29.9694 24.0506 29.9694 23.9917 29.9732C23.9257 29.9932 23.8563 29.998 23.7883 29.9874C23.7204 29.9767 23.6554 29.9509 23.5979 29.9116C23.5405 29.8723 23.4917 29.8203 23.4553 29.7595C23.4188 29.6987 23.3956 29.6304 23.3869 29.5593C23.3787 29.3156 23.3969 29.0718 23.4411 28.8323C23.445 28.7854 23.453 28.7378 23.4543 28.6909C23.4474 28.5972 23.4694 28.5037 23.5169 28.424C23.5645 28.3442 23.6351 28.2824 23.7186 28.2475C23.8734 28.1526 24.0528 28.111 24.2315 28.1288C24.337 28.1522 24.44 28.1875 24.5384 28.2337C24.5656 28.1771 24.6039 28.1269 24.6507 28.0867C24.6975 28.0464 24.7517 28.0168 24.8101 27.9998C24.8685 27.9827 24.9298 27.9784 24.9899 27.9875C25.0499 27.9965 25.1076 28.0185 25.159 28.0521C25.1887 28.0714 25.2249 28.1039 25.2513 28.1018C25.4377 28.0894 25.512 28.1708 25.5159 28.3729C25.5169 28.4746 25.538 28.5749 25.5779 28.6676C25.6178 28.7603 25.6758 28.8434 25.748 28.9116C25.9542 28.7185 25.814 28.5171 25.8067 28.3288C25.7991 28.2457 25.7843 28.1636 25.7625 28.0833C25.7409 27.9955 25.7498 27.9025 25.788 27.8211C25.8262 27.7397 25.891 27.6751 25.9707 27.6391C26.167 27.5184 26.3527 27.3798 26.5258 27.2251C26.5866 27.1348 26.6196 27.0272 26.6203 26.9168C26.6185 26.823 26.6267 26.7295 26.6449 26.6376L26.7365 26.7755C26.7689 26.6727 26.7961 26.5844 26.8298 26.4774C26.8549 26.4588 26.9428 26.4286 26.9534 26.3796C27.0023 26.1527 27.1641 26.1132 27.3446 26.076C27.4259 26.0594 27.5192 26.047 27.5027 25.8884C27.4941 25.807 27.5991 25.6719 27.685 25.6277C27.9005 25.516 28.1345 25.4429 28.3863 25.3443C28.3275 25.4988 28.0287 25.4774 28.1966 25.7037L28.822 25.4042C28.7321 25.387 28.6846 25.3829 28.6397 25.3684C28.4784 25.3146 28.3434 25.2386 28.3876 25.0186C28.3916 24.9959 28.3545 24.9642 28.3347 24.9346L28.489 24.8442C28.333 24.6283 28.0975 24.68 27.6718 24.9731C27.8648 24.8207 28.0545 24.6648 28.2521 24.52C28.3042 24.4928 28.3634 24.4833 28.4209 24.493C28.6046 24.5075 28.7877 24.5399 28.9708 24.5441C29.0509 24.534 29.1283 24.5083 29.1993 24.4683C29.2462 24.4483 29.2892 24.4171 29.3355 24.3937C29.4161 24.353 29.5424 24.3331 29.5682 24.2689C29.5828 24.2412 29.5918 24.2106 29.5943 24.1792C29.5969 24.1477 29.593 24.116 29.583 24.0862C29.5731 24.0564 29.5576 24.0289 29.5369 24.0059C29.5162 23.9828 29.4909 23.9646 29.463 23.9523C29.3896 23.9247 29.2911 23.9715 29.2032 23.9847C29.1886 23.9886 29.1736 23.9888 29.159 23.9852C29.1444 23.9816 29.1306 23.9742 29.1193 23.9639L29.3991 23.8454L28.9853 23.4742C29.1037 23.1356 28.8199 22.9114 28.8304 22.639L28.4009 23.0287C28.2601 22.8438 28.177 22.6928 28.2689 22.5017C28.2689 22.4962 28.2728 22.4845 28.2689 22.4817C28.1307 22.352 27.9944 22.2197 27.8503 22.0969C27.8199 22.0714 27.7606 22.0866 27.7183 22.0755C27.4261 22.0017 27.3825 22.0009 27.3878 22.2948C27.3892 22.3768 27.3705 22.4578 27.3336 22.5302C27.2967 22.6026 27.2427 22.6641 27.1767 22.7087C27.4087 23.1529 27.3314 23.319 26.8185 23.4825V23.9655C26.8185 24.1069 26.7055 24.113 26.6249 24.1488C26.342 23.9302 26.4332 23.6578 26.5145 23.4129C26.3512 23.3364 26.1981 23.2749 26.052 23.1928C25.9859 23.1563 25.9461 23.068 25.8806 23.0335C25.7392 22.9597 25.5885 22.9053 25.4259 22.8364C25.4259 22.8095 25.4403 22.7258 25.4436 22.6417C25.4436 22.61 25.4271 22.5501 25.4165 22.5494C25.1462 22.5363 25.3428 22.3425 25.3626 22.3121C25.5015 22.0461 25.7287 21.8422 26.0017 21.7389C26.0816 21.712 26.1445 21.601 26.2205 21.5934C26.4377 21.5556 26.6364 21.4423 26.7843 21.2719C26.7308 21.394 26.6765 21.5168 26.6223 21.6402L26.7168 21.7879L26.9579 21.6244L27.2226 21.7672C27.2192 21.6849 27.1871 21.6066 27.1325 21.5471C27.0294 21.4526 26.9608 21.287 26.7836 21.2836ZM29.3526 21.5934L28.8007 21.1318C28.8503 21.0346 28.8882 20.9601 28.9292 20.8808L28.7062 20.8484L28.8575 20.7863C28.7906 20.7494 28.7263 20.7075 28.6652 20.6608C28.5121 20.5604 28.3761 20.434 28.2627 20.287C28.2489 20.2628 28.1795 20.2655 28.1359 20.2676C28.0606 20.2718 27.9857 20.2849 27.9084 20.2939C27.9209 20.1766 27.9291 20.1096 27.9397 20.0096C27.8117 20.0056 27.6837 20.0239 27.5614 20.0635C27.4795 20.1084 27.4417 20.2394 27.3849 20.3311C27.2686 20.109 27.487 20.0552 27.594 19.9421C27.2873 19.9076 27.065 20.0275 26.9989 20.2552L27.1545 20.3242L27.149 20.3436L26.9553 20.318C26.9705 20.3669 26.9734 20.4096 26.9873 20.4138C27.257 20.5035 27.5273 20.5905 27.8009 20.6677C27.8227 20.6746 27.867 20.6035 27.8974 20.569L28.3744 21.1933L28.0229 21.503C27.9541 21.5356 27.8775 21.5463 27.8028 21.534C27.738 21.5336 27.6733 21.5405 27.6098 21.5547C27.599 21.5822 27.5957 21.6123 27.6005 21.6416C27.6578 21.6699 27.7201 21.6849 27.7835 21.6857C27.8623 21.6661 27.9456 21.6761 28.0181 21.714C28.0906 21.7518 28.1479 21.815 28.1801 21.8927C28.2846 22.1561 28.5178 22.1976 28.7042 22.3224L28.7407 22.2823L28.5225 21.9831L28.5416 21.9603L28.8682 22.1734C29.0083 21.8871 28.7222 21.7699 28.6739 21.5809L28.8159 21.4733L29.0492 21.8182L29.3526 21.5934ZM25.4304 19.8L25.1338 19.7164C25.0836 19.6323 25.0592 19.5338 25.0063 19.5097C24.6421 19.3614 24.3842 19.6475 24.0901 19.7786C24.0683 19.7882 24.073 19.8642 24.0604 19.9408L24.6274 19.7407L24.6355 19.7592L24.4754 19.8586L24.5871 19.9089L24.3889 19.9925L24.4022 20.0372L24.8285 20.0827L24.8224 20.1428C24.7127 20.1289 24.6023 20.1231 24.4919 20.1255C24.423 20.1441 24.3574 20.1743 24.2976 20.2146L24.4629 20.3427L24.437 20.4808C24.6109 20.4525 24.7677 20.418 24.9237 20.4049C25.0453 20.3945 25.1667 20.3359 25.2923 20.4463C25.3498 20.498 25.4756 20.4677 25.5708 20.4746L25.584 20.4269L25.5211 20.369L25.7909 20.3159L25.6221 20.0787L25.8119 19.7516C25.5535 19.593 25.5477 19.9234 25.3772 19.9827L25.4304 19.8ZM29.106 25.0255C29.2753 25.0648 29.4293 25.1131 29.5866 25.1325C29.6904 25.1449 29.7849 25.1015 29.7777 24.9566C29.7774 24.9217 29.7819 24.8868 29.7909 24.8531L29.4427 24.6635L29.5847 24.4509L29.5146 24.3999L29.106 25.0255ZM26.1191 29.8008L26.5819 29.7484L26.5919 29.689C26.4022 29.591 26.215 29.4821 26.0207 29.3973C25.8852 29.3366 25.7449 29.2888 25.6011 29.2545C25.5339 29.2338 25.4622 29.2349 25.3956 29.2575C25.3289 29.2802 25.2704 29.3232 25.2277 29.3813C25.5852 29.3406 25.9434 29.4482 26.2256 29.6807L26.1191 29.8008ZM26.0365 19.3475L26.1027 19.2998C26.0101 19.3226 25.8769 19.3972 25.8313 19.3593C25.7424 19.2793 25.6346 19.2256 25.5192 19.2038C25.4037 19.1821 25.2848 19.1931 25.1748 19.2357C25.251 19.3473 25.3596 19.4304 25.4846 19.4724C25.6097 19.5144 25.7444 19.5132 25.8687 19.4689C25.9163 19.4544 25.9746 19.484 26.0268 19.4785C26.1075 19.4702 26.1866 19.4489 26.2666 19.433L26.1491 19.5199L26.0365 19.3475ZM27.2013 19.6979C27.516 19.8437 27.8608 19.9045 28.204 19.8751C28.1345 19.7976 28.0408 19.7487 27.9397 19.7372C27.8275 19.7483 27.7145 19.7292 27.6115 19.6816C27.5084 19.634 27.4188 19.5595 27.3513 19.4654L27.2013 19.6979ZM33.819 24.344L33.7693 24.3538C33.871 24.7173 33.9723 25.0814 34.0788 25.4635L34.3073 25.4746C34.1361 25.0766 33.9776 24.7096 33.819 24.3427V24.344ZM26.5774 30.0002C26.8551 30.0864 27.1518 30.0778 27.4246 29.9759L27.4365 29.9146L26.8304 29.7317V29.9808L26.5774 30.0002ZM26.1866 20.1193C26.3849 20.071 26.5927 20.0504 26.5616 19.7545C26.4347 19.6966 26.2972 19.6558 26.2456 19.831H26.0472L26.1266 19.9931C26.149 20.0352 26.1674 20.0793 26.1866 20.1193ZM32.538 22.8308C32.5949 23.135 32.8169 23.2611 33.0205 23.1066C33.0132 23.0513 32.9934 22.9985 32.9631 22.9525C32.9327 22.9066 32.8925 22.8687 32.8456 22.8419C32.7987 22.8151 32.7464 22.8001 32.6929 22.7981C32.6395 22.7962 32.5866 22.8074 32.538 22.8308ZM33.8064 24.7076L33.7099 24.7221V25.2358L33.908 25.1276L33.8064 24.7076ZM25.8371 20.4566L25.8296 20.5504L26.1272 20.6014L26.143 20.4566H25.8371ZM26.944 19.4676L26.9344 19.4061H26.5945C26.6025 19.4613 26.6097 19.5095 26.6216 19.5937L26.944 19.4676Z" fill="#B52A4D"/>
<path d="M20.0539 21.3678L19.9926 21.4872L20.161 21.4478C19.9383 21.6458 19.7294 21.8258 19.5278 22.0134C19.4649 22.0613 19.4148 22.1251 19.3823 22.1989C19.3497 22.2726 19.3358 22.354 19.3419 22.4349C19.3574 22.4823 19.3797 22.5269 19.4081 22.5673L19.319 22.7259L19.3577 22.7638L20.0274 22.0741L20.0452 22.0894L19.9348 22.259C20.0557 22.1679 20.2608 22.2101 20.2998 22.0032C20.3354 21.9838 20.3766 21.9791 20.4153 21.99C20.5038 22.0193 20.5868 22.0643 20.6606 22.1231C20.7408 22.2085 20.814 22.3009 20.8794 22.3991L20.923 22.33C20.9894 22.4143 21.0323 22.5163 21.0466 22.6244C21.061 22.7325 21.0463 22.8425 21.0043 22.9425C20.971 23.0658 20.958 23.1941 20.9659 23.3219C20.9905 23.4317 21.0272 23.5381 21.075 23.6392C21.075 23.6488 21.0684 23.6669 21.0605 23.6779C20.9693 23.8158 21.0031 23.9165 21.0982 24.0442C21.1764 24.1683 21.2341 24.3051 21.2693 24.449C21.2818 24.4897 21.2435 24.5483 21.2302 24.5931L21.0705 24.4875C20.9313 24.8197 20.8111 25.1601 20.7103 25.507C20.5684 25.8323 20.5466 26.2008 20.6493 26.5417C20.6931 26.7091 20.7216 26.8804 20.7345 27.0534C20.7562 27.1243 20.8017 27.1847 20.8623 27.2238C20.9247 27.2617 20.9778 27.3141 21.0176 27.3769C21.0573 27.4397 21.0825 27.5114 21.0915 27.5861C21.1418 27.7775 21.2026 27.9657 21.2728 28.1502C21.2796 28.2256 21.2823 28.3014 21.2812 28.3772C21.289 28.4364 21.3152 28.4912 21.3555 28.5336C21.4087 28.5656 21.4528 28.6117 21.4836 28.6672C21.5143 28.7226 21.5304 28.7855 21.5304 28.8495C21.5304 28.9661 21.6871 29.0806 21.7895 29.1868C21.6415 28.6999 21.4122 28.2454 21.2919 27.7543L21.3745 27.7039C21.4241 27.7667 21.5145 27.8274 21.5165 27.8915C21.5271 28.1674 21.7148 28.3482 21.8312 28.5641C21.9634 28.8048 22.1149 29.0304 22.2511 29.2677C22.2907 29.3367 22.3428 29.4353 22.3237 29.4987C22.2133 29.8615 22.4969 29.9249 22.6945 30.0408C22.9133 30.1677 23.1452 30.2713 23.3726 30.3816C23.4135 30.4009 23.4771 30.4299 23.5049 30.4119C23.7527 30.2429 23.8618 30.4808 24.029 30.5808C24.2363 30.689 24.4496 30.7837 24.668 30.8644L24.6864 30.8078L24.9891 31.3189L25.6682 31.6818C25.6916 31.6117 25.7263 31.5463 25.7711 31.4887C25.8042 31.459 25.9152 31.4556 25.9238 31.4742C25.9936 31.6146 26.0488 31.7623 26.0884 31.9149C26.1631 32.2418 25.974 32.4197 25.744 32.5998C25.6561 32.6687 25.6495 32.8551 25.6185 32.9909C25.6145 33.0089 25.6847 33.0454 25.7508 33.095C25.735 33.1332 25.7125 33.1682 25.6846 33.1979C25.5194 33.331 25.5267 33.4675 25.6979 33.5985C25.7767 33.6606 25.8438 33.7374 25.896 33.8249C26.0142 34.0535 26.1439 34.2754 26.2846 34.4897C26.3981 34.6133 26.5358 34.7102 26.688 34.7739C27.1355 35.0029 27.1004 35.0078 27.0747 35.4893C27.0555 35.85 27.017 36.2107 26.9859 36.5928C26.5589 36.2396 26.0449 36.3769 25.5572 36.372C24.2445 36.3603 22.9318 36.372 21.6198 36.372C21.5932 36.3682 21.5663 36.3682 21.5397 36.372C21.3909 36.4052 21.2364 36.3979 21.0911 36.3506C20.9458 36.3034 20.8147 36.218 20.7103 36.1024C19.4557 35.1701 18.4571 33.9109 17.8144 32.4502C17.247 31.2081 16.9511 29.85 16.9475 28.474C16.944 27.098 17.2331 25.7384 17.7941 24.4931C18.1804 23.614 18.693 22.8016 19.3142 22.0838C19.5343 21.8231 19.7598 21.5665 19.9825 21.3079L20.0539 21.3678ZM21.1492 24.4503C21.1763 24.2137 21.126 24.1296 20.8662 23.9771C20.8633 24.0764 20.8887 24.1745 20.9391 24.2587C20.9896 24.3429 21.0631 24.4096 21.1499 24.4503H21.1492Z" fill="#B52A4D"/>
<path d="M15 42.9862C15.2267 42.6296 15.4402 42.2889 15.661 41.9516C16.2492 41.0425 16.8447 40.1375 17.425 39.2229C17.5936 38.958 17.7025 38.6525 17.8704 38.3876C18.1467 37.9535 18.5036 37.5813 18.9196 37.2929C19.3356 37.0045 19.8023 36.8056 20.2929 36.708C20.8079 36.5921 21.3326 36.5295 21.8594 36.5211C23.2785 36.4963 24.6982 36.5108 26.1173 36.5135C26.2713 36.4983 26.4267 36.5222 26.5701 36.5831C26.7134 36.6439 26.8407 36.74 26.9409 36.8631C27.0411 36.9862 27.1112 37.1325 27.1455 37.29C27.1798 37.4475 27.177 37.6114 27.1378 37.7676C27.0834 37.9926 26.9575 38.1915 26.7805 38.3319C26.6035 38.4723 26.386 38.5456 26.1637 38.54C24.9982 38.54 23.8331 38.54 22.6685 38.54C22.6225 38.5313 22.5753 38.5326 22.5297 38.5436C22.4501 38.5907 22.3734 38.6433 22.3003 38.7008C22.3664 38.7588 22.4205 38.8497 22.4939 38.8691C22.6433 38.9063 22.7964 38.9238 22.9499 38.9214C25.4678 38.9214 27.9853 38.9183 30.5023 38.9118C30.5914 38.9047 30.6751 38.8648 30.7388 38.7993C31.4229 38.091 32.1003 37.3751 32.7818 36.6612C32.9186 36.5177 33.0614 36.3804 33.2068 36.2473C33.2843 36.1727 33.3753 36.1148 33.4743 36.077C33.5734 36.0392 33.6785 36.0223 33.7838 36.0272C33.8892 36.0321 33.9924 36.0587 34.0879 36.1055C34.1833 36.1523 34.2688 36.2182 34.3396 36.2997C34.485 36.4615 34.5644 36.6763 34.5607 36.8981C34.557 37.12 34.4707 37.3317 34.3199 37.4882C33.3681 38.5182 32.4169 39.5487 31.466 40.5796C31.0417 40.9999 30.5007 41.269 29.9207 41.348C29.6642 41.3959 29.4038 41.4191 29.1432 41.4171C27.1603 41.4219 25.1775 41.4295 23.1946 41.4171C22.7951 41.4071 22.402 41.5231 22.0666 41.7498C21.7313 41.9766 21.4695 42.3036 21.315 42.6882C21.286 42.743 21.2638 42.8015 21.2488 42.8621C21.2263 42.9683 21.1742 43 21.0677 43C19.0849 42.9968 17.103 42.9968 15.1223 43C15.0893 42.9993 15.0575 42.9924 15 42.9862Z" fill="#B52A4D"/>
<path d="M29.2139 38.5526C29.5443 38.1733 29.869 37.7849 30.2127 37.4173C30.6424 36.9586 31.0883 36.5205 31.5285 36.0694C31.5685 36.0181 31.6182 35.9759 31.6744 35.9453C31.7306 35.9147 31.7922 35.8962 31.8555 35.8913C31.9187 35.8863 31.982 35.8949 32.042 35.9164C32.1019 35.9379 32.1571 35.9719 32.204 36.0164C32.2519 36.0632 32.2903 36.1198 32.3163 36.1826C32.3424 36.2454 32.3557 36.3132 32.3557 36.3816C32.3557 36.4501 32.3424 36.5177 32.3163 36.5805C32.2903 36.6433 32.2519 36.7001 32.204 36.7469C31.8735 37.1125 31.5332 37.4663 31.1974 37.8256C30.9879 38.0505 30.7818 38.2788 30.5697 38.5009C30.5284 38.5536 30.4713 38.5902 30.4077 38.605C30.0217 38.6146 29.6357 38.6099 29.2497 38.6099L29.2139 38.5526Z" fill="#B52A4D"/>
<path d="M27.625 38.5752C27.8537 38.291 28.0833 38.0068 28.3137 37.7226C28.3384 37.699 28.368 37.6817 28.4002 37.6723C29.0162 37.4377 29.6329 37.2047 30.2443 36.9729C30.1643 37.0653 30.069 37.1751 29.9745 37.2854C29.6229 37.6993 29.2742 38.1096 28.9172 38.5166C28.8722 38.5722 28.8095 38.6091 28.7407 38.6207C28.3798 38.6303 28.0188 38.6256 27.6579 38.6256L27.625 38.5752Z" fill="#B52A4D"/>
<path d="M29.3528 21.597L29.0475 21.8156L28.8142 21.4707L28.6722 21.5783C28.7204 21.7673 29.0066 21.8846 28.8665 22.1709L28.5399 21.9577L28.5208 21.9804L28.739 22.2798L28.7025 22.3199C28.5161 22.1951 28.2828 22.1536 28.1784 21.8902C28.1461 21.8125 28.0886 21.7492 28.0161 21.7113C27.9435 21.6735 27.8606 21.6636 27.7818 21.6832C27.7184 21.6824 27.656 21.6674 27.5988 21.6391C27.594 21.6098 27.5973 21.5797 27.6081 21.5522C27.6715 21.538 27.7363 21.5311 27.8011 21.5315C27.8758 21.5438 27.9523 21.5331 28.0212 21.5005L28.3727 21.1906L27.8954 20.5666C27.863 20.601 27.8207 20.672 27.7989 20.6651C27.5252 20.5878 27.2549 20.501 26.9852 20.4113C26.9714 20.4072 26.9688 20.3644 26.9536 20.3155L27.1473 20.3409L27.1527 20.3215L26.9972 20.2527C27.0633 20.025 27.2846 19.9077 27.592 19.9394C27.4849 20.0553 27.2668 20.1063 27.3832 20.3284C27.44 20.2367 27.4778 20.1057 27.5597 20.0609C27.682 20.0212 27.8099 20.0031 27.938 20.0071C27.9274 20.1071 27.9192 20.174 27.9067 20.2912C27.984 20.2823 28.0588 20.2693 28.1342 20.2651C28.1778 20.2651 28.2471 20.2602 28.261 20.2843C28.3744 20.4314 28.5103 20.5577 28.6635 20.6582C28.7246 20.7048 28.7889 20.7469 28.8558 20.7838L28.7045 20.8458L28.9271 20.8783C28.8862 20.9576 28.8486 21.0321 28.799 21.1293L29.3528 21.597Z" fill="#B52A4D"/>
<path d="M25.4305 19.7987L25.3731 19.9814C25.5443 19.9221 25.5497 19.5917 25.8081 19.7504L25.6184 20.0774L25.7868 20.3147L25.5173 20.3677L25.58 20.4256L25.5667 20.4733C25.4715 20.4664 25.346 20.4967 25.2885 20.445C25.1629 20.3312 25.0413 20.3932 24.9196 20.4036C24.7623 20.4167 24.6071 20.4511 24.4333 20.4794L24.4591 20.3414L24.2939 20.2131C24.3537 20.1728 24.4192 20.1428 24.4881 20.1242C24.5986 20.1218 24.709 20.1275 24.8186 20.1414L24.8244 20.0814L24.3984 20.036L24.3852 19.9912L24.5833 19.9076L24.4717 19.8573L24.6314 19.7579L24.6237 19.7392L24.0566 19.9393C24.0692 19.8627 24.0645 19.787 24.0863 19.7773C24.3805 19.6442 24.6381 19.3634 25.0023 19.5082C25.0551 19.5303 25.0798 19.6289 25.1301 19.7152L25.4305 19.7987Z" fill="#B52A4D"/>
<path d="M29.1089 25.0243L29.5171 24.3987L29.5872 24.4497L29.4452 24.6622L29.7934 24.8518C29.7844 24.8855 29.7799 24.9203 29.7802 24.9552C29.7861 25.1001 29.6929 25.1436 29.5891 25.1312C29.4292 25.1147 29.2754 25.0636 29.1089 25.0243Z" fill="#B52A4D"/>
<path d="M26.1193 29.7996L26.2252 29.6795C25.943 29.447 25.5847 29.3394 25.2273 29.3801C25.27 29.3221 25.3285 29.279 25.3951 29.2563C25.4618 29.2337 25.5335 29.2326 25.6007 29.2533C25.7444 29.2876 25.8848 29.3352 26.0203 29.3959C26.2146 29.4835 26.4018 29.5898 26.5915 29.6878L26.5815 29.747L26.1193 29.7996Z" fill="#B52A4D"/>
<path d="M26.0365 19.3464L26.1472 19.5188L26.2647 19.4319C26.1847 19.4478 26.1055 19.4691 26.0249 19.4774C25.9727 19.4829 25.9143 19.4533 25.8667 19.4678C25.7424 19.5121 25.6077 19.5134 25.4827 19.4713C25.3576 19.4293 25.2491 19.3462 25.1729 19.2346C25.2828 19.192 25.4018 19.181 25.5172 19.2028C25.6327 19.2245 25.7402 19.2781 25.829 19.358C25.8746 19.396 26.0082 19.3215 26.1007 19.2987L26.0365 19.3464Z" fill="#B52A4D"/>
<path d="M27.2014 19.6967L27.3528 19.4614C27.4203 19.5556 27.5099 19.6299 27.6129 19.6775C27.7159 19.7251 27.829 19.7444 27.9411 19.7332C28.0422 19.7448 28.1359 19.7937 28.2054 19.8711C27.8621 19.9017 27.5168 19.8417 27.2014 19.6967Z" fill="#B52A4D"/>
<path d="M26.7836 21.2837C26.9607 21.2871 27.0295 21.4528 27.1418 21.5515C27.1964 21.6109 27.2282 21.6891 27.2316 21.7714L26.9672 21.6286L26.7262 21.7921L26.6316 21.6446C26.6858 21.5211 26.7397 21.3982 26.7933 21.2761L26.7836 21.2837Z" fill="#B52A4D"/>
<path d="M33.819 24.3428C33.9776 24.7097 34.1361 25.0768 34.3073 25.4734L34.0788 25.4623C33.9724 25.0802 33.8711 24.716 33.7693 24.3525L33.819 24.3428Z" fill="#B52A4D"/>
<path d="M26.5776 30.0001L26.8307 29.9807V29.7317L27.4368 29.9146L27.4248 29.9759C27.152 30.0778 26.8554 30.0864 26.5776 30.0001Z" fill="#B52A4D"/>
<path d="M26.1866 20.1193C26.1675 20.0779 26.149 20.0353 26.1292 19.9932L26.0498 19.831H26.2483C26.3025 19.6558 26.4373 19.6966 26.5642 19.7546C26.5927 20.0498 26.3816 20.071 26.1866 20.1193Z" fill="#B52A4D"/>
<path d="M32.5381 22.831C32.5867 22.8076 32.6395 22.7964 32.693 22.7983C32.7465 22.8002 32.7987 22.8153 32.8457 22.8421C32.8926 22.8689 32.9328 22.9068 32.9631 22.9527C32.9935 22.9987 33.0133 23.0515 33.0206 23.1068C32.817 23.2613 32.5949 23.1352 32.5381 22.831Z" fill="#B52A4D"/>
<path d="M26.597 20.0581C26.6969 19.7525 26.825 19.7027 27.1918 19.8759L26.5925 20.0545L26.597 20.0581Z" fill="#B52A4D"/>
<path d="M33.8063 24.7078L33.9106 25.1277L33.7124 25.236V24.7222L33.8063 24.7078Z" fill="#B52A4D"/>
<path d="M25.8373 20.4565H26.1432L26.1274 20.6014L25.8298 20.5503L25.8373 20.4565Z" fill="#B52A4D"/>
<path d="M26.9442 19.4677L26.6218 19.5938C26.6099 19.5097 26.6027 19.4614 26.5947 19.4062H26.9346L26.9442 19.4677Z" fill="#B52A4D"/>
<path d="M21.1497 24.4502C21.063 24.4094 20.9897 24.3427 20.9393 24.2584C20.889 24.1742 20.8637 24.0763 20.8667 23.9771C21.1264 24.1295 21.1775 24.2137 21.1497 24.4502Z" fill="#B52A4D"/>
</svg>
