<svg width="250" height="61" viewBox="0 0 250 61" fill="none" xmlns="http://www.w3.org/2000/svg">
<path d="M68.784 13.04C70.256 13.28 71.384 13.832 72.168 14.696C72.952 15.544 73.344 16.6 73.344 17.864C73.344 18.84 73.088 19.744 72.576 20.576C72.064 21.392 71.28 22.048 70.224 22.544C69.184 23.04 67.904 23.288 66.384 23.288C65.2 23.288 64.032 23.136 62.88 22.832C61.744 22.512 60.776 22.064 59.976 21.488L61.488 18.512C62.128 18.992 62.864 19.368 63.696 19.64C64.544 19.896 65.408 20.024 66.288 20.024C67.264 20.024 68.032 19.84 68.592 19.472C69.152 19.088 69.432 18.552 69.432 17.864C69.432 16.488 68.384 15.8 66.288 15.8H64.512V13.232L67.968 9.32H60.816V6.2H72.576V8.72L68.784 13.04ZM82.5791 23.288C81.1871 23.288 79.9471 22.944 78.8591 22.256C77.7711 21.568 76.9151 20.576 76.2911 19.28C75.6831 17.968 75.3791 16.408 75.3791 14.6C75.3791 12.792 75.6831 11.24 76.2911 9.944C76.9151 8.632 77.7711 7.632 78.8591 6.944C79.9471 6.256 81.1871 5.912 82.5791 5.912C83.9711 5.912 85.2111 6.256 86.2991 6.944C87.3871 7.632 88.2351 8.632 88.8431 9.944C89.4671 11.24 89.7791 12.792 89.7791 14.6C89.7791 16.408 89.4671 17.968 88.8431 19.28C88.2351 20.576 87.3871 21.568 86.2991 22.256C85.2111 22.944 83.9711 23.288 82.5791 23.288ZM82.5791 20C83.6031 20 84.4031 19.56 84.9791 18.68C85.5711 17.8 85.8671 16.44 85.8671 14.6C85.8671 12.76 85.5711 11.4 84.9791 10.52C84.4031 9.64 83.6031 9.2 82.5791 9.2C81.5711 9.2 80.7711 9.64 80.1791 10.52C79.6031 11.4 79.3151 12.76 79.3151 14.6C79.3151 16.44 79.6031 17.8 80.1791 18.68C80.7711 19.56 81.5711 20 82.5791 20Z" fill="white"/>
<path d="M73.59 43.46C74.778 43.46 75.708 43.802 76.38 44.486C77.064 45.17 77.406 46.178 77.406 47.51V53H76.128V47.636C76.128 46.652 75.888 45.902 75.408 45.386C74.94 44.87 74.274 44.612 73.41 44.612C72.426 44.612 71.652 44.918 71.088 45.53C70.524 46.13 70.242 46.964 70.242 48.032V53H68.964V47.636C68.964 46.652 68.724 45.902 68.244 45.386C67.776 44.87 67.104 44.612 66.228 44.612C65.256 44.612 64.482 44.918 63.906 45.53C63.342 46.13 63.06 46.964 63.06 48.032V53H61.782V43.532H63.006V45.26C63.342 44.684 63.81 44.24 64.41 43.928C65.01 43.616 65.7 43.46 66.48 43.46C67.272 43.46 67.956 43.628 68.532 43.964C69.12 44.3 69.558 44.798 69.846 45.458C70.194 44.834 70.692 44.348 71.34 44C72 43.64 72.75 43.46 73.59 43.46ZM81.0518 43.532H82.3298V53H81.0518V43.532ZM81.6998 41.462C81.4358 41.462 81.2138 41.372 81.0338 41.192C80.8538 41.012 80.7638 40.796 80.7638 40.544C80.7638 40.304 80.8538 40.094 81.0338 39.914C81.2138 39.734 81.4358 39.644 81.6998 39.644C81.9638 39.644 82.1858 39.734 82.3658 39.914C82.5458 40.082 82.6358 40.286 82.6358 40.526C82.6358 40.79 82.5458 41.012 82.3658 41.192C82.1858 41.372 81.9638 41.462 81.6998 41.462ZM86.0658 39.644H87.3438V53H86.0658V39.644ZM91.0798 39.644H92.3578V53H91.0798V39.644ZM96.0938 43.532H97.3718V53H96.0938V43.532ZM96.7418 41.462C96.4778 41.462 96.2558 41.372 96.0758 41.192C95.8958 41.012 95.8058 40.796 95.8058 40.544C95.8058 40.304 95.8958 40.094 96.0758 39.914C96.2558 39.734 96.4778 39.644 96.7418 39.644C97.0058 39.644 97.2278 39.734 97.4078 39.914C97.5878 40.082 97.6778 40.286 97.6778 40.526C97.6778 40.79 97.5878 41.012 97.4078 41.192C97.2278 41.372 97.0058 41.462 96.7418 41.462ZM104.978 53.09C104.066 53.09 103.244 52.886 102.512 52.478C101.78 52.058 101.204 51.482 100.784 50.75C100.364 50.018 100.154 49.19 100.154 48.266C100.154 47.342 100.364 46.514 100.784 45.782C101.204 45.05 101.78 44.48 102.512 44.072C103.244 43.664 104.066 43.46 104.978 43.46C105.89 43.46 106.712 43.664 107.444 44.072C108.176 44.48 108.746 45.05 109.154 45.782C109.574 46.514 109.784 47.342 109.784 48.266C109.784 49.19 109.574 50.018 109.154 50.75C108.746 51.482 108.176 52.058 107.444 52.478C106.712 52.886 105.89 53.09 104.978 53.09ZM104.978 51.956C105.65 51.956 106.25 51.806 106.778 51.506C107.318 51.194 107.738 50.756 108.038 50.192C108.338 49.628 108.488 48.986 108.488 48.266C108.488 47.546 108.338 46.904 108.038 46.34C107.738 45.776 107.318 45.344 106.778 45.044C106.25 44.732 105.65 44.576 104.978 44.576C104.306 44.576 103.7 44.732 103.16 45.044C102.632 45.344 102.212 45.776 101.9 46.34C101.6 46.904 101.45 47.546 101.45 48.266C101.45 48.986 101.6 49.628 101.9 50.192C102.212 50.756 102.632 51.194 103.16 51.506C103.7 51.806 104.306 51.956 104.978 51.956ZM117.397 43.46C118.585 43.46 119.527 43.808 120.223 44.504C120.931 45.188 121.285 46.19 121.285 47.51V53H120.007V47.636C120.007 46.652 119.761 45.902 119.269 45.386C118.777 44.87 118.075 44.612 117.163 44.612C116.143 44.612 115.333 44.918 114.733 45.53C114.145 46.13 113.851 46.964 113.851 48.032V53H112.573V43.532H113.797V45.278C114.145 44.702 114.625 44.258 115.237 43.946C115.861 43.622 116.581 43.46 117.397 43.46ZM129.826 39.644H131.104V53H129.826V39.644ZM134.84 43.532H136.118V53H134.84V43.532ZM135.488 41.462C135.224 41.462 135.002 41.372 134.822 41.192C134.642 41.012 134.552 40.796 134.552 40.544C134.552 40.304 134.642 40.094 134.822 39.914C135.002 39.734 135.224 39.644 135.488 39.644C135.752 39.644 135.974 39.734 136.154 39.914C136.334 40.082 136.424 40.286 136.424 40.526C136.424 40.79 136.334 41.012 136.154 41.192C135.974 41.372 135.752 41.462 135.488 41.462ZM147.809 43.532L143.597 53H142.283L138.089 43.532H139.421L142.967 51.596L146.549 43.532H147.809ZM157.77 48.662H149.85C149.922 49.646 150.3 50.444 150.984 51.056C151.668 51.656 152.532 51.956 153.576 51.956C154.164 51.956 154.704 51.854 155.196 51.65C155.688 51.434 156.114 51.122 156.474 50.714L157.194 51.542C156.774 52.046 156.246 52.43 155.61 52.694C154.986 52.958 154.296 53.09 153.54 53.09C152.568 53.09 151.704 52.886 150.948 52.478C150.204 52.058 149.622 51.482 149.202 50.75C148.782 50.018 148.572 49.19 148.572 48.266C148.572 47.342 148.77 46.514 149.166 45.782C149.574 45.05 150.126 44.48 150.822 44.072C151.53 43.664 152.322 43.46 153.198 43.46C154.074 43.46 154.86 43.664 155.556 44.072C156.252 44.48 156.798 45.05 157.194 45.782C157.59 46.502 157.788 47.33 157.788 48.266L157.77 48.662ZM153.198 44.558C152.286 44.558 151.518 44.852 150.894 45.44C150.282 46.016 149.934 46.772 149.85 47.708H156.564C156.48 46.772 156.126 46.016 155.502 45.44C154.89 44.852 154.122 44.558 153.198 44.558ZM163.107 53.09C162.339 53.09 161.601 52.982 160.893 52.766C160.197 52.538 159.651 52.256 159.255 51.92L159.831 50.912C160.227 51.224 160.725 51.482 161.325 51.686C161.925 51.878 162.549 51.974 163.197 51.974C164.061 51.974 164.697 51.842 165.105 51.578C165.525 51.302 165.735 50.918 165.735 50.426C165.735 50.078 165.621 49.808 165.393 49.616C165.165 49.412 164.877 49.262 164.529 49.166C164.181 49.058 163.719 48.956 163.143 48.86C162.375 48.716 161.757 48.572 161.289 48.428C160.821 48.272 160.419 48.014 160.083 47.654C159.759 47.294 159.597 46.796 159.597 46.16C159.597 45.368 159.927 44.72 160.587 44.216C161.247 43.712 162.165 43.46 163.341 43.46C163.953 43.46 164.565 43.544 165.177 43.712C165.789 43.868 166.293 44.078 166.689 44.342L166.131 45.368C165.351 44.828 164.421 44.558 163.341 44.558C162.525 44.558 161.907 44.702 161.487 44.99C161.079 45.278 160.875 45.656 160.875 46.124C160.875 46.484 160.989 46.772 161.217 46.988C161.457 47.204 161.751 47.366 162.099 47.474C162.447 47.57 162.927 47.672 163.539 47.78C164.295 47.924 164.901 48.068 165.357 48.212C165.813 48.356 166.203 48.602 166.527 48.95C166.851 49.298 167.013 49.778 167.013 50.39C167.013 51.218 166.665 51.878 165.969 52.37C165.285 52.85 164.331 53.09 163.107 53.09ZM179.433 52.424C179.193 52.64 178.893 52.808 178.533 52.928C178.185 53.036 177.819 53.09 177.435 53.09C176.547 53.09 175.863 52.85 175.383 52.37C174.903 51.89 174.663 51.212 174.663 50.336V44.612H172.971V43.532H174.663V41.462H175.941V43.532H178.821V44.612H175.941V50.264C175.941 50.828 176.079 51.26 176.355 51.56C176.643 51.848 177.051 51.992 177.579 51.992C177.843 51.992 178.095 51.95 178.335 51.866C178.587 51.782 178.803 51.662 178.983 51.506L179.433 52.424ZM185.475 53.09C184.563 53.09 183.741 52.886 183.009 52.478C182.277 52.058 181.701 51.482 181.281 50.75C180.861 50.018 180.651 49.19 180.651 48.266C180.651 47.342 180.861 46.514 181.281 45.782C181.701 45.05 182.277 44.48 183.009 44.072C183.741 43.664 184.563 43.46 185.475 43.46C186.387 43.46 187.209 43.664 187.941 44.072C188.673 44.48 189.243 45.05 189.651 45.782C190.071 46.514 190.281 47.342 190.281 48.266C190.281 49.19 190.071 50.018 189.651 50.75C189.243 51.482 188.673 52.058 187.941 52.478C187.209 52.886 186.387 53.09 185.475 53.09ZM185.475 51.956C186.147 51.956 186.747 51.806 187.275 51.506C187.815 51.194 188.235 50.756 188.535 50.192C188.835 49.628 188.985 48.986 188.985 48.266C188.985 47.546 188.835 46.904 188.535 46.34C188.235 45.776 187.815 45.344 187.275 45.044C186.747 44.732 186.147 44.576 185.475 44.576C184.803 44.576 184.197 44.732 183.657 45.044C183.129 45.344 182.709 45.776 182.397 46.34C182.097 46.904 181.947 47.546 181.947 48.266C181.947 48.986 182.097 49.628 182.397 50.192C182.709 50.756 183.129 51.194 183.657 51.506C184.197 51.806 184.803 51.956 185.475 51.956ZM201.602 43.532V53H200.378V51.272C200.042 51.848 199.58 52.298 198.992 52.622C198.404 52.934 197.732 53.09 196.976 53.09C195.74 53.09 194.762 52.748 194.042 52.064C193.334 51.368 192.98 50.354 192.98 49.022V43.532H194.258V48.896C194.258 49.892 194.504 50.648 194.996 51.164C195.488 51.68 196.19 51.938 197.102 51.938C198.098 51.938 198.884 51.638 199.46 51.038C200.036 50.426 200.324 49.58 200.324 48.5V43.532H201.602ZM209.286 53.09C208.35 53.09 207.51 52.886 206.766 52.478C206.034 52.07 205.458 51.5 205.038 50.768C204.618 50.024 204.408 49.19 204.408 48.266C204.408 47.342 204.618 46.514 205.038 45.782C205.458 45.05 206.034 44.48 206.766 44.072C207.51 43.664 208.35 43.46 209.286 43.46C210.102 43.46 210.828 43.622 211.464 43.946C212.112 44.258 212.622 44.72 212.994 45.332L212.04 45.98C211.728 45.512 211.332 45.164 210.852 44.936C210.372 44.696 209.85 44.576 209.286 44.576C208.602 44.576 207.984 44.732 207.432 45.044C206.892 45.344 206.466 45.776 206.154 46.34C205.854 46.904 205.704 47.546 205.704 48.266C205.704 48.998 205.854 49.646 206.154 50.21C206.466 50.762 206.892 51.194 207.432 51.506C207.984 51.806 208.602 51.956 209.286 51.956C209.85 51.956 210.372 51.842 210.852 51.614C211.332 51.386 211.728 51.038 212.04 50.57L212.994 51.218C212.622 51.83 212.112 52.298 211.464 52.622C210.816 52.934 210.09 53.09 209.286 53.09ZM220.367 43.46C221.555 43.46 222.497 43.808 223.193 44.504C223.901 45.188 224.255 46.19 224.255 47.51V53H222.977V47.636C222.977 46.652 222.731 45.902 222.239 45.386C221.747 44.87 221.045 44.612 220.133 44.612C219.113 44.612 218.303 44.918 217.703 45.53C217.115 46.13 216.821 46.964 216.821 48.032V53H215.543V39.644H216.821V45.188C217.169 44.636 217.649 44.21 218.261 43.91C218.873 43.61 219.575 43.46 220.367 43.46ZM236.184 48.662H228.264C228.336 49.646 228.714 50.444 229.398 51.056C230.082 51.656 230.946 51.956 231.99 51.956C232.578 51.956 233.118 51.854 233.61 51.65C234.102 51.434 234.528 51.122 234.888 50.714L235.608 51.542C235.188 52.046 234.66 52.43 234.024 52.694C233.4 52.958 232.71 53.09 231.954 53.09C230.982 53.09 230.118 52.886 229.362 52.478C228.618 52.058 228.036 51.482 227.616 50.75C227.196 50.018 226.986 49.19 226.986 48.266C226.986 47.342 227.184 46.514 227.58 45.782C227.988 45.05 228.54 44.48 229.236 44.072C229.944 43.664 230.736 43.46 231.612 43.46C232.488 43.46 233.274 43.664 233.97 44.072C234.666 44.48 235.212 45.05 235.608 45.782C236.004 46.502 236.202 47.33 236.202 48.266L236.184 48.662ZM231.612 44.558C230.7 44.558 229.932 44.852 229.308 45.44C228.696 46.016 228.348 46.772 228.264 47.708H234.978C234.894 46.772 234.54 46.016 233.916 45.44C233.304 44.852 232.536 44.558 231.612 44.558ZM247.624 39.644V53H246.4V51.128C246.016 51.764 245.506 52.25 244.87 52.586C244.246 52.922 243.538 53.09 242.746 53.09C241.858 53.09 241.054 52.886 240.334 52.478C239.614 52.07 239.05 51.5 238.642 50.768C238.234 50.036 238.03 49.202 238.03 48.266C238.03 47.33 238.234 46.496 238.642 45.764C239.05 45.032 239.614 44.468 240.334 44.072C241.054 43.664 241.858 43.46 242.746 43.46C243.514 43.46 244.204 43.622 244.816 43.946C245.44 44.258 245.95 44.72 246.346 45.332V39.644H247.624ZM242.854 51.956C243.514 51.956 244.108 51.806 244.636 51.506C245.176 51.194 245.596 50.756 245.896 50.192C246.208 49.628 246.364 48.986 246.364 48.266C246.364 47.546 246.208 46.904 245.896 46.34C245.596 45.776 245.176 45.344 244.636 45.044C244.108 44.732 243.514 44.576 242.854 44.576C242.182 44.576 241.576 44.732 241.036 45.044C240.508 45.344 240.088 45.776 239.776 46.34C239.476 46.904 239.326 47.546 239.326 48.266C239.326 48.986 239.476 49.628 239.776 50.192C240.088 50.756 240.508 51.194 241.036 51.506C241.576 51.806 242.182 51.956 242.854 51.956Z" fill="white"/>
<circle cx="25" cy="31" r="25" fill="white"/>
<path d="M17.5678 28.7935C17.2088 28.7935 16.8578 28.6859 16.5593 28.4842C16.2608 28.2826 16.028 27.9958 15.8906 27.6604C15.7532 27.325 15.7175 26.9559 15.7875 26.5999C15.8576 26.2438 16.0305 25.9169 16.2843 25.6602C16.5382 25.4035 16.8613 25.2286 17.2134 25.1578C17.5655 25.087 17.9307 25.1233 18.2624 25.2623C18.5941 25.4012 18.8775 25.6364 19.077 25.9382C19.2764 26.2401 19.3828 26.595 19.3828 26.958C19.3828 27.4448 19.1917 27.9118 18.8513 28.256C18.5109 28.6003 18.0492 28.7935 17.5678 28.7935ZM19.9851 30.4306C19.9175 30.1381 19.7643 29.873 19.5455 29.6699C19.3268 29.4668 19.0528 29.3348 18.7589 29.2917C18.7051 29.284 18.6503 29.288 18.5981 29.3033C18.5459 29.3185 18.4974 29.3447 18.456 29.3803L17.9798 29.7995C17.8677 29.8964 17.7249 29.9497 17.5774 29.9497C17.4298 29.9497 17.2874 29.8964 17.1752 29.7995L16.6987 29.3803C16.6573 29.3447 16.6092 29.3183 16.557 29.3031C16.5048 29.2878 16.45 29.2839 16.3962 29.2917C16.1026 29.335 15.8287 29.4669 15.6103 29.6701C15.392 29.8733 15.2394 30.1383 15.1723 30.4306L14.0099 35.374C13.9805 35.54 14.0173 35.711 14.1122 35.8496C14.2072 35.9881 14.3526 36.0831 14.5166 36.1135L14.548 36.1181C14.6281 36.1274 14.7095 36.1198 14.7866 36.0959L14.2486 38.3933C14.2293 38.4993 14.2525 38.6087 14.3127 38.6976C14.3729 38.7865 14.4654 38.8477 14.5701 38.8679C14.5936 38.872 14.6173 38.8741 14.6411 38.8742H16.2538L16.5665 42.4526C16.5832 42.5995 16.6527 42.735 16.7617 42.8336C16.8707 42.9321 17.0118 42.9869 17.1581 42.9873H17.9695C18.1157 42.987 18.2566 42.9324 18.3655 42.8338C18.4744 42.7352 18.544 42.5995 18.5603 42.4526L18.873 38.8742H20.4849C20.5378 38.8739 20.5901 38.8629 20.6388 38.8422C20.6876 38.8214 20.7319 38.7912 20.769 38.7532C20.8062 38.7151 20.8354 38.6701 20.8553 38.6205C20.8753 38.571 20.8854 38.518 20.8851 38.4645C20.8852 38.4404 20.8831 38.4162 20.8783 38.3925L20.3356 36.0952C20.4115 36.1186 20.4912 36.1262 20.5701 36.1174C20.6522 36.1071 20.7316 36.0806 20.8034 36.0392C20.8753 35.9978 20.9381 35.9424 20.9886 35.8762C21.0392 35.81 21.0764 35.7344 21.0978 35.6536C21.1193 35.5728 21.1245 35.4886 21.1135 35.4057L21.1081 35.3733L19.9851 30.4306ZM35.2779 26.9557C35.2779 26.5928 35.1714 26.238 34.972 25.9363C34.7727 25.6346 34.4894 25.3996 34.1579 25.2607C33.8263 25.1218 33.4612 25.0855 33.1093 25.1563C32.7573 25.2271 32.4343 25.4017 32.1805 25.6582C31.9268 25.9148 31.7537 26.2418 31.6837 26.5977C31.6137 26.9536 31.6499 27.3225 31.7872 27.6577C31.9245 27.993 32.1571 28.2796 32.4555 28.4812C32.7539 28.6828 33.1044 28.7905 33.4633 28.7905C33.7016 28.7906 33.9377 28.743 34.1579 28.6509C34.3781 28.5587 34.5782 28.4237 34.7467 28.2533C34.9152 28.0829 35.0489 27.8805 35.1401 27.6579C35.2312 27.4353 35.278 27.1967 35.2779 26.9557ZM35.8809 30.4306C35.8132 30.1382 35.6601 29.8732 35.4414 29.6701C35.2226 29.467 34.9482 29.3351 34.6543 29.2917C34.6005 29.2839 34.5457 29.2878 34.4935 29.3031C34.4414 29.3183 34.3932 29.3446 34.3519 29.3803L33.8757 29.7995C33.7634 29.8962 33.6207 29.9495 33.4732 29.9495C33.3257 29.9495 33.1829 29.8962 33.0707 29.7995L32.5945 29.3803C32.5531 29.3447 32.5046 29.3185 32.4524 29.3033C32.4003 29.288 32.3454 29.284 32.2917 29.2917C31.9981 29.3351 31.7245 29.4671 31.5062 29.6703C31.2878 29.8734 31.1349 30.1384 31.0678 30.4306L29.9011 35.374C29.8859 35.4562 29.887 35.5405 29.9042 35.6223C29.9214 35.7041 29.9545 35.7816 30.0016 35.8503C30.0486 35.9191 30.1088 35.9778 30.1784 36.0229C30.248 36.0681 30.3257 36.0989 30.4071 36.1135L30.4392 36.1181C30.5181 36.1269 30.5978 36.1193 30.6737 36.0959L30.1264 38.3933C30.107 38.4994 30.1298 38.609 30.1902 38.698C30.2506 38.7869 30.3434 38.8481 30.4484 38.8679C30.4719 38.872 30.4959 38.8742 30.5198 38.8742H32.1317L32.4444 42.4526C32.4608 42.5999 32.5302 42.7359 32.6396 42.8345C32.7489 42.9332 32.8905 42.9876 33.0371 42.9873H33.8497C33.9963 42.9876 34.1378 42.9332 34.2472 42.8345C34.3566 42.7359 34.426 42.5999 34.4424 42.4526L34.7555 38.8742H36.3674C36.4202 38.8739 36.4722 38.863 36.5209 38.8422C36.5696 38.8214 36.614 38.7912 36.6511 38.7532C36.6882 38.7151 36.7176 38.6701 36.7374 38.6205C36.7573 38.571 36.7672 38.518 36.7668 38.4645C36.7666 38.4404 36.7647 38.4163 36.7607 38.3925L36.2131 36.0952C36.2903 36.119 36.3716 36.1266 36.4518 36.1174C36.5338 36.107 36.613 36.0804 36.6847 36.039C36.7565 35.9975 36.8195 35.942 36.8699 35.8758C36.9204 35.8096 36.9574 35.7341 36.9788 35.6534C37.0002 35.5727 37.0054 35.4885 36.9944 35.4057L36.9898 35.3733L35.8809 30.4306ZM23.3566 23.8951C23.3566 23.5322 23.2501 23.1776 23.0507 22.8759C22.8514 22.5742 22.5681 22.339 22.2366 22.2001C21.905 22.0613 21.5403 22.0249 21.1883 22.0957C20.8364 22.1665 20.513 22.3413 20.2592 22.5979C20.0055 22.8545 19.8328 23.1813 19.7628 23.5372C19.6928 23.8931 19.7286 24.2621 19.8659 24.5973C20.0032 24.9326 20.2358 25.2192 20.5342 25.4208C20.8326 25.6224 21.1835 25.7299 21.5423 25.7299C22.0235 25.7299 22.4848 25.5366 22.825 25.1926C23.1653 24.8485 23.3566 24.3817 23.3566 23.8951ZM31.3034 23.8951C31.3034 23.5322 31.1969 23.1776 30.9975 22.8759C30.7981 22.5742 30.5149 22.339 30.1833 22.2001C29.8518 22.0613 29.4867 22.0249 29.1347 22.0957C28.7828 22.1665 28.4598 22.3413 28.206 22.5979C27.9523 22.8545 27.7792 23.1813 27.7092 23.5372C27.6392 23.8931 27.6754 24.2621 27.8127 24.5973C27.95 24.9326 28.1826 25.2192 28.481 25.4208C28.7793 25.6224 29.1299 25.7299 29.4887 25.7299C29.9699 25.7299 30.4315 25.5366 30.7718 25.1926C31.1121 24.8485 31.3034 24.3817 31.3034 23.8951ZM25.5161 22.6695C25.875 22.6695 26.2255 22.5618 26.5239 22.3602C26.8222 22.1586 27.0548 21.872 27.1921 21.5367C27.3295 21.2015 27.3656 20.8327 27.2956 20.4768C27.2256 20.1209 27.0526 19.7939 26.7988 19.5373C26.5451 19.2807 26.2221 19.1061 25.8701 19.0353C25.5181 18.9645 25.153 19.0007 24.8215 19.1396C24.4899 19.2784 24.2067 19.5136 24.0073 19.8153C23.808 20.117 23.7014 20.4719 23.7014 20.8347C23.7014 21.321 23.8923 21.7874 24.2322 22.1314C24.5722 22.4754 25.0332 22.6691 25.5142 22.6695H25.5161ZM25.5161 28.7905C25.875 28.7905 26.2255 28.6828 26.5239 28.4812C26.8222 28.2796 27.0548 27.993 27.1921 27.6577C27.3295 27.3225 27.3656 26.9536 27.2956 26.5977C27.2256 26.2418 27.0526 25.9148 26.7988 25.6582C26.5451 25.4017 26.2221 25.2271 25.8701 25.1563C25.5181 25.0855 25.153 25.1218 24.8215 25.2607C24.4899 25.3996 24.2067 25.6346 24.0073 25.9363C23.808 26.238 23.7014 26.5928 23.7014 26.9557C23.7014 27.4426 23.8924 27.9095 24.2326 28.2541C24.5728 28.5987 25.0346 28.7927 25.5161 28.7935V28.7905ZM27.2364 29.272H26.6109C26.5354 29.2805 26.4639 29.3117 26.4059 29.3614L25.9297 29.7829C25.817 29.8786 25.6744 29.9311 25.5272 29.9311C25.38 29.9311 25.2378 29.8786 25.1251 29.7829L24.6485 29.3614C24.5905 29.3117 24.5194 29.2806 24.4438 29.272H23.7961C23.5944 29.2719 23.3945 29.3119 23.2081 29.3899C23.0217 29.468 22.8524 29.5824 22.7097 29.7267C22.5671 29.8709 22.4539 30.0421 22.3767 30.2306C22.2996 30.4191 22.2602 30.6213 22.2603 30.8252C22.2603 30.8831 22.2632 30.9409 22.2694 30.9984L22.7147 34.3942C22.7425 34.6372 22.8365 34.8676 22.9862 35.0597C23.1359 35.2518 23.3353 35.3981 23.5624 35.4823L24.3147 42.4654C24.3313 42.6127 24.4011 42.7486 24.5106 42.8473C24.6201 42.9459 24.7615 43.0004 24.9082 43H26.0985C26.2447 42.9999 26.3859 42.9453 26.4948 42.8467C26.6038 42.7481 26.6731 42.6123 26.6892 42.4654L27.4392 35.4966C27.6737 35.4169 27.8808 35.2713 28.0365 35.0769C28.1921 34.8825 28.2899 34.6473 28.3183 34.3988L28.7655 30.9984C28.7877 30.7957 28.7705 30.5904 28.7143 30.3945C28.6581 30.1986 28.5643 30.0158 28.4382 29.8566C28.3121 29.6974 28.156 29.5649 27.9792 29.4666C27.8024 29.3683 27.6084 29.3063 27.4079 29.284C27.3521 29.2776 27.2957 29.2742 27.2395 29.2743L27.2364 29.272Z" fill="#B52A4D"/>
</svg>
