<svg width="24" height="20" viewBox="0 0 24 20" fill="none" xmlns="http://www.w3.org/2000/svg">
<path d="M23.3571 2.97872H0.642857C0.287839 2.97872 0 2.69293 0 2.34043V0.638298C0 0.285798 0.287839 0 0.642857 0H23.3571C23.7122 0 24 0.285798 24 0.638298V2.34043C24 2.69293 23.7122 2.97872 23.3571 2.97872ZM23.3571 11.4894H0.642857C0.287839 11.4894 0 11.2036 0 10.8511V9.14894C0 8.79644 0.287839 8.51064 0.642857 8.51064H23.3571C23.7122 8.51064 24 8.79644 24 9.14894V10.8511C24 11.2036 23.7122 11.4894 23.3571 11.4894ZM23.3571 20H0.642857C0.287839 20 0 19.7142 0 19.3617V17.6596C0 17.3071 0.287839 17.0213 0.642857 17.0213H23.3571C23.7122 17.0213 24 17.3071 24 17.6596V19.3617C24 19.7142 23.7122 20 23.3571 20Z" fill="white"/>
</svg>
