<svg width="102" height="104" viewBox="0 0 102 104" fill="none" xmlns="http://www.w3.org/2000/svg">
<g filter="url(#filter0_d)">
<rect x="24" y="20.001" width="54" height="56" rx="27" fill="#B52A4E"/>
<g clip-path="url(#clip0)">
<path d="M51.625 41.8135C51.625 40.2683 51.1668 38.7578 50.3084 37.4731C49.4499 36.1883 48.2298 35.187 46.8022 34.5957C45.3747 34.0044 43.8038 33.8496 42.2884 34.1511C40.7729 34.4525 39.3808 35.1966 38.2882 36.2892C37.1956 37.3818 36.4516 38.7739 36.1501 40.2893C35.8487 41.8048 36.0034 43.3756 36.5947 44.8032C37.186 46.2307 38.1873 47.4509 39.4721 48.3093C40.7569 49.1678 42.2673 49.626 43.8125 49.626C45.884 49.6243 47.8702 48.8007 49.3349 47.3359C50.7997 45.8712 51.6233 43.885 51.625 41.8135ZM37.25 41.8135C37.25 40.5155 37.6349 39.2467 38.356 38.1675C39.0771 37.0884 40.102 36.2472 41.3011 35.7505C42.5003 35.2538 43.8198 35.1239 45.0928 35.3771C46.3658 35.6303 47.5351 36.2553 48.4529 37.1731C49.3707 38.0909 49.9957 39.2602 50.2489 40.5332C50.5021 41.8062 50.3722 43.1257 49.8755 44.3248C49.3788 45.524 48.5376 46.5489 47.4584 47.27C46.3792 47.9911 45.1104 48.376 43.8125 48.376C42.0725 48.3743 40.4043 47.6824 39.1739 46.452C37.9436 45.2217 37.2517 43.5535 37.25 41.8135ZM58.1875 48.376C56.6423 48.376 55.1319 48.8342 53.8471 49.6926C52.5623 50.5511 51.561 51.7712 50.9697 53.1988C50.3784 54.6263 50.2237 56.1971 50.5251 57.7126C50.8266 59.2281 51.5706 60.6201 52.6632 61.7127C53.7558 62.8053 55.1479 63.5494 56.6634 63.8509C58.1788 64.1523 59.7497 63.9976 61.1772 63.4063C62.6048 62.815 63.8249 61.8136 64.6834 60.5289C65.5418 59.2441 66 57.7336 66 56.1885C65.9983 54.117 65.1747 52.1308 63.7099 50.666C62.2452 49.2013 60.259 48.3776 58.1875 48.376ZM58.1875 62.751C56.8896 62.751 55.6208 62.3661 54.5416 61.645C53.4624 60.9239 52.6212 59.899 52.1245 58.6998C51.6278 57.5007 51.4979 56.1812 51.7511 54.9082C52.0043 53.6352 52.6293 52.4659 53.5471 51.5481C54.4649 50.6303 55.6342 50.0053 56.9072 49.7521C58.1802 49.4989 59.4997 49.6288 60.6989 50.1255C61.898 50.6222 62.9229 51.4634 63.644 52.5425C64.3651 53.6217 64.75 54.8905 64.75 56.1885C64.7483 57.9284 64.0564 59.5967 62.8261 60.827C61.5957 62.0574 59.9275 62.7493 58.1875 62.751ZM61.625 53.376C61.625 53.5417 61.5591 53.7007 61.4419 53.8179C61.3247 53.9351 61.1658 54.001 61 54.001H59.3C59.6522 54.3769 59.8905 54.845 59.9875 55.351C60.0059 55.5255 60.0059 55.7015 59.9875 55.876H60.375C60.5408 55.876 60.6997 55.9418 60.8169 56.059C60.9341 56.1762 61 56.3352 61 56.501C61 56.6667 60.9341 56.8257 60.8169 56.9429C60.6997 57.0601 60.5408 57.126 60.375 57.126H59.6875C59.4083 57.6707 59.0456 58.1684 58.6125 58.601C59.2755 58.8553 59.8477 59.3014 60.2562 59.8822C60.3083 59.9484 60.3465 60.0245 60.3684 60.1058C60.3903 60.1871 60.3956 60.272 60.3839 60.3555C60.3722 60.4389 60.3438 60.5191 60.3003 60.5912C60.2568 60.6633 60.1992 60.7259 60.1309 60.7753C60.0626 60.8246 59.9851 60.8596 59.9029 60.8782C59.8208 60.8968 59.7357 60.8986 59.6528 60.8834C59.57 60.8683 59.491 60.8366 59.4207 60.7902C59.3504 60.7438 59.2902 60.6837 59.2437 60.6135C59.0307 60.2999 58.7421 60.045 58.4046 59.8724C58.067 59.6998 57.6914 59.6151 57.3125 59.626C57.1784 59.6407 57.0431 59.6117 56.9268 59.5431C56.8106 59.4746 56.7196 59.3703 56.6676 59.2458C56.6155 59.1213 56.6052 58.9833 56.6381 58.8524C56.6709 58.7216 56.7453 58.6048 56.85 58.5197C57.367 58.1149 57.8311 57.6466 58.2312 57.126H57.25C57.0842 57.126 56.9253 57.0601 56.8081 56.9429C56.6908 56.8257 56.625 56.6667 56.625 56.501C56.625 56.3352 56.6908 56.1762 56.8081 56.059C56.9253 55.9418 57.0842 55.876 57.25 55.876H58.775C58.787 55.7763 58.787 55.6756 58.775 55.576C58.6187 54.751 57.6062 54.1885 57.1312 54.001H55.375C55.2092 54.001 55.0503 53.9351 54.9331 53.8179C54.8158 53.7007 54.75 53.5417 54.75 53.376C54.75 53.2102 54.8158 53.0512 54.9331 52.934C55.0503 52.8168 55.2092 52.751 55.375 52.751H61C61.1658 52.751 61.3247 52.8168 61.4419 52.934C61.5591 53.0512 61.625 53.2102 61.625 53.376ZM52.25 39.001C52.25 38.8352 52.3158 38.6762 52.4331 38.559C52.5503 38.4418 52.7092 38.376 52.875 38.376H59.75C59.9158 38.376 60.0747 38.4418 60.1919 38.559C60.3091 38.6762 60.375 38.8352 60.375 39.001V44.9947L61.8062 43.5635C61.9258 43.4611 62.0796 43.4076 62.2369 43.4137C62.3942 43.4197 62.5434 43.4849 62.6547 43.5963C62.766 43.7076 62.8312 43.8568 62.8373 44.0141C62.8434 44.1714 62.7899 44.3252 62.6875 44.4447L60.1875 46.9447C60.0704 47.0611 59.912 47.1265 59.7469 47.1265C59.5818 47.1265 59.4233 47.0611 59.3062 46.9447L56.8062 44.4447C56.7039 44.3252 56.6504 44.1714 56.6564 44.0141C56.6625 43.8568 56.7277 43.7076 56.839 43.5963C56.9503 43.4849 57.0995 43.4197 57.2568 43.4137C57.4141 43.4076 57.5679 43.4611 57.6875 43.5635L59.125 44.9947V39.626H52.875C52.7092 39.626 52.5503 39.5601 52.4331 39.4429C52.3158 39.3257 52.25 39.1667 52.25 39.001ZM49.75 59.001C49.75 59.1667 49.6841 59.3257 49.5669 59.4429C49.4497 59.5601 49.2908 59.626 49.125 59.626H42.25C42.0842 59.626 41.9253 59.5601 41.8081 59.4429C41.6908 59.3257 41.625 59.1667 41.625 59.001V53.0072L40.1937 54.4447C40.0742 54.5471 39.9204 54.6006 39.7631 54.5945C39.6058 54.5885 39.4566 54.5233 39.3453 54.412C39.234 54.3006 39.1688 54.1514 39.1627 53.9941C39.1566 53.8368 39.2101 53.683 39.3125 53.5635L41.8125 51.0635C41.9296 50.9471 42.088 50.8817 42.2531 50.8817C42.4182 50.8817 42.5766 50.9471 42.6937 51.0635L45.1937 53.5635C45.2592 53.6195 45.3123 53.6885 45.3498 53.766C45.3873 53.8435 45.4084 53.928 45.4117 54.0141C45.4151 54.1001 45.4006 54.186 45.3691 54.2662C45.3377 54.3464 45.2901 54.4192 45.2292 54.4801C45.1682 54.541 45.0954 54.5887 45.0152 54.6201C44.935 54.6515 44.8492 54.666 44.7631 54.6627C44.677 54.6594 44.5926 54.6383 44.515 54.6008C44.4375 54.5633 44.3685 54.5102 44.3125 54.4447L42.875 53.0072V58.376H49.125C49.2908 58.376 49.4497 58.4418 49.5669 58.559C49.6841 58.6762 49.75 58.8352 49.75 59.001ZM44.75 46.501V45.501C45.1423 45.4432 45.5158 45.2951 45.8412 45.0684C46.1665 44.8418 46.4348 44.5427 46.625 44.1947C46.73 43.9564 46.7811 43.6978 46.7747 43.4374C46.7682 43.177 46.7043 42.9213 46.5875 42.6885C46.1864 41.969 45.5311 41.4252 44.75 41.1635V38.8385C44.9609 38.8567 45.1699 38.8922 45.375 38.9447C45.4586 38.9824 45.5494 39.0012 45.641 38.9998C45.7327 38.9984 45.8229 38.9769 45.9053 38.9368C45.9877 38.8967 46.0603 38.8389 46.1179 38.7676C46.1755 38.6963 46.2167 38.6132 46.2386 38.5242C46.2605 38.4352 46.2626 38.3425 46.2446 38.2526C46.2267 38.1627 46.1892 38.0779 46.1348 38.0041C46.0805 37.9303 46.0105 37.8694 45.93 37.8256C45.8494 37.7819 45.7602 37.7564 45.6687 37.751C45.3681 37.6689 45.0606 37.6145 44.75 37.5885V37.126C44.75 36.9602 44.6841 36.8012 44.5669 36.684C44.4497 36.5668 44.2908 36.501 44.125 36.501C43.9592 36.501 43.8003 36.5668 43.6831 36.684C43.5658 36.8012 43.5 36.9602 43.5 37.126V37.651C43.0831 37.7002 42.6841 37.8484 42.3361 38.0832C41.9882 38.3181 41.7015 38.6327 41.5 39.001C41.395 39.2393 41.3439 39.4979 41.3503 39.7583C41.3568 40.0187 41.4207 40.2744 41.5375 40.5072C41.9671 41.2604 42.6697 41.8198 43.5 42.0697V44.3447C43.2467 44.3299 42.9955 44.2901 42.75 44.226C42.5922 44.1892 42.4262 44.2152 42.2872 44.2984C42.1481 44.3816 42.0469 44.5156 42.0047 44.6721C41.9625 44.8286 41.9828 44.9953 42.0612 45.1371C42.1396 45.2789 42.2701 45.3847 42.425 45.4322C42.7745 45.5241 43.1328 45.5785 43.4937 45.5947V46.501C43.4937 46.6676 43.5599 46.8273 43.6777 46.9451C43.7955 47.0629 43.9553 47.1291 44.1219 47.1291C44.2885 47.1291 44.4482 47.0629 44.566 46.9451C44.6838 46.8273 44.75 46.6676 44.75 46.501ZM45.4375 43.226C45.4723 43.297 45.4903 43.375 45.4903 43.4541C45.4903 43.5332 45.4723 43.6112 45.4375 43.6822C45.278 43.9439 45.0221 44.1324 44.725 44.2072V42.551C45.0231 42.7019 45.2707 42.9365 45.4375 43.226ZM42.6625 39.951C42.6277 39.88 42.6096 39.8019 42.6096 39.7229C42.6096 39.6438 42.6277 39.5657 42.6625 39.4947C42.7564 39.3483 42.8791 39.2223 43.023 39.1246C43.1669 39.0268 43.3292 38.9593 43.5 38.926V40.7072C43.1498 40.5471 42.8574 40.2831 42.6625 39.951Z" fill="white"/>
</g>
</g>
<defs>
<filter id="filter0_d" x="0" y="0.000976562" width="102" height="104" filterUnits="userSpaceOnUse" color-interpolation-filters="sRGB">
<feFlood flood-opacity="0" result="BackgroundImageFix"/>
<feColorMatrix in="SourceAlpha" type="matrix" values="0 0 0 0 0 0 0 0 0 0 0 0 0 0 0 0 0 0 127 0"/>
<feOffset dy="4"/>
<feGaussianBlur stdDeviation="12"/>
<feColorMatrix type="matrix" values="0 0 0 0 0 0 0 0 0 0 0 0 0 0 0 0 0 0 0.1 0"/>
<feBlend mode="normal" in2="BackgroundImageFix" result="effect1_dropShadow"/>
<feBlend mode="normal" in="SourceGraphic" in2="effect1_dropShadow" result="shape"/>
</filter>
<clipPath id="clip0">
<rect width="30" height="30" fill="white" transform="translate(36 34.001)"/>
</clipPath>
</defs>
</svg>
