<svg width="580" height="48" viewBox="0 0 580 48" fill="none" xmlns="http://www.w3.org/2000/svg">
<rect x="370" width="138" height="48" rx="24" fill="white"/>
<path d="M405.852 29.612C407.378 29.612 408.694 29.08 409.59 28.072L408.68 27.19C407.924 27.988 407 28.366 405.922 28.366C403.71 28.366 402.072 26.77 402.072 24.6C402.072 22.43 403.71 20.834 405.922 20.834C407 20.834 407.924 21.198 408.68 21.996L409.59 21.114C408.694 20.106 407.378 19.588 405.866 19.588C402.884 19.588 400.672 21.702 400.672 24.6C400.672 27.498 402.884 29.612 405.852 29.612ZM414.395 29.584C416.621 29.584 418.245 28.002 418.245 25.79C418.245 23.578 416.621 22.01 414.395 22.01C412.169 22.01 410.531 23.578 410.531 25.79C410.531 28.002 412.169 29.584 414.395 29.584ZM414.395 28.408C412.967 28.408 411.889 27.372 411.889 25.79C411.889 24.208 412.967 23.186 414.395 23.186C415.823 23.186 416.887 24.208 416.887 25.79C416.887 27.372 415.823 28.408 414.395 28.408ZM424.205 22.01C423.029 22.01 422.077 22.444 421.531 23.2V22.08H420.243V29.5H421.587V25.678C421.587 24.068 422.511 23.214 423.939 23.214C425.213 23.214 425.941 23.928 425.941 25.384V29.5H427.285V25.23C427.285 23.046 426.011 22.01 424.205 22.01ZM433.665 28.1C433.385 28.324 433.007 28.45 432.615 28.45C431.873 28.45 431.453 28.002 431.453 27.204V23.186H433.581V22.08H431.453V20.456H430.109V22.08H428.849V23.186H430.109V27.26C430.109 28.758 430.963 29.584 432.461 29.584C433.063 29.584 433.679 29.416 434.085 29.066L433.665 28.1ZM438.552 22.01C437.362 22.01 436.256 22.346 435.486 22.962L436.046 23.97C436.62 23.48 437.516 23.172 438.398 23.172C439.728 23.172 440.386 23.83 440.386 24.964V25.23H438.258C436.046 25.23 435.276 26.21 435.276 27.4C435.276 28.688 436.34 29.584 438.02 29.584C439.182 29.584 440.008 29.192 440.456 28.52V29.5H441.73V25.02C441.73 22.99 440.582 22.01 438.552 22.01ZM438.244 28.548C437.222 28.548 436.606 28.086 436.606 27.344C436.606 26.714 436.984 26.196 438.314 26.196H440.386V27.232C440.05 28.086 439.252 28.548 438.244 28.548ZM447.632 29.584C448.962 29.584 450.068 29.024 450.656 27.988L449.634 27.344C449.158 28.072 448.43 28.408 447.618 28.408C446.162 28.408 445.07 27.4 445.07 25.79C445.07 24.208 446.162 23.186 447.618 23.186C448.43 23.186 449.158 23.522 449.634 24.25L450.656 23.592C450.068 22.556 448.962 22.01 447.632 22.01C445.35 22.01 443.712 23.578 443.712 25.79C443.712 28.002 445.35 29.584 447.632 29.584ZM456.384 28.1C456.104 28.324 455.726 28.45 455.334 28.45C454.592 28.45 454.172 28.002 454.172 27.204V23.186H456.3V22.08H454.172V20.456H452.828V22.08H451.568V23.186H452.828V27.26C452.828 28.758 453.682 29.584 455.18 29.584C455.782 29.584 456.398 29.416 456.804 29.066L456.384 28.1ZM468.04 22.08V25.916C468.04 27.512 467.144 28.38 465.744 28.38C464.47 28.38 463.742 27.652 463.742 26.196V22.08H462.398V26.35C462.398 28.534 463.672 29.584 465.59 29.584C466.64 29.584 467.564 29.15 468.11 28.38V29.5H469.384V22.08H468.04ZM474.211 29.584C476.185 29.584 477.417 28.73 477.417 27.386C477.417 24.502 472.713 25.93 472.713 24.18C472.713 23.592 473.287 23.158 474.463 23.158C475.191 23.158 475.933 23.312 476.605 23.746L477.179 22.682C476.535 22.262 475.443 22.01 474.477 22.01C472.573 22.01 471.383 22.906 471.383 24.236C471.383 27.19 476.073 25.748 476.073 27.414C476.073 28.044 475.555 28.422 474.309 28.422C473.343 28.422 472.335 28.1 471.705 27.652L471.145 28.716C471.761 29.206 472.979 29.584 474.211 29.584Z" fill="#B52A4D"/>
<path opacity="0.6" d="M28.326 29.612C30.916 29.612 32.12 28.324 32.12 26.826C32.12 23.228 26.184 24.726 26.184 22.332C26.184 21.478 26.898 20.778 28.564 20.778C29.432 20.778 30.398 21.03 31.252 21.576L31.714 20.456C30.902 19.896 29.712 19.588 28.564 19.588C25.988 19.588 24.812 20.876 24.812 22.388C24.812 26.028 30.748 24.516 30.748 26.91C30.748 27.764 30.02 28.422 28.326 28.422C27.066 28.422 25.82 27.946 25.092 27.288L24.574 28.38C25.358 29.108 26.828 29.612 28.326 29.612ZM40.8153 25.832C40.8153 23.55 39.2893 22.01 37.1473 22.01C35.0053 22.01 33.4233 23.592 33.4233 25.79C33.4233 28.002 35.0193 29.584 37.4133 29.584C38.6453 29.584 39.6673 29.164 40.3393 28.38L39.5973 27.512C39.0513 28.114 38.3233 28.408 37.4553 28.408C35.9853 28.408 34.9353 27.54 34.7673 26.238H40.7873C40.8013 26.112 40.8153 25.944 40.8153 25.832ZM37.1473 23.144C38.4493 23.144 39.3873 24.026 39.5273 25.272H34.7673C34.9073 24.012 35.8593 23.144 37.1473 23.144ZM45.3185 22.01C44.1285 22.01 43.0225 22.346 42.2525 22.962L42.8125 23.97C43.3865 23.48 44.2825 23.172 45.1645 23.172C46.4945 23.172 47.1525 23.83 47.1525 24.964V25.23H45.0245C42.8125 25.23 42.0425 26.21 42.0425 27.4C42.0425 28.688 43.1065 29.584 44.7865 29.584C45.9485 29.584 46.7745 29.192 47.2225 28.52V29.5H48.4965V25.02C48.4965 22.99 47.3485 22.01 45.3185 22.01ZM45.0105 28.548C43.9885 28.548 43.3725 28.086 43.3725 27.344C43.3725 26.714 43.7505 26.196 45.0805 26.196H47.1525V27.232C46.8165 28.086 46.0185 28.548 45.0105 28.548ZM52.4117 23.326V22.08H51.1237V29.5H52.4677V25.804C52.4677 24.18 53.3637 23.298 54.8057 23.298C54.9037 23.298 55.0017 23.298 55.1137 23.312V22.01C53.8117 22.01 52.8877 22.458 52.4117 23.326ZM60.0758 29.584C61.4058 29.584 62.5118 29.024 63.0998 27.988L62.0778 27.344C61.6018 28.072 60.8738 28.408 60.0618 28.408C58.6058 28.408 57.5138 27.4 57.5138 25.79C57.5138 24.208 58.6058 23.186 60.0618 23.186C60.8738 23.186 61.6018 23.522 62.0778 24.25L63.0998 23.592C62.5118 22.556 61.4058 22.01 60.0758 22.01C57.7938 22.01 56.1558 23.578 56.1558 25.79C56.1558 28.002 57.7938 29.584 60.0758 29.584ZM68.8462 22.01C67.7122 22.01 66.7882 22.416 66.2282 23.13V19.112H64.8842V29.5H66.2282V25.678C66.2282 24.068 67.1522 23.214 68.5802 23.214C69.8542 23.214 70.5822 23.928 70.5822 25.384V29.5H71.9262V25.23C71.9262 23.046 70.6522 22.01 68.8462 22.01ZM82.4152 22.01C81.2812 22.01 80.3572 22.416 79.7972 23.13V19.112H78.4532V29.5H79.7972V25.678C79.7972 24.068 80.7212 23.214 82.1492 23.214C83.4232 23.214 84.1512 23.928 84.1512 25.384V29.5H85.4952V25.23C85.4952 23.046 84.2212 22.01 82.4152 22.01ZM94.8695 25.832C94.8695 23.55 93.3435 22.01 91.2015 22.01C89.0595 22.01 87.4775 23.592 87.4775 25.79C87.4775 28.002 89.0735 29.584 91.4675 29.584C92.6995 29.584 93.7215 29.164 94.3935 28.38L93.6515 27.512C93.1055 28.114 92.3775 28.408 91.5095 28.408C90.0395 28.408 88.9895 27.54 88.8215 26.238H94.8415C94.8555 26.112 94.8695 25.944 94.8695 25.832ZM91.2015 23.144C92.5035 23.144 93.4415 24.026 93.5815 25.272H88.8215C88.9615 24.012 89.9135 23.144 91.2015 23.144ZM98.1638 23.326V22.08H96.8758V29.5H98.2198V25.804C98.2198 24.18 99.1158 23.298 100.558 23.298C100.656 23.298 100.754 23.298 100.866 23.312V22.01C99.5638 22.01 98.6398 22.458 98.1638 23.326ZM109.3 25.832C109.3 23.55 107.774 22.01 105.632 22.01C103.49 22.01 101.908 23.592 101.908 25.79C101.908 28.002 103.504 29.584 105.898 29.584C107.13 29.584 108.152 29.164 108.824 28.38L108.082 27.512C107.536 28.114 106.808 28.408 105.94 28.408C104.47 28.408 103.42 27.54 103.252 26.238H109.272C109.286 26.112 109.3 25.944 109.3 25.832ZM105.632 23.144C106.934 23.144 107.872 24.026 108.012 25.272H103.252C103.392 24.012 104.344 23.144 105.632 23.144ZM111.628 29.584C112.132 29.584 112.552 29.178 112.552 28.618C112.552 28.058 112.132 27.666 111.628 27.666C111.11 27.666 110.676 28.058 110.676 28.618C110.676 29.178 111.11 29.584 111.628 29.584ZM114.94 29.584C115.444 29.584 115.864 29.178 115.864 28.618C115.864 28.058 115.444 27.666 114.94 27.666C114.422 27.666 113.988 28.058 113.988 28.618C113.988 29.178 114.422 29.584 114.94 29.584ZM118.252 29.584C118.756 29.584 119.176 29.178 119.176 28.618C119.176 28.058 118.756 27.666 118.252 27.666C117.734 27.666 117.3 28.058 117.3 28.618C117.3 29.178 117.734 29.584 118.252 29.584Z" fill="white"/>
<path d="M329.862 32.3155L325.12 27.5736C325.031 27.4837 324.913 27.4368 324.788 27.4368H324.273C325.503 26.0111 326.249 24.1558 326.249 22.1246C326.249 17.6365 322.613 14 318.125 14C313.637 14 310 17.6365 310 22.1246C310 26.6127 313.637 30.2492 318.125 30.2492C320.156 30.2492 322.011 29.5031 323.437 28.2727V28.7883C323.437 28.9133 323.488 29.0305 323.574 29.1204L328.316 33.8623C328.499 34.0459 328.796 34.0459 328.98 33.8623L329.862 32.9795C330.046 32.796 330.046 32.4991 329.862 32.3155ZM318.125 28.3743C314.672 28.3743 311.875 25.5776 311.875 22.1246C311.875 18.6716 314.672 15.8749 318.125 15.8749C321.578 15.8749 324.374 18.6716 324.374 22.1246C324.374 25.5776 321.578 28.3743 318.125 28.3743Z" fill="white"/>
<rect x="0.5" y="0.5" width="353" height="47" rx="23.5" stroke="white"/>
<circle cx="556" cy="24" r="23.5" stroke="white"/>
<path d="M567.357 16.9787H544.643C544.288 16.9787 544 16.6929 544 16.3404V14.6383C544 14.2858 544.288 14 544.643 14H567.357C567.712 14 568 14.2858 568 14.6383V16.3404C568 16.6929 567.712 16.9787 567.357 16.9787ZM567.357 25.4894H544.643C544.288 25.4894 544 25.2036 544 24.8511V23.1489C544 22.7964 544.288 22.5106 544.643 22.5106H567.357C567.712 22.5106 568 22.7964 568 23.1489V24.8511C568 25.2036 567.712 25.4894 567.357 25.4894ZM567.357 34H544.643C544.288 34 544 33.7142 544 33.3617V31.6596C544 31.3071 544.288 31.0213 544.643 31.0213H567.357C567.712 31.0213 568 31.3071 568 31.6596V33.3617C568 33.7142 567.712 34 567.357 34Z" fill="white"/>
</svg>
