<svg width="384" height="184" viewBox="0 0 384 184" fill="none" xmlns="http://www.w3.org/2000/svg">
<g filter="url(#filter0_d)">
<rect x="12" y="12" width="360" height="160" rx="10" fill="white"/>
</g>
<path d="M178.888 40.4V53H176.962L170.014 44.468V53H167.692V40.4H169.618L176.566 48.932V40.4H178.888ZM191.264 48.248C191.264 48.404 191.252 48.626 191.228 48.914H183.686C183.818 49.622 184.16 50.186 184.712 50.606C185.276 51.014 185.972 51.218 186.8 51.218C187.856 51.218 188.726 50.87 189.41 50.174L190.616 51.56C190.184 52.076 189.638 52.466 188.978 52.73C188.318 52.994 187.574 53.126 186.746 53.126C185.69 53.126 184.76 52.916 183.956 52.496C183.152 52.076 182.528 51.494 182.084 50.75C181.652 49.994 181.436 49.142 181.436 48.194C181.436 47.258 181.646 46.418 182.066 45.674C182.498 44.918 183.092 44.33 183.848 43.91C184.604 43.49 185.456 43.28 186.404 43.28C187.34 43.28 188.174 43.49 188.906 43.91C189.65 44.318 190.226 44.9 190.634 45.656C191.054 46.4 191.264 47.264 191.264 48.248ZM186.404 45.08C185.684 45.08 185.072 45.296 184.568 45.728C184.076 46.148 183.776 46.712 183.668 47.42H189.122C189.026 46.724 188.732 46.16 188.24 45.728C187.748 45.296 187.136 45.08 186.404 45.08ZM202.912 43.388V53H200.77V51.776C200.41 52.208 199.96 52.544 199.42 52.784C198.88 53.012 198.298 53.126 197.674 53.126C196.39 53.126 195.376 52.772 194.632 52.064C193.9 51.344 193.534 50.282 193.534 48.878V43.388H195.784V48.572C195.784 49.436 195.976 50.084 196.36 50.516C196.756 50.936 197.314 51.146 198.034 51.146C198.838 51.146 199.474 50.9 199.942 50.408C200.422 49.904 200.662 49.184 200.662 48.248V43.388H202.912ZM208.179 44.792C208.827 43.784 209.967 43.28 211.599 43.28V45.422C211.407 45.386 211.233 45.368 211.077 45.368C210.201 45.368 209.517 45.626 209.025 46.142C208.533 46.646 208.287 47.378 208.287 48.338V53H206.037V43.388H208.179V44.792ZM217.92 53.126C216.948 53.126 216.072 52.916 215.292 52.496C214.512 52.076 213.9 51.494 213.456 50.75C213.024 49.994 212.808 49.142 212.808 48.194C212.808 47.246 213.024 46.4 213.456 45.656C213.9 44.912 214.512 44.33 215.292 43.91C216.072 43.49 216.948 43.28 217.92 43.28C218.904 43.28 219.786 43.49 220.566 43.91C221.346 44.33 221.952 44.912 222.384 45.656C222.828 46.4 223.05 47.246 223.05 48.194C223.05 49.142 222.828 49.994 222.384 50.75C221.952 51.494 221.346 52.076 220.566 52.496C219.786 52.916 218.904 53.126 217.92 53.126ZM217.92 51.2C218.748 51.2 219.432 50.924 219.972 50.372C220.512 49.82 220.782 49.094 220.782 48.194C220.782 47.294 220.512 46.568 219.972 46.016C219.432 45.464 218.748 45.188 217.92 45.188C217.092 45.188 216.408 45.464 215.868 46.016C215.34 46.568 215.076 47.294 215.076 48.194C215.076 49.094 215.34 49.82 215.868 50.372C216.408 50.924 217.092 51.2 217.92 51.2ZM225.382 39.644H227.632V53H225.382V39.644ZM235.085 53.126C234.113 53.126 233.237 52.916 232.457 52.496C231.677 52.076 231.065 51.494 230.621 50.75C230.189 49.994 229.973 49.142 229.973 48.194C229.973 47.246 230.189 46.4 230.621 45.656C231.065 44.912 231.677 44.33 232.457 43.91C233.237 43.49 234.113 43.28 235.085 43.28C236.069 43.28 236.951 43.49 237.731 43.91C238.511 44.33 239.117 44.912 239.549 45.656C239.993 46.4 240.215 47.246 240.215 48.194C240.215 49.142 239.993 49.994 239.549 50.75C239.117 51.494 238.511 52.076 237.731 52.496C236.951 52.916 236.069 53.126 235.085 53.126ZM235.085 51.2C235.913 51.2 236.597 50.924 237.137 50.372C237.677 49.82 237.947 49.094 237.947 48.194C237.947 47.294 237.677 46.568 237.137 46.016C236.597 45.464 235.913 45.188 235.085 45.188C234.257 45.188 233.573 45.464 233.033 46.016C232.505 46.568 232.241 47.294 232.241 48.194C232.241 49.094 232.505 49.82 233.033 50.372C233.573 50.924 234.257 51.2 235.085 51.2ZM252.087 43.388V51.542C252.087 54.926 250.359 56.618 246.903 56.618C245.979 56.618 245.103 56.498 244.275 56.258C243.447 56.03 242.763 55.694 242.223 55.25L243.231 53.558C243.651 53.906 244.179 54.182 244.815 54.386C245.463 54.602 246.117 54.71 246.777 54.71C247.833 54.71 248.607 54.47 249.099 53.99C249.591 53.51 249.837 52.778 249.837 51.794V51.29C249.453 51.71 248.985 52.028 248.433 52.244C247.881 52.46 247.275 52.568 246.615 52.568C245.703 52.568 244.875 52.376 244.131 51.992C243.399 51.596 242.817 51.044 242.385 50.336C241.965 49.628 241.755 48.818 241.755 47.906C241.755 46.994 241.965 46.19 242.385 45.494C242.817 44.786 243.399 44.24 244.131 43.856C244.875 43.472 245.703 43.28 246.615 43.28C247.311 43.28 247.941 43.394 248.505 43.622C249.081 43.85 249.561 44.198 249.945 44.666V43.388H252.087ZM246.957 50.66C247.809 50.66 248.505 50.408 249.045 49.904C249.597 49.388 249.873 48.722 249.873 47.906C249.873 47.102 249.597 46.448 249.045 45.944C248.505 45.44 247.809 45.188 246.957 45.188C246.093 45.188 245.385 45.44 244.833 45.944C244.293 46.448 244.023 47.102 244.023 47.906C244.023 48.722 244.293 49.388 244.833 49.904C245.385 50.408 246.093 50.66 246.957 50.66ZM264.225 43.388L259.725 53.774C259.305 54.818 258.795 55.55 258.195 55.97C257.595 56.402 256.869 56.618 256.017 56.618C255.537 56.618 255.063 56.54 254.595 56.384C254.127 56.228 253.743 56.012 253.443 55.736L254.343 54.08C254.559 54.284 254.811 54.446 255.099 54.566C255.399 54.686 255.699 54.746 255.999 54.746C256.395 54.746 256.719 54.644 256.971 54.44C257.235 54.236 257.475 53.894 257.691 53.414L257.853 53.036L253.659 43.388H255.999L259.023 50.498L262.065 43.388H264.225ZM280.631 53.198L279.047 51.668C277.871 52.676 276.461 53.18 274.817 53.18C273.941 53.18 273.155 53.036 272.459 52.748C271.763 52.46 271.217 52.064 270.821 51.56C270.425 51.044 270.227 50.462 270.227 49.814C270.227 49.034 270.455 48.35 270.911 47.762C271.367 47.162 272.111 46.574 273.143 45.998C272.639 45.494 272.279 45.026 272.063 44.594C271.847 44.15 271.739 43.694 271.739 43.226C271.739 42.338 272.069 41.624 272.729 41.084C273.401 40.532 274.289 40.256 275.393 40.256C276.413 40.256 277.229 40.508 277.841 41.012C278.453 41.504 278.759 42.176 278.759 43.028C278.759 43.676 278.555 44.252 278.147 44.756C277.751 45.26 277.097 45.77 276.185 46.286L278.903 48.878C279.203 48.29 279.437 47.582 279.605 46.754L281.423 47.348C281.183 48.464 280.805 49.424 280.289 50.228L281.873 51.74L280.631 53.198ZM275.393 41.858C274.901 41.858 274.511 41.984 274.223 42.236C273.935 42.476 273.791 42.794 273.791 43.19C273.791 43.478 273.869 43.754 274.025 44.018C274.181 44.27 274.481 44.618 274.925 45.062C275.645 44.666 276.143 44.324 276.419 44.036C276.707 43.736 276.851 43.412 276.851 43.064C276.851 42.692 276.719 42.398 276.455 42.182C276.203 41.966 275.849 41.858 275.393 41.858ZM274.979 51.344C276.023 51.344 276.935 51.026 277.715 50.39L274.385 47.204C273.665 47.6 273.155 47.984 272.855 48.356C272.567 48.716 272.423 49.124 272.423 49.58C272.423 50.108 272.657 50.534 273.125 50.858C273.593 51.182 274.211 51.344 274.979 51.344ZM178.888 67.4V80H176.962L170.014 71.468V80H167.692V67.4H169.618L176.566 75.932V67.4H178.888ZM191.264 75.248C191.264 75.404 191.252 75.626 191.228 75.914H183.686C183.818 76.622 184.16 77.186 184.712 77.606C185.276 78.014 185.972 78.218 186.8 78.218C187.856 78.218 188.726 77.87 189.41 77.174L190.616 78.56C190.184 79.076 189.638 79.466 188.978 79.73C188.318 79.994 187.574 80.126 186.746 80.126C185.69 80.126 184.76 79.916 183.956 79.496C183.152 79.076 182.528 78.494 182.084 77.75C181.652 76.994 181.436 76.142 181.436 75.194C181.436 74.258 181.646 73.418 182.066 72.674C182.498 71.918 183.092 71.33 183.848 70.91C184.604 70.49 185.456 70.28 186.404 70.28C187.34 70.28 188.174 70.49 188.906 70.91C189.65 71.318 190.226 71.9 190.634 72.656C191.054 73.4 191.264 74.264 191.264 75.248ZM186.404 72.08C185.684 72.08 185.072 72.296 184.568 72.728C184.076 73.148 183.776 73.712 183.668 74.42H189.122C189.026 73.724 188.732 73.16 188.24 72.728C187.748 72.296 187.136 72.08 186.404 72.08ZM202.912 70.388V80H200.77V78.776C200.41 79.208 199.96 79.544 199.42 79.784C198.88 80.012 198.298 80.126 197.674 80.126C196.39 80.126 195.376 79.772 194.632 79.064C193.9 78.344 193.534 77.282 193.534 75.878V70.388H195.784V75.572C195.784 76.436 195.976 77.084 196.36 77.516C196.756 77.936 197.314 78.146 198.034 78.146C198.838 78.146 199.474 77.9 199.942 77.408C200.422 76.904 200.662 76.184 200.662 75.248V70.388H202.912ZM208.179 71.792C208.827 70.784 209.967 70.28 211.599 70.28V72.422C211.407 72.386 211.233 72.368 211.077 72.368C210.201 72.368 209.517 72.626 209.025 73.142C208.533 73.646 208.287 74.378 208.287 75.338V80H206.037V70.388H208.179V71.792ZM217.92 80.126C216.948 80.126 216.072 79.916 215.292 79.496C214.512 79.076 213.9 78.494 213.456 77.75C213.024 76.994 212.808 76.142 212.808 75.194C212.808 74.246 213.024 73.4 213.456 72.656C213.9 71.912 214.512 71.33 215.292 70.91C216.072 70.49 216.948 70.28 217.92 70.28C218.904 70.28 219.786 70.49 220.566 70.91C221.346 71.33 221.952 71.912 222.384 72.656C222.828 73.4 223.05 74.246 223.05 75.194C223.05 76.142 222.828 76.994 222.384 77.75C221.952 78.494 221.346 79.076 220.566 79.496C219.786 79.916 218.904 80.126 217.92 80.126ZM217.92 78.2C218.748 78.2 219.432 77.924 219.972 77.372C220.512 76.82 220.782 76.094 220.782 75.194C220.782 74.294 220.512 73.568 219.972 73.016C219.432 72.464 218.748 72.188 217.92 72.188C217.092 72.188 216.408 72.464 215.868 73.016C215.34 73.568 215.076 74.294 215.076 75.194C215.076 76.094 215.34 76.82 215.868 77.372C216.408 77.924 217.092 78.2 217.92 78.2ZM228.352 80.126C227.572 80.126 226.81 80.024 226.066 79.82C225.322 79.616 224.728 79.358 224.284 79.046L225.148 77.336C225.58 77.624 226.096 77.858 226.696 78.038C227.308 78.206 227.908 78.29 228.496 78.29C229.84 78.29 230.512 77.936 230.512 77.228C230.512 76.892 230.338 76.658 229.99 76.526C229.654 76.394 229.108 76.268 228.352 76.148C227.56 76.028 226.912 75.89 226.408 75.734C225.916 75.578 225.484 75.308 225.112 74.924C224.752 74.528 224.572 73.982 224.572 73.286C224.572 72.374 224.95 71.648 225.706 71.108C226.474 70.556 227.506 70.28 228.802 70.28C229.462 70.28 230.122 70.358 230.782 70.514C231.442 70.658 231.982 70.856 232.402 71.108L231.538 72.818C230.722 72.338 229.804 72.098 228.784 72.098C228.124 72.098 227.62 72.2 227.272 72.404C226.936 72.596 226.768 72.854 226.768 73.178C226.768 73.538 226.948 73.796 227.308 73.952C227.68 74.096 228.25 74.234 229.018 74.366C229.786 74.486 230.416 74.624 230.908 74.78C231.4 74.936 231.82 75.2 232.168 75.572C232.528 75.944 232.708 76.472 232.708 77.156C232.708 78.056 232.318 78.776 231.538 79.316C230.758 79.856 229.696 80.126 228.352 80.126ZM244.132 70.388V80H241.99V78.776C241.63 79.208 241.18 79.544 240.64 79.784C240.1 80.012 239.518 80.126 238.894 80.126C237.61 80.126 236.596 79.772 235.852 79.064C235.12 78.344 234.754 77.282 234.754 75.878V70.388H237.004V75.572C237.004 76.436 237.196 77.084 237.58 77.516C237.976 77.936 238.534 78.146 239.254 78.146C240.058 78.146 240.694 77.9 241.162 77.408C241.642 76.904 241.882 76.184 241.882 75.248V70.388H244.132ZM249.399 71.792C250.047 70.784 251.187 70.28 252.819 70.28V72.422C252.627 72.386 252.453 72.368 252.297 72.368C251.421 72.368 250.737 72.626 250.245 73.142C249.753 73.646 249.507 74.378 249.507 75.338V80H247.257V70.388H249.399V71.792ZM264.36 70.388V78.542C264.36 81.926 262.632 83.618 259.176 83.618C258.252 83.618 257.376 83.498 256.548 83.258C255.72 83.03 255.036 82.694 254.496 82.25L255.504 80.558C255.924 80.906 256.452 81.182 257.088 81.386C257.736 81.602 258.39 81.71 259.05 81.71C260.106 81.71 260.88 81.47 261.372 80.99C261.864 80.51 262.11 79.778 262.11 78.794V78.29C261.726 78.71 261.258 79.028 260.706 79.244C260.154 79.46 259.548 79.568 258.888 79.568C257.976 79.568 257.148 79.376 256.404 78.992C255.672 78.596 255.09 78.044 254.658 77.336C254.238 76.628 254.028 75.818 254.028 74.906C254.028 73.994 254.238 73.19 254.658 72.494C255.09 71.786 255.672 71.24 256.404 70.856C257.148 70.472 257.976 70.28 258.888 70.28C259.584 70.28 260.214 70.394 260.778 70.622C261.354 70.85 261.834 71.198 262.218 71.666V70.388H264.36ZM259.23 77.66C260.082 77.66 260.778 77.408 261.318 76.904C261.87 76.388 262.146 75.722 262.146 74.906C262.146 74.102 261.87 73.448 261.318 72.944C260.778 72.44 260.082 72.188 259.23 72.188C258.366 72.188 257.658 72.44 257.106 72.944C256.566 73.448 256.296 74.102 256.296 74.906C256.296 75.722 256.566 76.388 257.106 76.904C257.658 77.408 258.366 77.66 259.23 77.66ZM276.534 75.248C276.534 75.404 276.522 75.626 276.498 75.914H268.956C269.088 76.622 269.43 77.186 269.982 77.606C270.546 78.014 271.242 78.218 272.07 78.218C273.126 78.218 273.996 77.87 274.68 77.174L275.886 78.56C275.454 79.076 274.908 79.466 274.248 79.73C273.588 79.994 272.844 80.126 272.016 80.126C270.96 80.126 270.03 79.916 269.226 79.496C268.422 79.076 267.798 78.494 267.354 77.75C266.922 76.994 266.706 76.142 266.706 75.194C266.706 74.258 266.916 73.418 267.336 72.674C267.768 71.918 268.362 71.33 269.118 70.91C269.874 70.49 270.726 70.28 271.674 70.28C272.61 70.28 273.444 70.49 274.176 70.91C274.92 71.318 275.496 71.9 275.904 72.656C276.324 73.4 276.534 74.264 276.534 75.248ZM271.674 72.08C270.954 72.08 270.342 72.296 269.838 72.728C269.346 73.148 269.046 73.712 268.938 74.42H274.392C274.296 73.724 274.002 73.16 273.51 72.728C273.018 72.296 272.406 72.08 271.674 72.08ZM281.018 71.792C281.666 70.784 282.806 70.28 284.438 70.28V72.422C284.246 72.386 284.072 72.368 283.916 72.368C283.04 72.368 282.356 72.626 281.864 73.142C281.372 73.646 281.126 74.378 281.126 75.338V80H278.876V70.388H281.018V71.792ZM295.878 70.388L291.378 80.774C290.958 81.818 290.448 82.55 289.848 82.97C289.248 83.402 288.522 83.618 287.67 83.618C287.19 83.618 286.716 83.54 286.248 83.384C285.78 83.228 285.396 83.012 285.096 82.736L285.996 81.08C286.212 81.284 286.464 81.446 286.752 81.566C287.052 81.686 287.352 81.746 287.652 81.746C288.048 81.746 288.372 81.644 288.624 81.44C288.888 81.236 289.128 80.894 289.344 80.414L289.506 80.036L285.312 70.388H287.652L290.676 77.498L293.718 70.388H295.878Z" fill="#1C2121"/>
<path d="M169.85 105.088C171.166 105.088 172.179 105.513 172.888 106.362C173.607 107.211 173.966 108.415 173.966 109.974C173.966 111.066 173.77 111.999 173.378 112.774C172.995 113.539 172.454 114.123 171.754 114.524C171.063 114.916 170.256 115.112 169.332 115.112C168.856 115.112 168.408 115.065 167.988 114.972C167.568 114.869 167.204 114.725 166.896 114.538L167.428 113.446C167.904 113.754 168.534 113.908 169.318 113.908C170.335 113.908 171.129 113.595 171.698 112.97C172.277 112.335 172.566 111.416 172.566 110.212V109.862C172.286 110.282 171.899 110.604 171.404 110.828C170.909 111.043 170.354 111.15 169.738 111.15C169.094 111.15 168.515 111.029 168.002 110.786C167.498 110.543 167.101 110.198 166.812 109.75C166.532 109.293 166.392 108.77 166.392 108.182C166.392 107.566 166.541 107.025 166.84 106.558C167.148 106.091 167.563 105.732 168.086 105.48C168.609 105.219 169.197 105.088 169.85 105.088ZM169.976 110.016C170.415 110.016 170.807 109.932 171.152 109.764C171.497 109.596 171.763 109.367 171.95 109.078C172.146 108.789 172.244 108.467 172.244 108.112C172.244 107.767 172.151 107.454 171.964 107.174C171.787 106.885 171.521 106.656 171.166 106.488C170.821 106.311 170.401 106.222 169.906 106.222C169.262 106.222 168.739 106.395 168.338 106.74C167.946 107.085 167.75 107.547 167.75 108.126C167.75 108.705 167.951 109.167 168.352 109.512C168.753 109.848 169.295 110.016 169.976 110.016ZM183.006 115.112C182.269 115.112 181.555 115 180.864 114.776C180.183 114.543 179.646 114.244 179.254 113.88L179.772 112.788C180.146 113.124 180.622 113.399 181.2 113.614C181.788 113.819 182.39 113.922 183.006 113.922C183.818 113.922 184.425 113.787 184.826 113.516C185.228 113.236 185.428 112.867 185.428 112.41C185.428 112.074 185.316 111.803 185.092 111.598C184.878 111.383 184.607 111.22 184.28 111.108C183.963 110.996 183.51 110.87 182.922 110.73C182.185 110.553 181.588 110.375 181.13 110.198C180.682 110.021 180.295 109.75 179.968 109.386C179.651 109.013 179.492 108.513 179.492 107.888C179.492 107.365 179.628 106.894 179.898 106.474C180.178 106.054 180.598 105.718 181.158 105.466C181.718 105.214 182.414 105.088 183.244 105.088C183.823 105.088 184.392 105.163 184.952 105.312C185.512 105.461 185.993 105.676 186.394 105.956L185.932 107.076C185.522 106.815 185.083 106.619 184.616 106.488C184.15 106.348 183.692 106.278 183.244 106.278C182.451 106.278 181.854 106.423 181.452 106.712C181.06 107.001 180.864 107.375 180.864 107.832C180.864 108.168 180.976 108.443 181.2 108.658C181.424 108.863 181.7 109.027 182.026 109.148C182.362 109.26 182.815 109.381 183.384 109.512C184.122 109.689 184.714 109.867 185.162 110.044C185.61 110.221 185.993 110.492 186.31 110.856C186.637 111.22 186.8 111.71 186.8 112.326C186.8 112.839 186.66 113.311 186.38 113.74C186.1 114.16 185.676 114.496 185.106 114.748C184.537 114.991 183.837 115.112 183.006 115.112ZM192.724 107.51C193.442 107.51 194.086 107.669 194.656 107.986C195.225 108.303 195.668 108.747 195.986 109.316C196.312 109.885 196.476 110.543 196.476 111.29C196.476 112.037 196.312 112.699 195.986 113.278C195.668 113.847 195.225 114.291 194.656 114.608C194.086 114.925 193.442 115.084 192.724 115.084C192.192 115.084 191.702 114.981 191.254 114.776C190.815 114.571 190.442 114.272 190.134 113.88V117.716H188.79V107.58H190.078V108.756C190.376 108.345 190.754 108.037 191.212 107.832C191.669 107.617 192.173 107.51 192.724 107.51ZM192.612 113.908C193.088 113.908 193.512 113.801 193.886 113.586C194.268 113.362 194.567 113.054 194.782 112.662C195.006 112.261 195.118 111.803 195.118 111.29C195.118 110.777 195.006 110.324 194.782 109.932C194.567 109.531 194.268 109.223 193.886 109.008C193.512 108.793 193.088 108.686 192.612 108.686C192.145 108.686 191.72 108.798 191.338 109.022C190.964 109.237 190.666 109.54 190.442 109.932C190.227 110.324 190.12 110.777 190.12 111.29C190.12 111.803 190.227 112.261 190.442 112.662C190.656 113.054 190.955 113.362 191.338 113.586C191.72 113.801 192.145 113.908 192.612 113.908ZM205.179 111.332C205.179 111.435 205.169 111.57 205.151 111.738H199.131C199.215 112.391 199.499 112.919 199.985 113.32C200.479 113.712 201.091 113.908 201.819 113.908C202.705 113.908 203.419 113.609 203.961 113.012L204.703 113.88C204.367 114.272 203.947 114.571 203.443 114.776C202.948 114.981 202.393 115.084 201.777 115.084C200.993 115.084 200.297 114.925 199.691 114.608C199.084 114.281 198.613 113.829 198.277 113.25C197.95 112.671 197.787 112.018 197.787 111.29C197.787 110.571 197.945 109.923 198.263 109.344C198.589 108.765 199.033 108.317 199.593 108C200.162 107.673 200.801 107.51 201.511 107.51C202.22 107.51 202.85 107.673 203.401 108C203.961 108.317 204.395 108.765 204.703 109.344C205.02 109.923 205.179 110.585 205.179 111.332ZM201.511 108.644C200.867 108.644 200.325 108.84 199.887 109.232C199.457 109.624 199.205 110.137 199.131 110.772H203.891C203.816 110.147 203.559 109.638 203.121 109.246C202.691 108.845 202.155 108.644 201.511 108.644ZM210.419 115.084C209.663 115.084 208.986 114.921 208.389 114.594C207.801 114.267 207.339 113.819 207.003 113.25C206.667 112.671 206.499 112.018 206.499 111.29C206.499 110.562 206.667 109.913 207.003 109.344C207.339 108.765 207.801 108.317 208.389 108C208.986 107.673 209.663 107.51 210.419 107.51C211.091 107.51 211.688 107.645 212.211 107.916C212.743 108.187 213.154 108.579 213.443 109.092L212.421 109.75C212.188 109.395 211.898 109.129 211.553 108.952C211.208 108.775 210.825 108.686 210.405 108.686C209.92 108.686 209.481 108.793 209.089 109.008C208.706 109.223 208.403 109.531 208.179 109.932C207.964 110.324 207.857 110.777 207.857 111.29C207.857 111.813 207.964 112.275 208.179 112.676C208.403 113.068 208.706 113.371 209.089 113.586C209.481 113.801 209.92 113.908 210.405 113.908C210.825 113.908 211.208 113.819 211.553 113.642C211.898 113.465 212.188 113.199 212.421 112.844L213.443 113.488C213.154 114.001 212.743 114.398 212.211 114.678C211.688 114.949 211.091 115.084 210.419 115.084ZM215.323 107.58H216.667V115H215.323V107.58ZM215.995 106.152C215.734 106.152 215.514 106.068 215.337 105.9C215.169 105.732 215.085 105.527 215.085 105.284C215.085 105.041 215.169 104.836 215.337 104.668C215.514 104.491 215.734 104.402 215.995 104.402C216.256 104.402 216.471 104.486 216.639 104.654C216.816 104.813 216.905 105.013 216.905 105.256C216.905 105.508 216.816 105.723 216.639 105.9C216.471 106.068 216.256 106.152 215.995 106.152ZM222.075 107.51C223.102 107.51 223.886 107.762 224.427 108.266C224.978 108.77 225.253 109.521 225.253 110.52V115H223.979V114.02C223.755 114.365 223.433 114.631 223.013 114.818C222.602 114.995 222.112 115.084 221.543 115.084C220.712 115.084 220.045 114.883 219.541 114.482C219.046 114.081 218.799 113.553 218.799 112.9C218.799 112.247 219.037 111.724 219.513 111.332C219.989 110.931 220.745 110.73 221.781 110.73H223.909V110.464C223.909 109.885 223.741 109.442 223.405 109.134C223.069 108.826 222.574 108.672 221.921 108.672C221.482 108.672 221.053 108.747 220.633 108.896C220.213 109.036 219.858 109.227 219.569 109.47L219.009 108.462C219.392 108.154 219.849 107.921 220.381 107.762C220.913 107.594 221.478 107.51 222.075 107.51ZM221.767 114.048C222.28 114.048 222.724 113.936 223.097 113.712C223.47 113.479 223.741 113.152 223.909 112.732V111.696H221.837C220.698 111.696 220.129 112.079 220.129 112.844C220.129 113.217 220.274 113.511 220.563 113.726C220.852 113.941 221.254 114.048 221.767 114.048ZM227.88 104.612H229.224V115H227.88V104.612ZM231.93 107.58H233.274V115H231.93V107.58ZM232.602 106.152C232.341 106.152 232.122 106.068 231.944 105.9C231.776 105.732 231.692 105.527 231.692 105.284C231.692 105.041 231.776 104.836 231.944 104.668C232.122 104.491 232.341 104.402 232.602 104.402C232.864 104.402 233.078 104.486 233.246 104.654C233.424 104.813 233.512 105.013 233.512 105.256C233.512 105.508 233.424 105.723 233.246 105.9C233.078 106.068 232.864 106.152 232.602 106.152ZM240.153 114.566C239.957 114.734 239.714 114.865 239.425 114.958C239.135 115.042 238.837 115.084 238.529 115.084C237.782 115.084 237.203 114.883 236.793 114.482C236.382 114.081 236.177 113.507 236.177 112.76V108.686H234.917V107.58H236.177V105.956H237.521V107.58H239.649V108.686H237.521V112.704C237.521 113.105 237.619 113.413 237.815 113.628C238.02 113.843 238.309 113.95 238.683 113.95C239.093 113.95 239.443 113.833 239.733 113.6L240.153 114.566ZM241.918 107.58H243.262V115H241.918V107.58ZM242.59 106.152C242.328 106.152 242.109 106.068 241.932 105.9C241.764 105.732 241.68 105.527 241.68 105.284C241.68 105.041 241.764 104.836 241.932 104.668C242.109 104.491 242.328 104.402 242.59 104.402C242.851 104.402 243.066 104.486 243.234 104.654C243.411 104.813 243.5 105.013 243.5 105.256C243.5 105.508 243.411 105.723 243.234 105.9C243.066 106.068 242.851 106.152 242.59 106.152ZM252.674 111.332C252.674 111.435 252.664 111.57 252.646 111.738H246.626C246.71 112.391 246.994 112.919 247.48 113.32C247.974 113.712 248.586 113.908 249.314 113.908C250.2 113.908 250.914 113.609 251.456 113.012L252.198 113.88C251.862 114.272 251.442 114.571 250.938 114.776C250.443 114.981 249.888 115.084 249.272 115.084C248.488 115.084 247.792 114.925 247.186 114.608C246.579 114.281 246.108 113.829 245.772 113.25C245.445 112.671 245.282 112.018 245.282 111.29C245.282 110.571 245.44 109.923 245.758 109.344C246.084 108.765 246.528 108.317 247.088 108C247.657 107.673 248.296 107.51 249.006 107.51C249.715 107.51 250.345 107.673 250.896 108C251.456 108.317 251.89 108.765 252.198 109.344C252.515 109.923 252.674 110.585 252.674 111.332ZM249.006 108.644C248.362 108.644 247.82 108.84 247.382 109.232C246.952 109.624 246.7 110.137 246.626 110.772H251.386C251.311 110.147 251.054 109.638 250.616 109.246C250.186 108.845 249.65 108.644 249.006 108.644ZM256.808 115.084C256.201 115.084 255.618 115.005 255.058 114.846C254.498 114.678 254.059 114.468 253.742 114.216L254.302 113.152C254.629 113.385 255.025 113.572 255.492 113.712C255.959 113.852 256.43 113.922 256.906 113.922C258.082 113.922 258.67 113.586 258.67 112.914C258.67 112.69 258.591 112.513 258.432 112.382C258.273 112.251 258.073 112.158 257.83 112.102C257.597 112.037 257.261 111.967 256.822 111.892C256.225 111.799 255.735 111.691 255.352 111.57C254.979 111.449 254.657 111.243 254.386 110.954C254.115 110.665 253.98 110.259 253.98 109.736C253.98 109.064 254.26 108.527 254.82 108.126C255.38 107.715 256.131 107.51 257.074 107.51C257.569 107.51 258.063 107.571 258.558 107.692C259.053 107.813 259.459 107.977 259.776 108.182L259.202 109.246C258.595 108.854 257.881 108.658 257.06 108.658C256.491 108.658 256.057 108.751 255.758 108.938C255.459 109.125 255.31 109.372 255.31 109.68C255.31 109.923 255.394 110.114 255.562 110.254C255.73 110.394 255.935 110.497 256.178 110.562C256.43 110.627 256.78 110.702 257.228 110.786C257.825 110.889 258.306 111.001 258.67 111.122C259.043 111.234 259.361 111.43 259.622 111.71C259.883 111.99 260.014 112.382 260.014 112.886C260.014 113.558 259.725 114.095 259.146 114.496C258.577 114.888 257.797 115.084 256.808 115.084Z" fill="#1C2121"/>
<path d="M175.198 139.592H173.336V142H171.978V139.592H166.532V138.612L171.544 132.2H173.056L168.254 138.388H172.02V136.26H173.336V138.388H175.198V139.592ZM180.875 132.2H185.005C186.041 132.2 186.96 132.405 187.763 132.816C188.566 133.227 189.186 133.805 189.625 134.552C190.073 135.289 190.297 136.139 190.297 137.1C190.297 138.061 190.073 138.915 189.625 139.662C189.186 140.399 188.566 140.973 187.763 141.384C186.96 141.795 186.041 142 185.005 142H180.875V132.2ZM184.921 140.782C185.714 140.782 186.41 140.628 187.007 140.32C187.614 140.012 188.08 139.583 188.407 139.032C188.734 138.472 188.897 137.828 188.897 137.1C188.897 136.372 188.734 135.733 188.407 135.182C188.08 134.622 187.614 134.188 187.007 133.88C186.41 133.572 185.714 133.418 184.921 133.418H182.275V140.782H184.921ZM195.563 142.084C194.826 142.084 194.163 141.921 193.575 141.594C192.987 141.267 192.525 140.819 192.189 140.25C191.863 139.671 191.699 139.018 191.699 138.29C191.699 137.562 191.863 136.913 192.189 136.344C192.525 135.765 192.987 135.317 193.575 135C194.163 134.673 194.826 134.51 195.563 134.51C196.301 134.51 196.959 134.673 197.537 135C198.125 135.317 198.583 135.765 198.909 136.344C199.245 136.913 199.413 137.562 199.413 138.29C199.413 139.018 199.245 139.671 198.909 140.25C198.583 140.819 198.125 141.267 197.537 141.594C196.959 141.921 196.301 142.084 195.563 142.084ZM195.563 140.908C196.039 140.908 196.464 140.801 196.837 140.586C197.22 140.362 197.519 140.054 197.733 139.662C197.948 139.261 198.055 138.803 198.055 138.29C198.055 137.777 197.948 137.324 197.733 136.932C197.519 136.531 197.22 136.223 196.837 136.008C196.464 135.793 196.039 135.686 195.563 135.686C195.087 135.686 194.658 135.793 194.275 136.008C193.902 136.223 193.603 136.531 193.379 136.932C193.165 137.324 193.057 137.777 193.057 138.29C193.057 138.803 193.165 139.261 193.379 139.662C193.603 140.054 193.902 140.362 194.275 140.586C194.658 140.801 195.087 140.908 195.563 140.908ZM204.646 142.084C203.89 142.084 203.213 141.921 202.616 141.594C202.028 141.267 201.566 140.819 201.23 140.25C200.894 139.671 200.726 139.018 200.726 138.29C200.726 137.562 200.894 136.913 201.23 136.344C201.566 135.765 202.028 135.317 202.616 135C203.213 134.673 203.89 134.51 204.646 134.51C205.318 134.51 205.915 134.645 206.438 134.916C206.97 135.187 207.381 135.579 207.67 136.092L206.648 136.75C206.415 136.395 206.125 136.129 205.78 135.952C205.435 135.775 205.052 135.686 204.632 135.686C204.147 135.686 203.708 135.793 203.316 136.008C202.933 136.223 202.63 136.531 202.406 136.932C202.191 137.324 202.084 137.777 202.084 138.29C202.084 138.813 202.191 139.275 202.406 139.676C202.63 140.068 202.933 140.371 203.316 140.586C203.708 140.801 204.147 140.908 204.632 140.908C205.052 140.908 205.435 140.819 205.78 140.642C206.125 140.465 206.415 140.199 206.648 139.844L207.67 140.488C207.381 141.001 206.97 141.398 206.438 141.678C205.915 141.949 205.318 142.084 204.646 142.084ZM213.818 141.566C213.622 141.734 213.379 141.865 213.09 141.958C212.801 142.042 212.502 142.084 212.194 142.084C211.447 142.084 210.869 141.883 210.458 141.482C210.047 141.081 209.842 140.507 209.842 139.76V135.686H208.582V134.58H209.842V132.956H211.186V134.58H213.314V135.686H211.186V139.704C211.186 140.105 211.284 140.413 211.48 140.628C211.685 140.843 211.975 140.95 212.348 140.95C212.759 140.95 213.109 140.833 213.398 140.6L213.818 141.566ZM218.515 142.084C217.777 142.084 217.115 141.921 216.527 141.594C215.939 141.267 215.477 140.819 215.141 140.25C214.814 139.671 214.651 139.018 214.651 138.29C214.651 137.562 214.814 136.913 215.141 136.344C215.477 135.765 215.939 135.317 216.527 135C217.115 134.673 217.777 134.51 218.515 134.51C219.252 134.51 219.91 134.673 220.489 135C221.077 135.317 221.534 135.765 221.861 136.344C222.197 136.913 222.365 137.562 222.365 138.29C222.365 139.018 222.197 139.671 221.861 140.25C221.534 140.819 221.077 141.267 220.489 141.594C219.91 141.921 219.252 142.084 218.515 142.084ZM218.515 140.908C218.991 140.908 219.415 140.801 219.789 140.586C220.171 140.362 220.47 140.054 220.685 139.662C220.899 139.261 221.007 138.803 221.007 138.29C221.007 137.777 220.899 137.324 220.685 136.932C220.47 136.531 220.171 136.223 219.789 136.008C219.415 135.793 218.991 135.686 218.515 135.686C218.039 135.686 217.609 135.793 217.227 136.008C216.853 136.223 216.555 136.531 216.331 136.932C216.116 137.324 216.009 137.777 216.009 138.29C216.009 138.803 216.116 139.261 216.331 139.662C216.555 140.054 216.853 140.362 217.227 140.586C217.609 140.801 218.039 140.908 218.515 140.908ZM225.651 135.826C225.885 135.397 226.23 135.07 226.687 134.846C227.145 134.622 227.7 134.51 228.353 134.51V135.812C228.279 135.803 228.176 135.798 228.045 135.798C227.317 135.798 226.743 136.017 226.323 136.456C225.913 136.885 225.707 137.501 225.707 138.304V142H224.363V134.58H225.651V135.826ZM232.333 142.084C231.726 142.084 231.143 142.005 230.583 141.846C230.023 141.678 229.584 141.468 229.267 141.216L229.827 140.152C230.153 140.385 230.55 140.572 231.017 140.712C231.483 140.852 231.955 140.922 232.431 140.922C233.607 140.922 234.195 140.586 234.195 139.914C234.195 139.69 234.115 139.513 233.957 139.382C233.798 139.251 233.597 139.158 233.355 139.102C233.121 139.037 232.785 138.967 232.347 138.892C231.749 138.799 231.259 138.691 230.877 138.57C230.503 138.449 230.181 138.243 229.911 137.954C229.64 137.665 229.505 137.259 229.505 136.736C229.505 136.064 229.785 135.527 230.345 135.126C230.905 134.715 231.656 134.51 232.599 134.51C233.093 134.51 233.588 134.571 234.083 134.692C234.577 134.813 234.983 134.977 235.301 135.182L234.727 136.246C234.12 135.854 233.406 135.658 232.585 135.658C232.015 135.658 231.581 135.751 231.283 135.938C230.984 136.125 230.835 136.372 230.835 136.68C230.835 136.923 230.919 137.114 231.087 137.254C231.255 137.394 231.46 137.497 231.703 137.562C231.955 137.627 232.305 137.702 232.753 137.786C233.35 137.889 233.831 138.001 234.195 138.122C234.568 138.234 234.885 138.43 235.147 138.71C235.408 138.99 235.539 139.382 235.539 139.886C235.539 140.558 235.249 141.095 234.671 141.496C234.101 141.888 233.322 142.084 232.333 142.084Z" fill="#1C2121"/>
<circle cx="92" cy="92" r="60" fill="#E7EEF5"/>
<path d="M93.8198 88.7795C93.7578 88.8576 93.7214 88.9531 93.7155 89.0529C93.7096 89.1527 93.7345 89.252 93.7867 89.3369C93.8607 89.4267 93.9604 89.4909 94.0721 89.521C94.1838 89.551 94.302 89.5453 94.4103 89.5045C94.5457 89.4576 94.6904 89.4455 94.8315 89.4694C94.9726 89.4932 95.1057 89.5522 95.2185 89.641C95.2547 89.6791 95.298 89.7095 95.346 89.7302C95.394 89.751 95.4456 89.7617 95.4978 89.7618C95.5501 89.762 95.6017 89.7514 95.6498 89.7309C95.6979 89.7103 95.7414 89.6802 95.7776 89.6422C95.8139 89.6043 95.8422 89.5593 95.8609 89.5101C95.8796 89.4608 95.8883 89.4083 95.8864 89.3555C95.8845 89.3028 95.8721 89.251 95.8499 89.2032C95.8277 89.1555 95.7962 89.1128 95.7573 89.0776C95.6004 88.9285 95.4125 88.8166 95.2074 88.7501C95.0023 88.6836 94.7852 88.6641 94.5717 88.6931C94.419 88.0894 94.1145 87.5358 93.6877 87.0861C93.6546 87.047 93.6142 87.015 93.5688 86.9917C93.5234 86.9684 93.4739 86.9544 93.4232 86.9505C93.3725 86.9465 93.3215 86.9528 93.2732 86.9687C93.2248 86.9847 93.18 87.0102 93.1414 87.0436C93.1028 87.0771 93.071 87.1179 93.048 87.1637C93.025 87.2096 93.0112 87.2596 93.0072 87.3108C93.0033 87.3621 93.0094 87.4136 93.0252 87.4625C93.0411 87.5114 93.0662 87.5567 93.0994 87.5957C93.4144 87.9384 93.6593 88.3408 93.8198 88.7795Z" fill="#0C51A1"/>
<path d="M102.527 79.7503C101.283 77.9105 99.4141 77.7163 98.0499 77.5753C96.6316 77.4274 96.1738 77.3114 96.1798 76.4991C96.1948 74.535 95.9802 74.3105 94.4756 73.6477C93.5894 73.2572 93.4761 72.9326 93.4641 72.8893C93.4741 72.7894 93.4458 72.6895 93.3849 72.6101C93.324 72.5307 93.2353 72.478 93.1371 72.4629C93.0389 72.4478 92.9387 72.4715 92.8572 72.529C92.7757 72.5864 92.7192 72.6734 92.6994 72.7718C92.6679 72.9174 92.5914 73.6818 94.1657 74.3757C95.4174 74.9271 95.4174 74.9354 95.4054 76.5113C95.3926 78.1039 96.7036 78.2556 97.9711 78.3883C99.3181 78.5286 100.846 78.7189 101.888 80.2591C102.194 80.6738 102.639 80.9624 103.139 81.0714C103.682 81.2231 103.756 81.4657 103.756 81.7577C103.756 81.9738 103.927 82.4614 104.142 82.4614C104.356 82.4614 104.529 81.9761 104.53 81.76C104.528 81.4064 104.41 81.0634 104.196 80.784C103.981 80.5046 103.682 80.3045 103.343 80.2144C103.025 80.1631 102.735 79.9985 102.527 79.7503Z" fill="#034EA2"/>
<path d="M110.733 86.6772C109.781 85.0361 109.682 84.6987 110.057 82.7967C110.432 80.8947 109.607 79.0685 109.082 76.9383C108.556 74.808 106.673 64.231 90.2598 64.0028C73.8468 63.7745 70.157 77.7748 70.0069 82.1877C69.8568 86.6007 72.1899 92.2316 73.846 94.6667C75.5022 97.1018 76.7824 102.048 76.9332 106.69C77.0601 110.607 73.1654 117.459 71.9467 119.55C71.7899 119.819 71.9842 120 72.2934 120H98.0588C98.2735 120 98.4468 119.98 98.4566 119.763C98.5969 116.684 99.793 115.267 99.5071 113.586C99.0944 111.187 99.8418 109.161 101.046 108.172C102.251 107.182 107.625 107.203 109.056 106.441C110.487 105.68 110.2 103.104 110.05 102.649C109.868 102.348 109.8 101.991 109.857 101.644C109.913 101.296 110.091 100.98 110.358 100.753C111.184 99.9192 110.964 99.3124 110.438 98.5488C110.638 98.4852 110.821 98.3779 110.975 98.2345C111.13 98.0911 111.251 97.9151 111.33 97.719C111.409 97.5229 111.445 97.3116 111.434 97.1C111.423 96.8885 111.366 96.6819 111.268 96.4951C110.817 95.5092 111.193 94.7455 112.323 94.3656C113.453 93.9856 114.069 93.5602 113.994 92.2657C113.919 90.9711 111.532 88.0567 110.733 86.6772ZM92.2064 66.4212C92.229 66.3758 92.2425 66.3263 92.2462 66.2756C92.3963 66.271 92.5576 66.2642 92.7219 66.2574C93.3279 66.2121 93.9364 66.2121 94.5424 66.2574C96.1385 66.6796 97.6951 67.2411 99.195 67.9356C99.4884 68.057 99.7555 68.1677 99.9821 68.2595C100.437 68.4048 100.847 68.666 101.172 69.0178C101.616 69.4702 102.133 69.8417 102.702 70.116C103.592 70.6841 104.325 71.4727 104.83 72.407C104.54 72.3136 104.277 72.1496 104.064 71.9293C103.894 71.6269 103.652 71.3727 103.359 71.1903C103.066 71.0079 102.732 70.9032 102.388 70.8857C102.173 70.9082 101.965 70.9733 101.775 71.0774C101.585 71.1816 101.418 71.3226 101.282 71.4924C100.948 71.2958 100.557 71.2211 100.175 71.2808C100.051 71.1179 99.9532 70.9362 99.8854 70.7424C99.595 69.8919 99.0045 69.1793 98.2269 68.741C97.7422 68.422 97.1535 68.3064 96.5858 68.4187C96.3832 68.462 96.2691 68.4855 95.7971 68.1283C95.4102 67.8964 94.9733 67.7632 94.5241 67.74C94.0749 67.7169 93.6269 67.8046 93.2187 67.9956C92.8675 68.1018 92.4293 68.2322 92.2994 68.1359C91.6151 67.6316 92.2064 66.4334 92.2064 66.4212ZM78.4738 93.6353C77.8143 93.3792 77.2523 92.9181 76.8689 92.3184C76.4855 91.7186 76.3004 91.0113 76.3404 90.2985C76.688 90.3309 77.0249 90.4368 77.3294 90.6094C77.6587 90.77 78.0204 90.851 78.386 90.846C79.0681 90.804 79.7377 90.6424 80.3649 90.3682C80.8354 90.1532 81.3375 90.0175 81.8514 89.9663H81.9039C82.661 90.0176 83.407 90.1769 84.1199 90.4395C84.7327 90.6397 85.3554 90.8075 85.9855 90.9423C86.5353 91.0528 87.0945 91.1094 87.6551 91.1114C87.6464 91.6492 87.4818 92.1727 87.1816 92.6168C86.7959 93.0188 85.9674 93.5579 85.8556 93.7202C85.6166 94.0208 85.2969 94.2454 84.9349 94.3671C84.7613 94.4346 84.5839 94.4913 84.4036 94.537C84.2959 94.565 84.1853 94.5798 84.0742 94.581C83.2368 94.5753 82.4088 94.4019 81.6383 94.0706C80.5716 94.0536 79.5109 93.9066 78.4791 93.633L78.4738 93.6353ZM89.736 93.1674C88.6298 94.067 87.6988 95.1666 86.9903 96.4101C86.3847 97.4552 85.3866 99.5801 84.9942 99.5445C84.6017 99.5088 83.3177 99.5809 83.5684 98.9325C83.6967 98.5988 84.2212 96.919 84.6865 95.2696C85.3771 95.128 86.001 94.7566 86.4582 94.2147C86.5243 94.1555 86.6901 94.0304 86.8139 93.9356C87.1402 93.6999 87.4492 93.4407 87.7384 93.1598C88.1839 92.5638 88.4261 91.8379 88.4288 91.091C89.1702 91.0151 89.6295 91.1668 90.7416 91.9039C90.5047 92.3947 90.1631 92.8262 89.7413 93.1674H89.736ZM106.805 79.9824C106.742 79.962 106.683 79.9315 106.63 79.8921C106.447 79.7095 106.302 79.4915 106.204 79.2511C106.106 79.0107 106.057 78.7529 106.059 78.4929C106.042 78.1504 105.955 77.8152 105.804 77.5079C105.654 77.2007 105.442 76.9281 105.183 76.707C104.785 76.4092 104.29 76.2738 103.798 76.3278C103.7 76.3473 103.613 76.4045 103.555 76.4874C103.498 76.5703 103.474 76.6724 103.489 76.7725C103.505 76.8725 103.558 76.9627 103.637 77.0241C103.717 77.0856 103.817 77.1135 103.917 77.1021C104.201 77.0781 104.484 77.1589 104.714 77.3296C104.889 77.4889 105.029 77.6821 105.128 77.8976C105.227 78.1131 105.282 78.3465 105.289 78.5839C105.298 78.9503 105.381 79.3111 105.532 79.6441C105.684 79.9772 105.901 80.2755 106.17 80.5208C106.213 80.551 106.257 80.5781 106.304 80.602C106.399 80.9625 106.399 81.3418 106.304 81.7023C106.021 83.0067 104.413 83.8721 103.613 84.0457C103.34 84.1083 103.074 84.2043 102.823 84.3316C102.417 84.5297 101.988 84.6794 101.548 84.7775C101.193 84.8515 100.833 84.8929 100.471 84.9012C100.1 84.2612 99.5147 83.777 98.8205 83.5361C98.747 83.5107 98.6755 83.4798 98.6066 83.4436C98.4025 83.3078 98.2089 83.1819 98.0213 83.0644C98.6295 82.9622 99.1994 82.6973 99.672 82.2972C100.145 81.8971 100.502 81.3765 100.709 80.7893C100.738 80.6899 100.728 80.5826 100.68 80.491C100.631 80.3995 100.549 80.331 100.45 80.3009C100.352 80.2707 100.246 80.2812 100.155 80.3302C100.065 80.3791 99.997 80.4624 99.9672 80.5618C99.5274 82.0156 97.941 82.3644 97.1546 82.4221C97.4885 81.8912 97.9463 81.1616 97.6514 80.514C97.6301 80.4672 97.5998 80.4252 97.5624 80.3902C97.525 80.3553 97.4811 80.3281 97.4333 80.3103C97.3855 80.2925 97.3347 80.2843 97.2838 80.2864C97.2329 80.2884 97.1829 80.3005 97.1366 80.3221C97.0903 80.3437 97.0487 80.3742 97.0141 80.412C96.9795 80.4498 96.9527 80.4942 96.9351 80.5425C96.9174 80.5908 96.9094 80.6422 96.9114 80.6936C96.9134 80.7451 96.9254 80.7956 96.9467 80.8424C97.0661 81.1025 96.7119 81.6667 96.4965 82.0026C96.4215 82.1179 96.3599 82.2211 96.3081 82.3166C95.8005 82.2289 95.2789 82.2814 94.7983 82.4683C93.663 82.8778 92.2551 82.0626 91.3171 81.1624C90.864 80.6752 90.2465 80.3775 89.5867 80.3282C90.7979 78.8835 90.3409 77.7998 90.3176 77.7497C90.2759 77.657 90.1999 77.5845 90.1058 77.5479C90.0118 77.5113 89.9072 77.5135 89.8148 77.5541C89.7215 77.5952 89.6477 77.6713 89.609 77.7664C89.5702 77.8615 89.5695 77.9681 89.6069 78.0637C89.6227 78.1016 89.9476 79.0018 88.5286 80.3054C88.168 80.3654 87.8155 80.4672 87.478 80.6088C86.7847 80.8658 85.9239 81.1859 85.3588 80.9121C85.2041 80.8246 85.0685 80.7063 84.9603 80.5644C84.8521 80.4224 84.7735 80.2598 84.7293 80.0863C84.433 79.1623 84.2856 78.1962 84.2925 77.2249C84.2625 76.283 84.2355 75.4701 83.452 75.3207C83.3524 75.3045 83.2504 75.3283 83.1679 75.387C83.0853 75.4457 83.0287 75.5347 83.0101 75.635C82.9916 75.7352 83.0124 75.8389 83.0684 75.9238C83.1243 76.0087 83.2108 76.0682 83.3095 76.0896C83.4813 76.123 83.4993 76.6706 83.5181 77.25C83.5142 78.3014 83.6764 79.3466 83.9984 80.3464C84.0757 80.6182 84.207 80.8713 84.3841 81.0903C84.5612 81.3093 84.7805 81.4897 85.0287 81.6205C85.8871 82.0285 86.9175 81.647 87.7452 81.3406C88.0426 81.2103 88.3557 81.12 88.6764 81.0721C88.81 81.0782 88.9353 81.082 89.0516 81.0851C89.3699 81.0506 89.6916 81.091 89.9918 81.2031C90.292 81.3152 90.5624 81.4959 90.7821 81.7312C92.2131 83.1046 93.8108 83.6559 95.0594 83.2054C95.515 83.0218 96.0204 83.0078 96.4852 83.166L96.5048 83.1751C97.0968 83.4144 97.6573 83.7267 98.1737 84.1049C98.2875 84.1735 98.4079 84.2301 98.5331 84.274C99.0799 84.4565 99.5395 84.8389 99.8216 85.3463C99.9318 85.6673 100.001 86.0011 100.028 86.3398C100.04 86.5322 100.014 86.7252 99.949 86.9067C99.8845 87.0882 99.7836 87.2543 99.6527 87.3946C99.4704 87.6335 99.3916 87.7488 99.4404 87.9779C99.5822 88.6467 99.2242 89.1344 98.4243 89.6925C98.4558 89.5477 98.4851 89.3892 98.5136 89.2034C98.6166 88.7606 98.5475 88.2948 98.3207 87.902C98.2536 87.7958 98.2118 87.6753 98.1988 87.55C98.1857 87.4247 98.2018 87.298 98.2457 87.1801C98.3157 86.9098 98.3223 86.6267 98.265 86.3534C98.2076 86.08 98.088 85.824 97.9155 85.6057C97.6995 85.3483 97.4309 85.1413 97.1282 84.9989C96.8254 84.8564 96.4957 84.782 96.1618 84.7806C96.0591 84.7806 95.9606 84.8218 95.888 84.8952C95.8154 84.9686 95.7746 85.0681 95.7746 85.1719C95.7746 85.2757 95.8154 85.3752 95.888 85.4486C95.9606 85.522 96.0591 85.5632 96.1618 85.5632C96.3793 85.5647 96.5941 85.6128 96.7918 85.7043C96.9896 85.7958 97.1659 85.9286 97.3092 86.0941C97.4076 86.2209 97.4752 86.3693 97.5068 86.5273C97.5383 86.6853 97.5328 86.8486 97.4908 87.0041C97.4252 87.214 97.4042 87.4354 97.429 87.654C97.4538 87.8726 97.524 88.0835 97.6349 88.2729C97.7063 88.393 97.7529 88.5265 97.7719 88.6653C97.7909 88.8041 97.7818 88.9453 97.7452 89.0805C97.6184 89.8905 97.5508 90.1104 97.0556 90.5275C96.8582 90.639 96.6533 90.7588 96.4342 90.8816C96.0284 91.1683 95.5696 91.3694 95.0852 91.4728C94.6008 91.5763 94.1008 91.58 93.6149 91.4838C93.3158 91.4215 93.0079 91.4162 92.7069 91.4679C91.7213 91.532 90.7412 91.2764 89.9094 90.7383C89.4597 90.5443 88.9719 90.4571 88.4836 90.4835C87.0733 90.5131 85.6686 90.2948 84.3323 89.8381C83.5334 89.496 82.6883 89.2767 81.8252 89.1874C81.5241 89.1996 81.2258 89.2506 80.9374 89.3391C80.9206 89.3079 80.8996 89.2791 80.8751 89.2534C80.8639 89.2436 79.8245 88.2486 80.0692 87.3158C80.148 87.1371 80.2138 86.9529 80.2658 86.7644C80.3408 86.5134 80.5239 85.9242 80.6673 85.8544C81.0248 85.8394 81.3824 85.8816 81.7269 85.9796C82.1586 86.0843 82.6 86.1431 83.0439 86.1548C83.1875 86.5887 83.4309 86.9821 83.7541 87.3026C84.0774 87.6231 84.4712 87.8615 84.9034 87.9983C85.2641 88.1317 85.6419 88.2122 86.0252 88.2372C86.1727 88.2494 86.3198 88.2097 86.4417 88.125C86.5104 88.066 86.5567 87.9847 86.5725 87.895C86.5882 87.8053 86.5725 87.7128 86.5281 87.6336C86.4836 87.5543 86.4132 87.4932 86.3289 87.4608C86.2447 87.4284 86.1518 87.4268 86.0665 87.4561C85.8136 87.4652 84.2077 87.221 83.7988 85.9636C83.9557 85.8652 84.0811 85.723 84.1597 85.5541C84.2841 85.2364 84.3475 84.8977 84.3465 84.5561C84.6052 84.7566 84.904 84.898 85.2221 84.9704C85.5402 85.0429 85.87 85.0445 86.1888 84.9754C87.5396 84.66 89.2137 84.4037 90.1367 85.2386H90.142L90.1465 85.2439C90.4848 85.4939 90.7283 85.8533 90.8367 86.2625C90.9451 86.6716 90.9118 87.1059 90.7423 87.4932C90.6957 87.5858 90.6873 87.6932 90.719 87.792C90.7507 87.8908 90.82 87.9728 90.9116 88.0199C91.0031 88.0671 91.1094 88.0756 91.2072 88.0435C91.3049 88.0114 91.386 87.9414 91.4327 87.8489C91.6823 87.3035 91.7401 86.6884 91.5966 86.1053C91.453 85.5222 91.1166 85.0061 90.6433 84.6425C90.6395 84.6425 90.6358 84.6425 90.632 84.6365C89.4509 83.5892 87.6356 83.8357 86.0139 84.2133C85.6616 84.2444 85.3072 84.1855 84.9832 84.0421C84.6593 83.8987 84.3761 83.6755 84.1597 83.3927C84.1508 83.3828 84.1412 83.3735 84.1312 83.3647C83.8663 83.1091 83.5954 82.8156 83.314 82.5085C83.0536 82.2256 82.7887 81.9435 82.5088 81.666C82.2588 81.4236 82.0568 81.1354 81.9137 80.8166C81.9069 80.7986 81.8989 80.7811 81.8897 80.7642C81.6597 80.0459 81.5897 79.285 81.6848 78.5362C81.7021 78.157 81.7194 77.9037 81.7081 77.4995C81.6631 75.847 80.644 75.5679 80.1112 75.5679C79.8981 75.5679 79.7255 75.5679 79.724 75.7833C79.7225 75.9986 79.8936 76.0502 80.1075 76.0517C80.1405 76.0517 80.8999 76.0517 80.9329 77.3736C80.9427 77.7527 80.9269 78.113 80.9104 78.4755C80.8133 79.3285 80.899 80.1926 81.1618 81.0092C81.155 81.0456 81.1475 81.0805 81.14 81.1237C80.9487 82.1543 80.629 83.1076 79.5987 83.1076C79.2999 83.0886 79.005 83.0286 78.7222 82.9294C78.0858 82.6612 77.3722 82.6484 76.7269 82.8937C76.592 82.9546 76.471 83.0428 76.3714 83.1529C76.2717 83.263 76.1955 83.3927 76.1476 83.5338C75.8069 84.4802 76.5227 86.0212 76.6045 86.1934C76.6363 86.2596 76.6859 86.3154 76.7476 86.3545C76.8093 86.3935 76.8807 86.4142 76.9535 86.4141C77.0193 86.4145 77.0841 86.398 77.1417 86.366C77.1994 86.334 77.2481 86.2877 77.2831 86.2314C77.3181 86.1752 77.3383 86.1108 77.3418 86.0444C77.3454 85.9781 77.332 85.9119 77.3032 85.8521C76.9629 85.2262 76.8143 84.5122 76.8762 83.8008C76.8889 83.7583 76.9105 83.719 76.9395 83.6857C76.9685 83.6523 77.0042 83.6256 77.0443 83.6074C77.5237 83.4467 78.0454 83.4738 78.5061 83.6832C78.8589 83.805 79.227 83.8752 79.5994 83.8918C80.1222 83.8743 80.6225 83.6729 81.0139 83.3223C81.4054 82.9717 81.6634 82.4939 81.7434 81.9715C81.8117 82.0527 81.8844 82.1323 81.964 82.2112C82.2334 82.4804 82.4893 82.7625 82.7452 83.0378C83.0153 83.3328 83.2825 83.6225 83.5526 83.8872C83.6092 84.3316 83.5778 84.783 83.4603 85.2151C83.3193 85.5101 82.4532 85.3312 81.8844 85.2151C81.4128 85.0658 80.913 85.0312 80.4257 85.1143C79.9116 85.2864 79.7082 85.9484 79.5251 86.5331C79.4823 86.6885 79.4287 86.8405 79.3646 86.9882C79.3584 87.0027 79.3534 87.0176 79.3495 87.0329C79.3413 87.0468 79.334 87.0612 79.3278 87.0761C79.2498 87.5332 79.2832 88.0027 79.4249 88.4438C79.5666 88.885 79.8125 89.2847 80.1412 89.6083L80.0842 89.6288C79.2092 89.9542 78.3815 90.2636 77.6566 89.9034C76.2466 89.2057 75.6845 89.6 75.4969 89.8207C75.2123 89.8155 74.93 89.7684 74.6587 89.6811C73.6502 89.3566 73.2194 88.3851 72.6596 86.6674C72.6906 86.6113 72.7343 86.5635 72.7872 86.5279C72.8885 86.4672 73.0213 86.4945 73.2172 86.5847C73.2592 86.608 73.3056 86.6221 73.3533 86.626C73.4011 86.6299 73.4491 86.6236 73.4943 86.6075C73.5395 86.5914 73.5808 86.5659 73.6155 86.5325C73.6503 86.4992 73.6777 86.4589 73.6959 86.4141C73.7207 86.3735 73.7365 86.3281 73.7422 86.2808C73.748 86.2335 73.7436 86.1855 73.7294 86.1401C73.7151 86.0947 73.6914 86.0529 73.6597 86.0176C73.628 85.9823 73.5892 85.9543 73.5458 85.9356C72.9943 85.6793 72.9658 85.451 72.3452 86.0114V86.0205C72.3452 85.4608 72.2004 85.4404 72.1043 85.1416C71.9873 84.7044 71.9119 84.257 71.8792 83.8053C71.9257 83.8288 71.9542 84.0465 72.0293 84.1451C72.18 84.3715 72.3784 84.5615 72.6102 84.7015C72.842 84.8415 73.1015 84.928 73.3702 84.955H73.398C73.6822 84.9262 73.9561 84.832 74.1987 84.6796C74.4413 84.5273 74.6461 84.3208 74.7976 84.076C74.9986 83.6771 75.1622 83.2599 75.2861 82.83C75.7213 81.6864 76.095 80.8871 76.9115 81.0805C76.9604 81.0931 77.0113 81.0959 77.0612 81.0885C77.1111 81.0811 77.1591 81.0637 77.2023 81.0374C77.2456 81.011 77.2832 80.9763 77.313 80.9351C77.3428 80.894 77.3642 80.8472 77.376 80.7976C77.3873 80.7493 77.3888 80.6991 77.3802 80.6502C77.3716 80.6013 77.3531 80.5548 77.3259 80.5134C77.2988 80.472 77.2635 80.4367 77.2222 80.4097C77.181 80.3826 77.1348 80.3645 77.0863 80.3563C75.5502 79.9991 74.9544 81.6159 74.5627 82.6465C74.457 83.0061 74.3248 83.3572 74.1672 83.6969C74.0171 83.9062 73.7282 84.3293 73.3883 84.3293H73.3762C73.0483 84.3293 72.7482 83.9221 72.6206 83.7507C72.3099 83.3336 72 82.9271 71.7644 82.9347C71.7548 82.0498 71.9246 81.1723 72.2634 80.3563C72.3356 80.4954 72.4432 80.6124 72.5751 80.6955C72.707 80.7786 72.8584 80.8246 73.0138 80.8287C73.0768 80.8273 73.1396 80.8202 73.2014 80.8075C74.0516 80.6429 74.1522 79.8974 74.2407 79.2361C74.2755 78.6075 74.4834 78.0013 74.8411 77.4858C75.8166 76.2231 76.6203 76.2572 77.2979 76.39C77.4102 76.4191 77.5279 76.4192 77.6402 76.3901C77.7525 76.3611 77.8557 76.3039 77.9403 76.2239C78.275 75.8947 78.1774 75.2934 78.0731 74.6571C78.0156 74.3875 77.9884 74.1123 77.992 73.8365C78.119 73.3696 78.3496 72.938 78.6664 72.5746C78.9831 72.2113 79.3777 71.9258 79.8201 71.7397C79.9244 71.7215 79.9341 71.7397 79.9491 71.7715C80.5052 72.859 81.2091 72.9303 81.2871 72.9348C81.2939 72.9348 81.2984 72.9348 81.3044 72.9348C81.3116 72.9356 81.3189 72.9356 81.3262 72.9348L81.3884 72.9311C83.6907 72.8309 84.9709 73.0395 85.19 73.5521C85.3548 73.9327 85.6208 74.2595 85.9584 74.4963C86.1984 74.6716 86.4008 74.8943 86.5534 75.1508C86.706 75.4073 86.8055 75.6923 86.8462 75.9888C86.9626 76.2848 87.0185 76.6015 87.0105 76.9199C87.0026 77.2384 86.9308 77.5518 86.7996 77.8415C86.7345 77.9156 86.653 77.9732 86.5617 78.0096C86.4705 78.046 86.372 78.0601 86.2744 78.0508C86.2245 78.0506 86.1751 78.0607 86.1292 78.0804C86.0833 78.1 86.0418 78.1288 86.0071 78.1651C85.9725 78.2013 85.9455 78.2443 85.9277 78.2914C85.9099 78.3385 85.9017 78.3887 85.9037 78.4391C85.9134 78.6499 86.0853 78.6992 86.2916 78.6992H86.3089C86.5174 78.7218 86.7283 78.6922 86.9228 78.6128C87.1173 78.5334 87.2895 78.4068 87.424 78.2442C87.8247 77.7012 87.884 76.9997 87.6011 75.8606C87.4762 75.0859 87.0617 74.3893 86.4432 73.9147C86.2052 73.7519 86.0182 73.5238 85.9044 73.2571C85.4256 72.1401 83.338 72.0726 81.3577 72.1568H81.3366C81.2684 72.1386 80.9494 72.021 80.6395 71.4158C80.5542 71.2436 80.4135 71.1058 80.2404 71.0251C80.0673 70.9445 79.8722 70.9258 79.6872 70.9722C79.2772 71.0535 78.8879 71.2187 78.5433 71.4576C78.1988 71.6966 77.9062 72.0043 77.6837 72.3617C77.4611 72.7191 77.3131 73.1187 77.249 73.536C77.1849 73.9533 77.2059 74.3795 77.3107 74.7883C77.3649 75.0605 77.394 75.3373 77.3977 75.6149C76.483 75.445 75.3949 75.4951 74.2317 77.0073C73.7869 77.629 73.525 78.3651 73.4761 79.1307C73.3793 79.8512 73.317 79.9869 73.0596 80.0362C72.959 80.0521 72.8862 79.9293 72.7422 79.5213C72.7166 79.4454 72.6889 79.3696 72.6581 79.2991C72.9605 78.323 73.3571 77.3793 73.8423 76.4817C74.0374 76.1898 74.3931 75.5065 74.736 74.8452C75.0684 74.2059 75.3829 73.6014 75.5682 73.3208C75.5862 73.2935 77.3114 70.7424 78.1527 70.169C78.9984 68.942 81.1633 68.1677 81.97 67.9144C82.6852 67.8623 83.3927 68.091 83.9451 68.553C83.9511 68.6569 83.6734 68.9625 83.5391 69.1088C83.3623 69.2496 83.2169 69.4265 83.1126 69.6281C83.0082 69.8296 82.9472 70.0512 82.9335 70.2783C82.951 70.409 82.9968 70.5341 83.0676 70.6449C83.1384 70.7556 83.2326 70.8493 83.3433 70.9191C83.6497 71.0707 83.9888 71.1422 84.3297 71.1271C84.6705 71.112 85.0022 71.0107 85.2943 70.8326C85.6071 70.6968 85.9531 70.6588 86.2875 70.7235C86.6219 70.7883 86.9294 70.9528 87.1703 71.1959C87.3393 71.3859 87.5458 71.5378 87.7767 71.6418C88.7747 72.0824 89.0524 72.6952 88.6824 73.6295C88.6172 73.7638 88.5846 73.9119 88.5873 74.0614C88.5901 74.211 88.6281 74.3577 88.6982 74.4895C88.9691 74.9521 89.6212 75.0325 90.3116 75.1174C90.757 75.1361 91.1945 75.2428 91.5993 75.4314C92.391 75.9706 93.3177 78.273 92.836 79.5888C92.2176 81.2799 92.7189 81.7016 92.9628 81.804C93.0501 81.8385 93.1467 81.8399 93.235 81.808C93.3232 81.776 93.397 81.7129 93.4428 81.6302C93.4885 81.5476 93.5031 81.451 93.4839 81.3583C93.4646 81.2656 93.4128 81.1831 93.338 81.126C93.3132 81.0615 93.2352 80.7468 93.5631 79.8602C94.1927 78.141 93.0551 75.4792 92.0338 74.7792C91.5309 74.5102 90.9747 74.3588 90.4061 74.3363C90.091 74.2976 89.4306 74.2172 89.3661 74.0875C89.3661 74.0875 89.3525 74.0421 89.4021 73.9185C89.9274 72.5921 89.4621 71.5281 88.0881 70.9221C87.9565 70.8612 87.8389 70.7731 87.7429 70.6635C87.3957 70.3031 86.9491 70.0567 86.4613 69.9566C85.9736 69.8565 85.4672 69.9073 85.0084 70.1023C84.5229 70.298 84.0389 70.4557 83.7912 70.2775C83.7565 70.2563 83.7267 70.2275 83.7042 70.1933C83.6974 70.0895 83.9759 69.7838 84.1094 69.6367C84.4561 69.2575 85.0377 68.6174 84.5101 68.0115C84.1244 67.6084 83.623 67.338 83.0768 67.2387C83.5629 66.955 84.0925 66.7556 84.6437 66.6487C84.993 66.7227 85.3202 66.8785 85.599 67.1036C85.8778 67.3287 86.1004 67.6168 86.2489 67.9448C86.3053 68.0907 86.4055 68.215 86.5355 68.3004C86.7344 68.3941 86.9526 68.4382 87.1719 68.429C87.3911 68.4197 87.605 68.3574 87.7954 68.2473C88.1024 68.1192 88.2097 68.0957 88.329 68.1715C88.4603 68.2542 88.4986 68.3725 88.5661 68.666C88.6007 68.9236 88.691 69.1705 88.8307 69.3888C88.9704 69.6072 89.156 69.7918 89.3743 69.9294C89.5804 70.0843 89.7671 70.2638 89.9304 70.4641C90.2264 70.8752 90.6108 71.2131 91.0546 71.4525C91.4985 71.6918 91.9903 71.8263 92.493 71.8458C92.9534 71.8382 93.4095 71.7554 93.8438 71.6009C93.9412 71.568 94.0217 71.4973 94.0676 71.4045C94.1134 71.3116 94.1209 71.2041 94.0884 71.1056C94.0559 71.0072 93.986 70.9258 93.8941 70.8795C93.8022 70.8331 93.6958 70.8255 93.5984 70.8584C91.8605 71.4439 91.1685 70.6779 90.5007 69.9362C90.2917 69.6801 90.0494 69.4539 89.7803 69.2636C89.6499 69.1785 89.5405 69.0645 89.4603 68.9301C89.3802 68.7958 89.3315 68.6447 89.318 68.4885C89.296 68.2924 89.2328 68.1034 89.1326 67.9341C89.0325 67.7647 88.8976 67.6189 88.7372 67.5064C88.5463 67.401 88.3315 67.3474 88.114 67.351C87.8964 67.3546 87.6835 67.4152 87.496 67.5269C87.2364 67.6353 87.0976 67.6831 86.9632 67.6399L86.9302 67.5762C86.7145 67.1355 86.4053 66.7484 86.0245 66.4424C86.7984 66.383 87.5764 66.4061 88.3455 66.5114C88.4603 66.5251 88.5624 66.5372 88.6517 66.5448C89.0356 66.5384 89.4178 66.4919 89.7923 66.406C90.3102 66.2821 90.8425 66.2311 91.3742 66.2544C91.3839 66.2544 91.3982 66.2544 91.408 66.2544C91.2106 66.7488 90.8301 68.0289 91.8237 68.7653C92.2634 69.0914 92.8255 68.9223 93.4213 68.7448C93.7154 68.5953 94.0402 68.5183 94.3694 68.5198C94.6986 68.5214 95.0227 68.6016 95.3153 68.754C96.0117 69.2848 96.3381 69.2658 96.7246 69.1839C96.9497 69.1377 97.1794 69.0907 97.86 69.438C98.4755 69.7967 98.9379 70.3729 99.1582 71.0556C99.3833 71.5698 99.6355 72.1537 100.278 72.0475C100.541 72.031 100.803 72.1025 101.022 72.2511C101.241 72.3997 101.405 72.6171 101.49 72.8696C101.579 73.074 101.59 73.3045 101.521 73.5167C101.451 73.7288 101.307 73.9074 101.115 74.0178C100.28 74.5532 98.7477 74.3499 97.4375 72.9265C97.4042 72.8847 97.3627 72.8504 97.3157 72.8255C97.2686 72.8007 97.217 72.7858 97.1641 72.782C97.1111 72.7781 97.058 72.7853 97.0079 72.8031C96.9578 72.8208 96.9118 72.8488 96.8729 72.8853C96.834 72.9218 96.8029 72.9659 96.7816 73.0151C96.7603 73.0642 96.7492 73.1173 96.749 73.1709C96.7488 73.2246 96.7595 73.2777 96.7805 73.3269C96.8015 73.3762 96.8323 73.4206 96.8709 73.4573C97.2732 73.9352 97.7685 74.3243 98.3259 74.6004C98.8834 74.8764 99.4911 75.0336 100.111 75.0621C100.611 75.0715 101.104 74.938 101.532 74.6768C101.877 74.4718 102.137 74.1469 102.263 73.7627C102.389 73.3785 102.372 72.961 102.216 72.5882C102.131 72.3702 102.011 72.1678 101.861 71.9892C101.998 71.812 102.196 71.6947 102.416 71.6615C102.791 71.6547 103.173 72.0445 103.424 72.3881C103.847 72.8299 104.383 73.1448 104.972 73.2981C105.074 73.3368 105.228 73.3944 105.38 73.4573C105.728 74.1823 105.976 74.8444 106.13 75.2547C106.194 75.4253 106.24 75.5482 106.268 75.6081C106.395 75.91 106.481 76.2274 106.526 76.5522C106.618 77.0689 106.738 77.5802 106.884 78.0842C107.002 78.3887 107.056 78.7148 107.043 79.0417C107.029 79.3685 106.948 79.6889 106.805 79.9824Z" fill="#034EA2"/>
<defs>
<filter id="filter0_d" x="0" y="0" width="384" height="184" filterUnits="userSpaceOnUse" color-interpolation-filters="sRGB">
<feFlood flood-opacity="0" result="BackgroundImageFix"/>
<feColorMatrix in="SourceAlpha" type="matrix" values="0 0 0 0 0 0 0 0 0 0 0 0 0 0 0 0 0 0 127 0"/>
<feMorphology radius="2" operator="dilate" in="SourceAlpha" result="effect1_dropShadow"/>
<feOffset/>
<feGaussianBlur stdDeviation="5"/>
<feColorMatrix type="matrix" values="0 0 0 0 0.0117647 0 0 0 0 0.305882 0 0 0 0 0.635294 0 0 0 0.2 0"/>
<feBlend mode="normal" in2="BackgroundImageFix" result="effect1_dropShadow"/>
<feBlend mode="normal" in="SourceGraphic" in2="effect1_dropShadow" result="shape"/>
</filter>
</defs>
</svg>
