<svg width="384" height="182" viewBox="0 0 384 182" fill="none" xmlns="http://www.w3.org/2000/svg">
<g filter="url(#filter0_d)">
<rect x="12" y="12" width="360" height="158" rx="10" fill="white"/>
</g>
<path d="M173.578 56.18C172.294 56.18 171.136 55.904 170.104 55.352C169.072 54.788 168.262 54.014 167.674 53.03C167.086 52.034 166.792 50.924 166.792 49.7C166.792 48.476 167.086 47.372 167.674 46.388C168.262 45.392 169.072 44.618 170.104 44.066C171.136 43.502 172.294 43.22 173.578 43.22C174.862 43.22 176.02 43.502 177.052 44.066C178.084 44.618 178.894 45.386 179.482 46.37C180.07 47.354 180.364 48.464 180.364 49.7C180.364 50.936 180.07 52.046 179.482 53.03C178.894 54.014 178.084 54.788 177.052 55.352C176.02 55.904 174.862 56.18 173.578 56.18ZM173.578 54.128C174.418 54.128 175.174 53.942 175.846 53.57C176.518 53.186 177.046 52.658 177.43 51.986C177.814 51.302 178.006 50.54 178.006 49.7C178.006 48.86 177.814 48.104 177.43 47.432C177.046 46.748 176.518 46.22 175.846 45.848C175.174 45.464 174.418 45.272 173.578 45.272C172.738 45.272 171.982 45.464 171.31 45.848C170.638 46.22 170.11 46.748 169.726 47.432C169.342 48.104 169.15 48.86 169.15 49.7C169.15 50.54 169.342 51.302 169.726 51.986C170.11 52.658 170.638 53.186 171.31 53.57C171.982 53.942 172.738 54.128 173.578 54.128ZM185.13 47.792C185.778 46.784 186.918 46.28 188.55 46.28V48.422C188.358 48.386 188.184 48.368 188.028 48.368C187.152 48.368 186.468 48.626 185.976 49.142C185.484 49.646 185.238 50.378 185.238 51.338V56H182.988V46.388H185.13V47.792ZM200.271 46.388V54.542C200.271 57.926 198.543 59.618 195.087 59.618C194.163 59.618 193.287 59.498 192.459 59.258C191.631 59.03 190.947 58.694 190.407 58.25L191.415 56.558C191.835 56.906 192.363 57.182 192.999 57.386C193.647 57.602 194.301 57.71 194.961 57.71C196.017 57.71 196.791 57.47 197.283 56.99C197.775 56.51 198.021 55.778 198.021 54.794V54.29C197.637 54.71 197.169 55.028 196.617 55.244C196.065 55.46 195.459 55.568 194.799 55.568C193.887 55.568 193.059 55.376 192.315 54.992C191.583 54.596 191.001 54.044 190.569 53.336C190.149 52.628 189.939 51.818 189.939 50.906C189.939 49.994 190.149 49.19 190.569 48.494C191.001 47.786 191.583 47.24 192.315 46.856C193.059 46.472 193.887 46.28 194.799 46.28C195.495 46.28 196.125 46.394 196.689 46.622C197.265 46.85 197.745 47.198 198.129 47.666V46.388H200.271ZM195.141 53.66C195.993 53.66 196.689 53.408 197.229 52.904C197.781 52.388 198.057 51.722 198.057 50.906C198.057 50.102 197.781 49.448 197.229 48.944C196.689 48.44 195.993 48.188 195.141 48.188C194.277 48.188 193.569 48.44 193.017 48.944C192.477 49.448 192.207 50.102 192.207 50.906C192.207 51.722 192.477 52.388 193.017 52.904C193.569 53.408 194.277 53.66 195.141 53.66ZM207.261 46.28C208.677 46.28 209.757 46.622 210.501 47.306C211.257 47.978 211.635 48.998 211.635 50.366V56H209.511V54.83C209.235 55.25 208.839 55.574 208.323 55.802C207.819 56.018 207.207 56.126 206.487 56.126C205.767 56.126 205.137 56.006 204.597 55.766C204.057 55.514 203.637 55.172 203.337 54.74C203.049 54.296 202.905 53.798 202.905 53.246C202.905 52.382 203.223 51.692 203.859 51.176C204.507 50.648 205.521 50.384 206.901 50.384H209.385V50.24C209.385 49.568 209.181 49.052 208.773 48.692C208.377 48.332 207.783 48.152 206.991 48.152C206.451 48.152 205.917 48.236 205.389 48.404C204.873 48.572 204.435 48.806 204.075 49.106L203.193 47.468C203.697 47.084 204.303 46.79 205.011 46.586C205.719 46.382 206.469 46.28 207.261 46.28ZM206.955 54.488C207.519 54.488 208.017 54.362 208.449 54.11C208.893 53.846 209.205 53.474 209.385 52.994V51.878H207.063C205.767 51.878 205.119 52.304 205.119 53.156C205.119 53.564 205.281 53.888 205.605 54.128C205.929 54.368 206.379 54.488 206.955 54.488ZM220.337 46.28C221.549 46.28 222.521 46.634 223.253 47.342C223.985 48.05 224.351 49.1 224.351 50.492V56H222.101V50.78C222.101 49.94 221.903 49.31 221.507 48.89C221.111 48.458 220.547 48.242 219.815 48.242C218.987 48.242 218.333 48.494 217.853 48.998C217.373 49.49 217.133 50.204 217.133 51.14V56H214.883V46.388H217.025V47.63C217.397 47.186 217.865 46.85 218.429 46.622C218.993 46.394 219.629 46.28 220.337 46.28ZM170.248 72.38H166.072V70.4H176.764V72.38H172.588V83H170.248V72.38ZM180.578 74.792C181.226 73.784 182.366 73.28 183.998 73.28V75.422C183.806 75.386 183.632 75.368 183.476 75.368C182.6 75.368 181.916 75.626 181.424 76.142C180.932 76.646 180.686 77.378 180.686 78.338V83H178.436V73.388H180.578V74.792ZM189.886 73.28C191.302 73.28 192.382 73.622 193.126 74.306C193.882 74.978 194.26 75.998 194.26 77.366V83H192.136V81.83C191.86 82.25 191.464 82.574 190.948 82.802C190.444 83.018 189.832 83.126 189.112 83.126C188.392 83.126 187.762 83.006 187.222 82.766C186.682 82.514 186.262 82.172 185.962 81.74C185.674 81.296 185.53 80.798 185.53 80.246C185.53 79.382 185.848 78.692 186.484 78.176C187.132 77.648 188.146 77.384 189.526 77.384H192.01V77.24C192.01 76.568 191.806 76.052 191.398 75.692C191.002 75.332 190.408 75.152 189.616 75.152C189.076 75.152 188.542 75.236 188.014 75.404C187.498 75.572 187.06 75.806 186.7 76.106L185.818 74.468C186.322 74.084 186.928 73.79 187.636 73.586C188.344 73.382 189.094 73.28 189.886 73.28ZM189.58 81.488C190.144 81.488 190.642 81.362 191.074 81.11C191.518 80.846 191.83 80.474 192.01 79.994V78.878H189.688C188.392 78.878 187.744 79.304 187.744 80.156C187.744 80.564 187.906 80.888 188.23 81.128C188.554 81.368 189.004 81.488 189.58 81.488ZM202.961 73.28C204.173 73.28 205.145 73.634 205.877 74.342C206.609 75.05 206.975 76.1 206.975 77.492V83H204.725V77.78C204.725 76.94 204.527 76.31 204.131 75.89C203.735 75.458 203.171 75.242 202.439 75.242C201.611 75.242 200.957 75.494 200.477 75.998C199.997 76.49 199.757 77.204 199.757 78.14V83H197.507V73.388H199.649V74.63C200.021 74.186 200.489 73.85 201.053 73.622C201.617 73.394 202.253 73.28 202.961 73.28ZM213.159 83.126C212.379 83.126 211.617 83.024 210.873 82.82C210.129 82.616 209.535 82.358 209.091 82.046L209.955 80.336C210.387 80.624 210.903 80.858 211.503 81.038C212.115 81.206 212.715 81.29 213.303 81.29C214.647 81.29 215.319 80.936 215.319 80.228C215.319 79.892 215.145 79.658 214.797 79.526C214.461 79.394 213.915 79.268 213.159 79.148C212.367 79.028 211.719 78.89 211.215 78.734C210.723 78.578 210.291 78.308 209.919 77.924C209.559 77.528 209.379 76.982 209.379 76.286C209.379 75.374 209.757 74.648 210.513 74.108C211.281 73.556 212.313 73.28 213.609 73.28C214.269 73.28 214.929 73.358 215.589 73.514C216.249 73.658 216.789 73.856 217.209 74.108L216.345 75.818C215.529 75.338 214.611 75.098 213.591 75.098C212.931 75.098 212.427 75.2 212.079 75.404C211.743 75.596 211.575 75.854 211.575 76.178C211.575 76.538 211.755 76.796 212.115 76.952C212.487 77.096 213.057 77.234 213.825 77.366C214.593 77.486 215.223 77.624 215.715 77.78C216.207 77.936 216.627 78.2 216.975 78.572C217.335 78.944 217.515 79.472 217.515 80.156C217.515 81.056 217.125 81.776 216.345 82.316C215.565 82.856 214.503 83.126 213.159 83.126ZM225.141 73.28C226.077 73.28 226.911 73.484 227.643 73.892C228.387 74.3 228.969 74.876 229.389 75.62C229.809 76.364 230.019 77.222 230.019 78.194C230.019 79.166 229.809 80.03 229.389 80.786C228.969 81.53 228.387 82.106 227.643 82.514C226.911 82.922 226.077 83.126 225.141 83.126C223.845 83.126 222.819 82.694 222.063 81.83V86.492H219.813V73.388H221.955V74.648C222.327 74.192 222.783 73.85 223.323 73.622C223.875 73.394 224.481 73.28 225.141 73.28ZM224.889 81.2C225.717 81.2 226.395 80.924 226.923 80.372C227.463 79.82 227.733 79.094 227.733 78.194C227.733 77.294 227.463 76.568 226.923 76.016C226.395 75.464 225.717 75.188 224.889 75.188C224.349 75.188 223.863 75.314 223.431 75.566C222.999 75.806 222.657 76.154 222.405 76.61C222.153 77.066 222.027 77.594 222.027 78.194C222.027 78.794 222.153 79.322 222.405 79.778C222.657 80.234 222.999 80.588 223.431 80.84C223.863 81.08 224.349 81.2 224.889 81.2ZM232.513 69.644H234.763V83H232.513V69.644ZM241.748 73.28C243.164 73.28 244.244 73.622 244.988 74.306C245.744 74.978 246.122 75.998 246.122 77.366V83H243.998V81.83C243.722 82.25 243.326 82.574 242.81 82.802C242.306 83.018 241.694 83.126 240.974 83.126C240.254 83.126 239.624 83.006 239.084 82.766C238.544 82.514 238.124 82.172 237.824 81.74C237.536 81.296 237.392 80.798 237.392 80.246C237.392 79.382 237.71 78.692 238.346 78.176C238.994 77.648 240.008 77.384 241.388 77.384H243.872V77.24C243.872 76.568 243.668 76.052 243.26 75.692C242.864 75.332 242.27 75.152 241.478 75.152C240.938 75.152 240.404 75.236 239.876 75.404C239.36 75.572 238.922 75.806 238.562 76.106L237.68 74.468C238.184 74.084 238.79 73.79 239.498 73.586C240.206 73.382 240.956 73.28 241.748 73.28ZM241.442 81.488C242.006 81.488 242.504 81.362 242.936 81.11C243.38 80.846 243.692 80.474 243.872 79.994V78.878H241.55C240.254 78.878 239.606 79.304 239.606 80.156C239.606 80.564 239.768 80.888 240.092 81.128C240.416 81.368 240.866 81.488 241.442 81.488ZM254.824 73.28C256.036 73.28 257.008 73.634 257.74 74.342C258.472 75.05 258.838 76.1 258.838 77.492V83H256.588V77.78C256.588 76.94 256.39 76.31 255.994 75.89C255.598 75.458 255.034 75.242 254.302 75.242C253.474 75.242 252.82 75.494 252.34 75.998C251.86 76.49 251.62 77.204 251.62 78.14V83H249.37V73.388H251.512V74.63C251.884 74.186 252.352 73.85 252.916 73.622C253.48 73.394 254.116 73.28 254.824 73.28ZM267.83 82.478C267.566 82.694 267.242 82.856 266.858 82.964C266.486 83.072 266.09 83.126 265.67 83.126C264.614 83.126 263.798 82.85 263.222 82.298C262.646 81.746 262.358 80.942 262.358 79.886V75.26H260.774V73.46H262.358V71.264H264.608V73.46H267.182V75.26H264.608V79.832C264.608 80.3 264.722 80.66 264.95 80.912C265.178 81.152 265.508 81.272 265.94 81.272C266.444 81.272 266.864 81.14 267.2 80.876L267.83 82.478ZM273.011 83.126C272.231 83.126 271.469 83.024 270.725 82.82C269.981 82.616 269.387 82.358 268.943 82.046L269.807 80.336C270.239 80.624 270.755 80.858 271.355 81.038C271.967 81.206 272.567 81.29 273.155 81.29C274.499 81.29 275.171 80.936 275.171 80.228C275.171 79.892 274.997 79.658 274.649 79.526C274.313 79.394 273.767 79.268 273.011 79.148C272.219 79.028 271.571 78.89 271.067 78.734C270.575 78.578 270.143 78.308 269.771 77.924C269.411 77.528 269.231 76.982 269.231 76.286C269.231 75.374 269.609 74.648 270.365 74.108C271.133 73.556 272.165 73.28 273.461 73.28C274.121 73.28 274.781 73.358 275.441 73.514C276.101 73.658 276.641 73.856 277.061 74.108L276.197 75.818C275.381 75.338 274.463 75.098 273.443 75.098C272.783 75.098 272.279 75.2 271.931 75.404C271.595 75.596 271.427 75.854 271.427 76.178C271.427 76.538 271.607 76.796 271.967 76.952C272.339 77.096 272.909 77.234 273.677 77.366C274.445 77.486 275.075 77.624 275.567 77.78C276.059 77.936 276.479 78.2 276.827 78.572C277.187 78.944 277.367 79.472 277.367 80.156C277.367 81.056 276.977 81.776 276.197 82.316C275.417 82.856 274.355 83.126 273.011 83.126Z" fill="#1C2121"/>
<path d="M170.424 112.316C171.385 112.409 172.118 112.708 172.622 113.212C173.126 113.707 173.378 114.341 173.378 115.116C173.378 115.676 173.238 116.185 172.958 116.642C172.678 117.09 172.258 117.449 171.698 117.72C171.147 117.981 170.471 118.112 169.668 118.112C168.968 118.112 168.296 118.009 167.652 117.804C167.008 117.589 166.481 117.295 166.07 116.922L166.714 115.816C167.05 116.133 167.479 116.39 168.002 116.586C168.525 116.773 169.08 116.866 169.668 116.866C170.396 116.866 170.961 116.712 171.362 116.404C171.773 116.096 171.978 115.671 171.978 115.13C171.978 114.589 171.777 114.169 171.376 113.87C170.975 113.571 170.368 113.422 169.556 113.422H168.772V112.442L171.236 109.418H166.518V108.2H172.986V109.152L170.424 112.316ZM182.377 118.112C181.64 118.112 180.926 118 180.235 117.776C179.554 117.543 179.017 117.244 178.625 116.88L179.143 115.788C179.517 116.124 179.993 116.399 180.571 116.614C181.159 116.819 181.761 116.922 182.377 116.922C183.189 116.922 183.796 116.787 184.197 116.516C184.599 116.236 184.799 115.867 184.799 115.41C184.799 115.074 184.687 114.803 184.463 114.598C184.249 114.383 183.978 114.22 183.651 114.108C183.334 113.996 182.881 113.87 182.293 113.73C181.556 113.553 180.959 113.375 180.501 113.198C180.053 113.021 179.666 112.75 179.339 112.386C179.022 112.013 178.863 111.513 178.863 110.888C178.863 110.365 178.999 109.894 179.269 109.474C179.549 109.054 179.969 108.718 180.529 108.466C181.089 108.214 181.785 108.088 182.615 108.088C183.194 108.088 183.763 108.163 184.323 108.312C184.883 108.461 185.364 108.676 185.765 108.956L185.303 110.076C184.893 109.815 184.454 109.619 183.987 109.488C183.521 109.348 183.063 109.278 182.615 109.278C181.822 109.278 181.225 109.423 180.823 109.712C180.431 110.001 180.235 110.375 180.235 110.832C180.235 111.168 180.347 111.443 180.571 111.658C180.795 111.863 181.071 112.027 181.397 112.148C181.733 112.26 182.186 112.381 182.755 112.512C183.493 112.689 184.085 112.867 184.533 113.044C184.981 113.221 185.364 113.492 185.681 113.856C186.008 114.22 186.171 114.71 186.171 115.326C186.171 115.839 186.031 116.311 185.751 116.74C185.471 117.16 185.047 117.496 184.477 117.748C183.908 117.991 183.208 118.112 182.377 118.112ZM192.095 110.51C192.813 110.51 193.457 110.669 194.027 110.986C194.596 111.303 195.039 111.747 195.357 112.316C195.683 112.885 195.847 113.543 195.847 114.29C195.847 115.037 195.683 115.699 195.357 116.278C195.039 116.847 194.596 117.291 194.027 117.608C193.457 117.925 192.813 118.084 192.095 118.084C191.563 118.084 191.073 117.981 190.625 117.776C190.186 117.571 189.813 117.272 189.505 116.88V120.716H188.161V110.58H189.449V111.756C189.747 111.345 190.125 111.037 190.583 110.832C191.04 110.617 191.544 110.51 192.095 110.51ZM191.983 116.908C192.459 116.908 192.883 116.801 193.257 116.586C193.639 116.362 193.938 116.054 194.153 115.662C194.377 115.261 194.489 114.803 194.489 114.29C194.489 113.777 194.377 113.324 194.153 112.932C193.938 112.531 193.639 112.223 193.257 112.008C192.883 111.793 192.459 111.686 191.983 111.686C191.516 111.686 191.091 111.798 190.709 112.022C190.335 112.237 190.037 112.54 189.813 112.932C189.598 113.324 189.491 113.777 189.491 114.29C189.491 114.803 189.598 115.261 189.813 115.662C190.027 116.054 190.326 116.362 190.709 116.586C191.091 116.801 191.516 116.908 191.983 116.908ZM204.55 114.332C204.55 114.435 204.54 114.57 204.522 114.738H198.502C198.586 115.391 198.87 115.919 199.356 116.32C199.85 116.712 200.462 116.908 201.19 116.908C202.076 116.908 202.79 116.609 203.332 116.012L204.074 116.88C203.738 117.272 203.318 117.571 202.814 117.776C202.319 117.981 201.764 118.084 201.148 118.084C200.364 118.084 199.668 117.925 199.062 117.608C198.455 117.281 197.984 116.829 197.648 116.25C197.321 115.671 197.158 115.018 197.158 114.29C197.158 113.571 197.316 112.923 197.634 112.344C197.96 111.765 198.404 111.317 198.964 111C199.533 110.673 200.172 110.51 200.882 110.51C201.591 110.51 202.221 110.673 202.772 111C203.332 111.317 203.766 111.765 204.074 112.344C204.391 112.923 204.55 113.585 204.55 114.332ZM200.882 111.644C200.238 111.644 199.696 111.84 199.258 112.232C198.828 112.624 198.576 113.137 198.502 113.772H203.262C203.187 113.147 202.93 112.638 202.492 112.246C202.062 111.845 201.526 111.644 200.882 111.644ZM209.79 118.084C209.034 118.084 208.357 117.921 207.76 117.594C207.172 117.267 206.71 116.819 206.374 116.25C206.038 115.671 205.87 115.018 205.87 114.29C205.87 113.562 206.038 112.913 206.374 112.344C206.71 111.765 207.172 111.317 207.76 111C208.357 110.673 209.034 110.51 209.79 110.51C210.462 110.51 211.059 110.645 211.582 110.916C212.114 111.187 212.525 111.579 212.814 112.092L211.792 112.75C211.559 112.395 211.269 112.129 210.924 111.952C210.579 111.775 210.196 111.686 209.776 111.686C209.291 111.686 208.852 111.793 208.46 112.008C208.077 112.223 207.774 112.531 207.55 112.932C207.335 113.324 207.228 113.777 207.228 114.29C207.228 114.813 207.335 115.275 207.55 115.676C207.774 116.068 208.077 116.371 208.46 116.586C208.852 116.801 209.291 116.908 209.776 116.908C210.196 116.908 210.579 116.819 210.924 116.642C211.269 116.465 211.559 116.199 211.792 115.844L212.814 116.488C212.525 117.001 212.114 117.398 211.582 117.678C211.059 117.949 210.462 118.084 209.79 118.084ZM214.694 110.58H216.038V118H214.694V110.58ZM215.366 109.152C215.105 109.152 214.885 109.068 214.708 108.9C214.54 108.732 214.456 108.527 214.456 108.284C214.456 108.041 214.54 107.836 214.708 107.668C214.885 107.491 215.105 107.402 215.366 107.402C215.627 107.402 215.842 107.486 216.01 107.654C216.187 107.813 216.276 108.013 216.276 108.256C216.276 108.508 216.187 108.723 216.01 108.9C215.842 109.068 215.627 109.152 215.366 109.152ZM221.446 110.51C222.473 110.51 223.257 110.762 223.798 111.266C224.349 111.77 224.624 112.521 224.624 113.52V118H223.35V117.02C223.126 117.365 222.804 117.631 222.384 117.818C221.974 117.995 221.484 118.084 220.914 118.084C220.084 118.084 219.416 117.883 218.912 117.482C218.418 117.081 218.17 116.553 218.17 115.9C218.17 115.247 218.408 114.724 218.884 114.332C219.36 113.931 220.116 113.73 221.152 113.73H223.28V113.464C223.28 112.885 223.112 112.442 222.776 112.134C222.44 111.826 221.946 111.672 221.292 111.672C220.854 111.672 220.424 111.747 220.004 111.896C219.584 112.036 219.23 112.227 218.94 112.47L218.38 111.462C218.763 111.154 219.22 110.921 219.752 110.762C220.284 110.594 220.849 110.51 221.446 110.51ZM221.138 117.048C221.652 117.048 222.095 116.936 222.468 116.712C222.842 116.479 223.112 116.152 223.28 115.732V114.696H221.208C220.07 114.696 219.5 115.079 219.5 115.844C219.5 116.217 219.645 116.511 219.934 116.726C220.224 116.941 220.625 117.048 221.138 117.048ZM227.251 107.612H228.595V118H227.251V107.612ZM231.302 110.58H232.646V118H231.302V110.58ZM231.974 109.152C231.712 109.152 231.493 109.068 231.316 108.9C231.148 108.732 231.064 108.527 231.064 108.284C231.064 108.041 231.148 107.836 231.316 107.668C231.493 107.491 231.712 107.402 231.974 107.402C232.235 107.402 232.45 107.486 232.618 107.654C232.795 107.813 232.884 108.013 232.884 108.256C232.884 108.508 232.795 108.723 232.618 108.9C232.45 109.068 232.235 109.152 231.974 109.152ZM239.524 117.566C239.328 117.734 239.085 117.865 238.796 117.958C238.506 118.042 238.208 118.084 237.9 118.084C237.153 118.084 236.574 117.883 236.164 117.482C235.753 117.081 235.548 116.507 235.548 115.76V111.686H234.288V110.58H235.548V108.956H236.892V110.58H239.02V111.686H236.892V115.704C236.892 116.105 236.99 116.413 237.186 116.628C237.391 116.843 237.68 116.95 238.054 116.95C238.464 116.95 238.814 116.833 239.104 116.6L239.524 117.566ZM241.289 110.58H242.633V118H241.289V110.58ZM241.961 109.152C241.699 109.152 241.48 109.068 241.303 108.9C241.135 108.732 241.051 108.527 241.051 108.284C241.051 108.041 241.135 107.836 241.303 107.668C241.48 107.491 241.699 107.402 241.961 107.402C242.222 107.402 242.437 107.486 242.605 107.654C242.782 107.813 242.871 108.013 242.871 108.256C242.871 108.508 242.782 108.723 242.605 108.9C242.437 109.068 242.222 109.152 241.961 109.152ZM252.045 114.332C252.045 114.435 252.035 114.57 252.017 114.738H245.997C246.081 115.391 246.365 115.919 246.851 116.32C247.345 116.712 247.957 116.908 248.685 116.908C249.571 116.908 250.285 116.609 250.827 116.012L251.569 116.88C251.233 117.272 250.813 117.571 250.309 117.776C249.814 117.981 249.259 118.084 248.643 118.084C247.859 118.084 247.163 117.925 246.557 117.608C245.95 117.281 245.479 116.829 245.143 116.25C244.816 115.671 244.653 115.018 244.653 114.29C244.653 113.571 244.811 112.923 245.129 112.344C245.455 111.765 245.899 111.317 246.459 111C247.028 110.673 247.667 110.51 248.377 110.51C249.086 110.51 249.716 110.673 250.267 111C250.827 111.317 251.261 111.765 251.569 112.344C251.886 112.923 252.045 113.585 252.045 114.332ZM248.377 111.644C247.733 111.644 247.191 111.84 246.753 112.232C246.323 112.624 246.071 113.137 245.997 113.772H250.757C250.682 113.147 250.425 112.638 249.987 112.246C249.557 111.845 249.021 111.644 248.377 111.644ZM256.179 118.084C255.572 118.084 254.989 118.005 254.429 117.846C253.869 117.678 253.43 117.468 253.113 117.216L253.673 116.152C254 116.385 254.396 116.572 254.863 116.712C255.33 116.852 255.801 116.922 256.277 116.922C257.453 116.922 258.041 116.586 258.041 115.914C258.041 115.69 257.962 115.513 257.803 115.382C257.644 115.251 257.444 115.158 257.201 115.102C256.968 115.037 256.632 114.967 256.193 114.892C255.596 114.799 255.106 114.691 254.723 114.57C254.35 114.449 254.028 114.243 253.757 113.954C253.486 113.665 253.351 113.259 253.351 112.736C253.351 112.064 253.631 111.527 254.191 111.126C254.751 110.715 255.502 110.51 256.445 110.51C256.94 110.51 257.434 110.571 257.929 110.692C258.424 110.813 258.83 110.977 259.147 111.182L258.573 112.246C257.966 111.854 257.252 111.658 256.431 111.658C255.862 111.658 255.428 111.751 255.129 111.938C254.83 112.125 254.681 112.372 254.681 112.68C254.681 112.923 254.765 113.114 254.933 113.254C255.101 113.394 255.306 113.497 255.549 113.562C255.801 113.627 256.151 113.702 256.599 113.786C257.196 113.889 257.677 114.001 258.041 114.122C258.414 114.234 258.732 114.43 258.993 114.71C259.254 114.99 259.385 115.382 259.385 115.886C259.385 116.558 259.096 117.095 258.517 117.496C257.948 117.888 257.168 118.084 256.179 118.084Z" fill="#1C2121"/>
<path d="M175.198 142.592H173.336V145H171.978V142.592H166.532V141.612L171.544 135.2H173.056L168.254 141.388H172.02V139.26H173.336V141.388H175.198V142.592ZM180.875 135.2H185.005C186.041 135.2 186.96 135.405 187.763 135.816C188.566 136.227 189.186 136.805 189.625 137.552C190.073 138.289 190.297 139.139 190.297 140.1C190.297 141.061 190.073 141.915 189.625 142.662C189.186 143.399 188.566 143.973 187.763 144.384C186.96 144.795 186.041 145 185.005 145H180.875V135.2ZM184.921 143.782C185.714 143.782 186.41 143.628 187.007 143.32C187.614 143.012 188.08 142.583 188.407 142.032C188.734 141.472 188.897 140.828 188.897 140.1C188.897 139.372 188.734 138.733 188.407 138.182C188.08 137.622 187.614 137.188 187.007 136.88C186.41 136.572 185.714 136.418 184.921 136.418H182.275V143.782H184.921ZM195.563 145.084C194.826 145.084 194.163 144.921 193.575 144.594C192.987 144.267 192.525 143.819 192.189 143.25C191.863 142.671 191.699 142.018 191.699 141.29C191.699 140.562 191.863 139.913 192.189 139.344C192.525 138.765 192.987 138.317 193.575 138C194.163 137.673 194.826 137.51 195.563 137.51C196.301 137.51 196.959 137.673 197.537 138C198.125 138.317 198.583 138.765 198.909 139.344C199.245 139.913 199.413 140.562 199.413 141.29C199.413 142.018 199.245 142.671 198.909 143.25C198.583 143.819 198.125 144.267 197.537 144.594C196.959 144.921 196.301 145.084 195.563 145.084ZM195.563 143.908C196.039 143.908 196.464 143.801 196.837 143.586C197.22 143.362 197.519 143.054 197.733 142.662C197.948 142.261 198.055 141.803 198.055 141.29C198.055 140.777 197.948 140.324 197.733 139.932C197.519 139.531 197.22 139.223 196.837 139.008C196.464 138.793 196.039 138.686 195.563 138.686C195.087 138.686 194.658 138.793 194.275 139.008C193.902 139.223 193.603 139.531 193.379 139.932C193.165 140.324 193.057 140.777 193.057 141.29C193.057 141.803 193.165 142.261 193.379 142.662C193.603 143.054 193.902 143.362 194.275 143.586C194.658 143.801 195.087 143.908 195.563 143.908ZM204.646 145.084C203.89 145.084 203.213 144.921 202.616 144.594C202.028 144.267 201.566 143.819 201.23 143.25C200.894 142.671 200.726 142.018 200.726 141.29C200.726 140.562 200.894 139.913 201.23 139.344C201.566 138.765 202.028 138.317 202.616 138C203.213 137.673 203.89 137.51 204.646 137.51C205.318 137.51 205.915 137.645 206.438 137.916C206.97 138.187 207.381 138.579 207.67 139.092L206.648 139.75C206.415 139.395 206.125 139.129 205.78 138.952C205.435 138.775 205.052 138.686 204.632 138.686C204.147 138.686 203.708 138.793 203.316 139.008C202.933 139.223 202.63 139.531 202.406 139.932C202.191 140.324 202.084 140.777 202.084 141.29C202.084 141.813 202.191 142.275 202.406 142.676C202.63 143.068 202.933 143.371 203.316 143.586C203.708 143.801 204.147 143.908 204.632 143.908C205.052 143.908 205.435 143.819 205.78 143.642C206.125 143.465 206.415 143.199 206.648 142.844L207.67 143.488C207.381 144.001 206.97 144.398 206.438 144.678C205.915 144.949 205.318 145.084 204.646 145.084ZM213.818 144.566C213.622 144.734 213.379 144.865 213.09 144.958C212.801 145.042 212.502 145.084 212.194 145.084C211.447 145.084 210.869 144.883 210.458 144.482C210.047 144.081 209.842 143.507 209.842 142.76V138.686H208.582V137.58H209.842V135.956H211.186V137.58H213.314V138.686H211.186V142.704C211.186 143.105 211.284 143.413 211.48 143.628C211.685 143.843 211.975 143.95 212.348 143.95C212.759 143.95 213.109 143.833 213.398 143.6L213.818 144.566ZM218.515 145.084C217.777 145.084 217.115 144.921 216.527 144.594C215.939 144.267 215.477 143.819 215.141 143.25C214.814 142.671 214.651 142.018 214.651 141.29C214.651 140.562 214.814 139.913 215.141 139.344C215.477 138.765 215.939 138.317 216.527 138C217.115 137.673 217.777 137.51 218.515 137.51C219.252 137.51 219.91 137.673 220.489 138C221.077 138.317 221.534 138.765 221.861 139.344C222.197 139.913 222.365 140.562 222.365 141.29C222.365 142.018 222.197 142.671 221.861 143.25C221.534 143.819 221.077 144.267 220.489 144.594C219.91 144.921 219.252 145.084 218.515 145.084ZM218.515 143.908C218.991 143.908 219.415 143.801 219.789 143.586C220.171 143.362 220.47 143.054 220.685 142.662C220.899 142.261 221.007 141.803 221.007 141.29C221.007 140.777 220.899 140.324 220.685 139.932C220.47 139.531 220.171 139.223 219.789 139.008C219.415 138.793 218.991 138.686 218.515 138.686C218.039 138.686 217.609 138.793 217.227 139.008C216.853 139.223 216.555 139.531 216.331 139.932C216.116 140.324 216.009 140.777 216.009 141.29C216.009 141.803 216.116 142.261 216.331 142.662C216.555 143.054 216.853 143.362 217.227 143.586C217.609 143.801 218.039 143.908 218.515 143.908ZM225.651 138.826C225.885 138.397 226.23 138.07 226.687 137.846C227.145 137.622 227.7 137.51 228.353 137.51V138.812C228.279 138.803 228.176 138.798 228.045 138.798C227.317 138.798 226.743 139.017 226.323 139.456C225.913 139.885 225.707 140.501 225.707 141.304V145H224.363V137.58H225.651V138.826ZM232.333 145.084C231.726 145.084 231.143 145.005 230.583 144.846C230.023 144.678 229.584 144.468 229.267 144.216L229.827 143.152C230.153 143.385 230.55 143.572 231.017 143.712C231.483 143.852 231.955 143.922 232.431 143.922C233.607 143.922 234.195 143.586 234.195 142.914C234.195 142.69 234.115 142.513 233.957 142.382C233.798 142.251 233.597 142.158 233.355 142.102C233.121 142.037 232.785 141.967 232.347 141.892C231.749 141.799 231.259 141.691 230.877 141.57C230.503 141.449 230.181 141.243 229.911 140.954C229.64 140.665 229.505 140.259 229.505 139.736C229.505 139.064 229.785 138.527 230.345 138.126C230.905 137.715 231.656 137.51 232.599 137.51C233.093 137.51 233.588 137.571 234.083 137.692C234.577 137.813 234.983 137.977 235.301 138.182L234.727 139.246C234.12 138.854 233.406 138.658 232.585 138.658C232.015 138.658 231.581 138.751 231.283 138.938C230.984 139.125 230.835 139.372 230.835 139.68C230.835 139.923 230.919 140.114 231.087 140.254C231.255 140.394 231.46 140.497 231.703 140.562C231.955 140.627 232.305 140.702 232.753 140.786C233.35 140.889 233.831 141.001 234.195 141.122C234.568 141.234 234.885 141.43 235.147 141.71C235.408 141.99 235.539 142.382 235.539 142.886C235.539 143.558 235.249 144.095 234.671 144.496C234.101 144.888 233.322 145.084 232.333 145.084Z" fill="#1C2121"/>
<circle cx="92" cy="83.2856" r="60" fill="#E7EEF5"/>
<path d="M55 94.5516V81.868H55.6514C60.9788 81.868 66.2997 81.8955 71.6239 81.8543C72.6786 81.83 73.7269 82.0248 74.7023 82.4265C75.6777 82.8282 76.559 83.428 77.2903 84.1878C81.3989 88.2745 85.504 92.3663 89.6055 96.4632C90.1906 97.0203 90.5466 97.7755 90.6038 98.5811C90.6609 99.3867 90.4152 100.185 89.9147 100.819C89.4211 101.42 88.7299 101.827 87.9642 101.967C87.1986 102.107 86.408 101.971 85.7334 101.583C85.3741 101.366 85.044 101.105 84.7511 100.805C82.59 98.6966 80.4348 96.5815 78.2856 94.4596C78.2242 94.3983 78.1572 94.3435 78.0434 94.2426L76.8432 95.6945C77.9732 96.8318 79.0774 97.9577 80.1978 99.0684C81.3182 100.179 82.491 101.246 83.5775 102.391C85.4897 104.407 89.3658 104.221 90.9721 102.559C91.6053 101.798 92.1409 100.96 92.5663 100.065C92.7148 99.8008 92.8132 99.6677 93.1313 99.6685C98.8405 99.6887 104.55 99.6871 110.26 99.7161C110.978 99.6968 111.685 99.8914 112.292 100.275C112.899 100.659 113.378 101.214 113.668 101.87C113.965 102.521 114.072 103.243 113.975 103.952C113.878 104.661 113.582 105.328 113.121 105.875C112.831 106.295 112.443 106.64 111.991 106.879C111.54 107.118 111.037 107.246 110.526 107.25C110.298 107.261 110.069 107.264 109.842 107.264C101.073 107.264 92.3047 107.238 83.5371 107.285C81.7037 107.308 79.9203 106.687 78.4987 105.53C75.3216 103.063 72.1115 100.641 68.9126 98.2046C67.3789 97.0391 65.8534 95.8752 64.3116 94.7282C64.1158 94.5956 63.8847 94.5245 63.6482 94.5241C60.9958 94.5241 58.3425 94.5386 55.6901 94.5507L55 94.5516Z" fill="#0C51A1"/>
<path d="M89.1075 75.0043H123.749C123.749 75.7584 123.765 76.498 123.749 77.2361C123.651 80.7915 123.547 84.3469 123.438 87.9023C123.385 89.6034 123.37 91.3085 123.246 93.0056C123.242 93.3645 123.164 93.7187 123.016 94.0458C122.868 94.3729 122.654 94.6658 122.387 94.9061C122.121 95.1464 121.807 95.3289 121.466 95.442C121.125 95.5551 120.764 95.5964 120.407 95.5632C119.232 95.5689 118.057 95.5632 116.882 95.5632C108.795 95.5632 100.708 95.5415 92.6212 95.5786C92.231 95.6019 91.8403 95.5439 91.4738 95.4082C91.1073 95.2726 90.7731 95.0623 90.4922 94.7907C90.2114 94.5191 89.9901 94.1921 89.8425 93.8305C89.6948 93.469 89.624 93.0806 89.6346 92.6902C89.5625 89.7392 89.4791 86.7887 89.3844 83.8388C89.298 81.0028 89.2011 78.1669 89.1091 75.3309C89.1043 75.2373 89.1075 75.1357 89.1075 75.0043ZM108.929 86.3005H114.044V81.9611H108.924V81.5053C108.924 80.0914 108.914 78.6774 108.93 77.2635C108.93 76.9296 108.86 76.8054 108.495 76.8126C107.333 76.8376 106.171 76.8223 105.008 76.8223H104.605V81.9893H99.4467V86.3206H104.622V91.4328H108.932L108.929 86.3005Z" fill="#0C51A1"/>
<path d="M88.2601 73.561C88.1624 71.8524 88.2883 70.1385 88.6346 68.4625C88.7005 68.1291 88.8689 67.8245 89.1164 67.5913C89.3638 67.3581 89.6779 67.2078 90.0149 67.1615C92.872 66.5502 95.7588 66.0871 98.6638 65.7742C100.935 65.558 103.219 65.4241 105.499 65.3644C110.551 65.2723 115.599 65.7215 120.555 66.7042C121.411 66.8655 122.259 67.0696 123.119 67.2035C123.376 67.239 123.614 67.356 123.8 67.5372C123.985 67.7184 124.107 67.9543 124.148 68.2101C124.47 69.4941 124.637 70.812 124.645 72.1357C124.667 72.6003 124.645 73.0673 124.645 73.561H88.2601Z" fill="#0C51A1"/>
<path d="M87.6675 82.197C87.0791 82.2371 86.4891 82.1493 85.9379 81.9396C85.3868 81.7299 84.8877 81.4033 84.4751 80.9823C84.1319 80.6214 83.9411 80.1421 83.9423 79.6442C83.931 78.6473 83.9464 77.6496 83.9496 76.6526C83.9493 76.4127 83.9966 76.1752 84.0887 75.9537C84.1809 75.7321 84.316 75.5311 84.4864 75.3621C84.6197 75.2241 84.7217 75.059 84.7852 74.878C84.8488 74.697 84.8724 74.5045 84.8544 74.3135C84.7907 71.4098 84.7301 68.5109 84.7003 65.6089C84.6761 63.2165 85.7157 61.8114 87.9887 61.0226C89.4934 60.5143 91.0564 60.1986 92.6405 60.0829C96.1356 59.7966 99.6315 59.4909 103.134 59.3457C105.83 59.2344 108.538 59.2941 111.236 59.3925C113.981 59.4933 116.729 59.6982 119.47 59.9281C121.21 60.0361 122.934 60.3361 124.608 60.8226C125.628 61.0843 126.551 61.6304 127.272 62.397C127.925 63.1643 128.267 64.1487 128.229 65.1556C128.194 68.1456 128.138 71.1348 128.081 74.1248C128.05 74.3394 128.068 74.5583 128.134 74.7649C128.2 74.9716 128.312 75.1605 128.462 75.3177C128.651 75.5127 128.797 75.7463 128.888 76.0026C128.979 76.2588 129.014 76.5317 128.99 76.8026C128.963 77.5842 128.95 78.3698 128.99 79.1506C129.041 79.7278 128.892 80.3048 128.569 80.7859C128.246 81.267 127.768 81.6232 127.215 81.7954C126.617 82.0673 125.959 82.1801 125.305 82.1229C125.305 81.334 125.293 80.5549 125.305 79.7765C125.339 77.9214 125.385 76.0662 125.425 74.2151C125.486 71.3765 125.546 68.5386 125.606 65.7016C125.606 65.6387 125.606 65.5758 125.606 65.5121C125.606 64.3522 125.346 63.9376 124.139 63.4706C122.836 63.0261 121.481 62.7507 120.108 62.6511C116.079 62.1898 112.036 62.0058 107.979 61.9365C104.382 61.8874 100.785 62.0193 97.2019 62.3317C95.0543 62.5108 92.9109 62.743 90.7719 63.0286C89.8186 63.138 88.8962 63.434 88.0573 63.8997C87.8642 63.9981 87.7011 64.1464 87.5849 64.3293C87.4688 64.5122 87.4039 64.7229 87.3971 64.9394C87.3656 65.9476 87.3511 66.9558 87.368 67.9649C87.4043 70.1217 87.4665 72.2777 87.5141 74.4345C87.5679 76.793 87.6185 79.1514 87.6659 81.5098C87.6715 81.722 87.6675 81.9317 87.6675 82.197Z" fill="#0C51A1"/>
<path d="M108.93 86.3002V91.4324H104.62V86.3203H99.4443V81.9889H104.602V76.822H105.006C106.168 76.822 107.33 76.8373 108.493 76.8123C108.858 76.8051 108.931 76.9292 108.928 77.2632C108.912 78.6771 108.921 80.0911 108.921 81.505V81.9607H114.041V86.3002H108.93Z" fill="#E7EEF5"/>
<defs>
<filter id="filter0_d" x="0" y="0" width="384" height="182" filterUnits="userSpaceOnUse" color-interpolation-filters="sRGB">
<feFlood flood-opacity="0" result="BackgroundImageFix"/>
<feColorMatrix in="SourceAlpha" type="matrix" values="0 0 0 0 0 0 0 0 0 0 0 0 0 0 0 0 0 0 127 0"/>
<feMorphology radius="2" operator="dilate" in="SourceAlpha" result="effect1_dropShadow"/>
<feOffset/>
<feGaussianBlur stdDeviation="5"/>
<feColorMatrix type="matrix" values="0 0 0 0 0.0117647 0 0 0 0 0.305882 0 0 0 0 0.635294 0 0 0 0.2 0"/>
<feBlend mode="normal" in2="BackgroundImageFix" result="effect1_dropShadow"/>
<feBlend mode="normal" in="SourceGraphic" in2="effect1_dropShadow" result="shape"/>
</filter>
</defs>
</svg>
