<svg width="41" height="35" viewBox="0 0 41 35" fill="none" xmlns="http://www.w3.org/2000/svg">
<path d="M16.2897 17.9028C17.0769 18.6901 17.8586 19.4646 18.6261 20.2519C18.6614 20.3015 18.6859 20.358 18.698 20.4178C18.7101 20.4775 18.7097 20.5391 18.6965 20.5986C18.4655 21.5649 18.0161 22.4654 17.3828 23.2309C15.3699 25.7447 12.6609 27.6097 9.59433 28.5929C8.62814 28.9568 7.58495 29.0679 6.56377 28.9156C6.32908 28.8733 6.01691 28.8592 6 28.5668C6.01262 28.3465 6.10712 28.1388 6.26498 27.9846C9.27202 24.9372 12.2847 21.8966 15.303 18.8627C15.618 18.5463 15.9429 18.2397 16.2897 17.9028Z" fill="#034EA2"/>
<path d="M15.3169 28.958C15.004 28.958 14.6903 28.9615 14.3767 28.958C14.1477 28.9537 14.0335 28.8438 14.0243 28.5999C13.9926 27.91 14.0588 27.8332 14.7566 27.8332C15.2266 27.8332 15.6967 27.8289 16.1661 27.8332C16.5643 27.8374 16.6524 27.9466 16.6531 28.4125C16.6538 28.8783 16.5876 28.9523 16.1866 28.958C15.8969 28.9622 15.6079 28.958 15.3183 28.958H15.3169Z" fill="#034EA2"/>
<path d="M28.7721 28.9587C28.4578 28.9587 28.1434 28.9587 27.8291 28.9587C27.7745 28.9666 27.7188 28.9614 27.6666 28.9434C27.6144 28.9254 27.5672 28.8953 27.529 28.8555C27.4908 28.8156 27.4628 28.7672 27.447 28.7143C27.4313 28.6614 27.4284 28.6056 27.4386 28.5514C27.4527 28.2617 27.3477 27.8748 27.791 27.8466C28.419 27.8145 29.0483 27.8145 29.6763 27.8466C30.004 27.8593 30.1245 28.1137 30.0928 28.6028C30.0744 28.8847 29.8814 28.9552 29.6425 28.9601C29.3507 28.9601 29.0625 28.9587 28.7721 28.9587Z" fill="#034EA2"/>
<path d="M24.3313 27.893C24.633 27.893 24.9339 27.8888 25.2355 27.893C25.2929 27.8855 25.3511 27.8916 25.4057 27.9107C25.4603 27.9297 25.5097 27.9613 25.5498 28.0029C25.59 28.0445 25.6198 28.0949 25.637 28.1501C25.6541 28.2053 25.6581 28.2638 25.6486 28.3208C25.6408 28.7979 25.5435 28.9833 25.232 28.9897C24.6174 29.0009 24.0029 29.0009 23.3883 28.9897C22.9908 28.984 22.9909 28.6915 22.9845 28.3997C22.9782 28.108 23.0494 27.8945 23.3912 27.8916C23.7048 27.8874 24.0177 27.893 24.3313 27.893Z" fill="#034EA2"/>
<path d="M19.862 27.8929C20.1746 27.8768 20.488 27.8815 20.8001 27.907C20.8721 27.924 20.9389 27.9587 20.9942 28.0079C21.0496 28.0571 21.0918 28.1194 21.1172 28.189C21.1637 28.7422 21.2271 29.0347 20.4484 28.9966C19.955 28.9727 19.4617 28.9966 18.9684 28.9903C18.6012 28.9867 18.5165 28.8832 18.5151 28.4624C18.5151 27.9937 18.5857 27.8986 18.9599 27.8908C19.2587 27.8873 19.5603 27.8922 19.862 27.8929Z" fill="#034EA2"/>
<path d="M33.2488 27.8937C33.5624 27.8937 33.8768 27.8937 34.1904 27.8937C34.4723 27.8902 34.5787 28.041 34.5766 28.3011C34.5766 28.5781 34.6224 28.9227 34.2313 28.9431C33.5695 28.9776 32.9042 28.9579 32.2403 28.9466C32.1613 28.9466 32.0233 28.8607 32.0169 28.8022C31.9732 28.547 31.9732 28.2863 32.0169 28.0312C32.0359 27.9522 32.3207 27.9134 32.4877 27.8986C32.7393 27.8768 32.9944 27.893 33.2481 27.893L33.2488 27.8937Z" fill="#034EA2"/>
<path d="M31.2536 6.91118C30.7175 6.37085 30.1793 5.83241 29.6389 5.29584C29.2436 4.90258 29.185 4.90186 28.7995 5.29089C25.8042 8.30968 22.8089 11.3287 19.8136 14.348C19.0299 15.1366 18.2406 15.9196 17.4562 16.7076C17.1644 17.0007 17.1651 17.1121 17.4498 17.3982C18.0136 17.962 18.5775 18.5259 19.1413 19.0897C19.2543 19.1868 19.3737 19.2763 19.4986 19.3575C19.617 19.2862 19.7295 19.2053 19.8348 19.1158C23.6448 15.3039 27.4527 11.4899 31.2585 7.67377C31.563 7.37142 31.5602 7.21775 31.2536 6.91118ZM26.1911 10.9432C26.1232 11.0281 26.0503 11.1088 25.9727 11.1849C24.2916 12.8849 22.6095 14.5841 20.9265 16.2826C20.6016 16.6096 20.4769 16.6194 20.1971 16.3692C19.887 16.0916 19.8813 15.9541 20.1759 15.6588C21.9181 13.9162 23.6627 12.1759 25.4096 10.4379C25.4715 10.3752 25.5464 10.3269 25.6292 10.2964C25.7119 10.266 25.8003 10.2541 25.8881 10.2617C26.0671 10.3223 26.1961 10.5267 26.3511 10.6733C26.3037 10.766 26.2512 10.8561 26.194 10.9432H26.1911Z" fill="#034EA2"/>
</svg>
