<svg width="34" height="25" viewBox="0 0 34 25" fill="none" xmlns="http://www.w3.org/2000/svg">
<path d="M16.991 23.6497C12.6597 23.6497 8.32816 23.6497 3.99639 23.6497C3.73432 23.686 3.46758 23.63 3.24384 23.4917C3.0201 23.3534 2.85392 23.1417 2.775 22.8945C2.72743 22.7125 2.72154 22.5223 2.75785 22.3378C2.79416 22.1533 2.87168 21.9788 2.98495 21.8271C4.13426 19.959 5.28141 18.0894 6.42618 16.2182C9.59227 11.0566 12.7592 5.89479 15.9271 0.732735C16.0164 0.572024 16.1282 0.42426 16.2592 0.293729C16.384 0.178959 16.5341 0.0941218 16.6981 0.045864C16.8621 -0.00239381 17.0353 -0.0127483 17.2041 0.0156495C17.3728 0.0440472 17.5325 0.110394 17.6706 0.209478C17.8086 0.308562 17.9212 0.437687 17.9996 0.58663C18.3099 1.06832 18.6004 1.562 18.8998 2.05036L31.0153 21.8064C31.1844 22.0048 31.2808 22.2528 31.2894 22.511C31.2979 22.7692 31.2181 23.0227 31.0624 23.2314C30.9777 23.3445 30.8697 23.439 30.7454 23.5089C30.6212 23.5787 30.4834 23.6224 30.3409 23.6371C30.1936 23.6514 30.0456 23.6568 29.8976 23.6531L16.991 23.6497ZM28.25 21.4808C24.4993 15.3676 20.7675 9.2871 17.0086 3.16121L5.76737 21.4815L28.25 21.4808Z" fill="#034EA2"/>
<path d="M17.0095 3.16113L5.76758 21.4814H28.2502L17.0095 3.16113ZM15.9081 8.64584C15.8947 8.41702 15.9575 8.19012 16.0871 7.9992C16.2167 7.80828 16.4063 7.66366 16.6271 7.58707C16.8345 7.50369 17.0641 7.48896 17.2809 7.54508C17.4977 7.60121 17.6898 7.72513 17.828 7.89797C17.9891 8.11387 18.0837 8.37034 18.1007 8.63716C18.1232 10.4025 18.1198 12.1685 18.1082 13.9344C18.113 14.0795 18.088 14.224 18.0343 14.3593C17.9806 14.4946 17.8993 14.6179 17.7957 14.7217C17.692 14.8255 17.568 14.9078 17.4311 14.9635C17.2941 15.0192 17.1469 15.0472 16.9985 15.0458C16.8502 15.0445 16.7037 15.0138 16.5678 14.9556C16.4319 14.8974 16.3093 14.8129 16.2077 14.7072C16.106 14.6015 16.0274 14.4768 15.9762 14.3406C15.9251 14.2043 15.9027 14.0594 15.9103 13.9144C15.8994 13.0365 15.9103 12.1585 15.9103 11.2805C15.9103 10.4025 15.8986 9.52449 15.9081 8.64584ZM18.0905 18.4184C18.061 18.6756 17.9355 18.913 17.7382 19.0854C17.5409 19.2577 17.2856 19.3528 17.0211 19.3525C16.7515 19.3604 16.4891 19.2674 16.2871 19.0925C16.0851 18.9176 15.9588 18.6739 15.9341 18.4111C15.8952 17.9598 15.8952 17.5061 15.9341 17.0548C15.9611 16.7973 16.0851 16.559 16.2821 16.3863C16.4791 16.2136 16.7348 16.1189 16.9993 16.1207C17.2684 16.1175 17.5292 16.2122 17.7309 16.3866C17.9326 16.5609 18.0608 16.8024 18.0905 17.0641C18.1058 17.2947 18.1073 17.5259 18.0952 17.7566C18.106 17.9772 18.1033 18.1982 18.087 18.4184H18.0905Z" fill="white" stroke="#034EA2" stroke-width="0.566" stroke-miterlimit="10"/>
<path d="M15.9054 11.2806C15.9054 10.4027 15.8986 9.52398 15.9054 8.64599C15.8919 8.41718 15.9547 8.19027 16.0844 7.99935C16.214 7.80843 16.4033 7.66382 16.6241 7.58722C16.8315 7.50389 17.0612 7.48908 17.2779 7.54508C17.4947 7.60107 17.6867 7.72483 17.825 7.89747C17.9863 8.11356 18.0811 8.37027 18.0979 8.63732C18.1211 10.4026 18.1177 12.1686 18.1061 13.9339C18.111 14.079 18.0858 14.2235 18.0322 14.3589C17.9785 14.4942 17.8975 14.6174 17.7939 14.7213C17.6903 14.8252 17.5661 14.9075 17.4291 14.9632C17.2921 15.019 17.1451 15.047 16.9967 15.0457C16.8484 15.0444 16.7019 15.0138 16.566 14.9556C16.4301 14.8975 16.3074 14.813 16.2057 14.7073C16.104 14.6017 16.0253 14.477 15.9741 14.3407C15.923 14.2045 15.9004 14.0595 15.908 13.9146C15.8971 13.0366 15.9054 12.1586 15.9054 11.2806Z" fill="#034EA2"/>
<path d="M18.091 17.7545C18.1033 17.9757 18.1019 18.1974 18.0868 18.4184C18.0573 18.6755 17.932 18.9129 17.7347 19.0853C17.5374 19.2576 17.2821 19.3527 17.0176 19.3524C16.748 19.3603 16.4854 19.2673 16.2834 19.0924C16.0814 18.9175 15.9553 18.6738 15.9306 18.411C15.8916 17.9597 15.8916 17.506 15.9306 17.0547C15.958 16.7974 16.0822 16.5594 16.2791 16.3867C16.4759 16.2141 16.7314 16.1193 16.9958 16.1207C17.2649 16.1177 17.5256 16.2127 17.7272 16.3871C17.9288 16.5615 18.0569 16.803 18.0868 17.0647C18.1019 17.2953 18.1033 17.5265 18.091 17.7572V17.7545Z" fill="#034EA2"/>
<path d="M1 2.875L33 24" stroke="#034EA2" stroke-width="2.168" stroke-miterlimit="10"/>
</svg>
