<svg width="21" height="16" viewBox="0 0 21 16" fill="none" xmlns="http://www.w3.org/2000/svg">
<path d="M16.22 15.16C17.46 15.16 18.48 14.78 19.28 14.02C20.04 13.22 20.42 12.2 20.42 10.96C20.42 9.4 19.78 7.7 18.5 5.86C17.18 3.98 15.44 2.32 13.28 0.879998L12.38 1.78C13.22 2.66 13.88 3.48 14.36 4.24C14.84 5 15.08 5.62 15.08 6.1C15.08 6.38 15 6.64 14.84 6.88C14.64 7.12 14.36 7.38 14 7.66C13.44 8.1 13 8.56 12.68 9.04C12.36 9.52 12.2 10.16 12.2 10.96C12.2 12.2 12.58 13.22 13.34 14.02C14.1 14.78 15.06 15.16 16.22 15.16ZM4.58 15.16C5.82 15.16 6.84 14.78 7.64 14.02C8.4 13.22 8.78 12.2 8.78 10.96C8.78 9.4 8.14 7.7 6.86 5.86C5.54 3.98 3.8 2.32 1.64 0.879998L0.739998 1.78C1.58 2.66 2.24 3.48 2.72 4.24C3.2 5 3.44 5.62 3.44 6.1C3.44 6.38 3.36 6.64 3.2 6.88C3 7.12 2.72 7.38 2.36 7.66C1.8 8.1 1.36 8.56 1.04 9.04C0.719999 9.52 0.559999 10.16 0.559999 10.96C0.559999 12.2 0.939998 13.22 1.7 14.02C2.46 14.78 3.42 15.16 4.58 15.16Z" fill="white"/>
</svg>
