<svg width="384" height="184" viewBox="0 0 384 184" fill="none" xmlns="http://www.w3.org/2000/svg">
<g filter="url(#filter0_d)">
<rect x="12" y="12" width="360" height="160" rx="10" fill="white"/>
</g>
<path d="M171.598 53.18C170.626 53.18 169.684 53.042 168.772 52.766C167.872 52.49 167.158 52.124 166.63 51.668L167.44 49.85C167.956 50.258 168.586 50.594 169.33 50.858C170.086 51.11 170.842 51.236 171.598 51.236C172.534 51.236 173.23 51.086 173.686 50.786C174.154 50.486 174.388 50.09 174.388 49.598C174.388 49.238 174.256 48.944 173.992 48.716C173.74 48.476 173.416 48.29 173.02 48.158C172.624 48.026 172.084 47.876 171.4 47.708C170.44 47.48 169.66 47.252 169.06 47.024C168.472 46.796 167.962 46.442 167.53 45.962C167.11 45.47 166.9 44.81 166.9 43.982C166.9 43.286 167.086 42.656 167.458 42.092C167.842 41.516 168.412 41.06 169.168 40.724C169.936 40.388 170.872 40.22 171.976 40.22C172.744 40.22 173.5 40.316 174.244 40.508C174.988 40.7 175.63 40.976 176.17 41.336L175.432 43.154C174.88 42.83 174.304 42.584 173.704 42.416C173.104 42.248 172.522 42.164 171.958 42.164C171.034 42.164 170.344 42.32 169.888 42.632C169.444 42.944 169.222 43.358 169.222 43.874C169.222 44.234 169.348 44.528 169.6 44.756C169.864 44.984 170.194 45.164 170.59 45.296C170.986 45.428 171.526 45.578 172.21 45.746C173.146 45.962 173.914 46.19 174.514 46.43C175.114 46.658 175.624 47.012 176.044 47.492C176.476 47.972 176.692 48.62 176.692 49.436C176.692 50.132 176.5 50.762 176.116 51.326C175.744 51.89 175.174 52.34 174.406 52.676C173.638 53.012 172.702 53.18 171.598 53.18ZM184.484 43.28C185.42 43.28 186.254 43.484 186.986 43.892C187.73 44.3 188.312 44.876 188.732 45.62C189.152 46.364 189.362 47.222 189.362 48.194C189.362 49.166 189.152 50.03 188.732 50.786C188.312 51.53 187.73 52.106 186.986 52.514C186.254 52.922 185.42 53.126 184.484 53.126C183.188 53.126 182.162 52.694 181.406 51.83V56.492H179.156V43.388H181.298V44.648C181.67 44.192 182.126 43.85 182.666 43.622C183.218 43.394 183.824 43.28 184.484 43.28ZM184.232 51.2C185.06 51.2 185.738 50.924 186.266 50.372C186.806 49.82 187.076 49.094 187.076 48.194C187.076 47.294 186.806 46.568 186.266 46.016C185.738 45.464 185.06 45.188 184.232 45.188C183.692 45.188 183.206 45.314 182.774 45.566C182.342 45.806 182 46.154 181.748 46.61C181.496 47.066 181.37 47.594 181.37 48.194C181.37 48.794 181.496 49.322 181.748 49.778C182 50.234 182.342 50.588 182.774 50.84C183.206 51.08 183.692 51.2 184.232 51.2ZM191.856 43.388H194.106V53H191.856V43.388ZM192.99 41.804C192.582 41.804 192.24 41.678 191.964 41.426C191.688 41.162 191.55 40.838 191.55 40.454C191.55 40.07 191.688 39.752 191.964 39.5C192.24 39.236 192.582 39.104 192.99 39.104C193.398 39.104 193.74 39.23 194.016 39.482C194.292 39.722 194.43 40.028 194.43 40.4C194.43 40.796 194.292 41.132 194.016 41.408C193.752 41.672 193.41 41.804 192.99 41.804ZM202.873 43.28C204.085 43.28 205.057 43.634 205.789 44.342C206.521 45.05 206.887 46.1 206.887 47.492V53H204.637V47.78C204.637 46.94 204.439 46.31 204.043 45.89C203.647 45.458 203.083 45.242 202.351 45.242C201.523 45.242 200.869 45.494 200.389 45.998C199.909 46.49 199.669 47.204 199.669 48.14V53H197.419V43.388H199.561V44.63C199.933 44.186 200.401 43.85 200.965 43.622C201.529 43.394 202.165 43.28 202.873 43.28ZM219.225 48.248C219.225 48.404 219.213 48.626 219.189 48.914H211.647C211.779 49.622 212.121 50.186 212.673 50.606C213.237 51.014 213.933 51.218 214.761 51.218C215.817 51.218 216.687 50.87 217.371 50.174L218.577 51.56C218.145 52.076 217.599 52.466 216.939 52.73C216.279 52.994 215.535 53.126 214.707 53.126C213.651 53.126 212.721 52.916 211.917 52.496C211.113 52.076 210.489 51.494 210.045 50.75C209.613 49.994 209.397 49.142 209.397 48.194C209.397 47.258 209.607 46.418 210.027 45.674C210.459 44.918 211.053 44.33 211.809 43.91C212.565 43.49 213.417 43.28 214.365 43.28C215.301 43.28 216.135 43.49 216.867 43.91C217.611 44.318 218.187 44.9 218.595 45.656C219.015 46.4 219.225 47.264 219.225 48.248ZM214.365 45.08C213.645 45.08 213.033 45.296 212.529 45.728C212.037 46.148 211.737 46.712 211.629 47.42H217.083C216.987 46.724 216.693 46.16 216.201 45.728C215.709 45.296 215.097 45.08 214.365 45.08ZM233.129 53.18C231.857 53.18 230.705 52.904 229.673 52.352C228.653 51.788 227.849 51.014 227.261 50.03C226.685 49.046 226.397 47.936 226.397 46.7C226.397 45.464 226.691 44.354 227.279 43.37C227.867 42.386 228.671 41.618 229.691 41.066C230.723 40.502 231.875 40.22 233.147 40.22C234.179 40.22 235.121 40.4 235.973 40.76C236.825 41.12 237.545 41.642 238.133 42.326L236.621 43.748C235.709 42.764 234.587 42.272 233.255 42.272C232.391 42.272 231.617 42.464 230.933 42.848C230.249 43.22 229.715 43.742 229.331 44.414C228.947 45.086 228.755 45.848 228.755 46.7C228.755 47.552 228.947 48.314 229.331 48.986C229.715 49.658 230.249 50.186 230.933 50.57C231.617 50.942 232.391 51.128 233.255 51.128C234.587 51.128 235.709 50.63 236.621 49.634L238.133 51.074C237.545 51.758 236.819 52.28 235.955 52.64C235.103 53 234.161 53.18 233.129 53.18ZM244.104 43.28C245.52 43.28 246.6 43.622 247.344 44.306C248.1 44.978 248.478 45.998 248.478 47.366V53H246.354V51.83C246.078 52.25 245.682 52.574 245.166 52.802C244.662 53.018 244.05 53.126 243.33 53.126C242.61 53.126 241.98 53.006 241.44 52.766C240.9 52.514 240.48 52.172 240.18 51.74C239.892 51.296 239.748 50.798 239.748 50.246C239.748 49.382 240.066 48.692 240.702 48.176C241.35 47.648 242.364 47.384 243.744 47.384H246.228V47.24C246.228 46.568 246.024 46.052 245.616 45.692C245.22 45.332 244.626 45.152 243.834 45.152C243.294 45.152 242.76 45.236 242.232 45.404C241.716 45.572 241.278 45.806 240.918 46.106L240.036 44.468C240.54 44.084 241.146 43.79 241.854 43.586C242.562 43.382 243.312 43.28 244.104 43.28ZM243.798 51.488C244.362 51.488 244.86 51.362 245.292 51.11C245.736 50.846 246.048 50.474 246.228 49.994V48.878H243.906C242.61 48.878 241.962 49.304 241.962 50.156C241.962 50.564 242.124 50.888 242.448 51.128C242.772 51.368 243.222 51.488 243.798 51.488ZM253.867 44.792C254.515 43.784 255.655 43.28 257.287 43.28V45.422C257.095 45.386 256.921 45.368 256.765 45.368C255.889 45.368 255.205 45.626 254.713 46.142C254.221 46.646 253.975 47.378 253.975 48.338V53H251.725V43.388H253.867V44.792ZM268.504 48.248C268.504 48.404 268.492 48.626 268.468 48.914H260.926C261.058 49.622 261.4 50.186 261.952 50.606C262.516 51.014 263.212 51.218 264.04 51.218C265.096 51.218 265.966 50.87 266.65 50.174L267.856 51.56C267.424 52.076 266.878 52.466 266.218 52.73C265.558 52.994 264.814 53.126 263.986 53.126C262.93 53.126 262 52.916 261.196 52.496C260.392 52.076 259.768 51.494 259.324 50.75C258.892 49.994 258.676 49.142 258.676 48.194C258.676 47.258 258.886 46.418 259.306 45.674C259.738 44.918 260.332 44.33 261.088 43.91C261.844 43.49 262.696 43.28 263.644 43.28C264.58 43.28 265.414 43.49 266.146 43.91C266.89 44.318 267.466 44.9 267.874 45.656C268.294 46.4 268.504 47.264 268.504 48.248ZM263.644 45.08C262.924 45.08 262.312 45.296 261.808 45.728C261.316 46.148 261.016 46.712 260.908 47.42H266.362C266.266 46.724 265.972 46.16 265.48 45.728C264.988 45.296 264.376 45.08 263.644 45.08Z" fill="#1C2121"/>
<path d="M169.85 78.088C171.166 78.088 172.179 78.5127 172.888 79.362C173.607 80.2113 173.966 81.4153 173.966 82.974C173.966 84.066 173.77 84.9993 173.378 85.774C172.995 86.5393 172.454 87.1227 171.754 87.524C171.063 87.916 170.256 88.112 169.332 88.112C168.856 88.112 168.408 88.0653 167.988 87.972C167.568 87.8693 167.204 87.7247 166.896 87.538L167.428 86.446C167.904 86.754 168.534 86.908 169.318 86.908C170.335 86.908 171.129 86.5953 171.698 85.97C172.277 85.3353 172.566 84.416 172.566 83.212V82.862C172.286 83.282 171.899 83.604 171.404 83.828C170.909 84.0427 170.354 84.15 169.738 84.15C169.094 84.15 168.515 84.0287 168.002 83.786C167.498 83.5433 167.101 83.198 166.812 82.75C166.532 82.2927 166.392 81.77 166.392 81.182C166.392 80.566 166.541 80.0247 166.84 79.558C167.148 79.0913 167.563 78.732 168.086 78.48C168.609 78.2187 169.197 78.088 169.85 78.088ZM169.976 83.016C170.415 83.016 170.807 82.932 171.152 82.764C171.497 82.596 171.763 82.3673 171.95 82.078C172.146 81.7887 172.244 81.4667 172.244 81.112C172.244 80.7667 172.151 80.454 171.964 80.174C171.787 79.8847 171.521 79.656 171.166 79.488C170.821 79.3107 170.401 79.222 169.906 79.222C169.262 79.222 168.739 79.3947 168.338 79.74C167.946 80.0853 167.75 80.5473 167.75 81.126C167.75 81.7047 167.951 82.1667 168.352 82.512C168.753 82.848 169.295 83.016 169.976 83.016ZM183.006 88.112C182.269 88.112 181.555 88 180.864 87.776C180.183 87.5427 179.646 87.244 179.254 86.88L179.772 85.788C180.146 86.124 180.622 86.3993 181.2 86.614C181.788 86.8193 182.39 86.922 183.006 86.922C183.818 86.922 184.425 86.7867 184.826 86.516C185.228 86.236 185.428 85.8673 185.428 85.41C185.428 85.074 185.316 84.8033 185.092 84.598C184.878 84.3833 184.607 84.22 184.28 84.108C183.963 83.996 183.51 83.87 182.922 83.73C182.185 83.5527 181.588 83.3753 181.13 83.198C180.682 83.0207 180.295 82.75 179.968 82.386C179.651 82.0127 179.492 81.5133 179.492 80.888C179.492 80.3653 179.628 79.894 179.898 79.474C180.178 79.054 180.598 78.718 181.158 78.466C181.718 78.214 182.414 78.088 183.244 78.088C183.823 78.088 184.392 78.1627 184.952 78.312C185.512 78.4613 185.993 78.676 186.394 78.956L185.932 80.076C185.522 79.8147 185.083 79.6187 184.616 79.488C184.15 79.348 183.692 79.278 183.244 79.278C182.451 79.278 181.854 79.4227 181.452 79.712C181.06 80.0013 180.864 80.3747 180.864 80.832C180.864 81.168 180.976 81.4433 181.2 81.658C181.424 81.8633 181.7 82.0267 182.026 82.148C182.362 82.26 182.815 82.3813 183.384 82.512C184.122 82.6893 184.714 82.8667 185.162 83.044C185.61 83.2213 185.993 83.492 186.31 83.856C186.637 84.22 186.8 84.71 186.8 85.326C186.8 85.8393 186.66 86.3107 186.38 86.74C186.1 87.16 185.676 87.496 185.106 87.748C184.537 87.9907 183.837 88.112 183.006 88.112ZM192.724 80.51C193.442 80.51 194.086 80.6687 194.656 80.986C195.225 81.3033 195.668 81.7467 195.986 82.316C196.312 82.8853 196.476 83.5433 196.476 84.29C196.476 85.0367 196.312 85.6993 195.986 86.278C195.668 86.8473 195.225 87.2907 194.656 87.608C194.086 87.9253 193.442 88.084 192.724 88.084C192.192 88.084 191.702 87.9813 191.254 87.776C190.815 87.5707 190.442 87.272 190.134 86.88V90.716H188.79V80.58H190.078V81.756C190.376 81.3453 190.754 81.0373 191.212 80.832C191.669 80.6173 192.173 80.51 192.724 80.51ZM192.612 86.908C193.088 86.908 193.512 86.8007 193.886 86.586C194.268 86.362 194.567 86.054 194.782 85.662C195.006 85.2607 195.118 84.8033 195.118 84.29C195.118 83.7767 195.006 83.324 194.782 82.932C194.567 82.5307 194.268 82.2227 193.886 82.008C193.512 81.7933 193.088 81.686 192.612 81.686C192.145 81.686 191.72 81.798 191.338 82.022C190.964 82.2367 190.666 82.54 190.442 82.932C190.227 83.324 190.12 83.7767 190.12 84.29C190.12 84.8033 190.227 85.2607 190.442 85.662C190.656 86.054 190.955 86.362 191.338 86.586C191.72 86.8007 192.145 86.908 192.612 86.908ZM205.179 84.332C205.179 84.4347 205.169 84.57 205.151 84.738H199.131C199.215 85.3913 199.499 85.9187 199.985 86.32C200.479 86.712 201.091 86.908 201.819 86.908C202.705 86.908 203.419 86.6093 203.961 86.012L204.703 86.88C204.367 87.272 203.947 87.5707 203.443 87.776C202.948 87.9813 202.393 88.084 201.777 88.084C200.993 88.084 200.297 87.9253 199.691 87.608C199.084 87.2813 198.613 86.8287 198.277 86.25C197.95 85.6713 197.787 85.018 197.787 84.29C197.787 83.5713 197.945 82.9227 198.263 82.344C198.589 81.7653 199.033 81.3173 199.593 81C200.162 80.6733 200.801 80.51 201.511 80.51C202.22 80.51 202.85 80.6733 203.401 81C203.961 81.3173 204.395 81.7653 204.703 82.344C205.02 82.9227 205.179 83.5853 205.179 84.332ZM201.511 81.644C200.867 81.644 200.325 81.84 199.887 82.232C199.457 82.624 199.205 83.1373 199.131 83.772H203.891C203.816 83.1467 203.559 82.638 203.121 82.246C202.691 81.8447 202.155 81.644 201.511 81.644ZM210.419 88.084C209.663 88.084 208.986 87.9207 208.389 87.594C207.801 87.2673 207.339 86.8193 207.003 86.25C206.667 85.6713 206.499 85.018 206.499 84.29C206.499 83.562 206.667 82.9133 207.003 82.344C207.339 81.7653 207.801 81.3173 208.389 81C208.986 80.6733 209.663 80.51 210.419 80.51C211.091 80.51 211.688 80.6453 212.211 80.916C212.743 81.1867 213.154 81.5787 213.443 82.092L212.421 82.75C212.188 82.3953 211.898 82.1293 211.553 81.952C211.208 81.7747 210.825 81.686 210.405 81.686C209.92 81.686 209.481 81.7933 209.089 82.008C208.706 82.2227 208.403 82.5307 208.179 82.932C207.964 83.324 207.857 83.7767 207.857 84.29C207.857 84.8127 207.964 85.2747 208.179 85.676C208.403 86.068 208.706 86.3713 209.089 86.586C209.481 86.8007 209.92 86.908 210.405 86.908C210.825 86.908 211.208 86.8193 211.553 86.642C211.898 86.4647 212.188 86.1987 212.421 85.844L213.443 86.488C213.154 87.0013 212.743 87.398 212.211 87.678C211.688 87.9487 211.091 88.084 210.419 88.084ZM215.323 80.58H216.667V88H215.323V80.58ZM215.995 79.152C215.734 79.152 215.514 79.068 215.337 78.9C215.169 78.732 215.085 78.5267 215.085 78.284C215.085 78.0413 215.169 77.836 215.337 77.668C215.514 77.4907 215.734 77.402 215.995 77.402C216.256 77.402 216.471 77.486 216.639 77.654C216.816 77.8127 216.905 78.0133 216.905 78.256C216.905 78.508 216.816 78.7227 216.639 78.9C216.471 79.068 216.256 79.152 215.995 79.152ZM222.075 80.51C223.102 80.51 223.886 80.762 224.427 81.266C224.978 81.77 225.253 82.5213 225.253 83.52V88H223.979V87.02C223.755 87.3653 223.433 87.6313 223.013 87.818C222.602 87.9953 222.112 88.084 221.543 88.084C220.712 88.084 220.045 87.8833 219.541 87.482C219.046 87.0807 218.799 86.5533 218.799 85.9C218.799 85.2467 219.037 84.724 219.513 84.332C219.989 83.9307 220.745 83.73 221.781 83.73H223.909V83.464C223.909 82.8853 223.741 82.442 223.405 82.134C223.069 81.826 222.574 81.672 221.921 81.672C221.482 81.672 221.053 81.7467 220.633 81.896C220.213 82.036 219.858 82.2273 219.569 82.47L219.009 81.462C219.392 81.154 219.849 80.9207 220.381 80.762C220.913 80.594 221.478 80.51 222.075 80.51ZM221.767 87.048C222.28 87.048 222.724 86.936 223.097 86.712C223.47 86.4787 223.741 86.152 223.909 85.732V84.696H221.837C220.698 84.696 220.129 85.0787 220.129 85.844C220.129 86.2173 220.274 86.5113 220.563 86.726C220.852 86.9407 221.254 87.048 221.767 87.048ZM227.88 77.612H229.224V88H227.88V77.612ZM231.93 80.58H233.274V88H231.93V80.58ZM232.602 79.152C232.341 79.152 232.122 79.068 231.944 78.9C231.776 78.732 231.692 78.5267 231.692 78.284C231.692 78.0413 231.776 77.836 231.944 77.668C232.122 77.4907 232.341 77.402 232.602 77.402C232.864 77.402 233.078 77.486 233.246 77.654C233.424 77.8127 233.512 78.0133 233.512 78.256C233.512 78.508 233.424 78.7227 233.246 78.9C233.078 79.068 232.864 79.152 232.602 79.152ZM240.153 87.566C239.957 87.734 239.714 87.8647 239.425 87.958C239.135 88.042 238.837 88.084 238.529 88.084C237.782 88.084 237.203 87.8833 236.793 87.482C236.382 87.0807 236.177 86.5067 236.177 85.76V81.686H234.917V80.58H236.177V78.956H237.521V80.58H239.649V81.686H237.521V85.704C237.521 86.1053 237.619 86.4133 237.815 86.628C238.02 86.8427 238.309 86.95 238.683 86.95C239.093 86.95 239.443 86.8333 239.733 86.6L240.153 87.566ZM241.918 80.58H243.262V88H241.918V80.58ZM242.59 79.152C242.328 79.152 242.109 79.068 241.932 78.9C241.764 78.732 241.68 78.5267 241.68 78.284C241.68 78.0413 241.764 77.836 241.932 77.668C242.109 77.4907 242.328 77.402 242.59 77.402C242.851 77.402 243.066 77.486 243.234 77.654C243.411 77.8127 243.5 78.0133 243.5 78.256C243.5 78.508 243.411 78.7227 243.234 78.9C243.066 79.068 242.851 79.152 242.59 79.152ZM252.674 84.332C252.674 84.4347 252.664 84.57 252.646 84.738H246.626C246.71 85.3913 246.994 85.9187 247.48 86.32C247.974 86.712 248.586 86.908 249.314 86.908C250.2 86.908 250.914 86.6093 251.456 86.012L252.198 86.88C251.862 87.272 251.442 87.5707 250.938 87.776C250.443 87.9813 249.888 88.084 249.272 88.084C248.488 88.084 247.792 87.9253 247.186 87.608C246.579 87.2813 246.108 86.8287 245.772 86.25C245.445 85.6713 245.282 85.018 245.282 84.29C245.282 83.5713 245.44 82.9227 245.758 82.344C246.084 81.7653 246.528 81.3173 247.088 81C247.657 80.6733 248.296 80.51 249.006 80.51C249.715 80.51 250.345 80.6733 250.896 81C251.456 81.3173 251.89 81.7653 252.198 82.344C252.515 82.9227 252.674 83.5853 252.674 84.332ZM249.006 81.644C248.362 81.644 247.82 81.84 247.382 82.232C246.952 82.624 246.7 83.1373 246.626 83.772H251.386C251.311 83.1467 251.054 82.638 250.616 82.246C250.186 81.8447 249.65 81.644 249.006 81.644ZM256.808 88.084C256.201 88.084 255.618 88.0047 255.058 87.846C254.498 87.678 254.059 87.468 253.742 87.216L254.302 86.152C254.629 86.3853 255.025 86.572 255.492 86.712C255.959 86.852 256.43 86.922 256.906 86.922C258.082 86.922 258.67 86.586 258.67 85.914C258.67 85.69 258.591 85.5127 258.432 85.382C258.273 85.2513 258.073 85.158 257.83 85.102C257.597 85.0367 257.261 84.9667 256.822 84.892C256.225 84.7987 255.735 84.6913 255.352 84.57C254.979 84.4487 254.657 84.2433 254.386 83.954C254.115 83.6647 253.98 83.2587 253.98 82.736C253.98 82.064 254.26 81.5273 254.82 81.126C255.38 80.7153 256.131 80.51 257.074 80.51C257.569 80.51 258.063 80.5707 258.558 80.692C259.053 80.8133 259.459 80.9767 259.776 81.182L259.202 82.246C258.595 81.854 257.881 81.658 257.06 81.658C256.491 81.658 256.057 81.7513 255.758 81.938C255.459 82.1247 255.31 82.372 255.31 82.68C255.31 82.9227 255.394 83.114 255.562 83.254C255.73 83.394 255.935 83.4967 256.178 83.562C256.43 83.6273 256.78 83.702 257.228 83.786C257.825 83.8887 258.306 84.0007 258.67 84.122C259.043 84.234 259.361 84.43 259.622 84.71C259.883 84.99 260.014 85.382 260.014 85.886C260.014 86.558 259.725 87.0947 259.146 87.496C258.577 87.888 257.797 88.084 256.808 88.084Z" fill="#1C2121"/>
<path d="M175.198 112.592H173.336V115H171.978V112.592H166.532V111.612L171.544 105.2H173.056L168.254 111.388H172.02V109.26H173.336V111.388H175.198V112.592ZM180.875 105.2H185.005C186.041 105.2 186.96 105.405 187.763 105.816C188.566 106.227 189.186 106.805 189.625 107.552C190.073 108.289 190.297 109.139 190.297 110.1C190.297 111.061 190.073 111.915 189.625 112.662C189.186 113.399 188.566 113.973 187.763 114.384C186.96 114.795 186.041 115 185.005 115H180.875V105.2ZM184.921 113.782C185.714 113.782 186.41 113.628 187.007 113.32C187.614 113.012 188.08 112.583 188.407 112.032C188.734 111.472 188.897 110.828 188.897 110.1C188.897 109.372 188.734 108.733 188.407 108.182C188.08 107.622 187.614 107.188 187.007 106.88C186.41 106.572 185.714 106.418 184.921 106.418H182.275V113.782H184.921ZM195.563 115.084C194.826 115.084 194.163 114.921 193.575 114.594C192.987 114.267 192.525 113.819 192.189 113.25C191.863 112.671 191.699 112.018 191.699 111.29C191.699 110.562 191.863 109.913 192.189 109.344C192.525 108.765 192.987 108.317 193.575 108C194.163 107.673 194.826 107.51 195.563 107.51C196.301 107.51 196.959 107.673 197.537 108C198.125 108.317 198.583 108.765 198.909 109.344C199.245 109.913 199.413 110.562 199.413 111.29C199.413 112.018 199.245 112.671 198.909 113.25C198.583 113.819 198.125 114.267 197.537 114.594C196.959 114.921 196.301 115.084 195.563 115.084ZM195.563 113.908C196.039 113.908 196.464 113.801 196.837 113.586C197.22 113.362 197.519 113.054 197.733 112.662C197.948 112.261 198.055 111.803 198.055 111.29C198.055 110.777 197.948 110.324 197.733 109.932C197.519 109.531 197.22 109.223 196.837 109.008C196.464 108.793 196.039 108.686 195.563 108.686C195.087 108.686 194.658 108.793 194.275 109.008C193.902 109.223 193.603 109.531 193.379 109.932C193.165 110.324 193.057 110.777 193.057 111.29C193.057 111.803 193.165 112.261 193.379 112.662C193.603 113.054 193.902 113.362 194.275 113.586C194.658 113.801 195.087 113.908 195.563 113.908ZM204.646 115.084C203.89 115.084 203.213 114.921 202.616 114.594C202.028 114.267 201.566 113.819 201.23 113.25C200.894 112.671 200.726 112.018 200.726 111.29C200.726 110.562 200.894 109.913 201.23 109.344C201.566 108.765 202.028 108.317 202.616 108C203.213 107.673 203.89 107.51 204.646 107.51C205.318 107.51 205.915 107.645 206.438 107.916C206.97 108.187 207.381 108.579 207.67 109.092L206.648 109.75C206.415 109.395 206.125 109.129 205.78 108.952C205.435 108.775 205.052 108.686 204.632 108.686C204.147 108.686 203.708 108.793 203.316 109.008C202.933 109.223 202.63 109.531 202.406 109.932C202.191 110.324 202.084 110.777 202.084 111.29C202.084 111.813 202.191 112.275 202.406 112.676C202.63 113.068 202.933 113.371 203.316 113.586C203.708 113.801 204.147 113.908 204.632 113.908C205.052 113.908 205.435 113.819 205.78 113.642C206.125 113.465 206.415 113.199 206.648 112.844L207.67 113.488C207.381 114.001 206.97 114.398 206.438 114.678C205.915 114.949 205.318 115.084 204.646 115.084ZM213.818 114.566C213.622 114.734 213.379 114.865 213.09 114.958C212.801 115.042 212.502 115.084 212.194 115.084C211.447 115.084 210.869 114.883 210.458 114.482C210.047 114.081 209.842 113.507 209.842 112.76V108.686H208.582V107.58H209.842V105.956H211.186V107.58H213.314V108.686H211.186V112.704C211.186 113.105 211.284 113.413 211.48 113.628C211.685 113.843 211.975 113.95 212.348 113.95C212.759 113.95 213.109 113.833 213.398 113.6L213.818 114.566ZM218.515 115.084C217.777 115.084 217.115 114.921 216.527 114.594C215.939 114.267 215.477 113.819 215.141 113.25C214.814 112.671 214.651 112.018 214.651 111.29C214.651 110.562 214.814 109.913 215.141 109.344C215.477 108.765 215.939 108.317 216.527 108C217.115 107.673 217.777 107.51 218.515 107.51C219.252 107.51 219.91 107.673 220.489 108C221.077 108.317 221.534 108.765 221.861 109.344C222.197 109.913 222.365 110.562 222.365 111.29C222.365 112.018 222.197 112.671 221.861 113.25C221.534 113.819 221.077 114.267 220.489 114.594C219.91 114.921 219.252 115.084 218.515 115.084ZM218.515 113.908C218.991 113.908 219.415 113.801 219.789 113.586C220.171 113.362 220.47 113.054 220.685 112.662C220.899 112.261 221.007 111.803 221.007 111.29C221.007 110.777 220.899 110.324 220.685 109.932C220.47 109.531 220.171 109.223 219.789 109.008C219.415 108.793 218.991 108.686 218.515 108.686C218.039 108.686 217.609 108.793 217.227 109.008C216.853 109.223 216.555 109.531 216.331 109.932C216.116 110.324 216.009 110.777 216.009 111.29C216.009 111.803 216.116 112.261 216.331 112.662C216.555 113.054 216.853 113.362 217.227 113.586C217.609 113.801 218.039 113.908 218.515 113.908ZM225.651 108.826C225.885 108.397 226.23 108.07 226.687 107.846C227.145 107.622 227.7 107.51 228.353 107.51V108.812C228.279 108.803 228.176 108.798 228.045 108.798C227.317 108.798 226.743 109.017 226.323 109.456C225.913 109.885 225.707 110.501 225.707 111.304V115H224.363V107.58H225.651V108.826ZM232.333 115.084C231.726 115.084 231.143 115.005 230.583 114.846C230.023 114.678 229.584 114.468 229.267 114.216L229.827 113.152C230.153 113.385 230.55 113.572 231.017 113.712C231.483 113.852 231.955 113.922 232.431 113.922C233.607 113.922 234.195 113.586 234.195 112.914C234.195 112.69 234.115 112.513 233.957 112.382C233.798 112.251 233.597 112.158 233.355 112.102C233.121 112.037 232.785 111.967 232.347 111.892C231.749 111.799 231.259 111.691 230.877 111.57C230.503 111.449 230.181 111.243 229.911 110.954C229.64 110.665 229.505 110.259 229.505 109.736C229.505 109.064 229.785 108.527 230.345 108.126C230.905 107.715 231.656 107.51 232.599 107.51C233.093 107.51 233.588 107.571 234.083 107.692C234.577 107.813 234.983 107.977 235.301 108.182L234.727 109.246C234.12 108.854 233.406 108.658 232.585 108.658C232.015 108.658 231.581 108.751 231.283 108.938C230.984 109.125 230.835 109.372 230.835 109.68C230.835 109.923 230.919 110.114 231.087 110.254C231.255 110.394 231.46 110.497 231.703 110.562C231.955 110.627 232.305 110.702 232.753 110.786C233.35 110.889 233.831 111.001 234.195 111.122C234.568 111.234 234.885 111.43 235.147 111.71C235.408 111.99 235.539 112.382 235.539 112.886C235.539 113.558 235.249 114.095 234.671 114.496C234.101 114.888 233.322 115.084 232.333 115.084Z" fill="#1C2121"/>
<circle cx="92" cy="92" r="60" fill="#E7EEF5"/>
<path d="M87.7047 62.1111C87.7047 62.1111 87.0953 61.5591 87.5749 61.1194C87.5749 61.1194 89.1065 59.9152 89.6977 59.3236C89.6977 59.3236 90.1396 58.9403 89.7872 58.6324C89.7872 58.6324 88.9033 58.0232 89.8074 57.7933C90.2552 57.813 90.7003 57.8767 91.1365 57.9836C91.1365 57.9836 91.705 58.4455 91.8899 57.7933C91.8695 57.6649 91.8746 57.5334 91.9049 57.4071C91.9352 57.2808 91.9901 57.1622 92.0661 57.0586C92.1422 56.955 92.2378 56.8686 92.3473 56.8047C92.4567 56.7407 92.5775 56.7005 92.7024 56.6866C93.1446 56.6605 93.5866 56.7389 93.9952 56.9159C94.4922 56.9759 94.9956 56.8948 95.4515 56.6812C95.4515 56.6812 97.2037 55.6337 97.6074 56.1366C97.6074 56.1366 98.3686 56.5951 97.7489 58.0125C97.7489 58.0125 97.318 58.4999 97.623 58.7299C97.623 58.7299 98.5633 59.2583 98.1902 60.0073C98.1902 60.0073 97.8709 61.1107 96.1699 61.2848C96.1699 61.2848 93.3079 61.6707 93.1132 60.9856C93.1132 60.9856 92.8926 59.8957 92.3241 59.9663C92.3241 59.9663 91.7037 60.1385 92.0645 61.428C92.0645 61.428 92.0924 61.7568 91.4298 61.5558C91.4298 61.5558 89.6315 61.2868 88.7314 62.2463C88.7314 62.2463 88.6756 62.7626 88.109 62.4917L87.7079 62.1158L87.7047 62.1111Z" fill="#034EA2"/>
<path d="M88.84 67.1713C88.84 67.1713 88.2636 66.5803 88.7686 66.1735C88.7686 66.1735 90.367 65.0661 90.9906 64.5135C90.9906 64.5135 91.4553 64.1598 91.1237 63.831C91.1237 63.831 90.28 63.1647 91.1925 62.9953C91.6381 63.041 92.0784 63.131 92.5073 63.2642C92.5073 63.2642 93.0492 63.7611 93.2737 63.123C93.2603 62.9937 93.2726 62.8629 93.3099 62.7387C93.3472 62.6145 93.4087 62.4996 93.4906 62.4009C93.5724 62.3023 93.673 62.2221 93.7859 62.1653C93.8989 62.1086 94.0218 62.0764 94.1473 62.0708C94.5893 62.0726 95.0252 62.1786 95.4219 62.3807C95.9151 62.4715 96.4229 62.422 96.8911 62.2375C96.8911 62.2375 98.7083 61.3043 99.0769 61.8301C99.0769 61.8301 99.8083 62.3364 99.1035 63.7127C99.1035 63.7127 98.6492 64.1719 98.936 64.4227C98.936 64.4227 99.8446 65.009 99.4286 65.7304C99.4286 65.7304 99.0457 66.8116 97.3383 66.8734C97.3383 66.8734 94.4575 67.0792 94.3037 66.3813C94.3037 66.3813 94.1473 65.2813 93.5781 65.3183C93.5781 65.3183 92.9467 65.448 93.2296 66.7584C93.2296 66.7584 93.2361 67.0892 92.5858 66.8472C92.5858 66.8472 90.8077 66.4613 89.8543 67.3636C89.8543 67.3636 89.7686 67.8732 89.2177 67.5693L88.84 67.1699V67.1713Z" fill="#034EA2"/>
<path d="M89.2425 71.6981C89.2425 71.6981 88.7421 71.0594 89.2736 70.7158C89.2736 70.7158 90.9421 69.8108 91.606 69.3395C91.606 69.3395 92.0921 69.043 91.8046 68.69C91.8046 68.69 91.044 67.9505 91.952 67.8832C92.3813 67.9772 92.8008 68.1143 93.2045 68.2926C93.2045 68.2926 93.6834 68.8305 93.9664 68.2382C93.967 68.1108 93.9926 67.9849 94.0416 67.868C94.0905 67.7511 94.1619 67.6458 94.2513 67.5583C94.3408 67.4709 94.4464 67.4032 94.5619 67.3593C94.6773 67.3154 94.8002 67.2962 94.923 67.303C95.3538 67.3514 95.7684 67.5009 96.1352 67.74C96.6054 67.8836 97.1045 67.8913 97.5786 67.7622C97.5786 67.7622 99.4398 67.0495 99.7481 67.6015C99.7481 67.6015 100.411 68.173 99.5859 69.439C99.5859 69.439 99.0965 69.8357 99.3542 70.1114C99.3542 70.1114 100.18 70.7837 99.7014 71.4386C99.7014 71.4386 99.2192 72.4512 97.5494 72.3288C97.5494 72.3288 94.725 72.2199 94.6445 71.522C94.6445 71.522 94.6017 70.4328 94.0416 70.4045C94.0416 70.4045 93.4154 70.465 93.5582 71.7734C93.5582 71.7734 93.5341 72.0955 92.9247 71.7882C92.9247 71.7882 91.2303 71.2228 90.2108 71.9967C90.2108 71.9967 90.0758 72.4861 89.5715 72.1311L89.2425 71.7042V71.6981Z" fill="#034EA2"/>
<path d="M89.168 76.375C89.168 76.375 88.7364 75.7236 89.2731 75.4338C89.2731 75.4338 90.9371 74.7022 91.6094 74.3035C91.6094 74.3035 92.0975 74.0608 91.847 73.6984C91.847 73.6984 91.1766 72.9299 92.0514 72.9387C92.4553 73.0627 92.8465 73.2273 93.2195 73.4302C93.2195 73.4302 93.6368 73.9875 93.9516 73.4382C93.9612 73.316 93.9949 73.1971 94.0504 73.0888C94.106 72.9805 94.1824 72.8852 94.2748 72.8085C94.3672 72.7319 94.4738 72.6757 94.5879 72.6432C94.7021 72.6108 94.8214 72.6029 94.9387 72.62C95.3469 72.7036 95.7316 72.8817 96.064 73.141C96.5042 73.3158 96.9823 73.3624 97.4463 73.2755C97.4463 73.2755 99.281 72.7417 99.5334 73.2963C99.5334 73.2963 100.126 73.9015 99.2414 75.0445C99.2414 75.0445 98.743 75.386 98.9688 75.6671C98.9688 75.6671 99.7086 76.375 99.1999 76.9647C99.1999 76.9647 98.6651 77.8979 97.0764 77.6444C97.0764 77.6444 94.378 77.3136 94.3546 76.6359C94.3546 76.6359 94.3955 75.5904 93.8633 75.5205C93.8633 75.5205 93.2565 75.5272 93.2955 76.7892C93.2955 76.7892 93.2481 77.0965 92.6887 76.7523C92.6887 76.7523 91.1078 76.0752 90.0759 76.7348C90.0759 76.7348 89.9091 77.1933 89.4522 76.8094L89.1686 76.375H89.168Z" fill="#034EA2"/>
<path d="M88.8022 81.2941C88.8022 81.2941 88.3882 80.6324 88.932 80.3615C88.932 80.3615 90.6135 79.6764 91.2949 79.2985C91.2949 79.2985 91.7908 79.0719 91.548 78.6994C91.548 78.6994 90.8991 77.9121 91.7745 77.9437C92.1747 78.0798 92.5612 78.2559 92.9284 78.4695C92.9284 78.4695 93.334 79.0356 93.6611 78.4984C93.6741 78.3765 93.711 78.2587 93.7695 78.1521C93.828 78.0455 93.9068 77.9524 94.0012 77.8785C94.0956 77.8046 94.2036 77.7513 94.3185 77.7221C94.4334 77.6928 94.5529 77.6882 94.6696 77.7084C95.0748 77.8032 95.4541 77.9914 95.7794 78.259C96.2151 78.4465 96.6918 78.5074 97.1584 78.4352C97.1584 78.4352 99.0074 77.9545 99.2462 78.5172C99.2462 78.5172 99.8225 79.1318 98.9061 80.2519C98.9061 80.2519 98.3986 80.5807 98.6173 80.8678C98.6173 80.8678 99.3364 81.5986 98.812 82.1721C98.812 82.1721 98.2513 83.0866 96.6704 82.7927C96.6704 82.7927 93.9804 82.3785 93.9752 81.7062C93.9752 81.7062 94.0473 80.6614 93.5164 80.5753C93.5164 80.5753 92.9083 80.5652 92.9148 81.8286C92.9148 81.8286 92.8577 82.1358 92.3086 81.7761C92.3086 81.7761 90.7465 81.052 89.6959 81.6827C89.6959 81.6827 89.5187 82.1358 89.0735 81.7378L88.8003 81.2941H88.8022Z" fill="#034EA2"/>
<path d="M88.1252 85.8647C88.1252 85.8647 87.8007 85.2286 88.3134 85.0283C88.3134 85.0283 89.8982 84.5462 90.5472 84.2571C90.5472 84.2571 91.0138 84.091 90.8217 83.7327C90.8217 83.7327 90.2908 82.9621 91.0813 83.0663C91.4354 83.2217 91.7735 83.4136 92.0904 83.6392C92.0904 83.6392 92.4149 84.1892 92.755 83.7259C92.7766 83.6163 92.8195 83.5123 92.8811 83.4203C92.9426 83.3284 93.0216 83.2504 93.1133 83.191C93.2049 83.1317 93.3072 83.0924 93.4139 83.0753C93.5207 83.0583 93.6297 83.0639 93.7343 83.0919C94.0961 83.2102 94.4271 83.4126 94.7019 83.6836C95.0841 83.8897 95.5133 83.9843 95.9434 83.9572C95.9434 83.9572 97.6593 83.6728 97.8332 84.2046C97.8332 84.2046 98.3109 84.8097 97.3919 85.751C97.3919 85.751 96.9058 86.0065 97.0797 86.2856C97.0797 86.2856 97.6788 87.0124 97.1589 87.4891C97.1589 87.4891 96.5748 88.2764 95.1614 87.877C95.1614 87.877 92.7498 87.2806 92.7991 86.6668C92.7991 86.6668 92.9399 85.7255 92.4655 85.6031C92.4655 85.6031 91.9133 85.5406 91.8218 86.6923C91.8218 86.6923 91.7478 86.9613 91.2734 86.5928C91.2734 86.5928 89.9105 85.8055 88.9059 86.291C88.9059 86.291 88.7112 86.6897 88.3342 86.291L88.1226 85.8633L88.1252 85.8647Z" fill="#034EA2"/>
<path d="M86.7201 90.3392C86.7201 90.3392 86.3956 89.6997 86.9089 89.4987C86.9089 89.4987 88.5002 89.0126 89.1518 88.7228C89.1518 88.7228 89.6203 88.5561 89.4289 88.1997C89.4289 88.1997 88.8961 87.4258 89.6937 87.5274C90.0483 87.6846 90.3874 87.8771 90.7061 88.1022C90.7061 88.1022 91.0306 88.6556 91.3713 88.189C91.3932 88.0788 91.4364 87.9744 91.4984 87.8821C91.5605 87.7897 91.64 87.7115 91.7321 87.652C91.8243 87.5925 91.9271 87.553 92.0344 87.536C92.1418 87.519 92.2513 87.5247 92.3564 87.5529C92.72 87.6725 93.0527 87.8757 93.3299 88.1473C93.7117 88.3555 94.1413 88.4511 94.572 88.4236C94.572 88.4236 96.3003 88.1345 96.4735 88.6704C96.4735 88.6704 96.9531 89.2802 96.0296 90.2269C96.0296 90.2269 95.5416 90.4844 95.7174 90.7648C95.7174 90.7648 96.3184 91.4916 95.7986 91.971C95.7986 91.971 95.2145 92.7637 93.792 92.3596C93.792 92.3596 91.3674 91.7598 91.4174 91.1453C91.4174 91.1453 91.5621 90.1973 91.0831 90.0742C91.0831 90.0742 90.5282 90.0144 90.4341 91.1688C90.4341 91.1688 90.3582 91.4452 89.8838 91.0693C89.8838 91.0693 88.5132 90.2807 87.504 90.7668C87.504 90.7668 87.3093 91.1702 86.929 90.7668L86.7181 90.3378L86.7201 90.3392Z" fill="#034EA2"/>
<path d="M85.5034 95.2111C85.5034 95.2111 85.1965 94.6147 85.6806 94.4271C85.6806 94.4271 87.1668 93.9733 87.7755 93.7023C87.7755 93.7023 88.2161 93.5463 88.0351 93.2122C88.0351 93.2122 87.5373 92.4887 88.2824 92.5822C88.6142 92.7309 88.9315 92.9124 89.2298 93.1241C89.2298 93.1241 89.5323 93.6371 89.8522 93.2021C89.8722 93.099 89.9122 93.0013 89.9699 92.9149C90.0277 92.8285 90.1019 92.7552 90.1879 92.6996C90.274 92.644 90.3701 92.6072 90.4704 92.5915C90.5707 92.5759 90.6731 92.5816 90.7712 92.6084C91.1108 92.7209 91.4215 92.9117 91.6797 93.1664C92.0375 93.3596 92.4394 93.448 92.8421 93.4219C92.8421 93.4219 94.4528 93.153 94.6183 93.6532C94.6183 93.6532 95.0641 94.2214 94.203 95.1042C94.203 95.1042 93.7487 95.3469 93.9103 95.6098C93.9103 95.6098 94.4729 96.2875 93.9862 96.738C93.9862 96.738 93.4417 97.4776 92.11 97.1004C92.11 97.1004 89.8483 96.5397 89.8924 95.9648C89.8924 95.9648 90.0275 95.0779 89.5803 94.9663C89.5803 94.9663 89.0611 94.9085 88.9755 95.9877C88.9755 95.9877 88.9105 96.2465 88.4627 95.8962C88.4627 95.8962 87.1836 95.1566 86.24 95.6152C86.24 95.6152 86.0563 95.985 85.7046 95.6152L85.5054 95.2118L85.5034 95.2111Z" fill="#034EA2"/>
<path d="M84.1465 100.478C84.1465 100.478 83.7681 99.9216 84.2276 99.6708C84.2276 99.6708 85.6469 99.03 86.2161 98.6838C86.2161 98.6838 86.634 98.472 86.4147 98.162C86.4147 98.162 85.8364 97.5105 86.5847 97.5085C86.9313 97.6119 87.2675 97.7497 87.5886 97.92C87.5886 97.92 87.9534 98.394 88.2156 97.92C88.2234 97.815 88.2518 97.7129 88.2991 97.6198C88.3464 97.5266 88.4115 97.4445 88.4905 97.3783C88.5694 97.3122 88.6606 97.2634 88.7584 97.235C88.8562 97.2067 88.9586 97.1993 89.0592 97.2133C89.4094 97.2811 89.7402 97.43 90.0269 97.649C90.4053 97.7942 90.8146 97.8302 91.2112 97.7532C91.2112 97.7532 92.7766 97.2785 93.0017 97.7532C93.0017 97.7532 93.5119 98.2609 92.7629 99.2492C92.7629 99.2492 92.3379 99.5457 92.5345 99.7871C92.5345 99.7871 93.1711 100.392 92.7402 100.901C92.7402 100.901 92.2859 101.7 90.9231 101.496C90.9231 101.496 88.6101 101.236 88.5868 100.658C88.5868 100.658 88.6134 99.7615 88.1572 99.7071C88.1572 99.7071 87.638 99.7172 87.6821 100.798C87.6821 100.798 87.6438 101.062 87.1629 100.772C87.1629 100.772 85.8053 100.204 84.9252 100.78C84.9252 100.78 84.7851 101.174 84.3925 100.847L84.1497 100.477L84.1465 100.478Z" fill="#034EA2"/>
<path d="M84.3872 106.028C84.3872 106.028 83.9549 105.53 84.3742 105.23C84.3742 105.23 85.691 104.423 86.2102 104.016C86.2102 104.016 86.595 103.758 86.3477 103.478C86.3477 103.478 85.6987 102.91 86.434 102.816C86.7864 102.874 87.1323 102.969 87.4666 103.098C87.4666 103.098 87.8767 103.515 88.0798 103.017C88.0754 102.914 88.0914 102.81 88.1269 102.713C88.1624 102.617 88.2165 102.528 88.2861 102.454C88.3557 102.379 88.4391 102.321 88.5314 102.281C88.6237 102.241 88.723 102.221 88.8229 102.222C89.1743 102.244 89.5161 102.349 89.8217 102.53C90.2079 102.624 90.6117 102.608 90.9899 102.483C90.9899 102.483 92.4715 101.826 92.7421 102.262C92.7421 102.262 93.3021 102.696 92.6837 103.759C92.6837 103.759 92.3021 104.1 92.5208 104.312C92.5208 104.312 93.2165 104.823 92.853 105.376C92.853 105.376 92.502 106.217 91.1437 106.186C91.1437 106.186 88.8469 106.215 88.758 105.652C88.758 105.652 88.6827 104.771 88.2252 104.773C88.2252 104.773 87.7171 104.847 87.8871 105.901C87.8871 105.901 87.8793 106.164 87.3731 105.941C87.3731 105.941 85.9765 105.552 85.1809 106.225C85.1809 106.225 85.0887 106.628 84.6669 106.359L84.3846 106.023L84.3872 106.028Z" fill="#034EA2"/>
<path d="M85.2025 111.323C85.2025 111.323 84.7268 110.919 85.0799 110.57C85.0799 110.57 86.2136 109.618 86.6458 109.152C86.6458 109.152 86.9755 108.853 86.701 108.629C86.701 108.629 86.0144 108.188 86.6958 107.992C87.0359 107.994 87.375 108.031 87.7082 108.101C87.7082 108.101 88.1521 108.434 88.2774 107.935C88.2585 107.838 88.2589 107.739 88.2787 107.642C88.2985 107.545 88.3372 107.454 88.3924 107.373C88.4476 107.293 88.5182 107.225 88.5998 107.173C88.6813 107.122 88.7721 107.089 88.8666 107.075C89.201 107.045 89.5377 107.094 89.8518 107.217C90.2314 107.25 90.6128 107.176 90.955 107.003C90.955 107.003 92.2614 106.161 92.5775 106.532C92.5775 106.532 93.1667 106.861 92.7248 107.952C92.7248 107.952 92.4159 108.333 92.6482 108.502C92.6482 108.502 93.3757 108.877 93.1103 109.453C93.1103 109.453 92.8941 110.301 91.6079 110.475C91.6079 110.475 89.4436 110.84 89.2794 110.324C89.2794 110.324 89.0847 109.503 88.657 109.57C88.657 109.57 88.1884 109.719 88.4928 110.688C88.4928 110.688 88.5227 110.935 88.0119 110.8C88.0119 110.8 86.6387 110.639 85.9806 111.392C85.9806 111.392 85.9508 111.788 85.5134 111.594L85.2019 111.32L85.2025 111.323Z" fill="#034EA2"/>
<path d="M86.3178 116.061C86.3178 116.061 85.8259 115.7 86.1478 115.337C86.1478 115.337 87.1972 114.329 87.5911 113.845C87.5911 113.845 87.8916 113.526 87.6113 113.325C87.6113 113.325 86.9123 112.94 87.5652 112.703C87.8977 112.683 88.2312 112.696 88.5614 112.742C88.5614 112.742 89.0195 113.036 89.1065 112.54C89.0821 112.446 89.0764 112.349 89.0899 112.253C89.1033 112.157 89.1357 112.065 89.1848 111.982C89.2339 111.899 89.2988 111.828 89.3755 111.773C89.4523 111.717 89.5392 111.678 89.6309 111.659C89.9561 111.604 90.289 111.627 90.6043 111.726C90.9774 111.731 91.3448 111.632 91.668 111.439C91.668 111.439 92.8907 110.527 93.2256 110.869C93.2256 110.869 93.8219 111.15 93.4631 112.246C93.4631 112.246 93.1827 112.643 93.4215 112.784C93.4215 112.784 94.1588 113.105 93.9355 113.689C93.9355 113.689 93.7778 114.53 92.5298 114.791C92.5298 114.791 90.4375 115.295 90.2435 114.801C90.2435 114.801 90.0034 114.011 89.5854 114.108C89.5854 114.108 89.135 114.286 89.4965 115.212C89.4965 115.212 89.5413 115.455 89.0345 115.355C89.0345 115.355 87.6814 115.294 87.0875 116.075C87.0875 116.075 87.0875 116.461 86.6456 116.307L86.3211 116.057L86.3178 116.061Z" fill="#034EA2"/>
<path d="M87.8555 120.332C87.8555 120.332 87.3616 120.009 87.6563 119.636C87.6563 119.636 88.6154 118.602 88.9717 118.109C88.9717 118.109 89.2469 117.784 88.9659 117.608C88.9659 117.608 88.265 117.276 88.8861 117.01C89.2074 116.971 89.5318 116.964 89.8544 116.991C89.8544 116.991 90.3132 117.247 90.3735 116.764C90.3447 116.675 90.3338 116.58 90.3416 116.486C90.3493 116.392 90.3756 116.301 90.4187 116.218C90.4618 116.135 90.5208 116.062 90.5922 116.004C90.6636 115.945 90.7458 115.903 90.8336 115.878C91.1455 115.809 91.4686 115.813 91.7785 115.892C92.1399 115.876 92.4905 115.76 92.7936 115.556C92.7936 115.556 93.9306 114.602 94.2719 114.915C94.2719 114.915 94.8664 115.154 94.5731 116.238C94.5731 116.238 94.3232 116.634 94.5639 116.762C94.5639 116.762 95.2928 117.031 95.1072 117.608C95.1072 117.608 94.9981 118.43 93.804 118.751C93.804 118.751 91.8058 119.364 91.5917 118.891C91.5917 118.891 91.3165 118.144 90.9186 118.261C90.9186 118.261 90.491 118.454 90.8895 119.332C90.8895 119.332 90.9466 119.566 90.4488 119.499C90.4488 119.499 89.1385 119.514 88.6005 120.306C88.6005 120.306 88.6168 120.681 88.1826 120.553L87.8581 120.332H87.8555Z" fill="#034EA2"/>
<path d="M90.2883 124.421C90.2883 124.421 89.7691 124.147 90.0287 123.749C90.0287 123.749 90.8925 122.628 91.2053 122.105C91.2053 122.105 91.45 121.753 91.1515 121.604C91.1515 121.604 90.4266 121.342 91.0217 121.013C91.3383 120.945 91.6607 120.909 91.9841 120.906C91.9841 120.906 92.4624 121.117 92.478 120.627C92.4416 120.541 92.4227 120.448 92.4223 120.354C92.422 120.26 92.4402 120.167 92.4759 120.081C92.5116 119.994 92.564 119.916 92.6299 119.852C92.6957 119.787 92.7737 119.737 92.8589 119.705C93.1635 119.604 93.4864 119.577 93.8025 119.627C94.1586 119.576 94.4949 119.427 94.776 119.195C94.776 119.195 95.828 118.137 96.194 118.415C96.194 118.415 96.806 118.598 96.6119 119.705C96.6119 119.705 96.3984 120.124 96.6509 120.226C96.6509 120.226 97.3998 120.425 97.2648 121.019C97.2648 121.019 97.2336 121.847 96.0713 122.282C96.0713 122.282 94.1335 123.08 93.8804 122.634C93.8804 122.634 93.5391 121.912 93.1529 122.065C93.1529 122.065 92.7453 122.303 93.2178 123.141C93.2178 123.141 93.2937 123.365 92.7947 123.347C92.7947 123.347 91.4883 123.49 91.0249 124.326C91.0249 124.326 91.0749 124.699 90.631 124.613L90.287 124.423L90.2883 124.421Z" fill="#034EA2"/>
<path d="M92.9425 127.832C92.9425 127.832 92.459 127.594 92.6862 127.222C92.6862 127.222 93.4442 126.174 93.7155 125.688C93.7155 125.688 93.929 125.361 93.6505 125.234C93.6505 125.234 92.9808 125.012 93.5156 124.7C93.8022 124.625 94.0956 124.581 94.391 124.57C94.391 124.57 94.833 124.749 94.8343 124.301C94.7989 124.223 94.7792 124.139 94.7765 124.053C94.7737 123.967 94.788 123.881 94.8184 123.801C94.8488 123.721 94.8946 123.648 94.9532 123.587C95.0117 123.526 95.0817 123.479 95.1588 123.447C95.4344 123.346 95.7284 123.312 96.0186 123.347C96.3441 123.293 96.6488 123.147 96.8993 122.925C96.8993 122.925 97.8286 121.93 98.1719 122.172C98.1719 122.172 98.7346 122.321 98.588 123.338C98.588 123.338 98.403 123.728 98.6366 123.814C98.6366 123.814 99.3265 123.97 99.2207 124.515C99.2207 124.515 99.2142 125.275 98.1648 125.705C98.1648 125.705 96.4191 126.49 96.1718 126.088C96.1718 126.088 95.8441 125.442 95.4975 125.593C95.4975 125.593 95.1322 125.817 95.5865 126.571C95.5865 126.571 95.6624 126.773 95.2055 126.773C94.8932 126.813 94.5917 126.917 94.3188 127.079C94.0459 127.242 93.807 127.459 93.6162 127.718C93.6162 127.718 93.6732 128.054 93.2657 127.992L92.9444 127.83L92.9425 127.832Z" fill="#034EA2"/>
<defs>
<filter id="filter0_d" x="0" y="0" width="384" height="184" filterUnits="userSpaceOnUse" color-interpolation-filters="sRGB">
<feFlood flood-opacity="0" result="BackgroundImageFix"/>
<feColorMatrix in="SourceAlpha" type="matrix" values="0 0 0 0 0 0 0 0 0 0 0 0 0 0 0 0 0 0 127 0"/>
<feMorphology radius="2" operator="dilate" in="SourceAlpha" result="effect1_dropShadow"/>
<feOffset/>
<feGaussianBlur stdDeviation="5"/>
<feColorMatrix type="matrix" values="0 0 0 0 0.0117647 0 0 0 0 0.305882 0 0 0 0 0.635294 0 0 0 0.2 0"/>
<feBlend mode="normal" in2="BackgroundImageFix" result="effect1_dropShadow"/>
<feBlend mode="normal" in="SourceGraphic" in2="effect1_dropShadow" result="shape"/>
</filter>
</defs>
</svg>
