<svg width="22" height="18" viewBox="0 0 22 18" fill="none" xmlns="http://www.w3.org/2000/svg">
<path d="M22 2.13215C21.3874 3.05 20.6358 3.83241 19.7452 4.4794C19.754 4.65292 19.7584 4.84905 19.7584 5.06777C19.7584 6.28304 19.5825 7.49979 19.2306 8.718C18.8788 9.93623 18.3414 11.1023 17.6184 12.2162C16.8954 13.3301 16.0342 14.3169 15.0347 15.1766C14.0353 16.0363 12.8339 16.7218 11.4306 17.2331C10.0273 17.7444 8.5233 18 6.91866 18C4.41436 18 2.10813 17.319 0 15.9571C0.374169 15.9991 0.733028 16.02 1.07658 16.02C3.16872 16.02 5.03735 15.371 6.68245 14.0729C5.70697 14.0548 4.83336 13.7524 4.06161 13.1655C3.28986 12.5786 2.75876 11.8287 2.46831 10.9157C2.7554 10.9708 3.03875 10.9983 3.31836 10.9983C3.72083 10.9983 4.11686 10.9455 4.50645 10.8397C3.46543 10.6297 2.60182 10.1075 1.91562 9.273C1.22943 8.43853 0.886343 7.47539 0.886343 6.38359V6.32732C1.52532 6.68367 2.20689 6.87322 2.93106 6.89597C2.31437 6.48188 1.82543 5.94188 1.46423 5.27599C1.10302 4.6101 0.922406 3.88949 0.922406 3.11416C0.922406 2.29644 1.12584 1.535 1.53272 0.829817C2.6648 2.2291 4.03656 3.34745 5.64799 4.18487C7.25944 5.0223 8.98822 5.48738 10.8343 5.58012C10.7556 5.2496 10.7162 4.9047 10.716 4.54539C10.716 3.29084 11.1568 2.21964 12.0384 1.33178C12.9199 0.443928 13.9835 0 15.229 0C16.5331 0 17.6315 0.478265 18.5243 1.4348C19.5443 1.23129 20.4994 0.863195 21.3896 0.330516C21.0466 1.41759 20.3858 2.2562 19.4071 2.84634C20.3066 2.73867 21.1709 2.50061 22 2.13215H22Z" fill="#F4F7FD"/>
</svg>
