<svg width="384" height="184" viewBox="0 0 384 184" fill="none" xmlns="http://www.w3.org/2000/svg">
<g filter="url(#filter0_d)">
<rect x="12" y="12" width="360" height="160" rx="10" fill="#034EA2"/>
</g>
<path d="M173.11 53.18C171.37 53.18 170.014 52.694 169.042 51.722C168.07 50.738 167.584 49.334 167.584 47.51V40.4H169.924V47.42C169.924 49.892 170.992 51.128 173.128 51.128C175.252 51.128 176.314 49.892 176.314 47.42V40.4H178.618V47.51C178.618 49.334 178.132 50.738 177.16 51.722C176.2 52.694 174.85 53.18 173.11 53.18ZM184.181 44.792C184.829 43.784 185.969 43.28 187.601 43.28V45.422C187.409 45.386 187.235 45.368 187.079 45.368C186.203 45.368 185.519 45.626 185.027 46.142C184.535 46.646 184.289 47.378 184.289 48.338V53H182.039V43.388H184.181V44.792ZM194.102 53.126C193.13 53.126 192.254 52.916 191.474 52.496C190.694 52.076 190.082 51.494 189.638 50.75C189.206 49.994 188.99 49.142 188.99 48.194C188.99 47.246 189.206 46.4 189.638 45.656C190.082 44.912 190.694 44.33 191.474 43.91C192.254 43.49 193.13 43.28 194.102 43.28C195.086 43.28 195.968 43.49 196.748 43.91C197.528 44.33 198.134 44.912 198.566 45.656C199.01 46.4 199.232 47.246 199.232 48.194C199.232 49.142 199.01 49.994 198.566 50.75C198.134 51.494 197.528 52.076 196.748 52.496C195.968 52.916 195.086 53.126 194.102 53.126ZM194.102 51.2C194.93 51.2 195.614 50.924 196.154 50.372C196.694 49.82 196.964 49.094 196.964 48.194C196.964 47.294 196.694 46.568 196.154 46.016C195.614 45.464 194.93 45.188 194.102 45.188C193.274 45.188 192.59 45.464 192.05 46.016C191.522 46.568 191.258 47.294 191.258 48.194C191.258 49.094 191.522 49.82 192.05 50.372C192.59 50.924 193.274 51.2 194.102 51.2ZM201.744 39.644H203.994V53H201.744V39.644ZM211.627 53.126C210.655 53.126 209.779 52.916 208.999 52.496C208.219 52.076 207.607 51.494 207.163 50.75C206.731 49.994 206.515 49.142 206.515 48.194C206.515 47.246 206.731 46.4 207.163 45.656C207.607 44.912 208.219 44.33 208.999 43.91C209.779 43.49 210.655 43.28 211.627 43.28C212.611 43.28 213.493 43.49 214.273 43.91C215.053 44.33 215.659 44.912 216.091 45.656C216.535 46.4 216.757 47.246 216.757 48.194C216.757 49.142 216.535 49.994 216.091 50.75C215.659 51.494 215.053 52.076 214.273 52.496C213.493 52.916 212.611 53.126 211.627 53.126ZM211.627 51.2C212.455 51.2 213.139 50.924 213.679 50.372C214.219 49.82 214.489 49.094 214.489 48.194C214.489 47.294 214.219 46.568 213.679 46.016C213.139 45.464 212.455 45.188 211.627 45.188C210.799 45.188 210.115 45.464 209.575 46.016C209.047 46.568 208.783 47.294 208.783 48.194C208.783 49.094 209.047 49.82 209.575 50.372C210.115 50.924 210.799 51.2 211.627 51.2ZM228.808 43.388V51.542C228.808 54.926 227.08 56.618 223.624 56.618C222.7 56.618 221.824 56.498 220.996 56.258C220.168 56.03 219.484 55.694 218.944 55.25L219.952 53.558C220.372 53.906 220.9 54.182 221.536 54.386C222.184 54.602 222.838 54.71 223.498 54.71C224.554 54.71 225.328 54.47 225.82 53.99C226.312 53.51 226.558 52.778 226.558 51.794V51.29C226.174 51.71 225.706 52.028 225.154 52.244C224.602 52.46 223.996 52.568 223.336 52.568C222.424 52.568 221.596 52.376 220.852 51.992C220.12 51.596 219.538 51.044 219.106 50.336C218.686 49.628 218.476 48.818 218.476 47.906C218.476 46.994 218.686 46.19 219.106 45.494C219.538 44.786 220.12 44.24 220.852 43.856C221.596 43.472 222.424 43.28 223.336 43.28C224.032 43.28 224.662 43.394 225.226 43.622C225.802 43.85 226.282 44.198 226.666 44.666V43.388H228.808ZM223.678 50.66C224.53 50.66 225.226 50.408 225.766 49.904C226.318 49.388 226.594 48.722 226.594 47.906C226.594 47.102 226.318 46.448 225.766 45.944C225.226 45.44 224.53 45.188 223.678 45.188C222.814 45.188 222.106 45.44 221.554 45.944C221.014 46.448 220.744 47.102 220.744 47.906C220.744 48.722 221.014 49.388 221.554 49.904C222.106 50.408 222.814 50.66 223.678 50.66ZM241.126 43.388L236.626 53.774C236.206 54.818 235.696 55.55 235.096 55.97C234.496 56.402 233.77 56.618 232.918 56.618C232.438 56.618 231.964 56.54 231.496 56.384C231.028 56.228 230.644 56.012 230.344 55.736L231.244 54.08C231.46 54.284 231.712 54.446 232 54.566C232.3 54.686 232.6 54.746 232.9 54.746C233.296 54.746 233.62 54.644 233.872 54.44C234.136 54.236 234.376 53.894 234.592 53.414L234.754 53.036L230.56 43.388H232.9L235.924 50.498L238.966 43.388H241.126Z" fill="white"/>
<path d="M169.85 78.088C171.166 78.088 172.179 78.5127 172.888 79.362C173.607 80.2113 173.966 81.4153 173.966 82.974C173.966 84.066 173.77 84.9993 173.378 85.774C172.995 86.5393 172.454 87.1227 171.754 87.524C171.063 87.916 170.256 88.112 169.332 88.112C168.856 88.112 168.408 88.0653 167.988 87.972C167.568 87.8693 167.204 87.7247 166.896 87.538L167.428 86.446C167.904 86.754 168.534 86.908 169.318 86.908C170.335 86.908 171.129 86.5953 171.698 85.97C172.277 85.3353 172.566 84.416 172.566 83.212V82.862C172.286 83.282 171.899 83.604 171.404 83.828C170.909 84.0427 170.354 84.15 169.738 84.15C169.094 84.15 168.515 84.0287 168.002 83.786C167.498 83.5433 167.101 83.198 166.812 82.75C166.532 82.2927 166.392 81.77 166.392 81.182C166.392 80.566 166.541 80.0247 166.84 79.558C167.148 79.0913 167.563 78.732 168.086 78.48C168.609 78.2187 169.197 78.088 169.85 78.088ZM169.976 83.016C170.415 83.016 170.807 82.932 171.152 82.764C171.497 82.596 171.763 82.3673 171.95 82.078C172.146 81.7887 172.244 81.4667 172.244 81.112C172.244 80.7667 172.151 80.454 171.964 80.174C171.787 79.8847 171.521 79.656 171.166 79.488C170.821 79.3107 170.401 79.222 169.906 79.222C169.262 79.222 168.739 79.3947 168.338 79.74C167.946 80.0853 167.75 80.5473 167.75 81.126C167.75 81.7047 167.951 82.1667 168.352 82.512C168.753 82.848 169.295 83.016 169.976 83.016ZM183.006 88.112C182.269 88.112 181.555 88 180.864 87.776C180.183 87.5427 179.646 87.244 179.254 86.88L179.772 85.788C180.146 86.124 180.622 86.3993 181.2 86.614C181.788 86.8193 182.39 86.922 183.006 86.922C183.818 86.922 184.425 86.7867 184.826 86.516C185.228 86.236 185.428 85.8673 185.428 85.41C185.428 85.074 185.316 84.8033 185.092 84.598C184.878 84.3833 184.607 84.22 184.28 84.108C183.963 83.996 183.51 83.87 182.922 83.73C182.185 83.5527 181.588 83.3753 181.13 83.198C180.682 83.0207 180.295 82.75 179.968 82.386C179.651 82.0127 179.492 81.5133 179.492 80.888C179.492 80.3653 179.628 79.894 179.898 79.474C180.178 79.054 180.598 78.718 181.158 78.466C181.718 78.214 182.414 78.088 183.244 78.088C183.823 78.088 184.392 78.1627 184.952 78.312C185.512 78.4613 185.993 78.676 186.394 78.956L185.932 80.076C185.522 79.8147 185.083 79.6187 184.616 79.488C184.15 79.348 183.692 79.278 183.244 79.278C182.451 79.278 181.854 79.4227 181.452 79.712C181.06 80.0013 180.864 80.3747 180.864 80.832C180.864 81.168 180.976 81.4433 181.2 81.658C181.424 81.8633 181.7 82.0267 182.026 82.148C182.362 82.26 182.815 82.3813 183.384 82.512C184.122 82.6893 184.714 82.8667 185.162 83.044C185.61 83.2213 185.993 83.492 186.31 83.856C186.637 84.22 186.8 84.71 186.8 85.326C186.8 85.8393 186.66 86.3107 186.38 86.74C186.1 87.16 185.676 87.496 185.106 87.748C184.537 87.9907 183.837 88.112 183.006 88.112ZM192.724 80.51C193.442 80.51 194.086 80.6687 194.656 80.986C195.225 81.3033 195.668 81.7467 195.986 82.316C196.312 82.8853 196.476 83.5433 196.476 84.29C196.476 85.0367 196.312 85.6993 195.986 86.278C195.668 86.8473 195.225 87.2907 194.656 87.608C194.086 87.9253 193.442 88.084 192.724 88.084C192.192 88.084 191.702 87.9813 191.254 87.776C190.815 87.5707 190.442 87.272 190.134 86.88V90.716H188.79V80.58H190.078V81.756C190.376 81.3453 190.754 81.0373 191.212 80.832C191.669 80.6173 192.173 80.51 192.724 80.51ZM192.612 86.908C193.088 86.908 193.512 86.8007 193.886 86.586C194.268 86.362 194.567 86.054 194.782 85.662C195.006 85.2607 195.118 84.8033 195.118 84.29C195.118 83.7767 195.006 83.324 194.782 82.932C194.567 82.5307 194.268 82.2227 193.886 82.008C193.512 81.7933 193.088 81.686 192.612 81.686C192.145 81.686 191.72 81.798 191.338 82.022C190.964 82.2367 190.666 82.54 190.442 82.932C190.227 83.324 190.12 83.7767 190.12 84.29C190.12 84.8033 190.227 85.2607 190.442 85.662C190.656 86.054 190.955 86.362 191.338 86.586C191.72 86.8007 192.145 86.908 192.612 86.908ZM205.179 84.332C205.179 84.4347 205.169 84.57 205.151 84.738H199.131C199.215 85.3913 199.499 85.9187 199.985 86.32C200.479 86.712 201.091 86.908 201.819 86.908C202.705 86.908 203.419 86.6093 203.961 86.012L204.703 86.88C204.367 87.272 203.947 87.5707 203.443 87.776C202.948 87.9813 202.393 88.084 201.777 88.084C200.993 88.084 200.297 87.9253 199.691 87.608C199.084 87.2813 198.613 86.8287 198.277 86.25C197.95 85.6713 197.787 85.018 197.787 84.29C197.787 83.5713 197.945 82.9227 198.263 82.344C198.589 81.7653 199.033 81.3173 199.593 81C200.162 80.6733 200.801 80.51 201.511 80.51C202.22 80.51 202.85 80.6733 203.401 81C203.961 81.3173 204.395 81.7653 204.703 82.344C205.02 82.9227 205.179 83.5853 205.179 84.332ZM201.511 81.644C200.867 81.644 200.325 81.84 199.887 82.232C199.457 82.624 199.205 83.1373 199.131 83.772H203.891C203.816 83.1467 203.559 82.638 203.121 82.246C202.691 81.8447 202.155 81.644 201.511 81.644ZM210.419 88.084C209.663 88.084 208.986 87.9207 208.389 87.594C207.801 87.2673 207.339 86.8193 207.003 86.25C206.667 85.6713 206.499 85.018 206.499 84.29C206.499 83.562 206.667 82.9133 207.003 82.344C207.339 81.7653 207.801 81.3173 208.389 81C208.986 80.6733 209.663 80.51 210.419 80.51C211.091 80.51 211.688 80.6453 212.211 80.916C212.743 81.1867 213.154 81.5787 213.443 82.092L212.421 82.75C212.188 82.3953 211.898 82.1293 211.553 81.952C211.208 81.7747 210.825 81.686 210.405 81.686C209.92 81.686 209.481 81.7933 209.089 82.008C208.706 82.2227 208.403 82.5307 208.179 82.932C207.964 83.324 207.857 83.7767 207.857 84.29C207.857 84.8127 207.964 85.2747 208.179 85.676C208.403 86.068 208.706 86.3713 209.089 86.586C209.481 86.8007 209.92 86.908 210.405 86.908C210.825 86.908 211.208 86.8193 211.553 86.642C211.898 86.4647 212.188 86.1987 212.421 85.844L213.443 86.488C213.154 87.0013 212.743 87.398 212.211 87.678C211.688 87.9487 211.091 88.084 210.419 88.084ZM215.323 80.58H216.667V88H215.323V80.58ZM215.995 79.152C215.734 79.152 215.514 79.068 215.337 78.9C215.169 78.732 215.085 78.5267 215.085 78.284C215.085 78.0413 215.169 77.836 215.337 77.668C215.514 77.4907 215.734 77.402 215.995 77.402C216.256 77.402 216.471 77.486 216.639 77.654C216.816 77.8127 216.905 78.0133 216.905 78.256C216.905 78.508 216.816 78.7227 216.639 78.9C216.471 79.068 216.256 79.152 215.995 79.152ZM222.075 80.51C223.102 80.51 223.886 80.762 224.427 81.266C224.978 81.77 225.253 82.5213 225.253 83.52V88H223.979V87.02C223.755 87.3653 223.433 87.6313 223.013 87.818C222.602 87.9953 222.112 88.084 221.543 88.084C220.712 88.084 220.045 87.8833 219.541 87.482C219.046 87.0807 218.799 86.5533 218.799 85.9C218.799 85.2467 219.037 84.724 219.513 84.332C219.989 83.9307 220.745 83.73 221.781 83.73H223.909V83.464C223.909 82.8853 223.741 82.442 223.405 82.134C223.069 81.826 222.574 81.672 221.921 81.672C221.482 81.672 221.053 81.7467 220.633 81.896C220.213 82.036 219.858 82.2273 219.569 82.47L219.009 81.462C219.392 81.154 219.849 80.9207 220.381 80.762C220.913 80.594 221.478 80.51 222.075 80.51ZM221.767 87.048C222.28 87.048 222.724 86.936 223.097 86.712C223.47 86.4787 223.741 86.152 223.909 85.732V84.696H221.837C220.698 84.696 220.129 85.0787 220.129 85.844C220.129 86.2173 220.274 86.5113 220.563 86.726C220.852 86.9407 221.254 87.048 221.767 87.048ZM227.88 77.612H229.224V88H227.88V77.612ZM231.93 80.58H233.274V88H231.93V80.58ZM232.602 79.152C232.341 79.152 232.122 79.068 231.944 78.9C231.776 78.732 231.692 78.5267 231.692 78.284C231.692 78.0413 231.776 77.836 231.944 77.668C232.122 77.4907 232.341 77.402 232.602 77.402C232.864 77.402 233.078 77.486 233.246 77.654C233.424 77.8127 233.512 78.0133 233.512 78.256C233.512 78.508 233.424 78.7227 233.246 78.9C233.078 79.068 232.864 79.152 232.602 79.152ZM240.153 87.566C239.957 87.734 239.714 87.8647 239.425 87.958C239.135 88.042 238.837 88.084 238.529 88.084C237.782 88.084 237.203 87.8833 236.793 87.482C236.382 87.0807 236.177 86.5067 236.177 85.76V81.686H234.917V80.58H236.177V78.956H237.521V80.58H239.649V81.686H237.521V85.704C237.521 86.1053 237.619 86.4133 237.815 86.628C238.02 86.8427 238.309 86.95 238.683 86.95C239.093 86.95 239.443 86.8333 239.733 86.6L240.153 87.566ZM241.918 80.58H243.262V88H241.918V80.58ZM242.59 79.152C242.328 79.152 242.109 79.068 241.932 78.9C241.764 78.732 241.68 78.5267 241.68 78.284C241.68 78.0413 241.764 77.836 241.932 77.668C242.109 77.4907 242.328 77.402 242.59 77.402C242.851 77.402 243.066 77.486 243.234 77.654C243.411 77.8127 243.5 78.0133 243.5 78.256C243.5 78.508 243.411 78.7227 243.234 78.9C243.066 79.068 242.851 79.152 242.59 79.152ZM252.674 84.332C252.674 84.4347 252.664 84.57 252.646 84.738H246.626C246.71 85.3913 246.994 85.9187 247.48 86.32C247.974 86.712 248.586 86.908 249.314 86.908C250.2 86.908 250.914 86.6093 251.456 86.012L252.198 86.88C251.862 87.272 251.442 87.5707 250.938 87.776C250.443 87.9813 249.888 88.084 249.272 88.084C248.488 88.084 247.792 87.9253 247.186 87.608C246.579 87.2813 246.108 86.8287 245.772 86.25C245.445 85.6713 245.282 85.018 245.282 84.29C245.282 83.5713 245.44 82.9227 245.758 82.344C246.084 81.7653 246.528 81.3173 247.088 81C247.657 80.6733 248.296 80.51 249.006 80.51C249.715 80.51 250.345 80.6733 250.896 81C251.456 81.3173 251.89 81.7653 252.198 82.344C252.515 82.9227 252.674 83.5853 252.674 84.332ZM249.006 81.644C248.362 81.644 247.82 81.84 247.382 82.232C246.952 82.624 246.7 83.1373 246.626 83.772H251.386C251.311 83.1467 251.054 82.638 250.616 82.246C250.186 81.8447 249.65 81.644 249.006 81.644ZM256.808 88.084C256.201 88.084 255.618 88.0047 255.058 87.846C254.498 87.678 254.059 87.468 253.742 87.216L254.302 86.152C254.629 86.3853 255.025 86.572 255.492 86.712C255.959 86.852 256.43 86.922 256.906 86.922C258.082 86.922 258.67 86.586 258.67 85.914C258.67 85.69 258.591 85.5127 258.432 85.382C258.273 85.2513 258.073 85.158 257.83 85.102C257.597 85.0367 257.261 84.9667 256.822 84.892C256.225 84.7987 255.735 84.6913 255.352 84.57C254.979 84.4487 254.657 84.2433 254.386 83.954C254.115 83.6647 253.98 83.2587 253.98 82.736C253.98 82.064 254.26 81.5273 254.82 81.126C255.38 80.7153 256.131 80.51 257.074 80.51C257.569 80.51 258.063 80.5707 258.558 80.692C259.053 80.8133 259.459 80.9767 259.776 81.182L259.202 82.246C258.595 81.854 257.881 81.658 257.06 81.658C256.491 81.658 256.057 81.7513 255.758 81.938C255.459 82.1247 255.31 82.372 255.31 82.68C255.31 82.9227 255.394 83.114 255.562 83.254C255.73 83.394 255.935 83.4967 256.178 83.562C256.43 83.6273 256.78 83.702 257.228 83.786C257.825 83.8887 258.306 84.0007 258.67 84.122C259.043 84.234 259.361 84.43 259.622 84.71C259.883 84.99 260.014 85.382 260.014 85.886C260.014 86.558 259.725 87.0947 259.146 87.496C258.577 87.888 257.797 88.084 256.808 88.084Z" fill="white"/>
<path d="M175.198 112.592H173.336V115H171.978V112.592H166.532V111.612L171.544 105.2H173.056L168.254 111.388H172.02V109.26H173.336V111.388H175.198V112.592ZM180.875 105.2H185.005C186.041 105.2 186.96 105.405 187.763 105.816C188.566 106.227 189.186 106.805 189.625 107.552C190.073 108.289 190.297 109.139 190.297 110.1C190.297 111.061 190.073 111.915 189.625 112.662C189.186 113.399 188.566 113.973 187.763 114.384C186.96 114.795 186.041 115 185.005 115H180.875V105.2ZM184.921 113.782C185.714 113.782 186.41 113.628 187.007 113.32C187.614 113.012 188.08 112.583 188.407 112.032C188.734 111.472 188.897 110.828 188.897 110.1C188.897 109.372 188.734 108.733 188.407 108.182C188.08 107.622 187.614 107.188 187.007 106.88C186.41 106.572 185.714 106.418 184.921 106.418H182.275V113.782H184.921ZM195.563 115.084C194.826 115.084 194.163 114.921 193.575 114.594C192.987 114.267 192.525 113.819 192.189 113.25C191.863 112.671 191.699 112.018 191.699 111.29C191.699 110.562 191.863 109.913 192.189 109.344C192.525 108.765 192.987 108.317 193.575 108C194.163 107.673 194.826 107.51 195.563 107.51C196.301 107.51 196.959 107.673 197.537 108C198.125 108.317 198.583 108.765 198.909 109.344C199.245 109.913 199.413 110.562 199.413 111.29C199.413 112.018 199.245 112.671 198.909 113.25C198.583 113.819 198.125 114.267 197.537 114.594C196.959 114.921 196.301 115.084 195.563 115.084ZM195.563 113.908C196.039 113.908 196.464 113.801 196.837 113.586C197.22 113.362 197.519 113.054 197.733 112.662C197.948 112.261 198.055 111.803 198.055 111.29C198.055 110.777 197.948 110.324 197.733 109.932C197.519 109.531 197.22 109.223 196.837 109.008C196.464 108.793 196.039 108.686 195.563 108.686C195.087 108.686 194.658 108.793 194.275 109.008C193.902 109.223 193.603 109.531 193.379 109.932C193.165 110.324 193.057 110.777 193.057 111.29C193.057 111.803 193.165 112.261 193.379 112.662C193.603 113.054 193.902 113.362 194.275 113.586C194.658 113.801 195.087 113.908 195.563 113.908ZM204.646 115.084C203.89 115.084 203.213 114.921 202.616 114.594C202.028 114.267 201.566 113.819 201.23 113.25C200.894 112.671 200.726 112.018 200.726 111.29C200.726 110.562 200.894 109.913 201.23 109.344C201.566 108.765 202.028 108.317 202.616 108C203.213 107.673 203.89 107.51 204.646 107.51C205.318 107.51 205.915 107.645 206.438 107.916C206.97 108.187 207.381 108.579 207.67 109.092L206.648 109.75C206.415 109.395 206.125 109.129 205.78 108.952C205.435 108.775 205.052 108.686 204.632 108.686C204.147 108.686 203.708 108.793 203.316 109.008C202.933 109.223 202.63 109.531 202.406 109.932C202.191 110.324 202.084 110.777 202.084 111.29C202.084 111.813 202.191 112.275 202.406 112.676C202.63 113.068 202.933 113.371 203.316 113.586C203.708 113.801 204.147 113.908 204.632 113.908C205.052 113.908 205.435 113.819 205.78 113.642C206.125 113.465 206.415 113.199 206.648 112.844L207.67 113.488C207.381 114.001 206.97 114.398 206.438 114.678C205.915 114.949 205.318 115.084 204.646 115.084ZM213.818 114.566C213.622 114.734 213.379 114.865 213.09 114.958C212.801 115.042 212.502 115.084 212.194 115.084C211.447 115.084 210.869 114.883 210.458 114.482C210.047 114.081 209.842 113.507 209.842 112.76V108.686H208.582V107.58H209.842V105.956H211.186V107.58H213.314V108.686H211.186V112.704C211.186 113.105 211.284 113.413 211.48 113.628C211.685 113.843 211.975 113.95 212.348 113.95C212.759 113.95 213.109 113.833 213.398 113.6L213.818 114.566ZM218.515 115.084C217.777 115.084 217.115 114.921 216.527 114.594C215.939 114.267 215.477 113.819 215.141 113.25C214.814 112.671 214.651 112.018 214.651 111.29C214.651 110.562 214.814 109.913 215.141 109.344C215.477 108.765 215.939 108.317 216.527 108C217.115 107.673 217.777 107.51 218.515 107.51C219.252 107.51 219.91 107.673 220.489 108C221.077 108.317 221.534 108.765 221.861 109.344C222.197 109.913 222.365 110.562 222.365 111.29C222.365 112.018 222.197 112.671 221.861 113.25C221.534 113.819 221.077 114.267 220.489 114.594C219.91 114.921 219.252 115.084 218.515 115.084ZM218.515 113.908C218.991 113.908 219.415 113.801 219.789 113.586C220.171 113.362 220.47 113.054 220.685 112.662C220.899 112.261 221.007 111.803 221.007 111.29C221.007 110.777 220.899 110.324 220.685 109.932C220.47 109.531 220.171 109.223 219.789 109.008C219.415 108.793 218.991 108.686 218.515 108.686C218.039 108.686 217.609 108.793 217.227 109.008C216.853 109.223 216.555 109.531 216.331 109.932C216.116 110.324 216.009 110.777 216.009 111.29C216.009 111.803 216.116 112.261 216.331 112.662C216.555 113.054 216.853 113.362 217.227 113.586C217.609 113.801 218.039 113.908 218.515 113.908ZM225.651 108.826C225.885 108.397 226.23 108.07 226.687 107.846C227.145 107.622 227.7 107.51 228.353 107.51V108.812C228.279 108.803 228.176 108.798 228.045 108.798C227.317 108.798 226.743 109.017 226.323 109.456C225.913 109.885 225.707 110.501 225.707 111.304V115H224.363V107.58H225.651V108.826ZM232.333 115.084C231.726 115.084 231.143 115.005 230.583 114.846C230.023 114.678 229.584 114.468 229.267 114.216L229.827 113.152C230.153 113.385 230.55 113.572 231.017 113.712C231.483 113.852 231.955 113.922 232.431 113.922C233.607 113.922 234.195 113.586 234.195 112.914C234.195 112.69 234.115 112.513 233.957 112.382C233.798 112.251 233.597 112.158 233.355 112.102C233.121 112.037 232.785 111.967 232.347 111.892C231.749 111.799 231.259 111.691 230.877 111.57C230.503 111.449 230.181 111.243 229.911 110.954C229.64 110.665 229.505 110.259 229.505 109.736C229.505 109.064 229.785 108.527 230.345 108.126C230.905 107.715 231.656 107.51 232.599 107.51C233.093 107.51 233.588 107.571 234.083 107.692C234.577 107.813 234.983 107.977 235.301 108.182L234.727 109.246C234.12 108.854 233.406 108.658 232.585 108.658C232.015 108.658 231.581 108.751 231.283 108.938C230.984 109.125 230.835 109.372 230.835 109.68C230.835 109.923 230.919 110.114 231.087 110.254C231.255 110.394 231.46 110.497 231.703 110.562C231.955 110.627 232.305 110.702 232.753 110.786C233.35 110.889 233.831 111.001 234.195 111.122C234.568 111.234 234.885 111.43 235.147 111.71C235.408 111.99 235.539 112.382 235.539 112.886C235.539 113.558 235.249 114.095 234.671 114.496C234.101 114.888 233.322 115.084 232.333 115.084Z" fill="white"/>
<circle cx="92" cy="92" r="60" fill="white"/>
<path d="M80.1034 69.004C80.7113 69.136 81.3274 69.2353 81.9224 69.4074C83.3039 69.7856 84.5322 70.5874 85.4344 71.7C87.3118 74.0376 86.8583 77.0207 84.3601 78.8183C84.0439 79.0441 83.7399 79.2842 83.3802 79.561C83.2014 79.2162 82.9872 78.8652 82.8199 78.4918C82.5282 77.8341 82.2705 77.1669 81.9938 76.5059C81.8631 76.1545 81.6636 75.8328 81.4071 75.5595C81.1506 75.2862 80.8422 75.0668 80.4999 74.9142C80.1576 74.7616 79.7883 74.6788 79.4136 74.6706C79.039 74.6625 78.6664 74.7291 78.3178 74.8667C77.9692 75.0043 77.6515 75.21 77.3834 75.4718C77.1152 75.7337 76.902 76.0464 76.7561 76.3917C76.6102 76.737 76.5346 77.1079 76.5337 77.4827C76.5329 77.8576 76.6068 78.2289 76.7512 78.5748C76.8484 78.8373 76.9497 79.0937 77.0741 79.4174C76.6041 79.3462 76.1237 79.3949 75.6776 79.5592C75.2314 79.7234 74.834 79.9977 74.5222 80.3567C74.1682 80.805 73.9306 81.334 73.8307 81.8965C73.6117 83.4132 74.3271 84.3511 76.1249 85.0632C75.961 85.2563 75.8046 85.438 75.6544 85.6243C75.3383 86.0137 75.1303 86.4794 75.0513 86.9746C74.9723 87.4699 75.025 87.9772 75.2042 88.4456C75.3834 88.914 75.6828 89.327 76.0721 89.643C76.4615 89.959 76.9271 90.1669 77.4223 90.2458C77.7326 90.2945 78.0496 90.279 78.3537 90.2003C78.6578 90.1215 78.9425 89.9812 79.1902 89.7881C79.7102 89.3661 80.2041 88.913 80.6692 88.4312C81.2029 87.9238 81.7265 87.4008 82.2188 86.9165C82.6316 87.6157 82.9865 88.2285 83.3544 88.8379C84.8504 91.3068 84.4267 93.8518 82.1597 95.3916C81.3849 95.9129 80.5273 96.2987 79.6234 96.5329C75.4803 97.5782 71.5317 95.5501 69.6135 91.4625C68.3289 88.5992 67.7974 85.455 68.0693 82.3284C68.181 79.6992 68.8644 77.126 70.0718 74.7878C71.5861 71.9551 73.7797 69.9521 76.998 69.2414C77.406 69.1523 77.814 69.0809 78.2274 69.004H80.1034Z" fill="#B52A4E"/>
<path d="M115.999 85.1265C115.87 85.9869 115.77 86.8554 115.604 87.711C115.261 89.7982 114.425 91.7736 113.167 93.4737C111.95 95.0732 110.202 96.1856 108.238 96.6107C106.273 97.0358 104.222 96.7455 102.453 95.7923C100.706 94.8095 99.6406 93.3839 99.7969 91.2708C99.9016 90.3355 100.232 89.4396 100.76 88.6604C101.091 88.1231 101.398 87.5668 101.755 86.9526C102.015 87.1723 102.348 87.4158 102.639 87.7008C103.17 88.2292 103.647 88.8142 104.195 89.3222C104.505 89.6658 104.896 89.9275 105.332 90.084C105.768 90.2405 106.235 90.2869 106.693 90.2193C107.173 90.1248 107.621 89.9086 107.994 89.5912C108.367 89.2739 108.651 88.8661 108.821 88.407C108.991 87.9479 109.04 87.4528 108.963 86.9694C108.886 86.4859 108.687 86.0303 108.384 85.6461C108.229 85.4509 108.062 85.2707 107.894 85.0768C109.85 84.0791 110.494 83.1092 110.184 81.6429C109.882 80.2357 108.807 79.4719 106.959 79.3896C107.067 79.0897 107.173 78.802 107.276 78.517C107.554 77.8238 107.545 77.0486 107.251 76.3621C106.957 75.6755 106.403 75.1337 105.71 74.8559C105.017 74.5781 104.242 74.587 103.556 74.8808C102.869 75.1745 102.327 75.729 102.05 76.4222C101.721 77.1765 101.419 77.9457 101.087 78.702C100.958 79.0006 100.786 79.2788 100.638 79.5597C100.162 79.1965 99.714 78.8727 99.2856 78.519C98.7625 78.124 98.328 77.6237 98.0101 77.0504C97.6922 76.4771 97.4978 75.8435 97.4397 75.1905C97.3815 74.5375 97.4608 73.8795 97.6724 73.259C97.884 72.6385 98.2232 72.0692 98.6682 71.5879C99.8848 70.1969 101.578 69.3113 103.414 69.1054C103.581 69.0802 103.746 69.0374 103.911 69H105.785C105.9 69.0408 106.017 69.0724 106.136 69.0945C108.117 69.3126 109.976 70.1611 111.439 71.5151C113.835 73.7228 115.003 76.5705 115.605 79.6889C115.778 80.586 115.871 81.4994 116 82.4046V85.1251L115.999 85.1265Z" fill="#B52A4E"/>
<path d="M92.009 109.011C93.4139 109.011 94.8194 108.983 96.2249 109.026C96.487 109.052 96.7516 109.013 96.9954 108.914C97.2392 108.814 97.4549 108.656 97.6236 108.454C98.1771 107.784 98.7395 107.117 99.2556 106.42C99.3181 106.353 99.3628 106.271 99.3854 106.182C99.4081 106.093 99.408 106 99.3853 105.911C99.3626 105.822 99.3178 105.74 99.2552 105.673C99.1926 105.606 99.1142 105.555 99.0271 105.526C98.4038 105.179 97.7558 104.877 97.0885 104.624C94.5237 103.848 91.8158 103.668 89.1708 104.097C87.7567 104.258 86.3885 104.697 85.1447 105.389C84.5253 105.75 84.4144 105.967 84.8251 106.545C85.3787 107.296 85.9886 108.003 86.6495 108.661C86.8885 108.869 87.1934 108.986 87.5103 108.992C89.0063 109.024 90.5104 109.008 92.009 109.008V109.011ZM90.507 117C90.5104 116.296 90.4981 115.594 90.5253 114.892C90.5369 114.584 90.4104 114.513 90.1337 114.451C88.3436 114.096 86.6504 113.362 85.1686 112.296C83.6868 111.231 82.4508 109.86 81.5442 108.276C81.1526 107.584 80.9008 106.821 80.8031 106.032C80.6236 104.624 81.4082 103.593 82.4574 102.762C83.8869 101.69 85.5499 100.97 87.3104 100.664C91.1991 99.7733 95.2614 100.014 99.0175 101.358C100.131 101.737 101.15 102.351 102.005 103.159C102.602 103.665 103.013 104.355 103.175 105.121C103.338 105.886 103.242 106.683 102.902 107.388C102.179 109.077 101.039 110.554 99.5887 111.682C97.9448 113.09 95.9631 114.046 93.8382 114.456C93.5594 114.507 93.4846 114.626 93.4907 114.89C93.5091 115.594 93.5016 116.297 93.5057 116.999L90.507 117Z" fill="#B52A4E"/>
<path d="M79.1502 84.0056C78.2438 83.8471 77.3381 83.6893 76.4337 83.522C76.2547 83.5017 76.082 83.4438 75.9268 83.3523C75.7716 83.2607 75.6374 83.1375 75.533 82.9907C75.4285 82.8438 75.3562 82.6766 75.3207 82.4999C75.2851 82.3232 75.2872 82.141 75.3267 81.9652C75.3632 81.7933 75.4339 81.6306 75.5348 81.4868C75.6357 81.343 75.7646 81.221 75.9138 81.1283C76.063 81.0355 76.2294 80.9739 76.403 80.9471C76.5766 80.9202 76.7538 80.9288 76.924 80.9722C77.808 81.132 78.7001 81.279 79.6534 81.4442C79.5984 81.2899 79.5677 81.196 79.529 81.1042C79.0714 80.0636 78.594 79.0291 78.1595 77.9797C78.0908 77.8212 78.055 77.6504 78.0543 77.4777C78.0536 77.305 78.088 77.1339 78.1554 76.9749C78.2228 76.8159 78.3218 76.6722 78.4464 76.5527C78.571 76.4331 78.7186 76.3401 78.8803 76.2794C79.0404 76.2161 79.2114 76.1853 79.3835 76.1887C79.5555 76.1922 79.7252 76.2298 79.8827 76.2994C80.0401 76.369 80.1821 76.4692 80.3004 76.5942C80.4188 76.7192 80.5111 76.8665 80.5721 77.0275C80.9712 77.9429 81.3445 78.8699 81.7709 79.7691C81.9856 80.2037 82.2413 80.6168 82.5345 81.0028C83.054 81.7355 83.8083 82.2685 84.6723 82.5134C85.833 82.7839 86.9226 83.2992 87.8682 84.0246C87.8777 83.7988 87.8906 83.6404 87.8906 83.4846C87.8906 81.7489 87.8906 80.016 87.8906 78.283C87.8821 78.1066 87.9095 77.9303 87.9712 77.7648C88.0329 77.5993 88.1277 77.4481 88.2497 77.3203C88.3716 77.1926 88.5183 77.091 88.6808 77.0218C88.8432 76.9525 89.0181 76.9171 89.1947 76.9175C89.3713 76.918 89.5459 76.9544 89.708 77.0244C89.8701 77.0945 90.0163 77.1969 90.1376 77.3252C90.2589 77.4536 90.3528 77.6053 90.4137 77.7712C90.4745 77.937 90.501 78.1134 90.4915 78.2898C90.4915 84.7546 90.4915 91.2204 90.4915 97.6871C90.4915 97.751 90.482 97.8101 90.4732 97.9142C89.6327 98.0155 88.7903 98.1182 87.911 98.2257C87.9049 98.0761 87.8906 97.9421 87.8906 97.8054C87.8906 95.8507 87.8906 93.8976 87.8906 91.9461C87.9311 90.6181 87.7706 89.2916 87.4147 88.0116C87.1598 87.0593 86.567 86.2325 85.7472 85.6855C84.9273 85.1385 83.9363 84.9089 82.9595 85.0394C82.3056 85.1758 81.6946 85.4692 81.1793 85.8943C80.3538 86.5778 79.6616 87.4171 78.8857 88.1605C78.6474 88.3995 78.3527 88.5746 78.029 88.6699C77.7677 88.7321 77.4931 88.7049 77.2492 88.5924C77.0054 88.4799 76.8063 88.2888 76.684 88.0496C76.5539 87.8159 76.4992 87.5477 76.5273 87.2817C76.5554 87.0157 76.665 86.7649 76.841 86.5635C77.5455 85.7902 78.269 85.0367 78.9891 84.2797C79.0606 84.2202 79.1394 84.1701 79.2237 84.1308C79.1992 84.0913 79.1734 84.0464 79.1489 84.0036L79.1502 84.0056Z" fill="#B52A4E"/>
<path d="M104.332 81.4443C105.297 81.279 106.184 81.1321 107.071 80.9764C107.245 80.9285 107.426 80.9174 107.604 80.9438C107.782 80.9701 107.952 81.0333 108.105 81.1294C108.257 81.2254 108.387 81.3521 108.487 81.5014C108.588 81.6508 108.656 81.8194 108.687 81.9966C108.725 82.177 108.723 82.3634 108.682 82.5431C108.641 82.7227 108.561 82.8914 108.449 83.0375C108.337 83.1836 108.194 83.3037 108.031 83.3896C107.868 83.4755 107.688 83.5251 107.504 83.535L104.82 84.0185C105.583 84.8442 106.329 85.6325 107.052 86.4459C107.238 86.652 107.374 86.8983 107.449 87.1655C107.515 87.434 107.489 87.7168 107.375 87.9687C107.261 88.2205 107.066 88.427 106.821 88.555C106.581 88.6887 106.304 88.7416 106.031 88.7059C105.758 88.6703 105.504 88.548 105.305 88.3571C104.888 87.9388 104.517 87.4729 104.097 87.0526C103.668 86.5987 103.208 86.1747 102.722 85.7835C102.288 85.4648 101.794 85.2393 101.269 85.1213C100.745 85.0033 100.202 84.9954 99.6737 85.0979C99.1459 85.2005 98.6451 85.4114 98.2029 85.7172C97.7606 86.0231 97.3866 86.4174 97.1043 86.8751C96.5403 87.8198 96.2354 88.8967 96.2203 89.9969C96.1428 92.5535 96.1448 95.1155 96.1149 97.6762C96.1149 97.8476 96.1149 98.0163 96.1149 98.2285C95.2486 98.1237 94.4197 98.0244 93.5147 97.9183V97.4939C93.5147 91.1388 93.5147 84.7823 93.5147 78.4245C93.4871 78.2374 93.5003 78.0465 93.5531 77.8649C93.606 77.6832 93.6975 77.5151 93.8212 77.372C93.9449 77.2289 94.098 77.1142 94.27 77.0357C94.4421 76.9571 94.629 76.9166 94.8181 76.9168C95.0073 76.9171 95.1941 76.9581 95.366 77.0371C95.5378 77.1161 95.6906 77.2312 95.8139 77.3746C95.9372 77.5181 96.0282 77.6864 96.0806 77.8681C96.133 78.0499 96.1456 78.2408 96.1176 78.4279V83.9009C96.1686 83.9165 96.2074 83.9424 96.2203 83.9308C97.1801 83.2579 98.2574 82.7707 99.3965 82.4944C100.258 82.2787 101.001 81.7362 101.47 80.9818C102.092 79.9446 102.601 78.838 103.149 77.7573C103.274 77.507 103.346 77.2289 103.461 76.9738C103.596 76.6624 103.848 76.4165 104.162 76.2892C104.477 76.162 104.829 76.1636 105.142 76.2937C105.297 76.3513 105.438 76.4389 105.558 76.5515C105.678 76.664 105.775 76.7993 105.843 76.9495C105.911 77.0997 105.948 77.2618 105.953 77.4265C105.957 77.5912 105.929 77.7552 105.871 77.909C105.458 78.9523 104.987 79.9711 104.54 81.0029C104.487 81.1253 104.426 81.245 104.329 81.4463L104.332 81.4443Z" fill="#B52A4E"/>
<defs>
<filter id="filter0_d" x="0" y="0" width="384" height="184" filterUnits="userSpaceOnUse" color-interpolation-filters="sRGB">
<feFlood flood-opacity="0" result="BackgroundImageFix"/>
<feColorMatrix in="SourceAlpha" type="matrix" values="0 0 0 0 0 0 0 0 0 0 0 0 0 0 0 0 0 0 127 0"/>
<feMorphology radius="2" operator="dilate" in="SourceAlpha" result="effect1_dropShadow"/>
<feOffset/>
<feGaussianBlur stdDeviation="5"/>
<feColorMatrix type="matrix" values="0 0 0 0 0.0117647 0 0 0 0 0.305882 0 0 0 0 0.635294 0 0 0 0.2 0"/>
<feBlend mode="normal" in2="BackgroundImageFix" result="effect1_dropShadow"/>
<feBlend mode="normal" in="SourceGraphic" in2="effect1_dropShadow" result="shape"/>
</filter>
</defs>
</svg>
