<svg width="100" height="103" viewBox="0 0 100 103" fill="none" xmlns="http://www.w3.org/2000/svg">
<g filter="url(#filter0_d)">
<rect x="24" y="20.001" width="52" height="55" rx="26" fill="#B52A4E"/>
<g clip-path="url(#clip0)">
<path d="M50.9568 37.3807C50.6202 37.3807 50.3481 37.11 50.3481 36.7765C50.3481 35.9126 49.6396 35.2093 48.7698 35.2093C47.8999 35.2093 47.1914 35.9126 47.1914 36.7765C47.1914 37.11 46.9187 37.3807 46.5827 37.3807C46.2467 37.3807 45.974 37.11 45.974 36.7765C45.974 35.2462 47.2279 34.001 48.7698 34.001C50.3116 34.001 51.5655 35.2462 51.5655 36.7765C51.5655 37.11 51.2934 37.3807 50.9568 37.3807Z" fill="white"/>
<path d="M58.3282 60.6852H58.0208C57.8309 60.6852 57.6526 60.597 57.5369 60.4478L56.9781 59.7216H48.7656C48.6487 59.7216 48.5337 59.6877 48.4351 59.6249L41.7881 55.3613C41.765 55.3468 41.7425 55.3299 41.7218 55.3118C41.2312 54.8937 40.9134 54.1397 41.3754 53.4721C41.6566 53.0661 42.0852 52.8425 42.5819 52.8425C43.0469 52.8425 43.4231 53.0347 43.4943 53.0739C45.0477 53.8001 47.8708 55.006 48.6925 55.0767C49.1625 55.116 50.1206 55.1674 51.0476 55.1583C50.5144 55.0079 49.9319 54.858 49.3895 54.7318C49.367 54.7263 49.3451 54.7197 49.3232 54.7124C48.5806 54.4484 48.4046 53.8575 48.4789 53.4316C48.583 52.8377 49.1527 52.3538 49.7492 52.3538C50.6032 52.3538 51.7567 52.3538 54.0892 52.3713C55.432 52.3822 59.7556 53.492 59.7556 54.3977C59.7556 54.426 59.7538 54.4551 59.7495 54.4834L58.9314 60.1668C58.8882 60.4641 58.6313 60.6852 58.3282 60.6852ZM48.9452 58.5132H57.2788C57.4687 58.5132 57.6471 58.6014 57.7627 58.7507L57.882 58.9065L58.4792 54.7553C57.6562 54.3898 55.684 53.5923 54.0789 53.5802C51.7512 53.5627 50.6002 53.5627 49.7486 53.5627C49.7456 53.5639 49.7401 53.5675 49.7346 53.5724C53.5311 54.4605 53.7758 54.9215 53.8932 55.1444C54.0071 55.3595 53.9992 55.6102 53.8744 55.815C53.6766 56.1389 53.3552 56.3678 51.008 56.3678C50.0378 56.3678 49.0931 56.3249 48.5885 56.2814C47.2792 56.1691 43.3811 54.3566 42.941 54.1506C42.8679 54.1131 42.7194 54.0521 42.5825 54.0521C42.4851 54.0521 42.4339 54.0787 42.3792 54.1578C42.3706 54.2061 42.4291 54.307 42.4972 54.3783L48.9452 58.5132Z" fill="white"/>
<path d="M63.2057 63.001C63.1594 63.001 63.1126 62.9956 63.0663 62.9853L58.1492 61.8362C57.8431 61.7643 57.6422 61.4719 57.686 61.1631L58.75 53.7361C58.7732 53.5754 58.8602 53.431 58.9917 53.3349C59.1232 53.2389 59.2887 53.1984 59.4494 53.2244L63.3025 53.8406C63.5971 53.8878 63.8144 54.1403 63.8144 54.4369V62.3968C63.8144 62.5817 63.7292 62.7563 63.5837 62.8705C63.4753 62.9557 63.3414 63.001 63.2057 63.001ZM58.9698 60.7861L62.597 61.6338V54.9511L59.8682 54.5149L58.9698 60.7861Z" fill="white"/>
<path d="M57.1643 51.5617H40.3765C40.0405 51.5617 39.7678 51.2917 39.7678 50.9576V50.8525H38.7799C38.4439 50.8525 38.1712 50.5824 38.1712 50.2483V49.6997H36.7937C36.4577 49.6997 36.185 49.4296 36.185 49.0955V47.0208C36.185 46.6873 36.4577 46.4167 36.7937 46.4167H60.7471C61.0837 46.4167 61.3558 46.6873 61.3558 47.0208V49.0961C61.3558 49.4302 61.0837 49.7003 60.7471 49.7003H59.369V50.2489C59.369 50.583 59.0969 50.8531 58.7603 50.8531H57.773V50.9582C57.773 51.2917 57.5003 51.5617 57.1643 51.5617ZM40.9852 50.3534H56.5556V50.2483C56.5556 49.9142 56.8277 49.6441 57.1643 49.6441H58.1522V49.0955C58.1522 48.762 58.4243 48.4914 58.7609 48.4914H60.139V47.625H37.4024V48.492H38.7799C39.1159 48.492 39.3886 48.7626 39.3886 49.0961V49.6447H40.3765C40.7125 49.6447 40.9852 49.9148 40.9852 50.2489V50.3534Z" fill="white"/>
<path d="M38.4408 47.6249C38.1042 47.6249 37.8321 47.3542 37.8321 47.0207C37.8364 41.0388 42.7431 36.1723 48.7698 36.1723C54.7971 36.1723 59.7031 41.0388 59.7068 47.0207C59.7068 47.3542 59.4347 47.6249 59.0987 47.6249C59.0981 47.6249 59.0981 47.6249 59.0981 47.6249C58.7621 47.6249 58.4894 47.3548 58.4894 47.0207C58.4858 41.7052 54.1257 37.38 48.7698 37.38C43.4138 37.38 39.0531 41.7052 39.0495 47.0207C39.0489 47.3548 38.7768 47.6249 38.4408 47.6249Z" fill="white"/>
</g>
</g>
<defs>
<filter id="filter0_d" x="0" y="0.000976562" width="100" height="103" filterUnits="userSpaceOnUse" color-interpolation-filters="sRGB">
<feFlood flood-opacity="0" result="BackgroundImageFix"/>
<feColorMatrix in="SourceAlpha" type="matrix" values="0 0 0 0 0 0 0 0 0 0 0 0 0 0 0 0 0 0 127 0"/>
<feOffset dy="4"/>
<feGaussianBlur stdDeviation="12"/>
<feColorMatrix type="matrix" values="0 0 0 0 0 0 0 0 0 0 0 0 0 0 0 0 0 0 0.1 0"/>
<feBlend mode="normal" in2="BackgroundImageFix" result="effect1_dropShadow"/>
<feBlend mode="normal" in="SourceGraphic" in2="effect1_dropShadow" result="shape"/>
</filter>
<clipPath id="clip0">
<rect width="28" height="29" fill="white" transform="translate(36 34.001)"/>
</clipPath>
</defs>
</svg>
