<svg width="25" height="18" viewBox="0 0 25 18" fill="none" xmlns="http://www.w3.org/2000/svg">
<path d="M24.4781 3.12207C24.3329 2.61693 24.0561 2.15683 23.6745 1.78633C23.2929 1.41582 22.8195 1.14747 22.3001 1.00725C20.3503 0.500024 12.5119 0.500024 12.5119 0.500024C12.5119 0.500024 4.68841 0.487857 2.71827 1.00725C2.19967 1.14808 1.72718 1.41672 1.34646 1.78719C0.965746 2.15766 0.68968 2.61743 0.544947 3.12207C0.174677 5.06444 -0.00768704 7.03631 0.000248188 9.0118C-0.00336472 10.9778 0.178971 12.9399 0.544947 14.8734C0.690148 15.3783 0.966296 15.8384 1.34688 16.2096C1.72747 16.5807 2.19971 16.8504 2.71827 16.9928C4.66809 17.5 12.5119 17.5 12.5119 17.5C12.5119 17.5 20.3307 17.5 22.3001 16.9928C22.8195 16.851 23.2927 16.5816 23.6741 16.2104C24.0555 15.8392 24.3324 15.3788 24.4781 14.8734C24.8368 12.9411 25.0119 10.9761 24.9994 9.0118C25.0119 7.03462 24.8407 5.06656 24.4781 3.12207ZM10.008 12.6521V5.35553L16.5327 9.0118L10.008 12.6521Z" fill="#F4F7FD"/>
</svg>
